<?xml version="1.0" encoding="UTF-8" standalone="no"?>
<!-- Created with Inkscape (http://www.inkscape.org/) -->

<svg
   width="1200"
   height="900"
   viewBox="0 0 317.5 238.12501"
   version="1.1"
   id="svg5"
   sodipodi:docname="screenshot.svg"
   inkscape:version="1.1 (c68e22c387, 2021-05-23)"
   xmlns:inkscape="http://www.inkscape.org/namespaces/inkscape"
   xmlns:sodipodi="http://sodipodi.sourceforge.net/DTD/sodipodi-0.dtd"
   xmlns="http://www.w3.org/2000/svg"
   xmlns:svg="http://www.w3.org/2000/svg">
  <sodipodi:namedview
     id="namedview21"
     pagecolor="#ffffff"
     bordercolor="#666666"
     borderopacity="1.0"
     inkscape:pageshadow="2"
     inkscape:pageopacity="0.0"
     inkscape:pagecheckerboard="0"
     showgrid="false"
     inkscape:zoom="0.59161267"
     inkscape:cx="449.6185"
     inkscape:cy="475.81807"
     inkscape:window-width="1920"
     inkscape:window-height="1017"
     inkscape:window-x="1912"
     inkscape:window-y="-8"
     inkscape:window-maximized="1"
     inkscape:current-layer="svg5"
     borderlayer="true" />
  <defs
     id="defs2" />
  <rect
     style="fill:#ffffff;stroke-width:2.64583;stroke-linecap:round;opacity:1"
     id="rect857"
     width="317.5"
     height="238.125"
     x="3.3333333e-06"
     y="2.4999999e-06" />
  <g
     id="g1086"
     transform="translate(4.8197533,-0.007914)">
    <path
       d="M 35.439511,112.0486 H 30.44135 v 6.0915 h 4.998161 c 1.855039,0 3.245052,-1.19223 3.245052,-3.04575 0,-1.82056 -1.390013,-3.04575 -3.245052,-3.04575 m -9.699149,-4.0387 h 10.328483 c 4.800384,0 7.416101,3.24455 7.416101,7.11741 0,3.83991 -2.648679,7.05149 -7.416101,7.05149 H 30.44135 v 7.91206 h -4.700988 z"
       style="fill:#192847;fill-opacity:1;fill-rule:nonzero;stroke:none;stroke-width:0.352777"
       id="path68-1" />
    <path
       d="M 64.840927,120.82175 H 54.413049 v 9.26911 h -4.701497 v -22.08095 h 4.701497 v 8.67375 h 10.427878 v -8.67375 h 4.734466 v 22.08095 h -4.734466 z"
       style="fill:#192847;fill-opacity:1;fill-rule:nonzero;stroke:none;stroke-width:0.352777"
       id="path72-9" />
    <path
       d="m 83.38271,121.05356 -8.507924,-13.0436 h 5.363289 l 5.495123,8.87204 5.42871,-8.87204 H 96.5257 l -8.442001,13.0436 v 9.03735 H 83.38271 Z"
       style="fill:#192847;fill-opacity:1;fill-rule:nonzero;stroke:none;stroke-width:0.352777"
       id="path76-2" />
    <path
       d="m 102.28778,123.40364 c 1.55686,1.62177 3.97327,2.97983 7.01852,2.97983 2.58225,0 3.83991,-1.2252 3.83991,-2.48285 0,-1.65574 -1.91996,-2.21814 -4.46924,-2.81451 -3.60816,-0.82762 -8.24322,-1.82056 -8.24322,-6.7533 0,-3.67458 3.17913,-6.6539 8.37557,-6.6539 3.51028,0 6.42266,1.05937 8.60783,3.07872 l -2.6147,3.44282 c -1.78861,-1.65472 -4.17105,-2.41692 -6.32326,-2.41692 -2.11874,0 -3.24455,0.92701 -3.24455,2.2516 0,1.48992 1.85352,1.95292 4.40281,2.54929 3.64163,0.82711 8.27617,1.91995 8.27617,6.81922 0,4.03869 -2.88043,7.08496 -8.83908,7.08496 -4.23748,0 -7.28273,-1.4245 -9.367994,-3.50977 z"
       style="fill:#192847;fill-opacity:1;fill-rule:nonzero;stroke:none;stroke-width:0.352777"
       id="path80-3" />
    <path
       d="m 124.40581,108.00965 h 4.70099 v 22.08096 h -4.70099 z"
       style="fill:#192847;fill-opacity:1;fill-rule:nonzero;stroke:none;stroke-width:0.352776"
       id="path82-2" />
    <path
       d="m 147.24902,111.8168 c -4.07165,0 -6.68737,3.11167 -6.68737,7.24976 0,4.10563 2.61572,7.25078 6.68737,7.25078 4.07165,0 6.72033,-3.14515 6.72033,-7.25078 0,-4.13809 -2.64868,-7.24976 -6.72033,-7.24976 m 0,-4.17105 c 6.68737,0 11.55419,4.76742 11.55419,11.42081 0,6.65441 -4.86682,11.42183 -11.55419,11.42183 -6.65441,0 -11.52123,-4.76742 -11.52123,-11.42183 0,-6.65339 4.86682,-11.42081 11.52123,-11.42081"
       style="fill:#192847;fill-opacity:1;fill-rule:nonzero;stroke:none;stroke-width:0.352777"
       id="path86-0" />
    <path
       d="m 207.25772,110.09548 c -4.96621,0 -8.11086,3.80694 -8.11086,8.97143 0,5.13154 3.14465,8.97144 8.11086,8.97144 4.93325,0 8.11086,-3.8399 8.11086,-8.97144 0,-5.16449 -3.17761,-8.97143 -8.11086,-8.97143"
       style="fill:#ea1a2d;fill-opacity:1;fill-rule:nonzero;stroke:none;stroke-width:0.352777"
       id="path90" />
    <path
       d="m 278.72857,130.09107 -7.05199,-9.40198 -7.05148,9.40198 h -3.34344 l 8.60783,-11.32193 -8.11085,-10.75903 h 3.34343 l 6.55451,8.83857 6.52205,-8.83857 h 3.34293 l -8.07739,10.72606 8.57436,11.3549 z m -24.52932,0 h -2.74707 v -22.08096 h 2.74707 z M 243.71,126.71467 c -2.05231,2.28457 -5.0651,3.80694 -8.67324,3.80694 -6.2903,0 -11.3554,-4.60159 -11.3554,-11.45479 0,-6.8527 5.0651,-11.42133 11.3554,-11.42133 3.90632,0 6.62093,1.72167 8.57385,4.13809 l -2.18467,1.35755 c -1.39103,-1.78759 -3.74051,-3.04575 -6.38918,-3.04575 -4.83386,0 -8.50794,3.70754 -8.50794,8.97144 0,5.23042 3.67408,9.0049 8.50794,9.0049 2.64867,0 4.83334,-1.29062 5.92567,-2.38396 v -4.5022 h -7.58091 v -2.44939 H 243.71 Z m -36.45218,3.77398 c -6.55502,0 -10.95783,-4.90029 -10.95783,-11.42183 0,-6.52155 4.40281,-11.42133 10.95783,-11.42133 6.52154,0 10.95782,4.89978 10.95782,11.42133 0,6.52154 -4.43628,11.42183 -10.95782,11.42183 m -16.634,-0.39758 h -13.01063 v -22.08096 h 2.74705 v 19.63107 h 10.26358 z m -24.79049,4.62796 H 291.91062 V 103.42119 H 165.83333 Z"
       style="fill:#ea1a2d;fill-opacity:1;fill-rule:nonzero;stroke:none;stroke-width:0.352777"
       id="path94" />
    <path
       d="M 291.9101,102.04695 H 15.94988 V 99.003733 H 291.9101 Z"
       style="fill:#192847;fill-opacity:1;fill-rule:nonzero;stroke:none;stroke-width:0.352776"
       id="path96-7" />
    <path
       d="M 291.9101,139.1371 H 15.94988 v -3.04424 H 291.9101 Z"
       style="fill:#192847;fill-opacity:1;fill-rule:nonzero;stroke:none;stroke-width:0.352776"
       id="path98-5" />
  </g>
  <path
     d="m 302.22103,101.89826 h 0.33521 c 0.38947,0 0.70337,-0.12829 0.70337,-0.44373 0,-0.2779 -0.20234,-0.4635 -0.64912,-0.4635 -0.18408,0 -0.3139,0.0183 -0.38946,0.036 z m -0.0182,1.72573 h -0.70337 v -3.04069 c 0.27789,-0.0558 0.66736,-0.0933 1.1684,-0.0933 0.57355,0 0.83319,0.0933 1.05683,0.22161 0.16582,0.12982 0.29566,0.37171 0.29566,0.66889 0,0.33368 -0.25966,0.59333 -0.63087,0.70337 v 0.038 c 0.29616,0.11156 0.46504,0.33368 0.5558,0.7409 0.0933,0.4635 0.14757,0.64911 0.22314,0.76118 h -0.76068 c -0.0908,-0.11207 -0.14808,-0.38947 -0.24139,-0.74293 -0.0548,-0.33368 -0.23885,-0.48176 -0.62831,-0.48176 h -0.33521 z m -1.87177,-1.5959 c 0,1.354 1.00257,2.42909 2.37331,2.42909 1.33423,0 2.31855,-1.07509 2.31855,-2.40932 0,-1.354 -0.98432,-2.447351 -2.33681,-2.447351 -1.35248,0 -2.35505,1.093351 -2.35505,2.427581 m 5.46775,0 c 0,1.72572 -1.35249,3.07821 -3.1127,3.07821 -1.74195,0 -3.13399,-1.35249 -3.13399,-3.07821 0,-1.68617 1.39204,-3.040181 3.13399,-3.040181 1.76021,0 3.1127,1.354011 3.1127,3.040181"
     style="fill:#192847;fill-opacity:1;fill-rule:nonzero;stroke:none;stroke-width:0.352777"
     id="path102-9" />
</svg>
