<?xml version="1.0" encoding="UTF-8" standalone="no"?>
<svg
   viewBox="0 0 303.27924 283.84888"
   version="1.1"
   id="svg89"
   width="303.27924"
   height="283.84888"
   xmlns="http://www.w3.org/2000/svg"
   xmlns:svg="http://www.w3.org/2000/svg"
   xmlns:rdf="http://www.w3.org/1999/02/22-rdf-syntax-ns#"
   xmlns:cc="http://creativecommons.org/ns#"
   xmlns:dc="http://purl.org/dc/elements/1.1/">
  <title
     id="title1033">Ankle Pain</title>
  <defs
     id="defs19">
    <style
       id="style2">.cls-1{fill:#13294b;}.cls-2{fill:url(#radial-gradient-6);}.cls-3{fill:url(#radial-gradient-5);}.cls-4{fill:url(#radial-gradient-3);}.cls-5{fill:url(#radial-gradient-4);}.cls-6{fill:url(#radial-gradient-9);}.cls-7{fill:url(#radial-gradient-8);}.cls-8{fill:url(#radial-gradient-7);}.cls-9{fill:url(#radial-gradient-2);}.cls-10{fill:url(#radial-gradient);}</style>
  </defs>
  <path
     class="cls-1"
     d="m 160.22872,0.04 c -6.81,11.26 -13.56,24.02 -22,35.11 -1.09,1.36 -2.21,2.7 -3.31,4.04 -1.13,1.3 -2.28,2.55 -3.4,3.8 -1.16,1.22 -2.31,2.42 -3.44,3.61 -1.16,1.16 -2.29,2.33 -3.43,3.43 -4.56,4.46 -8.99,8.42 -12.88,11.97 -1.98,1.82 -4.06,3.72 -6.11,5.78 -1.05,1.01 -2.03,2.1 -3.05,3.19 -0.48,0.57 -0.96,1.14 -1.45,1.71 -0.49,0.57 -0.91,1.19 -1.370001,1.79 -0.48,0.59 -0.85,1.25 -1.27,1.88 -0.44,0.63 -0.77,1.31 -1.12,1.98 -0.36,0.65 -0.7,1.4 -1.04,2.14 -0.35,0.74 -0.7,1.48 -1.05,2.22 -0.7,1.48 -1.44,2.99 -2.07,4.43 -0.14,0.35 -0.28,0.7 -0.37,1.01 -0.05,0.16 -0.06,0.29 -0.09,0.43 0,0.13 -0.03,0.26 -0.01,0.41 0.02,0.59 0.21,1.48 0.33,2.32 0.27,1.68 0.42,3.53 0.34,5.27 -0.06,1.75 -0.25,3.43 -0.31,5.06 -0.07,1.62 0.03,3.18 0.4,4.68 0.09,0.38 0.19,0.75 0.32,1.11 l 0.19,0.55 0.23,0.53 c 0.15,0.36 0.3,0.71 0.5,1.05 l 0.57,1.09 c 0.44,0.8 0.8,1.66 1.05,2.56 0.1,0.46 0.24,0.91 0.27,1.37 l 0.08,0.69 0.02,0.68 c 0.02,1.82 -0.3,3.42 -0.3,4.92 -0.02,1.5 0.25,2.94 0.78,4.31 0.14,0.34 0.26,0.69 0.43,1.02 0.17,0.33 0.34,0.66 0.51,0.99 0.16,0.33 0.38,0.64 0.57,0.96 l 0.47,0.75 0.31,0.19 c 0.18,0.12 0.36,0.24 0.530001,0.37 0.34,0.27 0.68,0.58 0.97,1 0.29,0.4 0.54,1.06 0.48,1.64 0,0.15 -0.04,0.3 -0.08,0.44 -0.04,0.15 -0.08,0.29 -0.16,0.41 -0.06,0.12 -0.14,0.27 -0.21,0.37 l -0.15,0.22 c -0.81,1.18 -1.620001,2.35 -2.400001,3.49 -0.79,1.14 -1.56,2.26 -2.31,3.35 -0.76,1.1 -1.5,2.12 -2.11,3.17 -1.25,2.07 -1.98,4.3 -1.35,6.19 0.61,1.89 2.27,3.2 3.81,4.07 1.59,0.86 3.2,1.31 4.630001,1.54 1.43,0.21 2.7,0.25 3.72,0.17 1.03,-0.06 1.82,-0.16 2.36,-0.26 0.54,-0.08 0.83,-0.1 0.84,-0.05 0.01,0.05 -0.25,0.16 -0.78,0.34 -0.52,0.19 -1.32,0.38 -2.37,0.54 -1.05,0.17 -2.36,0.23 -3.89,0.1 -1.520001,-0.15 -3.260001,-0.54 -5.030001,-1.39 -0.88,-0.45 -1.76,-1 -2.58,-1.74 -0.82,-0.73 -1.57,-1.7 -1.99,-2.88 -0.43,-1.17 -0.47,-2.54 -0.19,-3.8 0.27,-1.27 0.81,-2.47 1.44,-3.61 0.62,-1.15 1.38,-2.25 2.09,-3.35 0.72,-1.11 1.46,-2.24 2.22,-3.4 0.76,-1.16 1.53,-2.34 2.31,-3.54 l 0.15,-0.22 c 0,0 0.04,-0.07 0.05,-0.1 0.03,-0.06 0.05,-0.12 0.04,-0.18 0,-0.13 -0.02,-0.2 -0.15,-0.39 -0.13,-0.18 -0.34,-0.37 -0.57,-0.55 -0.12,-0.09 -0.25,-0.17 -0.38,-0.25 l -0.1,-0.06 -0.14,-0.08 -0.42,-0.21 c -0.26,-0.4 -0.53,-0.8 -0.79,-1.2 -0.22,-0.34 -0.46,-0.67 -0.65,-1.04 -0.2,-0.36 -0.4,-0.73 -0.6,-1.09 -0.19,-0.37 -0.34,-0.77 -0.51,-1.16 -0.65,-1.57 -1.02,-3.34 -1.02,-5.08 -0.03,-1.75 0.26,-3.39 0.21,-4.88 -0.03,-1.49 -0.43,-2.88 -1.2,-4.2 -0.16,-0.31 -0.4,-0.74 -0.61,-1.12 -0.23,-0.38 -0.41,-0.79 -0.6,-1.21 l -0.27,-0.62 -0.23,-0.64 c -0.16,-0.42 -0.29,-0.86 -0.4,-1.3 -0.46,-1.76 -0.6,-3.61 -0.54,-5.36 0.04,-1.75 0.21,-3.43 0.24,-5.06 0.05,-1.64 -0.09,-3.15 -0.37,-4.78 -0.12,-0.82 -0.32,-1.57 -0.39,-2.65 -0.02,-0.26 0,-0.56 0.03,-0.84 0.04,-0.27 0.09,-0.55 0.16,-0.8 0.14,-0.5 0.3,-0.92 0.47,-1.34 0.68,-1.61 1.39,-3.07 2.08,-4.56 0.34,-0.74 0.68,-1.48 1.02,-2.22 0.33,-0.73 0.66,-1.46 1.07,-2.23 0.39,-0.75 0.76,-1.51 1.22,-2.2 0.45,-0.7 0.86,-1.42 1.36,-2.06 0.49,-0.65 0.95,-1.32 1.46,-1.93 0.51,-0.61 1.02,-1.22 1.520001,-1.82 1.06,-1.14 2.08,-2.29 3.15,-3.33 2.1,-2.13 4.2,-4.06 6.19,-5.88 3.9,-3.56 8.32,-7.48 12.85,-11.86 1.14,-1.09 2.26,-2.23 3.41,-3.37 1.13,-1.16 2.27,-2.34 3.42,-3.53 1.11,-1.23 2.27,-2.45 3.38,-3.71 1.08,-1.29 2.16,-2.59 3.25,-3.89 8.42,-10.81 17.09,-22.38 24.1,-33.46"
     id="path44" />
  <path
     class="cls-1"
     d="m 110.16872,148.06 c -0.02,-0.15 0.72,-0.46 1.92,-0.86 0.59,-0.26 1.3,-0.54 2.08,-0.87 0.76,-0.39 1.63,-0.74 2.5,-1.21 3.54,-1.81 7.63,-4.42 10.5,-6.34 1.44,-0.96 3.24,-2.14 5.12,-3.42 0.94,-0.64 1.91,-1.29 2.86,-1.93 0.97,-0.64 1.89,-1.27 2.9,-1.86 l 0.39,-0.22 0.35,-0.17 c 0.23,-0.11 0.46,-0.23 0.68,-0.34 0.45,-0.23 0.87,-0.46 1.29,-0.68 0.81,-0.44 1.55,-0.84 2.17,-1.18 1.24,-0.67 2.03,-1.04 2.12,-0.92 0.08,0.12 -0.55,0.74 -1.65,1.63 -0.55,0.44 -1.23,0.96 -2,1.5 -0.39,0.27 -0.8,0.55 -1.23,0.84 -0.22,0.14 -0.44,0.28 -0.68,0.42 l -0.35,0.21 -0.3,0.2 c -0.82,0.58 -1.73,1.31 -2.64,2.01 -0.92,0.7 -1.85,1.41 -2.76,2.1 -1.83,1.38 -3.63,2.63 -5.09,3.6 -2.92,1.94 -7.24,4.41 -11.07,5.92 -0.94,0.4 -1.89,0.67 -2.72,0.95 -0.85,0.23 -1.63,0.4 -2.27,0.54 -1.33,0.17 -2.13,0.19 -2.15,0.04 z"
     id="path46" />
  <path
     class="cls-1"
     d="m 222.64872,3.77 c 0.07,0.07 -0.71,0.98 -2.19,2.56 -0.75,0.79 -1.66,1.75 -2.72,2.87 -0.53,0.56 -1.1,1.15 -1.71,1.78 -0.59,0.65 -1.22,1.33 -1.87,2.05 -1.31,1.44 -2.77,2.99 -4.31,4.7 -1.51,1.73 -3.12,3.59 -4.82,5.54 -1.64,2.01 -3.36,4.12 -5.16,6.31 -0.86,1.13 -1.73,2.27 -2.62,3.44 -0.44,0.58 -0.89,1.17 -1.34,1.76 -0.45,0.6 -0.87,1.22 -1.31,1.83 -0.87,1.23 -1.75,2.48 -2.65,3.74 -0.84,1.3 -1.69,2.6 -2.55,3.92 -0.89,1.3 -1.65,2.7 -2.48,4.06 -0.4,0.69 -0.83,1.37 -1.22,2.07 -0.38,0.71 -0.76,1.41 -1.14,2.12 -3.04,5.68 -5.69,11.69 -7.41,17.85 -0.2,0.77 -0.4,1.54 -0.61,2.31 -0.19,0.77 -0.33,1.55 -0.5,2.32 -0.18,0.77 -0.29,1.55 -0.41,2.32 -0.13,0.76 -0.24,1.55 -0.35,2.35 -0.44,3.17 -0.94,6.27 -1.47,9.29 -1.06,6.03 -2.24,11.71 -3.47,16.84 -0.52,2.2 -1.12,4.5 -1.8,6.89 -0.68,2.39 -1.45,4.89 -2.49,7.41 -2.06,5.02 -4.99,10.03 -8.79,14.59 -0.94,1.13 -2.01,2.26 -3.05,3.28 -1.02,1.02 -2.04,2.07 -3.04,3.13 -2.01,2.13 -3.99,4.33 -5.92,6.58 -0.97,1.12 -1.91,2.26 -2.83,3.41 -0.46,0.57 -0.91,1.15 -1.36,1.73 l -1.35,1.79 c -1.9,2.42 -4.04,4.55 -6.24,6.54 -2.2,1.98 -4.47,3.82 -6.74,5.55 -1.14,0.86 -2.27,1.71 -3.4,2.52 -1.14,0.81 -2.35,1.65 -3.71,2.22 -0.34,0.14 -0.7,0.26 -1.05,0.38 -0.38,0.08 -0.73,0.21 -1.12,0.24 -0.76,0.13 -1.6,0.07 -2.37,-0.17 -0.78,-0.24 -1.47,-0.7 -2,-1.19 -0.27,-0.24 -0.51,-0.5 -0.72,-0.71 l -0.35,-0.34 c -0.12,-0.13 -0.25,-0.26 -0.37,-0.4 -0.96,-1.11 -1.47,-2.52 -1.62,-3.85 -0.16,-1.35 0,-2.64 0.26,-3.84 0.56,-2.4 1.54,-4.49 2.58,-6.36 1.05,-1.87 2.23,-3.51 3.42,-4.93 1.19,-1.42 2.4,-2.62 3.55,-3.62 0.58,-0.5 1.14,-0.95 1.68,-1.36 0.27,-0.2 0.54,-0.39 0.8,-0.57 0.26,-0.18 0.53,-0.35 0.71,-0.46 0.1,-0.14 0.2,-0.28 0.29,-0.41 0.11,-0.15 0.22,-0.29 0.33,-0.43 0.22,-0.28 0.42,-0.52 0.62,-0.76 0.39,-0.46 0.73,-0.84 1.01,-1.14 0.56,-0.6 0.89,-0.9 0.93,-0.86 0.04,0.04 -0.19,0.4 -0.67,1.08 -0.24,0.34 -0.53,0.75 -0.87,1.24 -0.17,0.25 -0.35,0.51 -0.54,0.79 -0.09,0.14 -0.19,0.29 -0.29,0.44 -0.1,0.17 -0.21,0.35 -0.32,0.54 -0.31,0.21 -0.53,0.38 -0.77,0.57 -0.24,0.19 -0.49,0.39 -0.74,0.6 -0.5,0.42 -1.02,0.89 -1.56,1.41 -1.07,1.03 -2.18,2.25 -3.28,3.66 -1.09,1.42 -2.17,3.04 -3.11,4.86 -0.94,1.82 -1.81,3.86 -2.25,6.03 -0.21,1.09 -0.3,2.21 -0.15,3.3 0.15,1.09 0.57,2.11 1.3,2.92 0.09,0.1 0.19,0.2 0.29,0.3 l 0.34,0.32 c 0.25,0.24 0.46,0.45 0.67,0.63 0.43,0.37 0.86,0.63 1.35,0.77 0.96,0.28 2.12,0.05 3.23,-0.47 1.14,-0.5 2.19,-1.26 3.29,-2.07 1.1,-0.83 2.21,-1.68 3.31,-2.56 2.2,-1.75 4.39,-3.59 6.5,-5.56 2.1,-1.97 4.13,-4.06 5.86,-6.34 l 1.31,-1.79 c 0.45,-0.6 0.91,-1.21 1.37,-1.8 0.93,-1.19 1.87,-2.36 2.84,-3.51 1.93,-2.31 3.91,-4.55 5.92,-6.74 1.01,-1.09 2.03,-2.17 3.07,-3.23 1.04,-1.03 1.96,-2.04 2.86,-3.13 3.56,-4.34 6.32,-9.16 8.25,-13.91 0.96,-2.37 1.7,-4.78 2.36,-7.13 0.66,-2.34 1.24,-4.61 1.76,-6.78 1.22,-5.06 2.4,-10.69 3.49,-16.66 0.54,-2.99 1.06,-6.06 1.52,-9.18 0.11,-0.78 0.23,-1.57 0.38,-2.39 0.14,-0.81 0.26,-1.63 0.45,-2.43 0.18,-0.8 0.34,-1.62 0.55,-2.42 0.22,-0.8 0.44,-1.6 0.66,-2.4 1.87,-6.38 4.68,-12.53 7.87,-18.27 0.4,-0.72 0.8,-1.43 1.2,-2.15 0.41,-0.71 0.85,-1.39 1.27,-2.09 0.87,-1.37 1.67,-2.78 2.59,-4.08 0.9,-1.32 1.79,-2.63 2.66,-3.93 0.93,-1.26 1.85,-2.5 2.76,-3.73 0.46,-0.61 0.9,-1.23 1.36,-1.82 0.47,-0.59 0.94,-1.17 1.4,-1.75 0.93,-1.16 1.84,-2.29 2.73,-3.41 1.86,-2.17 3.65,-4.25 5.37,-6.22 1.77,-1.91 3.46,-3.72 5.03,-5.42 1.6,-1.66 3.13,-3.16 4.51,-4.55 0.69,-0.69 1.35,-1.34 1.97,-1.96 0.63,-0.61 1.24,-1.17 1.81,-1.7 1.14,-1.04 2.12,-1.94 2.92,-2.67 1.61,-1.45 2.53,-2.22 2.6,-2.14 z"
     id="path48" />
  <path
     class="cls-1"
     d="m 112.60872,163.32 c 0.18,-0.04 0.39,1.22 1.37,2.73 0.48,0.76 1.16,1.55 2.04,2.23 0.43,0.35 0.91,0.66 1.41,0.95 0.25,0.14 0.51,0.27 0.78,0.39 l 0.4,0.17 c 0.09,0.04 0.07,0.02 0.08,0.03 h 0.03 c 0,0 0.02,-0.02 0.02,-0.02 v 0 c 0,0 0,-0.01 0.04,-0.04 l 0.33,-0.24 c 0.22,-0.16 0.43,-0.33 0.64,-0.49 0.41,-0.33 0.81,-0.68 1.18,-1.03 0.74,-0.69 1.36,-1.42 1.8,-2.09 0.34,-0.54 0.68,-1.2 0.73,-1.88 0.03,-0.34 0,-0.68 -0.12,-1.01 -0.13,-0.33 -0.33,-0.65 -0.59,-0.95 -0.27,-0.3 -0.62,-0.55 -0.96,-0.81 -0.16,-0.15 -0.37,-0.21 -0.55,-0.31 -0.19,-0.09 -0.37,-0.21 -0.58,-0.25 -0.79,-0.31 -1.66,-0.28 -2.48,-0.16 -0.82,0.12 -1.58,0.43 -2.26,0.75 -0.68,0.31 -1.25,0.68 -1.73,0.99 -0.95,0.64 -1.5,1.09 -1.58,1.02 -0.07,-0.07 0.35,-0.67 1.23,-1.47 0.45,-0.39 1,-0.85 1.69,-1.25 0.69,-0.41 1.49,-0.82 2.43,-1.04 0.93,-0.22 2.01,-0.31 3.03,0.01 1.03,0.3 1.95,0.85 2.72,1.6 0.37,0.39 0.7,0.85 0.91,1.37 0.21,0.52 0.28,1.09 0.25,1.61 -0.07,1.06 -0.52,1.89 -0.93,2.55 -0.53,0.82 -1.25,1.61 -2.07,2.34 -0.41,0.37 -0.85,0.72 -1.3,1.06 -0.23,0.17 -0.46,0.34 -0.7,0.5 l -0.36,0.24 -0.63,0.4 -0.41,-0.15 c -0.13,-0.05 -0.3,-0.12 -0.35,-0.14 l -0.45,-0.22 c -0.29,-0.15 -0.57,-0.32 -0.85,-0.49 -0.54,-0.35 -1.05,-0.74 -1.5,-1.16 -0.91,-0.83 -1.59,-1.78 -2.01,-2.66 -0.86,-1.77 -0.8,-3.11 -0.71,-3.11 z"
     id="path50" />
  <path
     class="cls-1"
     d="m 176.01872,120.28 c -0.04,-0.09 0.47,-0.42 1.45,-0.96 0.25,-0.13 0.52,-0.28 0.82,-0.44 0.31,-0.14 0.65,-0.29 1.01,-0.44 0.37,-0.16 0.76,-0.32 1.17,-0.5 0.42,-0.17 0.88,-0.31 1.35,-0.47 1.9,-0.66 4.27,-1.21 6.93,-1.55 2.66,-0.35 5.61,-0.49 8.68,-0.66 6.14,-0.29 12.83,-1.07 19.05,-3.03 1.56,-0.43 3.09,-1 4.61,-1.52 1.52,-0.5 3,-1.08 4.44,-1.61 2.9,-1.05 5.61,-2.15 8.1,-3.08 9.9,-3.85 24.67,-9.83 36.95,-14.85 6.14,-2.51 11.68,-4.75 15.69,-6.33 4.02,-1.58 6.52,-2.49 6.6,-2.3 0.08,0.18 -2.26,1.44 -6.14,3.34 -3.88,1.9 -9.29,4.43 -15.34,7.18 -12.09,5.51 -26.76,11.8 -36.71,15.67 -2.5,0.94 -5.23,2.03 -8.18,3.05 -1.47,0.52 -2.96,1.07 -4.52,1.56 -1.55,0.5 -3.11,1.04 -4.76,1.46 -6.49,1.9 -13.53,2.49 -19.71,2.51 -3.1,0.04 -5.99,0.03 -8.59,0.22 -2.6,0.18 -4.9,0.54 -6.79,1.02 -0.47,0.12 -0.93,0.21 -1.35,0.33 -0.42,0.13 -0.82,0.25 -1.19,0.36 -0.37,0.11 -0.72,0.21 -1.04,0.31 -0.31,0.11 -0.6,0.21 -0.86,0.3 -1.04,0.35 -1.63,0.51 -1.68,0.42 z"
     id="path52" />
  <path
     class="cls-1"
     d="m 186.27872,172.24 c 0.03,0.07 -0.61,0.42 -1.8,1 -1.19,0.58 -2.92,1.39 -5.01,2.5 -2.09,1.11 -4.53,2.54 -7.07,4.38 -2.52,1.92 -5.52,3.88 -8.76,5.7 -3.25,1.84 -6.75,3.61 -10.39,5.27 -3.67,1.56 -7.42,3.06 -11.1,4.57 -3.69,1.5 -7.32,2.97 -10.77,4.37 -0.43,0.17 -0.86,0.35 -1.29,0.52 l -0.64,0.26 -0.7,0.26 c -0.94,0.32 -1.9,0.52 -2.86,0.61 -1.91,0.15 -3.86,-0.14 -5.49,-1.09 -1.65,-0.9 -2.98,-2.64 -3.44,-4.65 -0.07,-0.25 -0.13,-0.51 -0.15,-0.78 -0.02,-0.27 -0.06,-0.54 -0.06,-0.81 0.02,-0.27 0.03,-0.54 0.05,-0.82 0.02,-0.27 0.1,-0.53 0.15,-0.8 0.26,-1.06 0.76,-2.04 1.38,-2.91 1.26,-1.72 2.93,-3.06 4.69,-4.19 0.2,-0.14 0.51,-0.29 0.77,-0.43 l 0.72,-0.33 c 0.48,-0.21 0.95,-0.42 1.44,-0.63 0.96,-0.4 1.92,-0.8 2.9,-1.2 3.89,-1.55 7.88,-3.14 11.81,-4.71 1.97,-0.78 3.92,-1.56 5.83,-2.35 1.89,-0.79 3.75,-1.64 5.55,-2.47 1.79,-0.84 3.53,-1.69 5.15,-2.58 0.81,-0.44 1.59,-0.9 2.31,-1.38 0.69,-0.49 1.46,-1 2.16,-1.48 2.86,-1.92 5.42,-3.64 7.58,-5.09 2.16,-1.44 3.91,-2.58 5.14,-3.35 1.22,-0.77 1.92,-1.17 1.96,-1.11 0.04,0.06 -0.57,0.58 -1.71,1.47 -1.14,0.89 -2.81,2.14 -4.89,3.68 -2.09,1.53 -4.58,3.35 -7.34,5.38 -0.7,0.51 -1.39,1 -2.15,1.57 -0.76,0.54 -1.56,1.04 -2.38,1.52 -1.64,0.95 -3.37,1.86 -5.17,2.76 -1.8,0.89 -3.63,1.78 -5.55,2.63 -1.91,0.84 -3.85,1.66 -5.81,2.48 -3.91,1.63 -7.86,3.28 -11.73,4.89 -0.96,0.41 -1.91,0.82 -2.85,1.22 -0.46,0.21 -0.93,0.42 -1.38,0.62 l -0.66,0.32 c -0.19,0.11 -0.34,0.17 -0.56,0.32 -1.63,1.06 -3.09,2.28 -4.09,3.68 -0.98,1.4 -1.42,2.95 -1.01,4.36 0.15,0.71 0.51,1.39 0.91,1.94 0.41,0.57 0.93,1 1.51,1.33 1.14,0.68 2.67,0.94 4.22,0.82 0.78,-0.07 1.57,-0.23 2.35,-0.49 l 0.58,-0.21 0.63,-0.25 c 0.43,-0.17 0.86,-0.34 1.29,-0.51 3.46,-1.36 7.1,-2.79 10.8,-4.25 3.7,-1.46 7.48,-2.9 11.15,-4.38 3.62,-1.57 7.13,-3.24 10.38,-4.97 3.26,-1.73 6.21,-3.51 8.81,-5.35 2.67,-1.78 5.22,-3.13 7.39,-4.14 2.17,-1.01 3.97,-1.7 5.22,-2.15 1.25,-0.44 1.94,-0.66 1.97,-0.59 z"
     id="path54" />
  <path
     class="cls-1"
     d="m 192.60872,182.37 c 0.04,0.14 -1.32,0.74 -3.4,1.99 -2.1,1.24 -4.86,3.15 -7.82,5.54 -1.51,1.18 -3.13,2.4 -4.86,3.55 -1.73,1.16 -3.62,2.2 -5.49,3.09 -3.72,1.74 -7.31,3.42 -10.3,4.82 -3,1.38 -6.76,3.06 -10.76,4.71 -2.01,0.82 -4.07,1.64 -6.16,2.37 -1.04,0.36 -2.11,0.7 -3.22,0.94 -1.11,0.23 -2.25,0.32 -3.37,0.22 -1.12,-0.1 -2.22,-0.45 -3.13,-1.03 -0.92,-0.57 -1.63,-1.34 -2.15,-2.13 -0.53,-0.79 -0.89,-1.6 -1.17,-2.37 -0.32,-0.86 -0.25,-1.74 -0.05,-2.43 0.2,-0.7 0.51,-1.26 0.81,-1.72 0.31,-0.46 0.6,-0.82 0.87,-1.1 0.53,-0.55 0.88,-0.78 0.93,-0.73 0.05,0.06 -0.19,0.38 -0.59,1 -0.2,0.31 -0.43,0.69 -0.65,1.15 -0.22,0.46 -0.44,0.99 -0.55,1.59 -0.11,0.6 -0.1,1.25 0.19,1.86 0.31,0.69 0.7,1.4 1.2,2.05 0.5,0.65 1.12,1.23 1.87,1.65 0.75,0.41 1.62,0.65 2.54,0.69 0.93,0.04 1.9,-0.07 2.88,-0.32 0.97,-0.25 1.97,-0.6 2.97,-1 2.01,-0.78 4.02,-1.65 5.99,-2.51 3.93,-1.74 7.65,-3.47 10.64,-4.85 1.5,-0.68 3.15,-1.44 4.89,-2.23 1.75,-0.78 3.59,-1.59 5.46,-2.43 1.85,-0.83 3.65,-1.74 5.37,-2.8 1.71,-1.05 3.36,-2.18 4.92,-3.27 3.1,-2.24 6.09,-4.02 8.34,-5.05 2.25,-1.05 3.75,-1.39 3.79,-1.24 z"
     id="path56" />
  <path
     class="cls-1"
     d="m 157.03872,201.86 c 0,0 -0.12,0.2 -0.38,0.52 -0.25,0.32 -0.63,0.79 -0.94,1.47 -0.3,0.67 -0.48,1.58 -0.1,2.52 0.17,0.46 0.5,0.95 0.86,1.38 0.38,0.42 0.87,0.78 1.45,1.01 1.16,0.48 2.66,0.43 4.14,-0.06 0.37,-0.12 0.73,-0.27 1.1,-0.45 0.39,-0.19 0.79,-0.37 1.2,-0.57 0.81,-0.39 1.64,-0.78 2.49,-1.19 3.41,-1.65 7.16,-3.5 11.02,-5.6 1.93,-1.05 3.89,-2.17 5.81,-3.39 1.99,-1.27 4.07,-2.43 6.14,-3.59 2.07,-1.15 4.12,-2.33 6.11,-3.6 1.99,-1.27 3.91,-2.63 5.78,-4.05 1.86,-1.43 3.65,-2.92 5.38,-4.42 1.7,-1.52 3.33,-3.04 4.82,-4.64 3.02,-3.16 5.63,-6.43 8.11,-9.37 2.47,-2.94 5.39,-6.23 8.94,-9.32 0.91,-0.75 1.81,-1.54 2.8,-2.25 0.49,-0.36 0.97,-0.74 1.47,-1.09 0.51,-0.34 1.02,-0.69 1.54,-1.04 0.5,-0.36 1.06,-0.66 1.62,-0.97 0.56,-0.31 1.12,-0.62 1.68,-0.93 1.14,-0.57 2.29,-1.07 3.45,-1.61 4.67,-2 9.51,-3.75 14.33,-5.36 2.41,-0.81 4.81,-1.57 7.18,-2.33 2.38,-0.72 4.71,-1.46 7,-2.13 9.15,-2.71 17.44,-4.93 23.45,-6.44 3.01,-0.75 5.44,-1.33 7.13,-1.69 1.69,-0.36 2.64,-0.51 2.66,-0.41 0.05,0.19 -3.58,1.35 -9.49,3.19 -5.91,1.84 -14.1,4.35 -23.15,7.31 -2.27,0.72 -4.57,1.52 -6.92,2.3 -2.34,0.81 -4.72,1.61 -7.09,2.47 -4.75,1.7 -9.52,3.52 -14.03,5.53 -1.1,0.54 -2.23,1.04 -3.29,1.59 -0.51,0.29 -1.02,0.59 -1.53,0.88 -0.51,0.29 -1.02,0.56 -1.5,0.92 -0.49,0.34 -0.97,0.67 -1.45,1 -0.48,0.33 -0.93,0.7 -1.39,1.05 -0.93,0.68 -1.78,1.44 -2.64,2.16 -3.36,2.97 -6.15,6.14 -8.59,9.05 -2.46,2.9 -5.12,6.21 -8.28,9.46 -1.56,1.64 -3.28,3.22 -5.06,4.77 -1.79,1.52 -3.65,3.02 -5.58,4.46 -1.94,1.43 -3.96,2.81 -6.03,4.08 -2.07,1.27 -4.21,2.44 -6.31,3.55 -2.1,1.11 -4.16,2.2 -6.11,3.38 -2.02,1.22 -4.05,2.3 -6.03,3.31 -3.98,2.01 -7.81,3.74 -11.3,5.26 -0.87,0.37 -1.73,0.74 -2.55,1.09 -0.41,0.17 -0.82,0.34 -1.22,0.51 -0.42,0.17 -0.86,0.34 -1.29,0.45 -1.73,0.47 -3.54,0.46 -4.99,-0.24 -0.72,-0.34 -1.32,-0.84 -1.76,-1.4 -0.42,-0.58 -0.73,-1.13 -0.91,-1.74 -0.17,-0.6 -0.21,-1.21 -0.11,-1.73 0.1,-0.52 0.29,-0.97 0.51,-1.33 0.44,-0.72 0.92,-1.15 1.25,-1.41 0.34,-0.26 0.55,-0.35 0.58,-0.31 z"
     id="path58" />
  <path
     class="cls-1"
     d="m 157.95872,202.9 c 0.11,0.05 -0.03,0.49 0.05,1.16 0.08,0.67 0.46,1.56 1.13,2.43 0.33,0.44 0.71,0.87 1.13,1.29 l 0.16,0.15 0.08,0.08 c 0,0 0.01,0.01 0.02,0.01 0.02,0 0.04,0.02 0.05,0.02 l 0.04,-0.04 0.37,-0.22 c 1.07,-0.62 2.06,-1.22 2.76,-1.8 0.71,-0.56 1.49,-1.42 1.21,-2.23 -0.11,-0.44 -0.43,-0.76 -0.93,-0.97 -0.5,-0.21 -1.11,-0.27 -1.69,-0.29 -1.17,-0.02 -2.27,0.17 -3.06,0.29 -0.79,0.13 -1.28,0.21 -1.32,0.12 -0.03,-0.09 0.4,-0.36 1.17,-0.66 0.77,-0.29 1.86,-0.65 3.17,-0.77 0.65,-0.05 1.37,-0.06 2.13,0.18 0.37,0.12 0.76,0.31 1.08,0.6 0.33,0.29 0.58,0.67 0.71,1.08 0.04,0.1 0.08,0.2 0.1,0.3 l 0.04,0.33 c 0.04,0.22 0.02,0.44 -0.02,0.65 -0.02,0.22 -0.09,0.41 -0.17,0.59 -0.06,0.2 -0.16,0.36 -0.26,0.51 -0.38,0.62 -0.84,1.06 -1.26,1.39 -0.83,0.69 -1.93,1.3 -3.04,1.86 l -0.45,0.23 c -0.26,0.15 -0.51,0.27 -0.77,0.41 -0.22,-0.14 -0.42,-0.38 -0.63,-0.57 l -0.14,-0.15 -0.08,-0.09 -0.16,-0.18 c -0.42,-0.49 -0.8,-1.01 -1.11,-1.54 -0.63,-1.04 -0.93,-2.18 -0.83,-2.99 0.1,-0.82 0.45,-1.2 0.51,-1.16 z"
     id="path60" />
  <path
     class="cls-1"
     d="m 135.12872,199.42 c 0.06,0.02 0.06,0.32 0,0.79 0,0.49 -0.04,1.17 0.16,1.97 0.17,0.8 0.51,1.7 1,2.6 0.25,0.45 0.53,0.9 0.85,1.35 0.15,0.22 0.32,0.44 0.49,0.65 0.08,0.1 0.19,0.23 0.24,0.3 l 0.04,0.03 0.05,-0.02 0.32,-0.1 c 0.25,-0.08 0.49,-0.16 0.73,-0.23 0.48,-0.16 0.96,-0.34 1.4,-0.53 0.9,-0.38 1.71,-0.8 2.34,-1.25 1,-0.69 2.09,-1.83 1.64,-3.23 -0.2,-0.71 -0.62,-1.37 -1.24,-1.81 -0.61,-0.45 -1.39,-0.7 -2.16,-0.82 -1.56,-0.23 -3.06,-0.05 -4.11,0.1 -1.06,0.15 -1.72,0.3 -1.75,0.2 -0.03,-0.09 0.57,-0.42 1.63,-0.75 1.05,-0.32 2.57,-0.69 4.35,-0.57 0.88,0.08 1.85,0.28 2.72,0.84 0.88,0.54 1.53,1.45 1.84,2.42 0.16,0.5 0.23,1.04 0.17,1.57 -0.07,0.53 -0.26,1.02 -0.5,1.44 -0.5,0.84 -1.16,1.38 -1.75,1.8 -0.76,0.53 -1.67,0.99 -2.65,1.36 -0.49,0.19 -1,0.36 -1.52,0.51 -0.26,0.08 -0.53,0.15 -0.79,0.21 l -0.45,0.11 -0.73,0.15 c -0.18,-0.21 -0.35,-0.4 -0.52,-0.62 -0.13,-0.16 -0.19,-0.25 -0.28,-0.38 -0.17,-0.25 -0.34,-0.49 -0.49,-0.74 -0.31,-0.5 -0.58,-1.01 -0.81,-1.53 -0.46,-1.02 -0.73,-2.05 -0.8,-2.95 -0.1,-0.9 0.06,-1.65 0.19,-2.15 0.19,-0.49 0.33,-0.74 0.39,-0.72 z"
     id="path62" />
  <path
     class="cls-1"
     d="m 122.17872,191.29 c 0.06,0.04 -0.03,0.35 -0.21,0.84 -0.08,0.25 -0.14,0.57 -0.22,0.91 -0.03,0.36 -0.1,0.75 -0.06,1.19 0.03,0.86 0.28,1.85 0.76,2.82 0.24,0.48 0.53,0.97 0.86,1.42 0.16,0.23 0.34,0.46 0.52,0.68 0.09,0.1 0.19,0.23 0.27,0.31 0.01,0 0.03,0.02 0.04,0.03 l 0.04,-0.02 c 0,0 0,0 0.01,0 l 0.08,-0.03 0.17,-0.06 c 0.23,-0.08 0.45,-0.16 0.67,-0.23 0.44,-0.16 0.88,-0.33 1.29,-0.51 0.83,-0.35 1.59,-0.74 2.22,-1.12 0.55,-0.33 1.13,-0.74 1.64,-1.25 0.48,-0.51 0.88,-1.13 0.86,-1.79 -0.01,-0.66 -0.34,-1.42 -0.9,-1.9 -0.56,-0.51 -1.32,-0.83 -2.09,-1.01 -1.56,-0.37 -3.08,-0.32 -4.16,-0.28 -1.09,0.05 -1.76,0.12 -1.78,0.02 -0.02,-0.1 0.62,-0.36 1.71,-0.58 1.09,-0.21 2.65,-0.44 4.43,-0.16 0.88,0.14 1.84,0.44 2.67,1.1 0.83,0.66 1.38,1.67 1.45,2.78 0.03,0.56 -0.11,1.12 -0.33,1.59 -0.22,0.47 -0.52,0.87 -0.83,1.21 -0.63,0.67 -1.31,1.15 -1.92,1.51 -0.71,0.43 -1.54,0.83 -2.44,1.18 -0.45,0.18 -0.91,0.34 -1.38,0.49 -0.24,0.07 -0.48,0.15 -0.72,0.22 l -0.44,0.12 -0.67,0.17 c -0.2,-0.21 -0.39,-0.41 -0.57,-0.63 -0.12,-0.14 -0.2,-0.26 -0.3,-0.39 -0.19,-0.26 -0.37,-0.52 -0.54,-0.79 -0.34,-0.53 -0.62,-1.09 -0.85,-1.65 -0.45,-1.13 -0.64,-2.29 -0.55,-3.27 0.02,-0.49 0.16,-0.93 0.26,-1.31 0.16,-0.37 0.29,-0.69 0.43,-0.93 0.32,-0.47 0.53,-0.71 0.58,-0.67 z"
     id="path64" />
  <path
     class="cls-1"
     d="m 120.93872,177.29 c 0.19,0.04 -0.17,1.23 0.06,2.87 0.11,0.81 0.42,1.71 0.97,2.52 0.26,0.41 0.6,0.79 0.95,1.15 0.18,0.18 0.37,0.34 0.57,0.5 0.1,0.07 0.2,0.15 0.3,0.22 0.07,0.04 0.04,0.02 0.06,0.03 h 0.02 c 0,0 0,-0.02 0,-0.02 l 0.06,-0.02 0.12,-0.04 c 0.17,-0.06 0.33,-0.13 0.49,-0.19 0.32,-0.13 0.64,-0.27 0.94,-0.41 0.6,-0.29 1.13,-0.61 1.58,-0.93 0.43,-0.32 0.88,-0.71 1.23,-1.18 0.33,-0.48 0.52,-1.04 0.45,-1.64 -0.03,-0.62 -0.32,-1.18 -0.82,-1.58 -0.5,-0.41 -1.17,-0.67 -1.84,-0.84 -1.35,-0.33 -2.68,-0.34 -3.62,-0.34 -0.95,0 -1.54,0.02 -1.56,-0.08 -0.02,-0.1 0.55,-0.31 1.51,-0.48 0.96,-0.16 2.32,-0.33 3.87,-0.1 0.77,0.12 1.61,0.35 2.37,0.89 0.77,0.52 1.33,1.46 1.42,2.38 0.15,0.93 -0.14,1.91 -0.61,2.6 -0.48,0.69 -1.05,1.17 -1.56,1.56 -0.54,0.37 -1.15,0.73 -1.83,1.03 -0.34,0.15 -0.69,0.29 -1.05,0.42 -0.18,0.06 -0.36,0.12 -0.55,0.18 l -0.34,0.1 -0.52,0.14 c -0.21,-0.13 -0.47,-0.29 -0.63,-0.41 -0.12,-0.09 -0.24,-0.19 -0.35,-0.29 -0.23,-0.2 -0.44,-0.41 -0.64,-0.63 -0.39,-0.45 -0.75,-0.92 -1.02,-1.43 -0.56,-1.01 -0.81,-2.11 -0.81,-3.03 0,-1.87 0.65,-2.97 0.74,-2.93 z"
     id="path66" />
  <path
     class="cls-1"
     d="m 128.67872,184.28 c 0.04,0.08 -0.72,0.55 -2.27,1 -0.77,0.21 -1.75,0.43 -2.93,0.44 -0.59,0 -1.23,-0.05 -1.9,-0.22 -0.67,-0.17 -1.37,-0.48 -1.99,-0.99 -0.62,-0.5 -1.15,-1.18 -1.51,-1.96 -0.36,-0.76 -0.61,-1.67 -0.6,-2.62 0,-0.95 0.26,-1.92 0.67,-2.8 0.41,-0.89 0.97,-1.71 1.61,-2.48 1.28,-1.53 2.87,-2.86 4.58,-4.1 1.72,-1.24 3.59,-2.37 5.53,-3.47 3.85,-2.11 7.75,-4.61 11.78,-7.1 2.02,-1.25 4.02,-2.52 6.11,-3.76 l 0.41,-0.24 c 0.14,-0.08 0.29,-0.16 0.36,-0.21 0.18,-0.1 0.4,-0.27 0.61,-0.42 0.43,-0.34 0.86,-0.7 1.29,-1.09 0.86,-0.77 1.7,-1.59 2.52,-2.42 6.62,-6.68 12.48,-13.7 17.28,-19.59 1.19,-1.48 2.45,-3.05 3.77,-4.7 0.31,-0.4 0.63,-0.8 0.95,-1.2 v 0 c 0,0 0,0.05 0,-0.03 l -0.07,-0.44 c -0.11,-0.6 -0.12,-1.17 -0.18,-1.76 -0.06,-0.59 -0.06,-1.18 -0.08,-1.77 -0.06,-2.36 0.05,-4.76 0.22,-7.19 0.16,-2.44 0.42,-4.91 0.7,-7.4 1.16,-9.97 2.94,-20.29 4.7,-29.64 1.77,-9.35 3.56,-17.71 4.95,-23.73 1.39,-6.02 2.37,-9.69 2.57,-9.65 0.2,0.04 -0.42,3.79 -1.46,9.87 -1.05,6.08 -2.53,14.5 -4.04,23.86 -1.5,9.37 -3.06,19.69 -4.07,29.57 -0.24,2.47 -0.46,4.91 -0.59,7.29 -0.14,2.38 -0.22,4.72 -0.15,6.93 0.02,0.55 0.03,1.11 0.08,1.64 0.05,0.53 0.07,1.08 0.17,1.56 0.06,0.39 0.12,0.78 0.19,1.16 l 0.06,0.4 c 0,0 0.01,0.07 0.01,0.1 l -0.06,0.08 -0.12,0.16 -0.5,0.64 c -0.35,0.45 -0.69,0.89 -1.03,1.32 -1.31,1.67 -2.58,3.26 -3.79,4.74 -4.83,5.92 -10.81,12.97 -17.65,19.66 -0.86,0.84 -1.74,1.67 -2.67,2.48 -0.46,0.4 -0.95,0.8 -1.47,1.19 -0.28,0.19 -0.53,0.39 -0.88,0.58 -0.18,0.11 -0.3,0.17 -0.42,0.23 l -0.37,0.2 c -2.04,1.16 -4.1,2.4 -6.13,3.6 -4.08,2.4 -8.08,4.83 -12.05,6.85 -1.94,1.02 -3.78,2.06 -5.46,3.18 -1.68,1.12 -3.21,2.32 -4.41,3.65 -1.19,1.32 -2.06,2.8 -2.13,4.26 -0.04,0.72 0.11,1.42 0.37,2.07 0.26,0.64 0.64,1.19 1.09,1.6 0.92,0.85 2.14,1.13 3.2,1.21 1.07,0.08 2.01,-0.04 2.77,-0.15 1.53,-0.25 2.35,-0.53 2.39,-0.43 z"
     id="path68" />
  <path
     class="cls-1"
     d="m 104.56872,66.81 c -0.1,0 -0.19,-0.22 -0.28,-0.59 -0.04,-0.18 -0.09,-0.41 -0.13,-0.66 -0.05,-0.27 -0.11,-0.57 -0.17,-0.89 -0.11,-0.67 -0.25,-1.46 -0.4,-2.33 -0.14,-0.89 -0.3,-1.87 -0.46,-2.89 -0.65,-4.13 -1.39,-9.17 -1.82,-12.76 -0.83,-7.18 -2.070001,-21.56 -1.28,-21.67 0.8,-0.11 3.33,14.12 4.16,21.32 0.43,3.6 0.85,8.7 0.98,12.91 0.03,1.05 0.05,2.05 0.04,2.96 0,0.9 -0.03,1.72 -0.09,2.41 -0.03,0.34 -0.05,0.65 -0.09,0.92 -0.05,0.28 -0.1,0.51 -0.15,0.7 -0.1,0.38 -0.2,0.58 -0.3,0.57 z"
     id="path70" />
  <path
     class="cls-1"
     d="m 44.958719,238.19 c -0.15,-0.12 1.02,-1.98 3.11,-4.9 2.09,-2.92 5.1,-6.9 8.58,-11.27 3.48,-4.37 7.43,-9.14 11.28,-13.72 1.94,-2.29 3.84,-4.53 5.65,-6.67 1.79,-2.13 3.48,-4.16 5,-6.02 3.05,-3.71 6.82,-8.37 10.77,-13.28 1.97,-2.46 3.98,-4.97 5.98,-7.46 0.99,-1.24 1.98,-2.48 2.96,-3.7 0.48,-0.61 0.96,-1.21 1.44,-1.81 0.22,-0.26 0.400001,-0.59 0.610001,-0.88 0.2,-0.3 0.4,-0.6 0.59,-0.92 1.54,-2.5 2.85,-5.02 4.02,-7.31 1.16,-2.3 2.17,-4.38 3.02,-6.14 1.69,-3.51 2.74,-5.67 2.93,-5.59 0.18,0.07 -0.51,2.38 -1.89,6.04 -0.69,1.83 -1.56,3.99 -2.59,6.38 -1.04,2.38 -2.23,4.99 -3.72,7.67 -0.18,0.33 -0.38,0.67 -0.59,1.01 -0.22,0.34 -0.39,0.69 -0.65,1.03 -0.46,0.62 -0.92,1.25 -1.38,1.88 -0.930001,1.25 -1.880001,2.53 -2.830001,3.81 -1.91,2.56 -3.86,5.13 -5.78,7.64 -3.84,5.01 -7.56,9.74 -10.63,13.47 -1.53,1.87 -3.25,3.9 -5.09,6.03 -1.85,2.1 -3.8,4.31 -5.78,6.56 -3.96,4.48 -8.04,9.11 -11.73,13.29 -7.36,8.36 -12.94,15.1 -13.26,14.85 z"
     id="path72" />
  <path
     class="cls-1"
     d="m 189.30872,195.57 c 0,0 0.28,0.2 0.68,0.71 0.38,0.52 0.89,1.33 1.36,2.47 0.94,2.27 1.7,5.86 1.32,10.29 -0.18,2.21 -0.65,4.62 -1.5,7.11 -0.86,2.48 -2.12,5.05 -3.93,7.44 -1.78,2.41 -4.14,4.6 -6.94,6.33 -2.76,1.66 -5.77,3.19 -9.05,4.35 -3.27,1.16 -6.8,1.92 -10.38,2.26 -3.59,0.36 -7.22,0.42 -10.86,0.46 -3.64,0.03 -7.29,0.04 -10.93,0.14 -3.62,0.1 -7.23,0.38 -10.77,0.87 -7.08,0.99 -13.86,3.01 -19.88,5.86 -6.01,2.86 -11.290001,6.42 -15.720001,10.08 -1.11,0.91 -2.21,1.91 -3.37,2.9 -1.13,1.02 -2.24,2.13 -3.41,3.23 -1.2,1.13 -2.42,2.29 -3.67,3.47 -0.65,0.57 -1.32,1.13 -1.99,1.7 -0.68,0.56 -1.32,1.17 -2.06,1.69 -0.72,0.54 -1.44,1.08 -2.17,1.63 -0.36,0.28 -0.73,0.54 -1.12,0.79 -0.38,0.25 -0.77,0.51 -1.15,0.76 -0.77,0.51 -1.54,1.03 -2.37,1.48 -0.82,0.45 -1.62,0.96 -2.48,1.38 -3.37,1.76 -7.06,3.17 -10.96,3.95 l -1.47,0.28 -1.49,0.19 c -0.5,0.07 -1,0.1 -1.5,0.13 -0.5,0.03 -1,0.07 -1.51,0.07 -1.01,0.02 -2.02,-0.01 -3.03,-0.1 -1.01,-0.08 -2.02,-0.23 -2.95,-0.36 -0.95,-0.13 -1.88,-0.25 -2.71,-0.24 -0.41,0.01 -0.78,0.05 -1.13,0.15 -0.35,0.1 -0.71,0.26 -1.08,0.46 -0.75,0.42 -1.52,0.96 -2.33,1.52 -0.82,0.57 -1.68,1.11 -2.58,1.6 -1.8,0.97 -3.74,1.67 -5.68,2.14 -1.94,0.47 -3.89,0.73 -5.82,0.9 -0.96,0.08 -1.92,0.14 -2.88,0.18 -0.48,0.02 -0.98,0 -1.46,0 -0.49,0 -0.97,0 -1.46,-0.05 -1.94,-0.09 -3.84,-0.49 -5.66,-1.02 -1.83,-0.53 -3.5499999,-1.32 -5.1399999,-2.27 -1.59,-0.95 -3.04,-2.09 -4.28,-3.39 -1.24,-1.3 -2.29,-2.77 -2.99000004,-4.42 -0.36,-0.82 -0.59,-1.67 -0.73,-2.55 -0.12,-0.88 -0.11,-1.79 0.08,-2.66 0.19,-0.88 0.57,-1.71 1.09000004,-2.41 0.53,-0.7 1.19,-1.26 1.9,-1.69 0.7,-0.43 1.48,-0.72 2.22,-0.91 0.74,-0.19 1.47,-0.31 2.18,-0.4 1.42,-0.17 2.7499999,-0.25 3.9999999,-0.43 1.25,-0.17 2.44,-0.42 3.54,-0.75 1.1,-0.33 2.12,-0.75 3.09,-1.18 0.96,-0.42 1.86,-0.86 2.7,-1.27 1.68,-0.83 3.1,-1.58 4.27,-2.19 2.33,-1.23 3.62,-1.91 3.67,-1.83 0.05,0.08 -1.14,0.94 -3.38,2.33 -1.12,0.7 -2.51,1.53 -4.16,2.45 -0.83,0.46 -1.71,0.93 -2.68,1.41 -0.96,0.48 -2.01,0.96 -3.17,1.35 -1.15,0.4 -2.39,0.7 -3.69,0.92 -1.3,0.23 -2.6599999,0.36 -3.9999999,0.56 -1.34,0.22 -2.7,0.5 -3.8,1.22 -1.12,0.7 -1.96,1.82 -2.2,3.15 -0.13,0.66 -0.11,1.37 0,2.08 0.13,0.71 0.35,1.43 0.67,2.12 0.62,1.38 1.58,2.67 2.72,3.82 2.31,2.29 5.3299999,4.05 8.6799999,4.99 1.68,0.45 3.42,0.79 5.2,0.84 0.44,0.04 0.89,0.03 1.34,0.02 0.45,-0.01 0.89,0 1.35,-0.03 0.92,-0.05 1.85,-0.12 2.77,-0.21 3.69,-0.37 7.38,-1.12 10.56,-2.92 0.8,-0.45 1.57,-0.95 2.34,-1.5 0.78,-0.55 1.59,-1.15 2.53,-1.69 0.48,-0.26 1.01,-0.51 1.59,-0.69 0.59,-0.17 1.19,-0.24 1.75,-0.26 1.12,-0.02 2.12,0.11 3.1,0.22 0.99,0.12 1.9,0.25 2.83,0.31 0.92,0.07 1.85,0.09 2.77,0.06 0.46,0 0.92,-0.04 1.38,-0.07 0.46,-0.03 0.92,-0.06 1.38,-0.13 l 1.37,-0.18 1.35,-0.27 c 3.6,-0.75 7.05,-2.09 10.22,-3.79 0.81,-0.4 1.56,-0.89 2.34,-1.33 0.78,-0.43 1.52,-0.93 2.25,-1.42 0.37,-0.25 0.73,-0.49 1.1,-0.73 0.37,-0.24 0.73,-0.49 1.07,-0.76 0.69,-0.53 1.38,-1.05 2.07,-1.57 0.7,-0.5 1.32,-1.1 1.97,-1.63 0.64,-0.55 1.29,-1.09 1.91,-1.64 1.21,-1.15 2.4,-2.29 3.56,-3.39 1.2,-1.13 2.34,-2.27 3.5,-3.33 1.19,-1.03 2.32,-2.05 3.47,-3 4.58,-3.77 10.070001,-7.46 16.360001,-10.41 6.29,-2.94 13.39,-4.99 20.72,-5.93 3.67,-0.47 7.38,-0.71 11.08,-0.77 3.68,-0.05 7.36,-0.01 10.98,0 3.62,0.02 7.2,0 10.66,-0.28 3.46,-0.27 6.8,-0.93 9.93,-1.97 3.13,-1.04 6.06,-2.45 8.77,-3.99 2.63,-1.54 4.88,-3.52 6.6,-5.74 1.75,-2.2 3.02,-4.59 3.91,-6.92 0.89,-2.34 1.42,-4.64 1.68,-6.75 0.53,-4.24 -0.02,-7.72 -0.75,-9.97 -0.74,-2.26 -1.6,-3.31 -1.49,-3.39 z"
     id="path74" />
  <path
     class="cls-1"
     d="m 33.248719,242.11 c -0.12,-0.06 -0.12,-0.42 0.12,-0.92 0.23,-0.5 0.69,-1.11 1.29,-1.67 1.2,-1.14 2.92,-2.11 4.18,-2.63 1.26,-0.54 3.21,-1.11 4.87,-1.4 1.66,-0.3 3.02,-0.34 3.09,-0.05 0.07,0.29 -1.14,0.86 -2.64,1.52 -1.56,0.67 -3.3,1.43 -4.47,1.93 -1.18,0.5 -2.85,1.17 -4.11,1.87 -0.64,0.35 -1.17,0.7 -1.55,0.97 -0.39,0.27 -0.63,0.46 -0.78,0.39 z"
     id="path76" />
  <path
     class="cls-1"
     d="m 24.888719,248.24 c -0.24,-0.18 0.36,-1.42 1.39,-2.83 0.26,-0.35 0.54,-0.72 0.84,-1.08 0.15,-0.18 0.31,-0.36 0.47,-0.54 l 0.25,-0.26 0.12,-0.13 0.17,-0.14 0.34,-0.28 c 0.11,-0.09 0.22,-0.14 0.33,-0.22 0.22,-0.14 0.43,-0.27 0.64,-0.37 0.41,-0.22 0.81,-0.38 1.17,-0.53 2.87,-1.16 8.71,-1.94 8.84,-1.33 0.06,0.29 -1.31,0.85 -3.01,1.49 -1.71,0.63 -3.74,1.35 -5.04,1.86 -0.63,0.24 -1.45,0.57 -2,0.91 l -0.11,0.06 -0.13,0.1 -0.26,0.21 -0.51,0.42 c -0.33,0.29 -0.67,0.57 -0.99,0.84 -1.27,1.09 -2.28,1.98 -2.52,1.8 z"
     id="path78" />
  <path
     class="cls-1"
     d="m 18.868719,254.84 c -0.27,-0.14 0.2,-1.64 1.17,-3.37 0.24,-0.43 0.51,-0.88 0.81,-1.33 0.15,-0.22 0.3,-0.45 0.46,-0.67 0.04,-0.06 0.07,-0.11 0.12,-0.17 l 0.17,-0.19 0.35,-0.37 c 0.96,-0.84 1.94,-1.25 2.76,-1.6 1.63,-0.66 4.13,-1.22 6.22,-1.47 2.09,-0.26 3.79,-0.26 3.83,0.04 0.05,0.3 -1.54,0.82 -3.5,1.46 -1.97,0.63 -4.29,1.4 -5.75,1.99 -0.71,0.3 -1.62,0.65 -2.28,1.12 -0.07,0.06 -0.14,0.12 -0.21,0.17 l -0.11,0.08 c 0,0 -0.08,0.09 -0.13,0.14 l -0.51,0.56 c -0.33,0.38 -0.66,0.75 -0.97,1.11 -1.24,1.43 -2.17,2.63 -2.43,2.5 z"
     id="path80" />
  <path
     class="cls-1"
     d="m 13.088719,261.82 c -0.28,-0.08 -0.11,-1.67 0.72,-3.55 0.42,-0.94 1.01,-1.95 1.85,-2.81 0.41,-0.43 0.9,-0.81 1.43,-1.1 0.25,-0.16 0.55,-0.24 0.82,-0.36 0.27,-0.1 0.43,-0.14 0.64,-0.2 3.13,-0.93 9.51,-3.02 9.73,-2.48 0.23,0.56 -5.78,3.56 -9.09,4.55 -0.19,0.06 -0.46,0.13 -0.62,0.19 -0.16,0.07 -0.33,0.09 -0.49,0.19 -0.34,0.16 -0.69,0.38 -1.04,0.67 -0.69,0.57 -1.34,1.35 -1.88,2.1 -1.08,1.51 -1.77,2.89 -2.06,2.8 z"
     id="path82" />
  <path
     class="cls-1"
     d="m 14.078719,261.73 c 0.13,-0.06 0.43,0.22 0.75,0.8 0.16,0.29 0.33,0.65 0.44,1.1 0.13,0.44 0.19,0.99 0.08,1.6 -0.1,0.6 -0.41,1.23 -0.83,1.71 -0.42,0.48 -0.84,0.83 -1.25,1.17 -0.69,0.5 -1.21,0.6 -1.73,0.76 -0.51,0.14 -0.98,0.23 -1.41,0.29 -0.7099999,0.11 -1.5499999,0.18 -2.4499999,0.21 -0.45,0.01 -0.91,0.02 -1.37,0.02 -0.62,0 -1.24,-0.02 -1.86,-0.03 -0.15,-0.24 -0.31,-0.48 -0.43,-0.72 -0.12,-0.23 -0.26,-0.48 -0.3,-0.62 -0.13,-0.32 -0.21,-0.64 -0.27,-0.94 -0.13,-0.6 -0.18,-1.15 -0.19,-1.61 -0.01,-0.92 0.13,-1.51 0.3,-1.52 0.18,0 0.37,0.54 0.66,1.35 0.15,0.4 0.32,0.87 0.54,1.35 0.11,0.24 0.23,0.48 0.37,0.7 0.08,0.15 0.11,0.16 0.14,0.19 0.03,0.03 0.06,0.05 0.09,0.06 l 0.07,-0.03 h 0.03 c 0,0 0,-0.02 0.07,-0.03 l 0.67,-0.07 c 0.44,-0.05 0.88,-0.11 1.31,-0.15 0.85,-0.1 1.64,-0.21 2.28,-0.31 0.3899999,-0.06 0.8099999,-0.12 1.2299999,-0.21 0.4,-0.08 0.89,-0.22 1.05,-0.31 0.41,-0.27 0.83,-0.55 1.13,-0.8 0.31,-0.26 0.51,-0.53 0.64,-0.85 0.28,-0.65 0.2,-1.48 0.16,-2.06 -0.05,-0.59 -0.09,-0.99 0.06,-1.05 z"
     id="path84" />
  <metadata
     id="metadata1031">
    <rdf:RDF>
      <cc:Work
         rdf:about="">
        <dc:title>Ankle Pain</dc:title>
      </cc:Work>
    </rdf:RDF>
  </metadata>
</svg>
