<?xml version="1.0" encoding="UTF-8" standalone="no"?>
<svg
   viewBox="0 0 316.7164 288.944"
   version="1.1"
   id="svg109"
   width="316.7164"
   height="288.944"
   xmlns="http://www.w3.org/2000/svg"
   xmlns:svg="http://www.w3.org/2000/svg"
   xmlns:rdf="http://www.w3.org/1999/02/22-rdf-syntax-ns#"
   xmlns:cc="http://creativecommons.org/ns#"
   xmlns:dc="http://purl.org/dc/elements/1.1/">
  <title
     id="title1073">Back Pain</title>
  <defs
     id="defs19">
    <style
       id="style2">.cls-1{fill:#13294b;}.cls-2{fill:url(#radial-gradient-6);}.cls-3{fill:url(#radial-gradient-5);}.cls-4{fill:url(#radial-gradient-3);}.cls-5{fill:url(#radial-gradient-4);}.cls-6{fill:url(#radial-gradient-9);}.cls-7{fill:url(#radial-gradient-8);}.cls-8{fill:url(#radial-gradient-7);}.cls-9{fill:url(#radial-gradient-2);}.cls-10{fill:url(#radial-gradient);}</style>
  </defs>
  <path
     class="cls-1"
     d="m 207.224,274 c 0,0 0.03,0.11 0.03,0.33 0,0.11 0,0.24 0,0.39 0,0.16 -0.01,0.34 0.02,0.54 0.02,0.2 0.03,0.43 0.07,0.68 0.07,0.24 0.11,0.51 0.22,0.78 0.2,0.54 0.6,1.1 1.21,1.49 0.62,0.38 1.46,0.59 2.36,0.45 0.45,-0.04 0.9,-0.2 1.29,-0.43 0.1,-0.06 0.19,-0.12 0.26,-0.2 l 0.12,-0.11 0.14,-0.16 c 0.19,-0.21 0.38,-0.41 0.57,-0.62 1.57,-1.62 3.36,-3.47 5.34,-5.51 0.98,-1.03 2.01,-2.11 3.02,-3.27 1.01,-1.15 1.94,-2.43 2.66,-3.89 0.73,-1.45 1.22,-3.07 1.49,-4.79 0.23,-1.78 0.46,-3.61 0.7,-5.48 0.49,-3.77 1.03,-7.73 1.39,-11.84 0.08,-1.02 0.16,-2.06 0.17,-3.09 0.02,-1.06 0.04,-2.14 0.08,-3.22 0.07,-2.16 0.17,-4.35 0.27,-6.57 0.11,-2.22 0.23,-4.47 0.38,-6.74 0.08,-1.14 0.16,-2.28 0.24,-3.43 0.05,-0.58 0.1,-1.16 0.15,-1.73 0.03,-0.28 0.09,-0.71 0.19,-1 0.08,-0.32 0.19,-0.62 0.3,-0.91 0.45,-1.17 1.02,-2.22 1.62,-3.26 0.6,-1.03 1.24,-2.04 1.92,-3.03 1.34,-1.98 2.79,-3.88 4.3,-5.75 3.04,-3.72 6.35,-7.27 9.96,-10.53 1.81,-1.63 3.69,-3.17 5.68,-4.6 0.99,-0.71 2.02,-1.39 3.07,-2.02 1.09,-0.63 2.05,-1.22 3.06,-1.82 0.99,-0.61 1.94,-1.3 2.91,-1.94 0.94,-0.7 1.88,-1.39 2.81,-2.09 0.91,-0.73 1.83,-1.45 2.73,-2.17 0.89,-0.75 1.78,-1.49 2.66,-2.23 3.5,-3.01 6.82,-6.12 9.98,-9.22 3.15,-3.11 6.14,-6.23 8.91,-9.32 1.36,-1.55 2.72,-3.09 3.87,-4.64 1.19,-1.62 2.4,-3.2 3.59,-4.71 2.37,-3.02 4.91,-6.18 7.47,-9.56 2.55,-3.38 5.16,-6.96 7.48,-10.84 0.58,-0.98 1.15,-1.94 1.59,-2.94 0.44,-0.99 0.79,-2.02 0.89,-3.02 0.11,-1 -0.04,-1.95 -0.49,-2.86 -0.44,-0.91 -1.13,-1.79 -1.92,-2.66 -1.58,-1.72 -3.42,-3.45 -5.03,-5.43 -0.2,-0.25 -0.41,-0.49 -0.6,-0.75 -0.2,-0.25 -0.39,-0.52 -0.58,-0.72 l -0.56,-0.66 c -0.19,-0.22 -0.37,-0.45 -0.59,-0.65 -0.43,-0.4 -0.83,-0.84 -1.29,-1.22 l -1.4,-1.14 c -3.91,-2.89 -8.45,-5.13 -13.04,-7.23 -4.61,-2.08 -9.33,-4 -14.02,-5.95 -2.34,-0.96 -4.69,-1.98 -6.99,-2.92 l -1.73,-0.7 c -0.58,-0.22 -1.16,-0.43 -1.75,-0.65 -0.58,-0.21 -1.16,-0.43 -1.74,-0.64 -0.59,-0.2 -1.17,-0.4 -1.76,-0.6 -4.68,-1.57 -9.37,-2.89 -13.98,-4.08 -4.61,-1.18 -9.13,-2.22 -13.51,-3.19 -2.19,-0.49 -4.34,-0.96 -6.45,-1.43 -2.1,-0.48 -4.17,-0.94 -6.18,-1.51 -2,-0.55 -3.94,-1.21 -5.75,-2.07 -1.81,-0.86 -3.41,-1.97 -4.89,-3.05 -1.48,-1.08 -2.89,-2.12 -4.28,-3.07 -1.38,-0.93 -2.77,-1.73 -4.14,-2.43 -2.73,-1.41 -5.3,-2.53 -7.56,-3.48 -2.26,-0.95 -4.23,-1.72 -5.84,-2.35 -1.61,-0.62 -2.86,-1.1 -3.71,-1.43 -0.85,-0.33 -1.29,-0.52 -1.28,-0.56 0.01,-0.04 0.48,0.07 1.35,0.32 0.87,0.26 2.16,0.65 3.8,1.21 1.64,0.56 3.64,1.26 5.94,2.14 2.3,0.89 4.91,1.94 7.71,3.31 1.41,0.68 2.85,1.47 4.3,2.4 1.42,0.93 2.87,1.96 4.36,3 1.49,1.05 3.03,2.07 4.76,2.85 1.72,0.79 3.6,1.39 5.57,1.9 3.94,1.02 8.2,1.81 12.59,2.74 4.4,0.91 8.95,1.9 13.6,3.04 4.65,1.14 9.39,2.42 14.15,3.96 0.59,0.2 1.19,0.39 1.78,0.59 0.59,0.2 1.18,0.42 1.78,0.63 0.59,0.21 1.19,0.43 1.78,0.64 l 1.77,0.7 c 2.36,0.93 4.66,1.91 7.02,2.86 4.7,1.9 9.45,3.8 14.13,5.86 4.66,2.1 9.31,4.33 13.5,7.38 0.51,0.4 1.02,0.81 1.52,1.22 0.5,0.41 0.96,0.89 1.44,1.34 0.24,0.22 0.46,0.47 0.67,0.73 l 0.65,0.76 c 0.23,0.26 0.4,0.49 0.59,0.73 0.18,0.24 0.38,0.47 0.57,0.7 1.52,1.86 3.28,3.48 4.99,5.32 0.84,0.93 1.69,1.94 2.3,3.19 0.62,1.24 0.87,2.73 0.72,4.09 -0.32,2.72 -1.6,4.92 -2.76,6.91 -2.39,4.03 -5.02,7.66 -7.59,11.08 -2.58,3.42 -5.13,6.6 -7.48,9.6 -1.18,1.51 -2.36,3.04 -3.55,4.65 -1.25,1.68 -2.61,3.21 -4.01,4.8 -2.82,3.14 -5.84,6.27 -9.04,9.4 -3.2,3.13 -6.57,6.26 -10.14,9.29 -0.9,0.75 -1.81,1.5 -2.71,2.25 -0.93,0.73 -1.86,1.46 -2.8,2.2 -0.96,0.7 -1.93,1.41 -2.9,2.12 -1.01,0.66 -1.99,1.36 -3.03,1.99 -1.04,0.61 -2.12,1.27 -3.11,1.82 -1,0.59 -1.98,1.23 -2.94,1.9 -1.92,1.35 -3.76,2.84 -5.53,4.41 -3.54,3.15 -6.82,6.61 -9.83,10.22 -1.5,1.82 -2.94,3.67 -4.26,5.58 -0.66,0.95 -1.29,1.92 -1.87,2.9 -0.58,0.98 -1.13,1.98 -1.52,2.97 -0.1,0.25 -0.19,0.49 -0.25,0.73 -0.04,0.12 -0.07,0.24 -0.08,0.34 -0.02,0.11 -0.05,0.2 -0.06,0.36 -0.06,0.57 -0.11,1.14 -0.17,1.7 -0.09,1.14 -0.19,2.27 -0.28,3.4 -0.17,2.26 -0.32,4.5 -0.46,6.71 -0.14,2.21 -0.26,4.39 -0.36,6.54 -0.05,1.07 -0.09,2.13 -0.12,3.19 -0.03,1.09 -0.13,2.15 -0.22,3.19 -0.43,4.17 -1.03,8.12 -1.58,11.89 -0.27,1.89 -0.54,3.72 -0.8,5.51 -0.32,1.82 -0.89,3.56 -1.7,5.1 -0.8,1.55 -1.83,2.89 -2.9,4.06 -1.06,1.17 -2.12,2.23 -3.13,3.23 -2.02,2.01 -3.89,3.78 -5.5,5.36 -0.2,0.2 -0.4,0.39 -0.57,0.58 l -0.13,0.14 -0.18,0.16 c -0.12,0.12 -0.25,0.2 -0.38,0.27 -0.52,0.28 -1.05,0.43 -1.56,0.46 -1.02,0.11 -1.98,-0.17 -2.68,-0.64 -0.7,-0.49 -1.12,-1.17 -1.29,-1.77 -0.11,-0.3 -0.12,-0.6 -0.18,-0.85 -0.03,-0.26 -0.01,-0.5 -0.02,-0.71 -0.01,-0.21 0.02,-0.4 0.04,-0.55 0.03,-0.16 0.05,-0.29 0.06,-0.4 0.04,-0.21 0.07,-0.32 0.09,-0.31 z"
     id="path44" />
  <path
     class="cls-1"
     d="m 207.924,203.88 c -0.16,0.02 -0.58,-2.34 -1.03,-6.23 -0.45,-3.89 -0.93,-9.31 -1.25,-15.39 -0.66,-12.17 -0.57,-27.04 0.64,-37.57 0.27,-2.63 0.69,-5.57 1.21,-8.71 0.55,-3.13 1.22,-6.45 2.02,-9.81 1.58,-6.74 3.75,-13.61 5.12,-19.95 1.38,-6.32 1.56,-12.19 1.38,-16.4 -0.17,-4.22 -0.65,-6.79 -0.49,-6.83 0.16,-0.04 0.96,2.49 1.42,6.76 0.47,4.25 0.55,10.26 -0.65,16.79 -1.18,6.5 -3.19,13.43 -4.63,20.11 -0.73,3.34 -1.34,6.61 -1.85,9.7 -0.48,3.09 -0.88,5.99 -1.15,8.59 -1.2,10.35 -1.55,25.12 -1.32,37.25 0.11,6.07 0.33,11.48 0.49,15.38 0.16,3.9 0.27,6.28 0.11,6.3 z"
     id="path46" />
  <path
     class="cls-1"
     d="m 261.284,130.37 c -0.07,0.03 -0.25,-0.08 -0.67,-0.23 -0.42,-0.15 -1.03,-0.35 -1.81,-0.58 -0.78,-0.22 -1.72,-0.47 -2.77,-0.73 -0.53,-0.13 -1.09,-0.26 -1.67,-0.4 -0.29,-0.07 -0.59,-0.14 -0.89,-0.21 -0.29,-0.05 -0.59,-0.11 -0.89,-0.16 -2.4,-0.44 -5.13,-0.26 -7.81,0.09 -2.68,0.35 -5.37,0.75 -7.64,0.84 -2.26,0.13 -5.16,-0.01 -8.08,-0.62 -2.92,-0.58 -5.86,-1.55 -8.44,-2.63 -5.17,-2.14 -8.86,-4.68 -8.68,-4.96 0.16,-0.28 4.09,1.7 9.27,3.38 2.58,0.85 5.46,1.62 8.25,2.05 2.77,0.46 5.42,0.52 7.57,0.4 2.15,-0.09 4.74,-0.4 7.52,-0.64 2.76,-0.24 5.79,-0.26 8.39,0.45 0.32,0.09 0.64,0.18 0.96,0.26 0.3,0.1 0.59,0.2 0.88,0.29 0.57,0.19 1.12,0.39 1.64,0.58 1.04,0.39 1.96,0.77 2.71,1.14 0.76,0.37 1.34,0.72 1.72,1.03 0.38,0.29 0.52,0.6 0.43,0.64 z"
     id="path48" />
  <path
     class="cls-1"
     d="m 202.734,227.56 c -0.07,0 -0.13,-0.52 -0.05,-1.46 0.03,-0.47 0.1,-1.04 0.18,-1.7 0.05,-0.33 0.1,-0.69 0.15,-1.06 0.06,-0.36 0.12,-0.75 0.19,-1.15 0,-0.17 -0.02,-0.35 -0.02,-0.52 0,-0.2 0,-0.4 0,-0.6 0,-0.41 0,-0.83 0.03,-1.26 0.04,-0.87 0.1,-1.79 0.18,-2.75 0.18,-1.93 0.38,-4.05 0.59,-6.33 0.11,-1.17 0.28,-2.42 0.8,-3.66 0.49,-1.26 1.42,-2.38 2.4,-3.26 1.98,-1.75 4.14,-3.2 6.06,-4.96 3.88,-3.55 7.48,-7.71 10.75,-11.77 3.29,-4.08 6.13,-8.12 8.65,-11.66 3.24,-4.52 7.31,-10.14 11.39,-16.14 4.07,-6.01 8.22,-12.4 11.26,-18.55 0.19,-0.38 0.38,-0.77 0.56,-1.15 0.18,-0.38 0.34,-0.77 0.5,-1.15 0.33,-0.77 0.66,-1.53 0.99,-2.28 0.16,-0.38 0.33,-0.76 0.49,-1.13 0.18,-0.36 0.36,-0.73 0.54,-1.08 0.18,-0.36 0.35,-0.71 0.53,-1.05 0.19,-0.34 0.38,-0.67 0.57,-1 1.51,-2.64 3.16,-4.83 4.71,-6.51 3.11,-3.37 5.65,-4.73 5.72,-4.58 0.1,0.13 -2.21,1.72 -5.02,5.18 -1.39,1.73 -2.89,3.93 -4.24,6.54 -0.17,0.33 -0.34,0.66 -0.51,0.99 -0.16,0.34 -0.31,0.69 -0.47,1.04 -0.16,0.35 -0.32,0.71 -0.48,1.06 -0.14,0.37 -0.29,0.74 -0.43,1.11 -0.3,0.76 -0.6,1.53 -0.91,2.32 -0.16,0.4 -0.31,0.8 -0.48,1.2 -0.18,0.39 -0.36,0.79 -0.54,1.19 -2.92,6.39 -6.96,12.93 -10.95,19.05 -4.01,6.11 -8.04,11.79 -11.28,16.31 -2.5,3.5 -5.45,7.63 -8.83,11.7 -3.38,4.08 -7.11,8.23 -11.22,11.8 -2.07,1.8 -4.34,3.25 -6.21,4.79 -0.92,0.78 -1.65,1.6 -2.08,2.6 -0.45,0.98 -0.66,2.1 -0.81,3.19 -0.32,2.26 -0.62,4.38 -0.88,6.29 -0.13,0.95 -0.25,1.85 -0.34,2.7 -0.04,0.42 -0.08,0.83 -0.11,1.22 -0.01,0.2 -0.02,0.39 -0.03,0.57 0,0.21 -0.01,0.41 -0.02,0.6 -0.2,0.84 -0.39,1.59 -0.55,2.25 -0.15,0.64 -0.28,1.2 -0.38,1.65 -0.21,0.9 -0.3,1.39 -0.37,1.39 z"
     id="path50" />
  <path
     class="cls-1"
     d="m 216.454,244.61 c 0,0 -0.43,0.91 -1.45,2.38 -0.52,0.73 -1.16,1.61 -2.04,2.53 -0.8,0.89 -1.62,2.06 -2.51,3.33 -1.78,2.54 -3.78,5.6 -6.1,8.88 -0.15,0.2 -0.3,0.41 -0.46,0.62 -0.16,0.2 -0.29,0.38 -0.43,0.59 -0.28,0.41 -0.55,0.84 -0.81,1.28 -0.53,0.88 -1.06,1.79 -1.59,2.72 -0.54,0.93 -1.08,1.87 -1.65,2.81 -0.29,0.47 -0.58,0.94 -0.91,1.41 -0.16,0.24 -0.33,0.47 -0.52,0.71 -0.1,0.12 -0.2,0.24 -0.33,0.36 -0.1,0.11 -0.35,0.29 -0.58,0.37 -0.49,0.13 -0.89,0.13 -1.33,0.08 -0.42,-0.08 -0.83,-0.2 -1.2,-0.4 -0.75,-0.38 -1.34,-0.99 -1.78,-1.67 -0.89,-1.38 -1.05,-3.07 -0.85,-4.57 0.2,-1.53 0.74,-2.93 1.32,-4.26 0.59,-1.33 1.26,-2.58 1.93,-3.81 0.67,-1.23 1.36,-2.42 2.03,-3.6 0.67,-1.17 1.37,-2.33 2.07,-3.43 1.42,-2.2 2.89,-4.21 4.3,-6.03 0.91,-1.17 1.9,-2.39 2.94,-3.65 0.52,-0.63 1.05,-1.27 1.59,-1.93 0.27,-0.33 0.52,-0.65 0.73,-0.97 0.22,-0.33 0.4,-0.67 0.53,-1.01 0.05,-0.17 0.1,-0.33 0.12,-0.48 0.01,-0.08 0,-0.12 0.01,-0.19 0,0 0,0 0,-0.01 0,0 0,-0.01 -0.01,-0.01 0,0 0,0 -0.02,0 -0.01,0 -0.01,0 -0.03,0.01 l -0.09,0.05 c -0.23,0.13 -0.6,0.47 -0.92,0.76 -0.33,0.31 -0.66,0.63 -0.99,0.95 -1.33,1.3 -2.69,2.63 -4.07,3.97 -0.7,0.67 -1.41,1.34 -2.16,1.99 -0.4,0.34 -0.75,0.61 -1.09,0.94 -0.35,0.32 -0.68,0.66 -1.02,1 -1.34,1.38 -2.6,2.87 -3.9,4.33 -0.33,0.37 -0.66,0.73 -1,1.09 -0.34,0.36 -0.76,0.74 -1.22,1.03 -0.47,0.29 -1,0.51 -1.59,0.58 -0.58,0.07 -1.21,-0.05 -1.73,-0.33 -0.52,-0.28 -0.91,-0.69 -1.23,-1.11 l -0.23,-0.32 -0.19,-0.33 -0.1,-0.17 c -0.03,-0.07 -0.07,-0.16 -0.1,-0.24 -0.05,-0.16 -0.08,-0.33 -0.09,-0.47 -0.04,-0.6 0.09,-1.1 0.23,-1.58 0.14,-0.47 0.32,-0.92 0.51,-1.35 0.77,-1.72 1.71,-3.26 2.65,-4.72 0.93,-1.45 1.93,-2.82 2.86,-4.08 1.86,-2.55 3.54,-4.84 5.04,-6.71 1.48,-1.87 2.79,-3.31 3.82,-4.17 1.02,-0.88 1.74,-1.16 1.76,-1.09 0,0.02 -0.15,0.11 -0.42,0.32 -0.28,0.21 -0.67,0.53 -1.13,1 -0.95,0.91 -2.16,2.39 -3.57,4.3 -1.41,1.91 -3.02,4.23 -4.82,6.84 -0.92,1.3 -1.84,2.64 -2.74,4.11 -0.89,1.45 -1.79,2.99 -2.48,4.63 -0.17,0.41 -0.33,0.82 -0.44,1.24 -0.12,0.41 -0.19,0.84 -0.16,1.18 0,0.08 0.02,0.15 0.04,0.21 l 0.03,0.08 0.08,0.14 0.16,0.28 0.19,0.25 c 0.25,0.32 0.55,0.61 0.87,0.78 0.65,0.35 1.44,0.21 2.14,-0.24 0.36,-0.23 0.66,-0.5 0.98,-0.85 0.32,-0.34 0.64,-0.7 0.96,-1.07 1.27,-1.46 2.52,-2.98 3.88,-4.42 0.34,-0.36 0.69,-0.72 1.06,-1.06 0.36,-0.35 0.77,-0.69 1.11,-0.98 0.71,-0.63 1.4,-1.3 2.09,-1.97 1.36,-1.36 2.71,-2.7 4.03,-4.01 0.34,-0.33 0.68,-0.65 1.01,-0.98 0.36,-0.32 0.64,-0.64 1.2,-0.97 l 0.21,-0.11 c 0.08,-0.03 0.19,-0.06 0.29,-0.09 0.19,-0.08 0.42,-0.07 0.63,-0.06 0.44,0.04 0.81,0.34 0.99,0.73 0.11,0.18 0.14,0.41 0.18,0.62 0,0.16 0,0.34 -0.01,0.48 -0.04,0.3 -0.11,0.56 -0.19,0.81 -0.36,0.96 -0.96,1.75 -1.49,2.41 -0.54,0.66 -1.07,1.31 -1.59,1.94 -1.04,1.26 -2.01,2.47 -2.91,3.62 -1.39,1.79 -2.84,3.77 -4.24,5.92 -0.7,1.08 -1.38,2.19 -2.05,3.36 -0.68,1.17 -1.37,2.35 -2.05,3.56 -0.67,1.21 -1.34,2.44 -1.92,3.7 -0.57,1.26 -1.07,2.56 -1.26,3.87 -0.19,1.31 -0.05,2.66 0.61,3.71 0.33,0.52 0.76,0.97 1.28,1.25 0.26,0.15 0.53,0.23 0.81,0.29 0.26,0.04 0.58,0.03 0.78,-0.02 0.03,-0.02 0.02,0 0.11,-0.08 0.07,-0.07 0.15,-0.16 0.23,-0.25 0.16,-0.19 0.32,-0.4 0.47,-0.62 0.31,-0.43 0.6,-0.89 0.89,-1.35 0.58,-0.92 1.13,-1.84 1.69,-2.76 0.55,-0.92 1.1,-1.82 1.66,-2.71 0.28,-0.44 0.57,-0.88 0.87,-1.31 0.15,-0.21 0.33,-0.44 0.48,-0.63 0.15,-0.19 0.3,-0.38 0.45,-0.58 2.37,-3.19 4.46,-6.21 6.33,-8.7 0.94,-1.24 1.78,-2.37 2.69,-3.3 0.88,-0.84 1.57,-1.68 2.12,-2.37 1.1,-1.38 1.68,-2.19 1.74,-2.16 z"
     id="path52" />
  <path
     class="cls-1"
     d="m 222.524,250.75 c 0.05,0.07 -0.55,0.73 -1.31,2.02 -0.78,1.27 -1.72,3.12 -2.73,5.23 -1.02,2.1 -2.07,4.49 -3.46,6.69 -0.35,0.56 -0.73,1.06 -1.09,1.56 -0.36,0.5 -0.72,0.98 -1.06,1.46 -0.7,0.95 -1.36,1.84 -1.96,2.66 -1.21,1.62 -2.73,3.64 -4.35,5.74 -0.41,0.53 -0.82,1.07 -1.24,1.61 -0.45,0.55 -0.94,1.08 -1.54,1.53 -0.59,0.45 -1.32,0.81 -2.12,0.87 -0.8,0.08 -1.57,-0.17 -2.17,-0.54 -0.61,-0.37 -1.08,-0.83 -1.5,-1.3 -0.43,-0.51 -0.74,-1.07 -0.92,-1.63 -0.36,-1.13 -0.3,-2.19 -0.18,-3.02 0.29,-1.67 0.83,-2.57 0.91,-2.54 0.11,0.04 -0.24,1 -0.33,2.6 -0.03,0.79 0,1.75 0.38,2.67 0.19,0.46 0.47,0.89 0.83,1.27 0.39,0.39 0.84,0.76 1.33,1.03 0.49,0.26 1.02,0.39 1.53,0.31 0.51,-0.07 1.02,-0.33 1.48,-0.71 0.94,-0.75 1.61,-1.88 2.42,-2.96 1.55,-2.15 3.05,-4.19 4.26,-5.81 0.61,-0.81 1.28,-1.7 1.99,-2.64 0.36,-0.47 0.72,-0.95 1.09,-1.44 0.38,-0.49 0.76,-0.98 1.09,-1.48 1.37,-2.02 2.52,-4.36 3.67,-6.41 1.13,-2.06 2.24,-3.87 3.19,-5.07 0.93,-1.22 1.72,-1.79 1.79,-1.69 z"
     id="path54" />
  <path
     class="cls-1"
     d="m 194.994,268.04 c 0.11,-0.02 0.24,0.27 0.6,0.6 0.35,0.33 0.94,0.72 1.66,1.06 0.17,0.08 0.39,0.18 0.53,0.24 0.05,0 0.09,0.03 0.12,0 0,-0.02 0.02,-0.04 0.02,-0.06 0,-0.03 -0.02,0 0.06,-0.12 0.1,-0.18 0.2,-0.36 0.29,-0.55 0.37,-0.75 0.62,-1.53 0.77,-2.16 0.08,-0.31 0.14,-0.67 0.15,-1.01 0.02,-0.35 -0.06,-0.65 -0.17,-0.75 -0.07,-0.06 -0.1,-0.11 -0.2,-0.12 -0.09,-0.02 -0.25,0.01 -0.41,0.08 -0.34,0.14 -0.7,0.39 -1.03,0.65 -1.31,1.1 -2.21,2.26 -2.39,2.13 -0.16,-0.1 0.41,-1.46 1.66,-2.89 0.33,-0.35 0.7,-0.71 1.21,-1 0.26,-0.14 0.57,-0.27 0.96,-0.28 0.19,0 0.4,0.02 0.59,0.1 0.2,0.06 0.34,0.19 0.51,0.3 0.15,0.12 0.25,0.28 0.37,0.43 0.09,0.15 0.15,0.31 0.21,0.47 0.04,0.15 0.07,0.3 0.1,0.44 0.02,0.14 0.02,0.27 0.03,0.41 0,0.53 -0.06,0.98 -0.16,1.36 -0.19,0.77 -0.52,1.64 -1.02,2.47 -0.12,0.21 -0.26,0.41 -0.4,0.61 -0.05,0.06 -0.2,0.29 -0.33,0.43 l -0.4,0.45 c 0,0 -0.06,0.09 -0.1,0.09 l -0.14,-0.06 -0.27,-0.13 c -0.18,-0.09 -0.36,-0.17 -0.53,-0.27 -0.24,-0.14 -0.4,-0.25 -0.59,-0.38 -0.72,-0.5 -1.31,-1.08 -1.59,-1.62 -0.29,-0.54 -0.23,-0.94 -0.13,-0.95 z"
     id="path56" />
  <path
     class="cls-1"
     d="m 200.054,274.99 c 0.07,0 0.13,0.17 0.21,0.4 0.1,0.23 0.26,0.54 0.54,0.87 0.27,0.33 0.65,0.67 1.09,1.01 0.22,0.17 0.46,0.33 0.71,0.49 l 0.18,0.11 h 0.04 c 0,0 0.04,0.02 0.06,0.02 0.01,-0.03 0.02,-0.05 0.02,-0.07 v -0.03 c 0,0 0.12,-0.18 0.12,-0.18 0.16,-0.25 0.32,-0.49 0.46,-0.73 0.29,-0.48 0.54,-0.94 0.73,-1.35 0.15,-0.31 0.3,-0.66 0.4,-1.03 0.1,-0.36 0.14,-0.73 0.06,-0.95 -0.03,-0.1 -0.11,-0.2 -0.19,-0.27 -0.08,-0.07 -0.2,-0.11 -0.36,-0.12 -0.33,-0.02 -0.76,0.1 -1.15,0.27 -0.8,0.34 -1.49,0.8 -2,1.11 -0.51,0.32 -0.84,0.52 -0.91,0.44 -0.07,-0.07 0.12,-0.41 0.54,-0.88 0.42,-0.47 1.03,-1.08 1.9,-1.61 0.44,-0.26 0.94,-0.51 1.61,-0.56 0.33,-0.02 0.73,0.04 1.07,0.24 0.33,0.19 0.6,0.49 0.76,0.84 0.31,0.71 0.2,1.34 0.1,1.85 -0.12,0.51 -0.3,0.94 -0.47,1.31 -0.23,0.48 -0.53,0.98 -0.87,1.49 -0.17,0.25 -0.36,0.51 -0.55,0.75 -0.14,0.18 -0.28,0.36 -0.42,0.53 -0.18,0.22 -0.37,0.43 -0.54,0.64 -0.25,-0.16 -0.49,-0.31 -0.73,-0.47 -0.12,-0.08 -0.24,-0.16 -0.35,-0.25 l -0.2,-0.16 c -0.25,-0.21 -0.49,-0.43 -0.71,-0.65 -0.44,-0.45 -0.8,-0.93 -1.02,-1.39 -0.23,-0.47 -0.32,-0.91 -0.29,-1.22 0.03,-0.31 0.12,-0.46 0.18,-0.45 z"
     id="path58" />
  <path
     class="cls-1"
     d="m 209.344,275.28 c 0.1,0.03 0.14,0.29 0.43,0.67 0.27,0.38 0.74,0.87 1.32,1.33 0.14,0.11 0.3,0.22 0.45,0.32 0.08,0.05 0.15,0.1 0.23,0.14 0.08,0.04 0.16,0.08 0.16,0.07 0.04,0 0.07,0 0.08,-0.04 0,0 0,-0.01 0,-0.02 0,0 0,0 0,-0.01 l 0.05,-0.05 0.19,-0.22 c 0.51,-0.61 0.93,-1.26 1.2,-1.79 0.12,-0.26 0.26,-0.57 0.3,-0.85 0.05,-0.29 0.02,-0.51 -0.1,-0.71 -0.14,-0.22 -0.37,-0.37 -0.66,-0.4 -0.3,-0.04 -0.67,0.04 -1.03,0.17 -0.71,0.28 -1.35,0.7 -1.81,0.99 -0.46,0.3 -0.76,0.49 -0.83,0.42 -0.08,-0.07 0.08,-0.39 0.44,-0.84 0.36,-0.45 0.92,-1.03 1.74,-1.51 0.42,-0.23 0.92,-0.44 1.53,-0.45 0.62,-0.01 1.3,0.29 1.69,0.8 0.44,0.52 0.54,1.23 0.47,1.74 -0.06,0.54 -0.24,0.95 -0.41,1.31 -0.35,0.7 -0.88,1.42 -1.52,2.06 l -0.25,0.24 -0.17,0.16 c -0.08,0.07 -0.15,0.13 -0.24,0.18 -0.31,0.25 -0.75,0.18 -1.09,0.02 -0.2,-0.09 -0.3,-0.17 -0.4,-0.24 -0.1,-0.07 -0.19,-0.15 -0.28,-0.23 -0.18,-0.15 -0.33,-0.31 -0.48,-0.47 -0.57,-0.64 -0.96,-1.3 -1.12,-1.85 -0.08,-0.27 -0.1,-0.52 -0.06,-0.68 0.03,-0.17 0.11,-0.24 0.15,-0.23 z"
     id="path60" />
  <path
     class="cls-1"
     d="m 190.304,249.87 c 0.11,0 0.2,0.24 0.4,0.55 0.2,0.31 0.54,0.67 1.02,0.98 0.12,0.08 0.25,0.15 0.38,0.23 l 0.1,0.05 c 0,0 0.02,0 0.03,0 0.02,0 0.03,0 0.05,0 0.03,0 0.05,0 0.05,-0.04 0,-0.01 0,-0.03 0.01,-0.04 v -0.02 c 0,0 0,0 0.04,-0.05 0.38,-0.56 0.73,-1.09 0.95,-1.52 0.25,-0.41 0.42,-1 0.32,-1.13 -0.08,-0.13 -0.09,-0.18 -0.32,-0.2 -0.22,-0.01 -0.53,0.07 -0.81,0.18 -0.58,0.23 -1.11,0.54 -1.5,0.75 -0.39,0.21 -0.65,0.33 -0.72,0.26 -0.07,-0.07 0.06,-0.34 0.35,-0.7 0.3,-0.36 0.74,-0.83 1.38,-1.24 0.33,-0.2 0.7,-0.4 1.21,-0.48 0.14,0 0.26,-0.03 0.41,0 0.15,0.03 0.3,0.04 0.44,0.12 0.31,0.14 0.53,0.33 0.7,0.58 0.09,0.13 0.17,0.26 0.2,0.41 l 0.06,0.22 0.02,0.21 c 0.02,0.14 0.01,0.27 0,0.39 0,0.13 -0.03,0.24 -0.06,0.34 -0.1,0.43 -0.25,0.75 -0.4,1.02 -0.29,0.55 -0.72,1.11 -1.17,1.64 l -0.28,0.34 c -0.1,0.13 -0.2,0.24 -0.31,0.35 l -0.15,0.16 -0.08,0.08 c 0,0 -0.07,-0.03 -0.11,-0.05 l -0.41,-0.21 c -0.14,-0.07 -0.27,-0.16 -0.4,-0.24 l -0.18,-0.13 -0.11,-0.09 c -0.14,-0.12 -0.28,-0.24 -0.41,-0.37 -0.51,-0.5 -0.82,-1.12 -0.89,-1.59 -0.07,-0.47 0.06,-0.75 0.15,-0.74 z"
     id="path62" />
  <path
     class="cls-1"
     d="m 169.484,134.67 c -0.16,0 -0.32,-1.55 -0.61,-4.1 -0.28,-2.55 -0.63,-6.09 -0.93,-10.08 -0.3,-3.98 -0.55,-8.41 -0.7,-12.7 -0.07,-2.14 -0.13,-4.26 -0.16,-6.26 -0.01,-1 -0.02,-1.98 -0.03,-2.92 0,-0.47 0,-0.93 0,-1.39 0,-0.45 -0.04,-0.87 -0.05,-1.29 -0.04,-0.84 -0.07,-1.72 -0.11,-2.65 -0.11,-0.93 -0.23,-1.89 -0.36,-2.89 -0.08,-1.01 -0.36,-2.02 -0.55,-3.07 -0.11,-0.52 -0.2,-1.05 -0.33,-1.58 -0.14,-0.53 -0.29,-1.06 -0.43,-1.59 -1.14,-4.27 -2.89,-8.6 -4.79,-12.39 -1.89,-3.8 -3.92,-7.06 -5.45,-9.37 -1.53,-2.32 -2.55,-3.69 -2.42,-3.8 0.24,-0.24 5.09,4.79 9.35,12.38 2.14,3.77 4.11,8.17 5.42,12.58 0.16,0.55 0.33,1.1 0.49,1.64 0.15,0.55 0.25,1.1 0.38,1.64 0.22,1.09 0.52,2.15 0.63,3.2 0.14,1.05 0.29,2.06 0.41,3.04 0.05,0.98 0.09,1.92 0.13,2.8 0.05,0.89 0.05,1.79 0.05,2.73 0,0.94 0,1.91 0,2.91 0,2 0.02,4.1 0.02,6.24 0.03,4.27 0.1,8.68 0.19,12.66 0.08,3.98 0.18,7.54 0.17,10.11 0,2.57 -0.15,4.15 -0.31,4.15 z"
     id="path64" />
  <path
     class="cls-1"
     d="m 179.344,222.68 c -0.26,0.12 -2.46,-4.09 -4.36,-9.84 -0.44,-1.44 -0.93,-2.96 -1.37,-4.52 -0.4,-1.57 -0.82,-3.16 -1.2,-4.74 -0.33,-1.59 -0.66,-3.15 -0.97,-4.63 -0.27,-1.49 -0.5,-2.91 -0.71,-4.19 -0.81,-5.14 -1.55,-12.9 -1.7,-19.37 -0.1,-3.23 -0.06,-6.15 0.02,-8.25 0.1,-2.1 0.26,-3.39 0.43,-3.39 0.16,0 0.31,1.29 0.5,3.37 0.19,2.1 0.44,4.97 0.73,8.17 0.57,6.4 1.57,14.03 2.37,19.11 0.2,1.27 0.42,2.67 0.66,4.14 0.26,1.47 0.54,3.02 0.82,4.59 0.32,1.56 0.65,3.15 0.97,4.71 0.35,1.55 0.74,3.07 1.07,4.52 1.46,5.77 3.08,10.16 2.74,10.31 z"
     id="path66" />
  <path
     class="cls-1"
     d="m 134.924,101.21 c -0.11,-0.13 0.37,-0.73 1.11,-1.71 0.74,-0.98 1.75,-2.34 2.62,-3.96 0.42,-0.81 0.8,-1.7 1.04,-2.6 l 0.16,-0.68 0.08,-0.67 c 0.07,-0.52 0.12,-1.15 0.27,-1.68 0.25,-1.11 0.64,-2.14 1.08,-3.07 0.43,-0.93 0.91,-1.77 1.37,-2.5 0.92,-1.47 2.22,-3.17 3.69,-4.83 0.37,-0.41 0.73,-0.82 1.11,-1.23 0.15,-0.15 0.33,-0.55 0.41,-1.01 0.18,-0.93 0.17,-1.99 0.13,-2.99 -0.1,-2.02 -0.36,-3.87 -0.49,-5.22 -0.14,-1.34 -0.12,-2.23 0.08,-2.24 0.14,0 0.41,0.75 0.83,2.05 0.4,1.3 0.92,3.11 1.25,5.23 0.16,1.06 0.28,2.2 0.15,3.46 -0.08,0.63 -0.21,1.33 -0.76,2.06 -0.34,0.43 -0.69,0.87 -1.02,1.29 -1.34,1.69 -2.51,3.34 -3.36,4.7 -0.42,0.68 -0.88,1.43 -1.28,2.25 -0.42,0.81 -0.79,1.69 -1.05,2.59 -0.15,0.46 -0.2,0.88 -0.31,1.39 l -0.17,0.87 c -0.08,0.28 -0.17,0.55 -0.26,0.83 -0.39,1.07 -0.92,2.03 -1.48,2.87 -1.15,1.67 -2.42,2.92 -3.4,3.74 -0.98,0.81 -1.67,1.19 -1.77,1.06 z"
     id="path68" />
  <path
     class="cls-1"
     d="m 199.834,102.55 c -0.16,0.05 -0.47,-0.38 -0.97,-1.09 -0.51,-0.75 -1.17,-1.73 -1.91,-2.82 -1.5,-2.22 -3.41,-4.88 -4.88,-6.48 -0.18,-0.21 -0.38,-0.39 -0.58,-0.6 -0.21,-0.22 -0.4,-0.35 -0.66,-0.58 -0.68,-0.54 -1.23,-1.18 -1.71,-1.85 -0.97,-1.34 -1.71,-2.82 -2.31,-4.18 -1.19,-2.73 -1.77,-5.03 -1.47,-5.15 0.31,-0.12 1.43,1.93 2.96,4.37 0.77,1.21 1.63,2.53 2.55,3.61 0.46,0.54 0.94,1.01 1.37,1.33 0.28,0.22 0.65,0.49 0.89,0.73 0.26,0.25 0.52,0.49 0.72,0.72 1.7,1.86 3.41,4.75 4.59,7.25 0.59,1.25 1.04,2.4 1.29,3.26 0.26,0.86 0.29,1.44 0.13,1.49 z"
     id="path70" />
  <path
     class="cls-1"
     d="m 3.9240045,93.28 c -0.07,0.04 -0.55,-0.56 -1.12,-1.82 -0.58,-1.25 -1.25,-3.15 -1.72,-5.59 -0.46000001,-2.45 -0.77000001,-5.39 -0.63000001,-8.75 0.11,-1.71 0.54,-3.48 1.24000001,-5.2 0.7,-1.72 1.66,-3.4 2.8,-4.99 2.29,-3.19 5.27,-6.07 8.4999995,-8.67 1.61,-1.3 3.32,-2.53 4.98,-3.73 1.66,-1.2 3.3,-2.44 4.91,-3.69 3.22,-2.5 6.32,-5.05 9.2,-7.54 1.43,-1.24 2.95,-2.53 4.59,-3.5 1.64,-0.98 3.33,-1.68 4.92,-2.23 3.21,-1.1 6.82,-1.97 10.67,-2.91 0.96,-0.23 1.94,-0.46 2.94,-0.7 0.51,-0.11 1.03,-0.21 1.55,-0.32 0.52,-0.11 1.04,-0.22 1.57,-0.29 0.53,-0.08 1.06,-0.16 1.6,-0.23 0.54,-0.07 1.08,-0.1 1.62,-0.16 1.09,-0.12 2.19,-0.12 3.29,-0.16 2.21,0 4.43,0.14 6.62,0.34 2.2,0.2 4.36,0.45 6.51,0.6 4.3,0.33 8.5,0.08 12.48,-0.71 4.12,-0.76 8.09,-0.9 11.659996,-0.78 3.57,0.12 6.76,0.49 9.4,0.91 2.65,0.42 4.76,0.89 6.21,1.25 1.45,0.37 2.22,0.62 2.21,0.69 -0.04,0.21 -3.26,-0.46 -8.54,-1.02 -2.64,-0.27 -5.8,-0.51 -9.3,-0.5 -3.499996,0.02 -7.369996,0.27 -11.299996,1.1 -4.05,0.92 -8.52,1.29 -12.93,1.03 -2.21,-0.1 -4.41,-0.32 -6.57,-0.48 -2.17,-0.16 -4.31,-0.27 -6.41,-0.24 -1.05,0.05 -2.1,0.06 -3.12,0.19 -0.51,0.06 -1.03,0.09 -1.54,0.17 -0.51,0.08 -1.01,0.16 -1.51,0.24 -0.5,0.07 -1,0.18 -1.49,0.29 -0.49,0.11 -0.98,0.21 -1.46,0.32 -0.99,0.25 -1.96,0.49 -2.92,0.73 -3.83,0.97 -7.42,1.86 -10.44,2.9 -1.51,0.52 -3.04,1.16 -4.49,2.02 -1.47,0.86 -2.82,1.98 -4.29,3.24 -2.94,2.49 -6.1,5.03 -9.38,7.51 -1.65,1.24 -3.32,2.47 -5.03,3.65 -1.71,1.18 -3.37,2.33 -4.97,3.57 -3.19,2.46 -6.1199995,5.16 -8.3599995,8.11 -2.26,2.94 -3.75,6.2 -4.07,9.31 -0.25,3.17 -0.09,6.1 0.22,8.49 0.32,2.4 0.83,4.29 1.26,5.56 0.42,1.28 0.75,1.95 0.68,1.99 z"
     id="path72" />
  <path
     class="cls-1"
     d="m 95.134004,256.06 c 0.1,0 0,1.29 -0.38,3.56 -0.23,1.11 -0.13,2.48 0.12,4.09 0.25,1.61 0.65,3.44 0.95,5.51 0.15,1.04 0.26,2.14 0.3,3.3 0.03,1.16 -0.02,2.39 -0.28,3.64 -0.27,1.25 -0.74,2.56 -1.66,3.69 -0.46,0.56 -1.06,1.05 -1.74,1.4 -0.69,0.35 -1.47,0.53 -2.25,0.54 l -0.59,-0.02 -0.58,-0.08 c -0.41,-0.09 -0.84,-0.22 -1.24,-0.49 -0.2,-0.11 -0.36,-0.31 -0.53,-0.47 -0.15,-0.18 -0.26,-0.38 -0.39,-0.57 -0.09,-0.2 -0.17,-0.4 -0.26,-0.6 l -0.16,-0.6 c -0.3,-1.58 -0.22,-3.06 -0.4,-4.49 -0.09,-0.71 -0.23,-1.4 -0.48,-2.02 -0.29,-0.7 -0.6,-1.4 -0.92,-2.11 -0.63,-1.42 -1.37,-2.9 -1.73,-4.64 -0.19,-0.86 -0.18,-1.81 -0.19,-2.58 0,-0.81 -0.03,-1.63 -0.06,-2.44 -0.06,-1.64 -0.17,-3.29 -0.3,-4.97 -0.14,-1.68 -0.28,-3.37 -0.43,-5.07 -0.16,-1.75 -0.18,-3.5 -0.16,-5.26 0.04,-3.51 0.33,-7.01 0.59,-10.49 0.13,-1.74 0.26,-3.48 0.36,-5.2 0.05,-0.86 0.09,-1.73 0.12,-2.59 0.02,-0.43 0.03,-0.86 0.04,-1.29 v -0.64 c 0.02,-0.22 0.03,-0.44 0,-0.59 -0.06,-1.4 -0.73,-2.93 -1.53,-4.34 -0.81,-1.42 -1.78,-2.78 -2.79,-4.09 -2.03,-2.63 -4.24,-5.08 -6.44,-7.43 -4.42,-4.69 -8.82,-8.96 -12.81,-12.84 -4,-3.87 -8.51,-8.23 -13.32,-12.89 -2.4,-2.34 -4.87,-4.76 -7.38,-7.25 -2.5,-2.5 -5.08,-5.02 -7.6,-7.69 -5.1,-5.27 -10.05,-10.96 -14.34,-17.06 -4.27,-6.09 -7.9699995,-12.56 -10.1999995,-19.28 -0.54,-1.68 -1.02,-3.36 -1.36,-5.05 -0.37,-1.68 -0.57,-3.36 -0.86,-4.94 -0.59,-3.21 -1.16,-6.3 -1.71,-9.25 -0.54,-2.94 -1.05,-5.74 -1.53,-8.35 -0.23000001,-1.32 -0.49000001,-2.55 -0.66000001,-3.81 -0.18,-1.24 -0.25,-2.44 -0.31,-3.57 -0.16,-4.55 0.15,-8.2 0.39,-10.71 0.26,-2.51 0.5,-3.88 0.58000001,-3.87 0.08,0 0,1.4 -0.11000001,3.91 -0.08,2.51 -0.25,6.15 0.06,10.62 0.09,1.11 0.20000001,2.28 0.40000001,3.47 0.19,1.18 0.49,2.45 0.75,3.75 0.54,2.6 1.11,5.39 1.72,8.32 0.6,2.93 1.23,6.02 1.89,9.22 0.33,1.63 0.55,3.26 0.93,4.87 0.35,1.62 0.85,3.23 1.39,4.85 2.2499995,6.46 5.9499995,12.74 10.2099995,18.67 4.28,5.94 9.22,11.51 14.31,16.68 2.51,2.62 5.11,5.12 7.62,7.6 2.53,2.46 5.01,4.86 7.41,7.19 4.82,4.64 9.34,8.99 13.35,12.85 4,3.89 8.4,8.19 12.86,12.96 2.22,2.39 4.46,4.89 6.55,7.64 1.04,1.38 2.05,2.8 2.93,4.37 0.86,1.57 1.68,3.28 1.77,5.37 0.02,0.27 0.01,0.49 0,0.71 l -0.02,0.66 c -0.01,0.44 -0.03,0.88 -0.05,1.32 -0.04,0.88 -0.09,1.75 -0.15,2.63 -0.12,1.75 -0.26,3.5 -0.42,5.24 -0.3,3.48 -0.62,6.94 -0.7,10.36 -0.04,1.71 -0.03,3.4 0.09,5.07 0.12,1.71 0.24,3.41 0.36,5.1 0.1,1.69 0.19,3.37 0.23,5.04 0.02,0.84 0.02,1.67 0.02,2.49 0,0.86 -0.03,1.55 0.12,2.27 0.26,1.44 0.92,2.86 1.54,4.31 0.31,0.72 0.62,1.45 0.9,2.18 0.31,0.82 0.45,1.64 0.54,2.43 0.16,1.58 0.06,3.09 0.29,4.37 0.12,0.64 0.35,1.14 0.74,1.4 0.19,0.14 0.43,0.22 0.71,0.29 l 0.45,0.08 0.45,0.03 c 1.2,0.02 2.3,-0.52 3.06,-1.41 0.76,-0.89 1.22,-2.01 1.49,-3.14 0.52,-2.28 0.38,-4.55 0.17,-6.58 -0.23,-2.04 -0.55,-3.89 -0.73,-5.53 -0.18,-1.64 -0.21,-3.13 0.11,-4.27 0.26,-1.12 0.46,-1.98 0.6,-2.58 0.14,-0.59 0.21,-0.89 0.25,-0.89 z"
     id="path74" />
  <path
     class="cls-1"
     d="m 127.084,262.13 c 0.08,-0.1 1.87,1.31 4.97,3.36 1.55,1.01 3.43,2.18 5.62,3.31 2.21,1.12 4.65,2.41 7.21,3.77 2.56,1.35 5.26,2.77 8.07,3.99 0.35,0.16 0.71,0.29 1.06,0.44 0.37,0.16 0.75,0.31 1.12,0.5 0.75,0.35 1.47,0.8 2.14,1.34 0.67,0.54 1.28,1.21 1.71,2.01 0.44,0.8 0.68,1.72 0.69,2.62 0,0.23 0,0.45 -0.02,0.67 -0.02,0.22 -0.04,0.44 -0.09,0.66 -0.04,0.22 -0.09,0.43 -0.15,0.63 l -0.09,0.31 -0.14,0.34 c -0.38,0.91 -1.14,1.62 -1.93,2.03 -1.61,0.82 -3.28,0.9 -4.82,0.8 -0.78,-0.06 -1.54,-0.18 -2.29,-0.38 -0.78,-0.22 -1.39,-0.49 -2.05,-0.74 -1.28,-0.51 -2.5,-1.01 -3.66,-1.5 -2.31,-0.98 -4.9,-2.11 -7.64,-3.38 -2.74,-1.28 -5.63,-2.67 -8.53,-4.28 -1.45,-0.78 -2.91,-1.69 -4.29,-2.65 -1.36,-0.95 -2.73,-1.9 -4.09,-2.85 -2.72,-1.9 -5.4,-3.78 -7.96,-5.57 -2.55,-1.8 -4.96,-3.52 -7.14,-5.12 -2.17,-1.6 -4.11,-3.03 -5.679996,-4.36 -0.19,-0.18 -0.38,-0.35 -0.57,-0.52 -0.17,-0.15 -0.32,-0.31 -0.5,-0.44 -0.34,-0.27 -0.69,-0.48 -1.04,-0.64 -0.69,-0.33 -1.36,-0.48 -1.9,-0.56 -1.1,-0.14 -1.72,-0.04 -1.73,-0.11 -0.01,-0.05 0.6,-0.28 1.76,-0.25 0.58,0.02 1.3,0.11 2.08,0.43 0.39,0.15 0.8,0.36 1.19,0.64 0.2,0.13 0.38,0.3 0.58,0.46 0.18,0.15 0.37,0.3 0.56,0.45 1.589996,1.21 3.599996,2.57 5.819996,4.08 2.23,1.5 4.69,3.15 7.28,4.89 2.6,1.73 5.32,3.55 8.08,5.39 1.38,0.92 2.76,1.85 4.15,2.78 1.37,0.92 2.74,1.74 4.19,2.5 2.86,1.53 5.75,2.89 8.47,4.13 2.73,1.24 5.3,2.35 7.6,3.32 1.15,0.49 2.36,0.99 3.62,1.49 0.62,0.24 1.29,0.52 1.87,0.69 0.62,0.17 1.28,0.28 1.95,0.34 1.33,0.11 2.78,0 3.89,-0.57 0.55,-0.28 0.97,-0.68 1.2,-1.19 l 0.09,-0.19 0.07,-0.25 c 0.05,-0.16 0.1,-0.33 0.12,-0.49 0.04,-0.16 0.06,-0.33 0.08,-0.5 0.03,-0.17 0.03,-0.33 0.03,-0.49 0.02,-1.32 -0.66,-2.54 -1.76,-3.44 -0.54,-0.45 -1.15,-0.85 -1.82,-1.18 -0.33,-0.17 -0.67,-0.31 -1.01,-0.47 -0.36,-0.16 -0.73,-0.31 -1.09,-0.48 -2.87,-1.32 -5.55,-2.82 -8.08,-4.24 -2.52,-1.43 -4.91,-2.78 -7.08,-4 -2.19,-1.23 -4.04,-2.51 -5.55,-3.62 -1.5,-1.12 -2.66,-2.08 -3.44,-2.77 -0.78,-0.69 -1.17,-1.11 -1.13,-1.16 z"
     id="path76" />
  <path
     class="cls-1"
     d="m 143.094,243.66 c 0.06,-0.09 1.41,0.71 3.66,1.96 2.24,1.26 5.35,3 8.82,5.01 3.46,2.02 7.31,4.23 10.88,6.71 1.76,1.24 3.52,2.46 5.01,3.97 0.73,0.76 1.41,1.63 1.78,2.68 0.38,1.05 0.31,2.2 0,3.13 -0.08,0.23 -0.17,0.46 -0.26,0.69 -0.11,0.22 -0.22,0.44 -0.34,0.66 -0.24,0.44 -0.58,0.95 -1.1,1.32 -0.52,0.38 -1.19,0.56 -1.81,0.56 -0.62,0 -1.2,-0.13 -1.73,-0.31 -1.08,-0.36 -2.05,-0.9 -3.01,-1.46 -0.96,-0.57 -1.9,-1.18 -2.85,-1.8 -1.89,-1.24 -3.82,-2.5 -5.8,-3.56 -0.98,-0.53 -2.02,-1.02 -3.02,-1.52 -1,-0.5 -1.99,-0.99 -2.95,-1.47 -3.85,-1.93 -7.31,-3.66 -9.83,-4.87 -1.26,-0.6 -2.28,-1.08 -2.99,-1.38 -0.71,-0.31 -1.11,-0.4 -1.12,-0.46 0,-0.05 0.46,-0.05 1.21,0.18 0.76,0.21 1.83,0.61 3.13,1.13 2.6,1.05 6.14,2.64 10.05,4.45 0.98,0.45 1.98,0.92 3,1.39 1.02,0.48 2.05,0.93 3.09,1.46 2.08,1.05 4.06,2.29 5.97,3.5 0.96,0.6 1.9,1.19 2.83,1.73 0.93,0.53 1.86,1.01 2.75,1.3 0.9,0.3 1.73,0.32 2.23,-0.06 0.27,-0.19 0.47,-0.48 0.66,-0.84 0.09,-0.18 0.19,-0.37 0.28,-0.55 0.07,-0.18 0.13,-0.36 0.2,-0.54 0.22,-0.71 0.27,-1.46 0.01,-2.2 -0.25,-0.74 -0.78,-1.47 -1.43,-2.15 -1.32,-1.37 -3.03,-2.61 -4.76,-3.86 -3.45,-2.49 -7.24,-4.8 -10.63,-6.93 -3.4,-2.11 -6.43,-4 -8.58,-5.41 -2.16,-1.4 -3.41,-2.37 -3.35,-2.45 z"
     id="path78" />
  <path
     class="cls-1"
     d="m 136.444,253.53 c 0,0 -0.03,0.03 -0.08,0.04 -0.05,0 -0.15,0.06 -0.11,0.06 0.08,0.12 0.39,0.31 0.74,0.52 0.72,0.42 1.81,0.97 3.18,1.63 0.69,0.33 1.44,0.69 2.24,1.07 0.81,0.38 1.69,0.77 2.6,1.24 1.82,0.93 3.77,2.03 5.83,3.21 4.11,2.36 8.63,5.03 12.95,7.75 1.08,0.69 2.14,1.36 3.18,2.06 1.04,0.71 2.06,1.44 2.96,2.39 0.45,0.46 0.85,1.01 1.13,1.64 0.31,0.62 0.38,1.35 0.35,2.01 -0.05,0.33 -0.08,0.66 -0.18,0.96 l -0.14,0.45 -0.18,0.41 c -0.21,0.53 -0.6,1.14 -1.1,1.54 -0.5,0.42 -1.14,0.68 -1.77,0.79 -0.63,0.11 -1.26,0.1 -1.87,0.03 -1.23,-0.15 -2.41,-0.52 -3.59,-0.96 -2.36,-0.9 -4.7,-2.11 -7.07,-3.37 -4.7,-2.56 -9.62,-5.24 -14.09,-7.67 -2.24,-1.21 -4.37,-2.35 -6.32,-3.35 -0.97,-0.5 -1.9,-0.98 -2.77,-1.37 -0.88,-0.4 -1.71,-0.74 -2.48,-1.04 -1.54,-0.59 -2.8,-1.02 -3.67,-1.31 -0.43,-0.14 -0.77,-0.25 -1.01,-0.32 -0.23,-0.08 -0.34,-0.1 -0.35,-0.12 0.02,-0.17 2.06,0.18 5.22,1.2 0.79,0.26 1.65,0.56 2.57,0.93 0.92,0.37 1.87,0.81 2.86,1.28 1.99,0.94 4.16,2.02 6.43,3.17 4.55,2.29 9.52,4.91 14.25,7.39 2.37,1.22 4.69,2.39 6.94,3.22 1.12,0.41 2.22,0.74 3.26,0.85 1.03,0.12 1.97,-0.02 2.53,-0.49 0.29,-0.24 0.51,-0.54 0.69,-1 l 0.15,-0.33 0.1,-0.33 c 0.09,-0.22 0.1,-0.44 0.13,-0.67 0.08,-0.88 -0.32,-1.75 -1.07,-2.54 -0.74,-0.79 -1.69,-1.51 -2.69,-2.21 -1,-0.69 -2.06,-1.39 -3.12,-2.08 -4.24,-2.76 -8.71,-5.52 -12.74,-7.99 -2.02,-1.23 -3.94,-2.39 -5.69,-3.38 -0.87,-0.49 -1.73,-0.92 -2.53,-1.34 -0.8,-0.42 -1.53,-0.82 -2.2,-1.19 -1.33,-0.75 -2.38,-1.38 -3.07,-1.89 -0.34,-0.27 -0.61,-0.45 -0.72,-0.73 -0.02,-0.11 0.1,-0.18 0.14,-0.17 0.05,0 0.09,0 0.12,0 0.06,0.01 0.09,0.02 0.09,0.04 z"
     id="path80" />
  <path
     class="cls-1"
     d="m 66.814004,103.95 c 0,0 -0.06,-0.1 0,-0.26 0.06,-0.17 0.23,-0.35 0.47,-0.52 0.49,-0.34 1.26,-0.61 2.19,-0.9 0.93,-0.29 2.03,-0.6 3.19,-1.07 1.15,-0.47 2.35,-1.11 3.3,-2.07 0.24,-0.23 0.46,-0.5 0.66,-0.77 0.1,-0.13 0.19,-0.28 0.28,-0.42 l 0.3,-0.5 c 0.41,-0.67 0.8,-1.35 1.18,-2.05 0.76,-1.38 1.42,-2.82 1.92,-4.29 1.01,-2.93 1.36,-5.97 1.49,-8.5 0.03,-0.63 0.07,-1.31 0.07,-2.02 0.02,-0.71 0.01,-1.45 0,-2.22 -0.02,-1.54 -0.15,-3.13 -0.36,-4.79 -0.43,-3.31 -1.27,-6.75 -2.16,-9.84 -1.78,-6.2 -3.84,-10.97 -3.54,-11.12 0.29,-0.15 2.91,4.41 5.14,10.6 1.11,3.09 2.15,6.58 2.73,10.03 0.28,1.72 0.47,3.45 0.52,5.05 0.04,0.8 0.06,1.57 0.05,2.31 0,0.74 -0.02,1.45 -0.06,2.12 -0.13,2.66 -0.58,5.94 -1.8,9.12 -0.6,1.59 -1.39,3.12 -2.27,4.53 -0.44,0.71 -0.89,1.39 -1.34,2.04 l -0.34,0.49 c -0.13,0.18 -0.26,0.36 -0.4,0.52 -0.28,0.33 -0.58,0.64 -0.9,0.92 -1.27,1.11 -2.72,1.71 -4.01,2.09 -1.29,0.38 -2.46,0.57 -3.42,0.72 -0.96,0.15 -1.72,0.26 -2.18,0.42 -0.48,0.14 -0.6,0.37 -0.69,0.35 z"
     id="path82" />
  <path
     class="cls-1"
     d="m 63.904004,94.46 c -0.17,-0.01 -0.31,-0.39 -0.45,-0.99 -0.08,-0.3 -0.16,-0.66 -0.25,-1.06 -0.09,-0.4 -0.18,-0.85 -0.28,-1.32 -0.38,-1.88 -0.81,-4.18 -1.04,-5.82 -0.44,-3.29 -1.02,-9.91 -0.39,-10.03 0.66,-0.12 2.3,6.37 2.74,9.7 0.23,1.66 0.41,4.03 0.36,6 -0.01,0.49 -0.04,0.96 -0.07,1.38 -0.04,0.43 -0.1,0.81 -0.16,1.13 -0.14,0.64 -0.31,1.02 -0.47,1.01 z"
     id="path84" />
  <path
     class="cls-1"
     d="m 149.684,247.72 c 0.05,-0.11 1.95,0.63 5.14,2.18 1.6,0.77 3.53,1.78 5.71,2.9 1.08,0.55 2.27,1.05 3.55,1.32 0.64,0.11 1.3,0.17 1.9,0.04 0.3,-0.05 0.58,-0.17 0.82,-0.32 0.11,-0.08 0.22,-0.17 0.31,-0.27 0.04,-0.05 0.08,-0.1 0.12,-0.15 0.03,-0.04 0.07,-0.13 0.07,-0.12 l -0.03,0.05 0.07,-0.14 c 0.27,-0.51 0.34,-1.1 0.19,-1.74 -0.15,-0.63 -0.47,-1.28 -0.88,-1.9 -0.82,-1.24 -1.93,-2.4 -3.13,-3.52 -2.42,-2.23 -5.28,-4.3 -8.25,-6.43 -2.96,-2.07 -6.21,-4.06 -9.42,-6.24 -3.22,-2.17 -6.43,-4.51 -9.48,-7.09 -1.53,-1.32 -2.96,-2.6 -4.48,-3.85 -1.5,-1.25 -3.03,-2.47 -4.56,-3.7 -3.07,-2.44 -6.05,-5.03 -8.73,-7.75 -5.35,-5.42 -9.9,-11.05 -13.5,-16.29 -2.74,-3.98 -5.559996,-8.63 -8.109996,-13.86 -2.54,-5.22 -4.75,-11.04 -6.34,-17.17 -0.39,-1.52 -0.77,-3.04 -1.16,-4.58 -0.36,-1.52 -0.81,-3.03 -1.24,-4.55 -0.21,-0.76 -0.44,-1.51 -0.68,-2.27 l -0.71,-2.26 c -0.48,-1.5 -1.02,-2.99 -1.53,-4.48 -2.12,-5.93 -4.51,-11.69 -6.95,-17.1 -2.44,-5.41 -4.95,-10.47 -7.34,-15 -0.61,-1.13 -1.2,-2.24 -1.77,-3.31 -0.57,-1.09 -1.08,-2.16 -1.57,-3.19 -0.97,-2.07 -1.84,-4.01 -2.61,-5.79 -1.55,-3.55 -2.74,-6.45 -3.53,-8.45 -0.79,-2.01 -1.19,-3.14 -1.11,-3.17 0.08,-0.03 0.62,1.03 1.55,2.98 0.93,1.95 2.27,4.77 3.93,8.26 0.84,1.74 1.76,3.65 2.79,5.67 0.52,1.01 1.06,2.05 1.64,3.11 0.6,1.06 1.22,2.14 1.85,3.26 2.52,4.49 5.14,9.53 7.7,14.93 2.55,5.4 5.06,11.17 7.28,17.13 0.53,1.5 1.09,2.99 1.6,4.51 l 0.75,2.28 c 0.26,0.76 0.5,1.52 0.72,2.29 0.45,1.53 0.93,3.06 1.31,4.61 0.4,1.53 0.81,3.05 1.21,4.56 1.6,5.97 3.8,11.62 6.31,16.71 2.519996,5.09 5.289996,9.63 7.969996,13.53 3.52,5.14 7.97,10.68 13.17,16.03 2.6,2.68 5.44,5.2 8.48,7.66 1.51,1.24 3.04,2.49 4.55,3.77 1.51,1.27 3,2.65 4.45,3.92 2.94,2.55 6.06,4.9 9.21,7.1 3.14,2.22 6.33,4.24 9.34,6.43 2.94,2.2 5.79,4.35 8.26,6.74 1.22,1.2 2.37,2.44 3.26,3.87 0.44,0.72 0.81,1.49 0.99,2.35 0.19,0.85 0.07,1.84 -0.39,2.62 l 0.04,-0.08 c -0.52,1.04 -1.42,1.39 -2.25,1.55 -0.84,0.14 -1.61,0.03 -2.34,-0.11 -1.43,-0.35 -2.67,-0.93 -3.77,-1.54 -2.15,-1.22 -4.02,-2.29 -5.57,-3.16 -1.55,-0.86 -2.76,-1.53 -3.6,-1.99 -0.83,-0.46 -1.27,-0.71 -1.25,-0.76 z"
     id="path86" />
  <path
     class="cls-1"
     d="m 168.244,251.91 c 0.18,0.07 -0.15,1.28 -1.22,2.45 l -0.21,0.22 c -0.08,0.08 -0.11,0.12 -0.27,0.25 -0.13,0.11 -0.27,0.21 -0.41,0.31 l -0.21,0.15 c 0,0 -0.04,0.02 -0.06,0 l -0.06,-0.03 -0.11,-0.06 c -0.74,-0.37 -0.95,-0.52 -1.33,-0.76 -0.69,-0.46 -1.34,-1.01 -1.76,-1.68 -0.2,-0.33 -0.44,-0.79 -0.4,-1.42 0.02,-0.31 0.13,-0.63 0.3,-0.88 0.17,-0.27 0.38,-0.44 0.6,-0.62 0.49,-0.36 1.13,-0.45 1.64,-0.39 0.53,0.06 0.96,0.24 1.34,0.44 0.76,0.4 1.32,0.89 1.69,1.27 0.37,0.38 0.54,0.67 0.47,0.75 -0.07,0.08 -0.36,-0.06 -0.81,-0.29 -0.45,-0.22 -1.07,-0.55 -1.75,-0.77 -0.69,-0.24 -1.43,-0.24 -1.74,0.07 -0.22,0.2 -0.29,0.37 -0.28,0.49 0,0.14 0.09,0.35 0.21,0.55 0.25,0.4 0.74,0.9 1.32,1.36 0.25,0.21 0.71,0.54 0.64,0.52 0.03,0.05 0.06,0 0.1,0 0,0.01 0.11,-0.07 0.17,-0.11 l 0.21,-0.15 c 1.1,-0.82 1.74,-1.77 1.93,-1.68 z"
     id="path88" />
  <path
     class="cls-1"
     d="m 172.204,265.19 c 0.18,0.05 -0.1,1.57 -1.22,3.19 -0.14,0.2 -0.29,0.4 -0.45,0.6 -0.18,0.21 -0.29,0.35 -0.67,0.7 l -0.26,0.22 -0.13,0.11 c 0,0 -0.09,0.09 -0.14,0.04 l -0.6,-0.32 c -0.09,-0.05 -0.22,-0.13 -0.28,-0.16 l -0.17,-0.1 c -0.11,-0.07 -0.22,-0.14 -0.33,-0.21 -0.88,-0.57 -1.66,-1.24 -2.23,-1.96 -0.27,-0.37 -0.57,-0.81 -0.73,-1.45 -0.03,-0.17 -0.05,-0.34 -0.06,-0.51 0.02,-0.18 0.03,-0.38 0.07,-0.56 0.07,-0.18 0.13,-0.37 0.22,-0.53 0.11,-0.15 0.21,-0.31 0.34,-0.44 0.48,-0.5 1.15,-0.78 1.78,-0.86 0.64,-0.09 1.24,0.01 1.76,0.18 1.05,0.32 1.83,0.84 2.36,1.25 0.53,0.42 0.79,0.74 0.73,0.82 -0.06,0.08 -0.43,-0.08 -1.02,-0.32 -0.59,-0.24 -1.41,-0.58 -2.31,-0.72 -0.9,-0.18 -1.83,0.02 -2.3,0.59 -0.21,0.27 -0.24,0.46 -0.16,0.77 0.09,0.3 0.3,0.62 0.5,0.89 0.43,0.54 1.08,1.18 1.84,1.75 0.09,0.07 0.19,0.15 0.28,0.21 l 0.15,0.1 c 0.05,0.04 0.03,0.03 0.04,0.04 l 0.04,0.04 c 0,0 0.03,0 0.05,-0.01 0,0.03 0.23,-0.18 0.38,-0.33 0.17,-0.16 0.32,-0.32 0.47,-0.48 1.21,-1.29 1.83,-2.62 2.04,-2.54 z"
     id="path90" />
  <path
     class="cls-1"
     d="m 170.054,275.62 c 0.19,0.03 0.07,1.64 -0.89,3.45 -0.12,0.22 -0.25,0.45 -0.39,0.68 l -0.22,0.34 -0.12,0.17 -0.2,0.26 c -0.14,0.18 -0.3,0.36 -0.46,0.53 -0.04,0.04 -0.08,0.1 -0.12,0.13 l -0.16,-0.08 -0.32,-0.15 c -0.11,-0.05 -0.21,-0.1 -0.32,-0.16 l -0.28,-0.15 c -0.12,-0.06 -0.24,-0.14 -0.36,-0.21 -0.94,-0.56 -1.79,-1.25 -2.38,-2.01 -0.29,-0.37 -0.6,-0.84 -0.77,-1.46 -0.18,-0.6 -0.17,-1.37 0.12,-2.01 0.13,-0.31 0.33,-0.65 0.64,-0.91 0.3,-0.26 0.67,-0.43 1.02,-0.5 0.71,-0.14 1.32,-0.02 1.87,0.12 1.09,0.31 1.92,0.8 2.5,1.18 0.58,0.39 0.88,0.7 0.83,0.78 -0.05,0.09 -0.45,-0.05 -1.09,-0.27 -0.63,-0.21 -1.51,-0.53 -2.46,-0.67 -0.47,-0.07 -0.97,-0.08 -1.35,0.04 -0.38,0.14 -0.56,0.33 -0.69,0.73 -0.27,0.73 0.09,1.48 0.55,2.05 0.44,0.57 1.14,1.21 1.94,1.77 0.1,0.07 0.2,0.14 0.31,0.21 0.07,0.05 0.05,0.04 0.06,0.05 l 0.02,0.02 c 0,0 0.05,0.03 0.1,0 l 0.05,-0.04 0.12,-0.14 0.23,-0.28 c 0.15,-0.19 0.29,-0.38 0.43,-0.57 1.1,-1.51 1.57,-2.95 1.79,-2.9 z"
     id="path92" />
  <path
     class="cls-1"
     d="m 158.164,282.23 c 0.12,0 0.3,0.78 0.09,1.97 -0.11,0.59 -0.34,1.27 -0.71,1.94 -0.19,0.33 -0.41,0.67 -0.67,0.98 -0.13,0.16 -0.27,0.31 -0.42,0.46 -0.03,0.03 -0.09,0.08 -0.16,0.14 l -0.19,0.16 c -0.14,0.1 -0.28,0.21 -0.42,0.3 l -0.43,-0.15 -0.39,-0.15 c -0.16,-0.07 -0.32,-0.13 -0.47,-0.2 -0.31,-0.14 -0.61,-0.3 -0.9,-0.46 -0.58,-0.33 -1.1,-0.72 -1.53,-1.15 -0.34,-0.35 -0.72,-0.81 -0.95,-1.46 -0.11,-0.32 -0.17,-0.68 -0.15,-1.05 0.02,-0.37 0.13,-0.73 0.27,-1.05 0.14,-0.32 0.38,-0.59 0.59,-0.88 0.27,-0.25 0.53,-0.49 0.86,-0.64 0.64,-0.32 1.32,-0.4 1.91,-0.35 1.19,0.1 2.12,0.51 2.75,0.86 0.63,0.35 0.96,0.65 0.91,0.74 -0.05,0.09 -0.47,-0.03 -1.13,-0.2 -0.66,-0.17 -1.59,-0.39 -2.55,-0.34 -0.97,0.04 -1.8,0.51 -2.09,1.36 -0.15,0.39 -0.14,0.74 0,1.07 0.13,0.33 0.38,0.64 0.63,0.9 0.31,0.32 0.73,0.65 1.22,0.96 0.24,0.16 0.5,0.31 0.77,0.45 0.14,0.07 0.27,0.14 0.41,0.21 0.05,0.02 0.05,0.03 0.05,0.03 h 0.01 c 0,0 0.02,0.03 0.02,0.03 0.03,-0.01 0.01,0.02 0.11,-0.06 0.13,-0.1 0.25,-0.22 0.37,-0.33 0.24,-0.23 0.45,-0.49 0.65,-0.75 0.38,-0.52 0.67,-1.07 0.87,-1.57 0.39,-1 0.5,-1.76 0.66,-1.75 z"
     id="path94" />
  <path
     class="cls-1"
     d="m 87.544004,279.67 c 0.03,-0.12 0.23,-0.19 0.5,-0.26 0.14,-0.03 0.29,-0.07 0.44,-0.12 0.08,-0.02 0.15,-0.06 0.21,-0.09 0.04,-0.02 0.05,-0.04 0.06,-0.04 0.01,-0.01 0.02,-0.03 0.03,-0.05 0.04,-0.06 0.05,-0.13 0.02,-0.18 -0.02,-0.04 -0.03,-0.02 -0.05,-0.09 -0.02,-0.11 -0.03,-0.22 -0.05,-0.33 -0.05,-0.22 -0.09,-0.42 -0.13,-0.62 -0.05,-0.19 -0.1,-0.37 -0.13,-0.54 -0.15,-0.66 -0.47,-1.61 -0.92,-2.35 -0.44,-0.76 -0.97,-1.28 -0.87,-1.5 0.1,-0.23 0.98,-0.05 1.82,0.66 0.85,0.69 1.52,1.9 1.71,2.75 0.05,0.21 0.1,0.45 0.13,0.69 0.02,0.25 0.04,0.51 0.04,0.78 0,0.13 -0.01,0.26 -0.02,0.4 -0.01,0.16 0,0.44 -0.06,0.62 -0.14,0.4 -0.49,0.69 -0.84,0.82 -0.09,0.03 -0.18,0.06 -0.27,0.08 -0.1,0.02 -0.19,0.03 -0.26,0.03 -0.14,0 -0.27,0 -0.39,-0.03 -0.23,-0.04 -0.42,-0.11 -0.57,-0.19 -0.29,-0.15 -0.44,-0.31 -0.41,-0.43 z"
     id="path96" />
  <path
     class="cls-1"
     d="m 35.454004,91.17 c 0.11,0.1 0.03,0.46 -0.32,0.91 -0.34,0.45 -0.92,0.98 -1.66,1.43 -1.47,0.92 -3.45,1.49 -4.85,1.71 -1.41,0.23 -3.52,0.29 -5.26,0.1 -1.74,-0.17 -3.11,-0.54 -3.09,-0.87 0.02,-0.33 1.38,-0.55 3.05,-0.81 1.67,-0.25 3.64,-0.56 4.93,-0.77 1.3,-0.2 3.11,-0.47 4.52,-0.89 0.71,-0.2 1.32,-0.44 1.78,-0.63 0.46,-0.18 0.77,-0.31 0.9,-0.19 z"
     id="path98" />
  <path
     class="cls-1"
     d="m 54.334004,166.34 c -0.14,0.25 -3.15,-1.18 -6.5,-3.79 -0.81,-0.67 -1.68,-1.37 -2.54,-2.12 -0.82,-0.78 -1.66,-1.58 -2.48,-2.36 -0.77,-0.83 -1.54,-1.64 -2.26,-2.41 -0.7,-0.8 -1.33,-1.57 -1.91,-2.27 -2.29,-2.82 -5.36,-7.32 -7.52,-11.28 -2.2,-3.94 -3.56,-7.29 -3.26,-7.44 0.29,-0.14 2.16,2.89 4.69,6.56 2.49,3.69 5.71,7.92 7.94,10.67 0.56,0.69 1.18,1.44 1.83,2.24 0.67,0.78 1.38,1.6 2.09,2.44 0.75,0.81 1.5,1.63 2.25,2.44 0.78,0.78 1.54,1.54 2.27,2.26 2.96,2.84 5.59,4.75 5.4,5.06 z"
     id="path100" />
  <path
     class="cls-1"
     d="m 51.634004,11.52 c 0.16,0.04 0.22,0.54 0.22,1.3 -0.02,0.37 0.04,0.83 0.05,1.33 0,0.25 0.02,0.51 0.03,0.78 0.03,0.28 0.06,0.56 0.09,0.85 0.2,2.33 0.74,5.14 1.13,7.14 0.37,2 0.98,5.01 1.53,7.53 0.53,2.52 0.97,4.55 0.66,4.67 -0.31,0.12 -1.32,-1.74 -2.27,-4.18 -0.97,-2.44 -1.87,-5.48 -2.25,-7.57 -0.41,-2.08 -0.71,-5.09 -0.48,-7.59 0.03,-0.31 0.06,-0.61 0.08,-0.9 0.04,-0.29 0.1,-0.57 0.16,-0.84 0.11,-0.53 0.19,-1 0.36,-1.38 0.29,-0.76 0.54,-1.19 0.7,-1.15 z"
     id="path102" />
  <path
     class="cls-1"
     d="m 192.744,66.81 c -0.16,0.12 -1.39,-1.53 -4.03,-3.53 -2.61,-2.03 -6.59,-4.51 -10.67,-7.86 -1.02,-0.83 -2.06,-1.71 -3.08,-2.63 -0.26,-0.23 -0.51,-0.46 -0.77,-0.69 l -0.74,-0.63 -0.79,-0.58 c -0.27,-0.19 -0.55,-0.36 -0.83,-0.54 -2.26,-1.39 -4.89,-2.27 -7.54,-2.87 -5.34,-1.2 -10.77,-1.42 -15.31,-2.23 -1.14,-0.2 -2.35,-0.45 -3.61,-0.81 -1.26,-0.37 -2.59,-0.85 -3.88,-1.61 -0.34,-0.18 -0.61,-0.41 -0.92,-0.61 -0.3,-0.21 -0.61,-0.42 -0.9,-0.65 -0.28,-0.24 -0.56,-0.48 -0.84,-0.72 -0.29,-0.24 -0.57,-0.49 -0.82,-0.76 -0.53,-0.53 -1.07,-1.06 -1.55,-1.63 -0.25,-0.29 -0.5,-0.56 -0.74,-0.86 -0.23,-0.3 -0.47,-0.6 -0.7,-0.9 -1.86,-2.41 -3.42,-5.07 -4.8,-7.77 -0.34,-0.68 -0.67,-1.36 -0.98,-2.04 -0.15,-0.34 -0.31,-0.69 -0.46,-1.03 l -0.22,-0.52 -0.11,-0.26 -0.05,-0.13 c 0,0 -0.06,-0.14 -0.08,-0.21 -0.05,-0.18 -0.05,-0.23 -0.08,-0.34 l -0.06,-0.29 -0.09,-0.56 c -0.06,-0.37 -0.11,-0.74 -0.14,-1.11 -0.08,-0.74 -0.13,-1.46 -0.16,-2.18 -0.06,-1.44 -0.03,-2.83 0.05,-4.17 0.1,-1.35 0.2,-2.58 0.26,-3.79 0.13,-2.4 0.18,-4.57 0.23,-6.4 0.09,-3.64 0.14,-5.89 0.32,-5.9 0.15,0 0.41,2.23 0.61,5.89 0.1,1.83 0.18,4.01 0.17,6.45 0,1.21 -0.05,2.53 -0.08,3.81 -0.02,1.3 0,2.64 0.11,4.01 0.05,0.68 0.13,1.37 0.23,2.06 0.05,0.34 0.11,0.69 0.17,1.03 l 0.1,0.51 0.06,0.25 c 0.02,0.07 0.05,0.2 0.05,0.19 0.14,0.3 0.27,0.6 0.41,0.9 0.16,0.33 0.31,0.65 0.47,0.98 0.32,0.65 0.66,1.3 1.01,1.95 1.41,2.57 2.98,5.1 4.78,7.33 0.23,0.28 0.45,0.55 0.68,0.83 0.23,0.27 0.47,0.52 0.7,0.79 0.46,0.53 0.96,1.01 1.45,1.48 0.24,0.25 0.5,0.46 0.75,0.67 0.26,0.21 0.51,0.43 0.76,0.64 0.26,0.2 0.53,0.37 0.79,0.55 0.27,0.17 0.52,0.38 0.79,0.51 2.12,1.2 4.57,1.7 6.72,2.09 2.17,0.38 4.62,0.66 7.23,1 2.61,0.35 5.38,0.74 8.18,1.44 2.78,0.7 5.61,1.72 8.09,3.34 0.3,0.21 0.61,0.41 0.91,0.63 l 0.86,0.68 c 0.27,0.25 0.54,0.49 0.81,0.74 0.25,0.24 0.49,0.47 0.74,0.7 0.97,0.94 1.95,1.83 2.92,2.69 3.86,3.44 7.67,6.12 10.18,8.43 2.54,2.3 3.55,4.18 3.43,4.24 z"
     id="path104" />
  <metadata
     id="metadata1071">
    <rdf:RDF>
      <cc:Work
         rdf:about="">
        <dc:title>Back Pain</dc:title>
      </cc:Work>
    </rdf:RDF>
  </metadata>
</svg>
