<?xml version="1.0" encoding="UTF-8" standalone="no"?>
<svg
   viewBox="0 0 182.7164 300.51999"
   version="1.1"
   id="svg86"
   width="182.7164"
   height="300.51999"
   xmlns="http://www.w3.org/2000/svg"
   xmlns:svg="http://www.w3.org/2000/svg"
   xmlns:rdf="http://www.w3.org/1999/02/22-rdf-syntax-ns#"
   xmlns:cc="http://creativecommons.org/ns#"
   xmlns:dc="http://purl.org/dc/elements/1.1/">
  <title
     id="title1027">Calf Pain</title>
  <defs
     id="defs19">
    <style
       id="style2">.cls-1{fill:#13294b;}.cls-2{fill:url(#radial-gradient-6);}.cls-3{fill:url(#radial-gradient-5);}.cls-4{fill:url(#radial-gradient-3);}.cls-5{fill:url(#radial-gradient-4);}.cls-6{fill:url(#radial-gradient-9);}.cls-7{fill:url(#radial-gradient-8);}.cls-8{fill:url(#radial-gradient-7);}.cls-9{fill:url(#radial-gradient-2);}.cls-10{fill:url(#radial-gradient);}</style>
  </defs>
  <path
     class="cls-1"
     d="m 131.2664,123.13 c -5.52,-8.13 -11.02,-16.11 -17.36,-23.58 -6.24,-7.56 -13.07,-14.49 -19.59,-21.84 16.04,11.43 29.78,26.91 36.95,45.42 z"
     id="path44" />
  <path
     class="cls-1"
     d="m 182.7164,239.64 c -17.73,-25.36 -28.72,-54.67 -37.2,-84.25 6.31,13.76 11.71,28.66 17.69,42.56 5.93,14.17 12.65,27.91 19.51,41.68 v 0 z"
     id="path46" />
  <path
     class="cls-1"
     d="m 103.6264,185.89 c 21.89,19.98 38.2,50.06 38.27,80.11 -4.25,-29.91 -19.18,-57.08 -38.27,-80.11 z"
     id="path48" />
  <g
     id="g54"
     transform="translate(-123.9036,-11.58)">
    <path
       class="cls-1"
       d="m 165.9,308.72 c 1.43,-5.93 1.97,-12.03 2.35,-18.11 0.99,-18.28 0.29,-36.6 -0.6,-54.87 -1.69,-30.41 -4.53,-60.84 -8.49,-91.03 -1.13,-5.95 -1.71,-12 -3.7,-17.75 -1.95,-5.71 -4.64,-11.34 -6.31,-17.21 -3.69,-11.77 -4.87,-24.24 -4.26,-36.51 0.12,-3.04 0.57,-5.93 -0.08,-8.99 -2.85,-14.98 -6.25,-29.92 -7.89,-45.1 0,0 0.28,-0.04 0.28,-0.04 2.08,15.16 5.77,29.97 8.94,44.92 0.7,2.98 0.33,6.2 0.24,9.27 -0.4,12.12 0.94,24.3 4.75,35.84 1.8,5.87 4.45,11.28 6.48,17.12 1.51,4.37 2.39,9.01 3.06,13.56 1.57,7.5 2.74,15.1 3.61,22.68 3.9,36.46 6.01,73.18 5.56,109.85 -0.14,6.11 -0.4,12.23 -0.89,18.32 -0.52,6.09 -1.2,12.2 -2.77,18.13 l -0.27,-0.07 v 0 z"
       id="path50" />
    <path
       class="cls-1"
       d="m 228.09,189.78 c -1.38,29.46 -5.8,62.33 -7.71,91.75 -0.7,8.86 -1.48,17.82 -1.24,26.7 0.09,1.27 0.16,2.54 0.22,3.82 l -0.28,0.05 c -2.27,-10.04 -1.94,-20.54 -1.53,-30.76 0.96,-17.83 4.81,-43.12 6.91,-61.07 1.29,-10.15 2.63,-20.3 3.35,-30.5 h 0.28 z"
       id="path52" />
  </g>
  <path
     class="cls-1"
     d="m 27.4764,52.68 c 7.1,1.05 14.23,4.94 18,11.23 1.66,2.97 2.02,6.65 1.3,9.87 0,0 -0.28,0.01 -0.28,0.01 -0.28,-0.62 -0.49,-1.23 -0.7,-1.83 -1.41,-3.97 -3.11,-7.85 -5.83,-11.15 -1.62,-1.8 -3.55,-3.38 -5.68,-4.69 -2.12,-1.32 -4.44,-2.39 -6.86,-3.16 z"
     id="path56" />
  <path
     class="cls-1"
     d="m 22.1264,77.71 c -9.76,-6.66 -16.19,-20.52 -16.6,-30.53 -3.78,-9.32 -4.7,-19.45 -5.36,-29.38 -0.25,-5.94 -0.25,-11.87 0.22,-17.8 1.09,7.8 1.79,15.65 2.84,23.44 1.07,7.71 2.02,15.69 4.49,23.04 0.55,11.72 5.62,23.35 14.42,31.23 v 0 z"
     id="path58" />
  <path
     class="cls-1"
     d="m 100.5464,122.02 c -8.21,-17.93 -9.17,-38.51 -5.62,-57.7 3.28,-19.24 7.94,-38.2 13.93,-56.77 -3.37,16.92 -8.42,40.46 -11.13,57.23 -3.62,19.03 -3.14,38.69 2.82,57.24 z"
     id="path60" />
  <path
     class="cls-1"
     d="m 87.6164,137.18 c 0,0.06 -0.66,0.17 -1.86,0.3 -0.6,0.06 -1.34,0.14 -2.2,0.23 -0.43,0.04 -0.89,0.09 -1.38,0.13 -0.26,0.02 -0.45,0.05 -0.69,0.12 -0.24,0.07 -0.49,0.15 -0.75,0.24 -1.04,0.35 -2.21,0.7 -3.5,0.95 -1.29,0.25 -2.69,0.42 -4.17,0.47 -1.5,0.04 -3.11,-0.08 -4.71,-0.61 -0.8,-0.26 -1.6,-0.62 -2.34,-1.15 l -0.28,-0.2 -0.26,-0.23 c -0.18,-0.15 -0.34,-0.33 -0.5,-0.51 -0.16,-0.18 -0.29,-0.39 -0.43,-0.6 -0.11,-0.23 -0.24,-0.45 -0.31,-0.71 -0.09,-0.25 -0.11,-0.52 -0.14,-0.79 0,-0.25 0,-0.49 0.04,-0.75 0.07,-0.51 0.28,-1.07 0.64,-1.5 0.36,-0.44 0.81,-0.74 1.26,-0.96 0.45,-0.23 0.9,-0.37 1.35,-0.52 0.45,-0.13 0.9,-0.25 1.35,-0.34 0.44,-0.09 0.88,-0.19 1.32,-0.28 0.84,-0.19 1.68,-0.45 2.52,-0.75 1.68,-0.6 3.32,-1.38 5.04,-2.11 0.43,-0.18 0.87,-0.36 1.32,-0.52 0.44,-0.17 0.95,-0.31 1.4,-0.42 0.93,-0.22 1.84,-0.39 2.75,-0.55 1.81,-0.32 3.59,-0.62 5.3,-0.99 0.85,-0.19 1.69,-0.4 2.48,-0.66 0.39,-0.14 0.77,-0.27 1.12,-0.43 l 0.6,-0.27 c 0.21,-0.1 0.42,-0.18 0.63,-0.26 1.69,-0.65 3.38,-1.01 5.01,-1.25 0.41,-0.06 0.82,-0.11 1.22,-0.15 0.2,-0.02 0.41,-0.03 0.61,-0.05 0.24,-0.01 0.4,0 0.61,-0.02 0.78,-0.01 1.54,-0.03 2.28,-0.04 1.48,-0.04 3.05,0 4.7,0.02 0.83,0.04 1.67,0.08 2.53,0.12 0.86,0.05 1.74,0.15 2.64,0.23 0.9,0.14 1.81,0.24 2.73,0.46 0.23,0.05 0.46,0.09 0.69,0.15 0.23,0.06 0.46,0.13 0.69,0.19 0.47,0.12 0.91,0.29 1.37,0.45 0.9,0.33 1.72,0.65 2.56,0.82 l 0.65,0.11 c 0.21,0.04 0.44,0.04 0.67,0.06 0.22,0.01 0.45,0.03 0.67,0.04 h 0.69 c 0,0 0.7,-0.02 0.7,-0.02 l 0.71,-0.05 c 0.47,-0.04 0.95,-0.06 1.42,-0.11 0.96,-0.11 1.92,-0.21 2.88,-0.32 1.95,-0.23 3.91,-0.42 5.85,-0.6 3.89,-0.34 7.73,-0.59 11.39,-0.8 7.32,-0.42 13.91,-0.66 18.66,-0.79 2.38,-0.06 4.3,-0.09 5.63,-0.09 1.33,0 2.06,0.03 2.06,0.1 0,0.06 -0.73,0.15 -2.05,0.26 -1.32,0.11 -3.24,0.26 -5.61,0.42 -4.75,0.34 -11.32,0.77 -18.61,1.35 -3.65,0.3 -7.47,0.61 -11.33,1.02 -1.93,0.21 -3.87,0.42 -5.79,0.68 -0.98,0.12 -1.95,0.24 -2.92,0.36 -0.49,0.06 -0.99,0.08 -1.48,0.13 l -0.74,0.06 -0.75,0.02 -0.75,0.02 c -0.25,0 -0.51,-0.02 -0.76,-0.04 -0.25,-0.02 -0.5,-0.01 -0.76,-0.06 l -0.76,-0.12 c -1.02,-0.2 -1.97,-0.55 -2.82,-0.86 -1.69,-0.6 -3.4,-0.91 -5.12,-1.12 -0.86,-0.07 -1.71,-0.17 -2.55,-0.21 -0.84,-0.04 -1.66,-0.07 -2.47,-0.11 -1.62,0 -3.17,-0.06 -4.62,-0.01 -0.73,0.01 -1.48,0.02 -2.24,0.03 -0.73,0 -1.48,0.1 -2.26,0.19 -1.54,0.22 -3.12,0.55 -4.63,1.12 -0.19,0.07 -0.38,0.14 -0.56,0.23 l -0.58,0.26 c -0.44,0.2 -0.87,0.35 -1.31,0.5 -0.88,0.27 -1.76,0.48 -2.65,0.68 -1.78,0.37 -3.58,0.65 -5.38,0.94 -0.89,0.15 -1.79,0.3 -2.65,0.5 -0.44,0.1 -0.82,0.2 -1.24,0.35 -0.42,0.14 -0.84,0.31 -1.26,0.48 -1.68,0.68 -3.38,1.45 -5.15,2.05 -0.89,0.3 -1.79,0.56 -2.71,0.75 -0.44,0.09 -0.88,0.17 -1.32,0.25 -0.43,0.08 -0.85,0.18 -1.26,0.29 -0.8,0.22 -1.57,0.53 -1.97,1 -0.2,0.23 -0.32,0.51 -0.38,0.85 -0.03,0.16 -0.03,0.35 -0.04,0.53 0.02,0.15 0.02,0.31 0.08,0.46 0.16,0.63 0.69,1.2 1.27,1.64 0.6,0.45 1.29,0.78 1.99,1.04 1.42,0.51 2.92,0.68 4.32,0.69 1.43,0 2.79,-0.12 4.04,-0.31 1.26,-0.19 2.4,-0.48 3.45,-0.78 0.26,-0.07 0.52,-0.14 0.79,-0.21 0.26,-0.06 0.57,-0.1 0.8,-0.1 0.49,-0.02 0.96,-0.03 1.39,-0.05 0.87,-0.02 1.61,-0.04 2.22,-0.06 1.22,-0.02 1.89,0 1.89,0.06 z"
     id="path63" />
  <path
     class="cls-1"
     d="m 86.7564,154.41 c 0,0 -0.24,0.55 -1.03,1.24 -0.78,0.7 -2.04,1.54 -3.63,2.48 -1.59,0.96 -3.56,1.98 -5.58,3.35 -2.05,1.38 -4.32,2.91 -6.71,4.52 -0.6,0.4 -1.21,0.81 -1.82,1.22 -0.61,0.41 -1.21,0.82 -1.82,1.27 -1.21,0.88 -2.44,1.8 -3.68,2.72 -1.24,0.92 -2.5,1.86 -3.77,2.77 -1.28,0.91 -2.55,1.82 -3.93,2.64 -0.71,0.4 -1.46,0.76 -2.31,0.94 -0.42,0.1 -0.87,0.13 -1.32,0.11 -0.46,-0.03 -0.92,-0.16 -1.33,-0.38 -0.84,-0.43 -1.4,-1.18 -1.78,-1.89 -0.41,-0.76 -0.58,-1.66 -0.5,-2.48 0.06,-0.83 0.34,-1.59 0.66,-2.28 0.33,-0.69 0.75,-1.3 1.18,-1.87 0.21,-0.28 0.46,-0.55 0.71,-0.82 0.24,-0.24 0.48,-0.48 0.72,-0.71 0.48,-0.45 0.95,-0.9 1.41,-1.31 1.85,-1.69 3.98,-3.51 6.27,-5.45 2.29,-1.93 4.75,-3.96 7.31,-6 1.27,-1.02 2.6,-2.04 3.91,-3.03 1.31,-1 2.59,-2.04 3.86,-3.08 2.54,-2.09 5,-4.23 7.37,-6.23 1.19,-1.01 2.38,-1.95 3.46,-2.9 1.09,-0.96 2.13,-1.91 3.11,-2.81 1.96,-1.82 3.7,-3.47 5.17,-4.86 1.47,-1.38 2.65,-2.5 3.47,-3.27 0.83,-0.76 1.29,-1.17 1.33,-1.14 0.03,0.03 -0.37,0.51 -1.14,1.33 -0.76,0.83 -1.89,2.01 -3.3,3.45 -1.41,1.44 -3.1,3.15 -5.02,5.03 -0.96,0.94 -1.97,1.91 -3.05,2.91 -1.08,1 -2.25,1.96 -3.41,2.99 -2.33,2.04 -4.75,4.23 -7.28,6.36 -1.26,1.07 -2.55,2.13 -3.85,3.16 -1.32,1.03 -2.6,2.03 -3.86,3.06 -2.52,2.05 -4.96,4.1 -7.23,6.04 -2.27,1.94 -4.38,3.77 -6.21,5.44 -0.46,0.41 -0.92,0.85 -1.39,1.29 -0.23,0.22 -0.46,0.45 -0.69,0.68 -0.21,0.23 -0.42,0.44 -0.62,0.71 -0.79,1 -1.47,2.19 -1.59,3.43 -0.06,0.62 0.05,1.22 0.34,1.77 0.3,0.58 0.7,1.09 1.22,1.36 0.51,0.28 1.14,0.31 1.8,0.17 0.66,-0.13 1.33,-0.43 1.96,-0.78 1.3,-0.75 2.58,-1.64 3.86,-2.52 1.27,-0.89 2.54,-1.8 3.79,-2.71 1.26,-0.9 2.5,-1.81 3.74,-2.67 0.62,-0.43 1.26,-0.86 1.88,-1.26 0.62,-0.4 1.24,-0.79 1.84,-1.18 2.43,-1.55 4.73,-3.02 6.81,-4.35 1.05,-0.68 2.09,-1.25 3.06,-1.76 0.97,-0.51 1.86,-0.99 2.68,-1.42 1.63,-0.87 2.91,-1.62 3.72,-2.24 0.82,-0.6 1.15,-1.06 1.2,-1.03 z"
     id="path65" />
  <path
     class="cls-1"
     d="m 92.8864,164.01 c 0.04,0.09 -0.98,0.71 -2.6,1.83 -1.63,1.12 -3.88,2.67 -6.4,4.41 -1.27,0.87 -2.6,1.79 -3.96,2.72 -0.68,0.46 -1.37,0.93 -2.07,1.39 -0.7,0.46 -1.45,0.89 -2.17,1.29 -2.9,1.6 -5.73,3.07 -8.07,4.31 -1.17,0.62 -2.48,1.31 -3.89,2.05 -0.7,0.37 -1.42,0.77 -2.13,1.18 -0.7,0.4 -1.42,0.88 -2.17,1.33 -1.49,0.91 -3.07,1.82 -4.8,2.43 -0.86,0.3 -1.77,0.53 -2.72,0.55 -0.47,0 -0.95,-0.04 -1.42,-0.18 -0.46,-0.14 -0.9,-0.38 -1.27,-0.68 -0.37,-0.3 -0.65,-0.68 -0.88,-1.05 -0.21,-0.39 -0.39,-0.77 -0.51,-1.18 -0.14,-0.4 -0.19,-0.81 -0.23,-1.22 0,-0.41 0,-0.81 0.09,-1.19 0.15,-0.76 0.49,-1.42 0.85,-1.97 0.38,-0.55 0.8,-0.99 1.21,-1.36 0.82,-0.74 1.58,-1.19 2.12,-1.47 0.54,-0.28 0.86,-0.38 0.88,-0.34 0.02,0.04 -0.26,0.22 -0.74,0.57 -0.48,0.35 -1.17,0.86 -1.89,1.62 -0.71,0.75 -1.49,1.78 -1.69,3.09 -0.06,0.32 -0.05,0.66 -0.03,0.99 0.05,0.34 0.11,0.68 0.24,1.01 0.11,0.34 0.29,0.67 0.47,0.97 0.2,0.29 0.43,0.57 0.71,0.79 0.28,0.21 0.6,0.37 0.94,0.46 0.35,0.09 0.73,0.12 1.11,0.1 0.77,-0.04 1.58,-0.26 2.36,-0.56 1.57,-0.61 3.08,-1.51 4.52,-2.43 0.73,-0.46 1.43,-0.95 2.17,-1.39 0.73,-0.44 1.45,-0.84 2.15,-1.23 1.4,-0.77 2.72,-1.47 3.89,-2.09 2.35,-1.22 5.18,-2.69 8.1,-4.2 0.73,-0.39 1.43,-0.77 2.13,-1.21 0.7,-0.43 1.4,-0.88 2.09,-1.32 1.39,-0.88 2.75,-1.75 4.05,-2.58 2.59,-1.65 4.93,-3.09 6.65,-4.06 1.71,-0.99 2.84,-1.46 2.88,-1.38 z"
     id="path67" />
  <path
     class="cls-1"
     d="m 101.8464,170.57 c 0.03,0.09 -1,0.51 -2.66,1.25 -0.41,0.19 -0.87,0.39 -1.35,0.63 -0.48,0.24 -0.99,0.49 -1.47,0.81 -0.99,0.65 -2.07,1.46 -3.21,2.3 -2.29,1.68 -4.79,3.59 -7.4,5.25 -0.33,0.2 -0.66,0.41 -1,0.6 -0.34,0.19 -0.68,0.38 -1,0.55 -0.65,0.35 -1.28,0.7 -1.9,1.05 -1.24,0.7 -2.41,1.37 -3.47,1.97 -2.13,1.21 -4.8,2.72 -7.66,4.21 -1.42,0.74 -2.93,1.48 -4.46,2.08 -1.53,0.61 -3.1,1.14 -4.71,1.29 -0.81,0.06 -1.63,0 -2.39,-0.28 -0.76,-0.28 -1.38,-0.82 -1.78,-1.42 -0.09,-0.15 -0.18,-0.31 -0.27,-0.46 -0.08,-0.15 -0.14,-0.31 -0.2,-0.46 l -0.09,-0.23 -0.07,-0.24 c -0.04,-0.16 -0.1,-0.31 -0.12,-0.46 -0.13,-0.61 -0.11,-1.2 -0.02,-1.72 0.19,-1.04 0.66,-1.76 1,-2.2 0.36,-0.44 0.62,-0.62 0.65,-0.59 0.03,0.03 -0.16,0.27 -0.43,0.74 -0.26,0.47 -0.62,1.19 -0.71,2.12 -0.04,0.47 -0.02,0.98 0.13,1.51 0.03,0.13 0.09,0.26 0.13,0.39 l 0.07,0.2 0.1,0.19 c 0.07,0.13 0.13,0.27 0.2,0.39 0.08,0.12 0.16,0.24 0.25,0.37 0.36,0.47 0.85,0.85 1.45,1.05 0.6,0.2 1.29,0.22 2.01,0.14 1.43,-0.19 2.92,-0.74 4.38,-1.38 1.48,-0.63 2.9,-1.38 4.31,-2.15 2.8,-1.54 5.44,-3.08 7.57,-4.29 1.07,-0.61 2.24,-1.27 3.5,-1.96 0.63,-0.34 1.27,-0.69 1.94,-1.04 0.34,-0.17 0.67,-0.34 0.98,-0.51 0.32,-0.17 0.64,-0.37 0.97,-0.55 2.57,-1.56 5.14,-3.38 7.5,-4.97 1.18,-0.8 2.3,-1.55 3.37,-2.17 0.55,-0.32 1.1,-0.54 1.6,-0.75 0.51,-0.2 0.98,-0.38 1.41,-0.53 1.74,-0.6 2.83,-0.85 2.86,-0.76 z"
     id="path69" />
  <path
     class="cls-1"
     d="m 180.3464,152.85 c 0,0.12 -2.32,0.19 -6.1,0.22 -3.79,0.07 -9.05,0.08 -14.92,0.33 -1.47,0.08 -2.97,0.16 -4.51,0.24 -1.53,0.13 -3.09,0.21 -4.65,0.39 -3.12,0.32 -6.29,0.75 -9.27,1.57 -0.37,0.11 -0.74,0.21 -1.11,0.32 -0.36,0.12 -0.72,0.25 -1.07,0.38 -0.18,0.07 -0.36,0.12 -0.53,0.19 l -0.51,0.22 c -0.34,0.15 -0.69,0.28 -1.01,0.47 -1.33,0.65 -2.53,1.47 -3.7,2.35 -2.32,1.76 -4.45,3.59 -6.45,5.18 -2,1.6 -4.3,3.37 -6.93,5.02 -1.32,0.82 -2.71,1.63 -4.2,2.35 -1.45,0.71 -2.93,1.44 -4.43,2.18 -5.99,2.94 -12.26,6 -17.97,8.76 -2.85,1.38 -5.56,2.68 -8.03,3.87 -2.47,1.19 -4.73,2.21 -6.75,2.81 -1,0.29 -1.97,0.5 -2.85,0.38 -0.44,-0.04 -0.84,-0.19 -1.17,-0.37 -0.33,-0.19 -0.58,-0.44 -0.78,-0.67 -0.37,-0.49 -0.5,-0.95 -0.56,-1.25 -0.06,-0.31 -0.04,-0.47 0,-0.48 0.03,0 0.07,0.15 0.18,0.42 0.11,0.27 0.3,0.67 0.66,1.07 0.19,0.19 0.42,0.38 0.71,0.51 0.29,0.12 0.63,0.23 1.01,0.23 0.76,0.04 1.64,-0.18 2.59,-0.52 1.91,-0.68 4.1,-1.78 6.51,-3.05 1.21,-0.63 2.47,-1.32 3.82,-1.99 1.33,-0.69 2.7,-1.4 4.11,-2.12 5.64,-2.91 11.85,-6.09 17.8,-9.11 1.48,-0.75 2.95,-1.5 4.39,-2.23 1.41,-0.7 2.75,-1.5 4.02,-2.3 2.53,-1.62 4.77,-3.35 6.75,-4.94 1.98,-1.58 4.11,-3.4 6.53,-5.2 1.2,-0.89 2.53,-1.78 3.99,-2.48 0.36,-0.19 0.73,-0.33 1.11,-0.49 l 0.56,-0.24 c 0.19,-0.07 0.38,-0.13 0.57,-0.2 0.38,-0.13 0.77,-0.27 1.15,-0.39 0.39,-0.11 0.78,-0.21 1.17,-0.32 3.15,-0.82 6.39,-1.2 9.56,-1.46 1.59,-0.15 3.16,-0.2 4.71,-0.29 1.55,-0.05 3.07,-0.1 4.55,-0.13 5.92,-0.1 11.18,0.09 14.97,0.23 3.79,0.19 6.1,0.36 6.09,0.48 z"
     id="path71" />
  <path
     class="cls-1"
     d="m 66.2964,132.23 c 0.1,-0.02 0.2,0.13 0.37,0.31 0.17,0.19 0.41,0.42 0.71,0.63 0.15,0.11 0.32,0.21 0.5,0.31 0.04,0.02 0.1,0.05 0.12,0.06 0.01,0 0.02,0 0.03,0 0.02,0 0.02,-0.02 0.04,-0.03 0,0 0,0 0.02,-0.01 l 0.08,-0.03 0.15,-0.05 c 0.1,-0.03 0.2,-0.06 0.29,-0.09 0.19,-0.07 0.36,-0.14 0.52,-0.19 0.32,-0.11 0.71,-0.26 1.09,-0.44 0.38,-0.19 0.75,-0.41 1.03,-0.67 0.28,-0.25 0.46,-0.54 0.56,-0.78 0.11,-0.24 0.15,-0.42 0.23,-0.45 0.09,-0.03 0.24,0.15 0.29,0.5 0.05,0.34 -0.04,0.86 -0.33,1.32 -0.28,0.46 -0.72,0.85 -1.16,1.15 -0.44,0.29 -0.89,0.5 -1.26,0.63 -0.18,0.06 -0.39,0.13 -0.6,0.19 -0.23,0.05 -0.48,0.1 -0.73,0.15 -0.1,0.02 -0.21,0.04 -0.31,0.06 h -0.08 c 0,0 -0.05,-0.01 -0.07,-0.03 l -0.14,-0.08 c -0.09,-0.06 -0.18,-0.12 -0.27,-0.18 -0.07,-0.05 -0.11,-0.08 -0.16,-0.13 -0.19,-0.17 -0.37,-0.35 -0.52,-0.54 -0.3,-0.38 -0.48,-0.79 -0.53,-1.1 -0.05,-0.31 0.02,-0.51 0.11,-0.52 z"
     id="path73" />
  <path
     class="cls-1"
     d="m 48.9664,172.9 c 0.09,-0.02 0.25,0.55 0.75,1.27 0.24,0.36 0.57,0.75 0.96,1.12 0.2,0.19 0.42,0.37 0.64,0.54 0.12,0.08 0.23,0.17 0.36,0.25 l 0.09,0.06 0.05,0.03 c 0,0 0,0 0.01,0 0.01,0 0.02,0 0.03,0.01 l 0.03,-0.02 0.18,-0.12 0.39,-0.27 c 0.26,-0.18 0.5,-0.37 0.73,-0.56 0.46,-0.38 0.85,-0.78 1.12,-1.16 0.19,-0.27 0.38,-0.6 0.42,-0.93 0.04,-0.33 -0.06,-0.66 -0.34,-0.97 -0.27,-0.31 -0.63,-0.52 -1.05,-0.59 -0.42,-0.08 -0.88,-0.03 -1.31,0.06 -0.87,0.2 -1.62,0.58 -2.16,0.85 -0.54,0.28 -0.86,0.47 -0.9,0.42 -0.04,-0.05 0.22,-0.33 0.72,-0.71 0.5,-0.37 1.23,-0.85 2.18,-1.16 0.47,-0.15 1.01,-0.25 1.58,-0.19 0.57,0.05 1.15,0.34 1.55,0.76 0.2,0.21 0.38,0.45 0.49,0.74 0.11,0.29 0.15,0.6 0.12,0.88 -0.07,0.58 -0.33,1.01 -0.57,1.35 -0.34,0.47 -0.8,0.91 -1.31,1.3 -0.26,0.2 -0.53,0.39 -0.81,0.57 -0.14,0.09 -0.28,0.18 -0.43,0.26 l -0.24,0.14 -0.4,0.21 c -0.12,-0.07 -0.24,-0.15 -0.36,-0.22 l -0.08,-0.06 -0.05,-0.04 -0.1,-0.07 c -0.13,-0.1 -0.25,-0.2 -0.37,-0.3 -0.24,-0.21 -0.46,-0.43 -0.65,-0.65 -0.4,-0.44 -0.7,-0.91 -0.9,-1.33 -0.42,-0.85 -0.42,-1.48 -0.36,-1.49 z"
     id="path75" />
  <path
     class="cls-1"
     d="m 48.9664,182.43 c 0.1,-0.01 0.16,0.66 0.57,1.53 0.21,0.43 0.53,0.89 0.96,1.3 0.22,0.2 0.46,0.39 0.72,0.55 0.13,0.08 0.27,0.16 0.41,0.22 0.07,0.03 0.14,0.06 0.21,0.09 l 0.05,0.02 v 0 c 0,0 0.01,0 0.02,0 h 0.02 c 0,0 0,-0.01 0.02,-0.02 l 0.06,-0.03 0.22,-0.11 c 0.15,-0.08 0.3,-0.16 0.44,-0.24 0.29,-0.16 0.57,-0.34 0.83,-0.52 0.52,-0.36 0.97,-0.75 1.27,-1.14 0.22,-0.28 0.43,-0.63 0.49,-1.01 0.06,-0.37 -0.05,-0.79 -0.31,-1.17 -0.13,-0.18 -0.28,-0.34 -0.46,-0.45 -0.19,-0.12 -0.4,-0.2 -0.63,-0.24 -0.46,-0.1 -0.98,-0.06 -1.45,0.03 -0.97,0.18 -1.82,0.54 -2.42,0.8 -0.61,0.26 -0.98,0.44 -1.01,0.39 -0.03,-0.05 0.28,-0.33 0.85,-0.7 0.57,-0.36 1.4,-0.82 2.45,-1.11 0.52,-0.14 1.1,-0.23 1.72,-0.15 0.31,0.05 0.62,0.14 0.91,0.3 0.29,0.16 0.53,0.39 0.73,0.65 0.19,0.26 0.33,0.54 0.43,0.84 0.09,0.3 0.11,0.63 0.08,0.93 -0.08,0.61 -0.38,1.09 -0.66,1.45 -0.39,0.49 -0.91,0.92 -1.5,1.3 -0.29,0.19 -0.6,0.37 -0.92,0.53 -0.16,0.08 -0.32,0.16 -0.48,0.23 l -0.25,0.11 -0.17,0.07 -0.22,0.09 -0.22,-0.08 -0.11,-0.05 -0.07,-0.03 c -0.08,-0.04 -0.17,-0.08 -0.25,-0.13 -0.16,-0.09 -0.31,-0.19 -0.46,-0.29 -0.29,-0.21 -0.55,-0.45 -0.78,-0.7 -0.45,-0.51 -0.75,-1.07 -0.92,-1.57 -0.32,-1.01 -0.21,-1.7 -0.15,-1.7 z"
     id="path77" />
  <path
     class="cls-1"
     d="m 57.8964,186.98 c 0.1,0 0.13,0.69 0.52,1.61 0.19,0.46 0.48,0.98 0.87,1.47 0.19,0.25 0.42,0.49 0.65,0.72 0.12,0.11 0.25,0.23 0.38,0.33 l 0.19,0.15 c 0,0 0.05,0.03 0.05,0.03 0.02,-0.01 0,0 0.07,-0.04 l 0.26,-0.11 c 0.17,-0.08 0.34,-0.16 0.51,-0.24 0.34,-0.17 0.66,-0.35 0.97,-0.53 0.61,-0.37 1.15,-0.78 1.52,-1.2 0.27,-0.29 0.52,-0.66 0.62,-1.06 0.11,-0.4 0.04,-0.87 -0.21,-1.3 -0.23,-0.43 -0.62,-0.73 -1.11,-0.88 -0.49,-0.14 -1.04,-0.14 -1.56,-0.07 -1.05,0.14 -1.98,0.49 -2.64,0.74 -0.66,0.26 -1.07,0.44 -1.1,0.38 -0.03,-0.05 0.32,-0.34 0.95,-0.7 0.63,-0.35 1.55,-0.81 2.68,-1.05 0.57,-0.11 1.2,-0.17 1.85,-0.02 0.65,0.15 1.3,0.59 1.63,1.18 0.36,0.55 0.52,1.29 0.35,1.92 -0.15,0.63 -0.49,1.11 -0.82,1.47 -0.46,0.51 -1.07,0.95 -1.74,1.34 -0.34,0.19 -0.69,0.37 -1.05,0.53 -0.18,0.08 -0.37,0.16 -0.55,0.23 l -0.28,0.11 c -0.12,0.04 -0.31,0.11 -0.47,0.17 -0.14,-0.1 -0.27,-0.19 -0.38,-0.28 -0.1,-0.08 -0.15,-0.13 -0.23,-0.2 -0.14,-0.13 -0.27,-0.26 -0.39,-0.4 -0.25,-0.27 -0.47,-0.56 -0.66,-0.84 -0.39,-0.57 -0.65,-1.17 -0.79,-1.69 -0.29,-1.05 -0.16,-1.77 -0.1,-1.76 z"
     id="path79" />
  <path
     class="cls-1"
     d="m 73.6964,186.85 c 0.09,-0.04 0.3,0.32 0.69,0.77 0.19,0.23 0.42,0.48 0.69,0.72 0.13,0.12 0.27,0.24 0.42,0.36 0.07,0.05 0.16,0.12 0.21,0.16 0.01,0 0.02,0 0.03,0 l 0.02,-0.02 c 0,0 0,0 0,0 l 0.05,-0.03 0.09,-0.06 c 0.12,-0.08 0.25,-0.17 0.36,-0.25 0.24,-0.16 0.45,-0.32 0.64,-0.47 0.32,-0.26 0.74,-0.6 1.01,-0.99 0.13,-0.2 0.19,-0.39 0.18,-0.54 0,-0.06 -0.07,-0.2 -0.11,-0.31 -0.06,-0.1 -0.11,-0.2 -0.19,-0.28 -0.27,-0.34 -0.72,-0.43 -1.06,-0.42 -0.34,0 -0.56,0.05 -0.58,0 -0.03,-0.05 0.15,-0.22 0.53,-0.33 0.19,-0.06 0.43,-0.1 0.71,-0.06 0.28,0.03 0.59,0.15 0.85,0.38 0.13,0.11 0.23,0.24 0.34,0.38 0.08,0.15 0.18,0.27 0.24,0.49 0.12,0.43 -0.02,0.85 -0.19,1.14 -0.35,0.6 -0.8,0.98 -1.17,1.28 -0.21,0.16 -0.45,0.33 -0.71,0.49 -0.13,0.08 -0.27,0.16 -0.41,0.24 -0.08,0.05 -0.17,0.09 -0.26,0.14 -0.13,0.07 -0.26,0.14 -0.39,0.2 -0.15,-0.1 -0.3,-0.21 -0.45,-0.33 -0.1,-0.08 -0.16,-0.15 -0.24,-0.22 -0.15,-0.15 -0.29,-0.3 -0.41,-0.46 -0.25,-0.31 -0.45,-0.63 -0.6,-0.91 -0.29,-0.57 -0.36,-1 -0.29,-1.03 z"
     id="path81" />
  <metadata
     id="metadata1025">
    <rdf:RDF>
      <cc:Work
         rdf:about="">
        <dc:title>Calf Pain</dc:title>
      </cc:Work>
    </rdf:RDF>
  </metadata>
</svg>
