<?xml version="1.0" encoding="UTF-8" standalone="no"?>
<svg
   viewBox="0 0 259.29999 287.02319"
   version="1.1"
   id="svg71"
   width="259.29999"
   height="287.02319"
   xmlns="http://www.w3.org/2000/svg"
   xmlns:svg="http://www.w3.org/2000/svg"
   xmlns:rdf="http://www.w3.org/1999/02/22-rdf-syntax-ns#"
   xmlns:cc="http://creativecommons.org/ns#"
   xmlns:dc="http://purl.org/dc/elements/1.1/">
  <title
     id="title997">Elbow Pain</title>
  <defs
     id="defs19">
    <style
       id="style2">.cls-1{fill:#13294b;}.cls-2{fill:url(#radial-gradient-6);}.cls-3{fill:url(#radial-gradient-5);}.cls-4{fill:url(#radial-gradient-3);}.cls-5{fill:url(#radial-gradient-4);}.cls-6{fill:url(#radial-gradient-9);}.cls-7{fill:url(#radial-gradient-8);}.cls-8{fill:url(#radial-gradient-7);}.cls-9{fill:url(#radial-gradient-2);}.cls-10{fill:url(#radial-gradient);}</style>
  </defs>
  <path
     class="cls-1"
     d="m 32.22,217.5721 c -0.09,0.04 -0.64,-0.98 -1.56,-2.86 -0.91,-1.88 -2.21,-4.62 -3.8,-8.03 -1.59,-3.41 -3.5,-7.48 -5.58,-12.06 -2.06,-4.59 -4.34,-9.68 -6.16,-15.34 -0.87,-2.84 -1.63,-5.81 -2.17,-8.88 -0.52,-3.06 -0.91,-6.2 -1.14,-9.36 -0.06,-0.79 -0.12,-1.58 -0.18,-2.38 -0.04,-0.79 -0.08,-1.59 -0.12,-2.38 l -0.12,-2.38 -0.15,-2.34 c -0.16,-3.13 -0.6,-6.21 -1.12,-9.25 -0.61,-3.02 -1.36,-5.99 -2.27,-8.88 -0.94,-2.92 -1.87,-5.8 -2.77,-8.6 -1.79,-5.67 -2.97,-11.25 -3.7,-16.31 -0.16,-1.27 -0.33,-2.58 -0.5,-3.92 -0.15,-1.35 -0.25,-2.73 -0.38,-4.14 -0.06,-0.709997 -0.14,-1.419997 -0.18,-2.149997 -0.04,-0.72 -0.08,-1.45 -0.12,-2.19 -0.06,-1.48 -0.19,-2.97 -0.2,-4.52 0,-1.54 0,-3.11 0,-4.7 0,-0.4 0,-0.8 0,-1.2 0.03,-0.4 0.06,-0.8 0.08,-1.2 0.06,-0.8 0.11,-1.61 0.17,-2.43 0.06,-0.81 0.12,-1.63 0.18,-2.45 0.12,-0.82 0.24,-1.64 0.36,-2.46 0.25,-1.65 0.44,-3.31 0.87,-4.95 1.39,-6.6 3.85,-13.2 7.51,-19.02 0.47,-0.72 0.89,-1.46 1.39,-2.16 0.52,-0.68 1.03,-1.36 1.55,-2.04 l 0.77,-1.02 c 0.26,-0.33 0.56,-0.64 0.84,-0.95 0.57,-0.63 1.14,-1.25 1.7,-1.88 0.27,-0.32 0.58,-0.6 0.89,-0.89 l 0.92,-0.85 0.92,-0.85 c 0.3,-0.29 0.61,-0.56 0.94,-0.81 1.31,-1 2.56,-2.07 3.95,-2.9 2.67,-1.83 5.56,-3.15 8.38,-4.25 1.45,-0.46 2.84,-0.99 4.32,-1.26 1.43,-0.27 2.82,-0.48 4.17,-0.67 5.41,-0.73 10.28,-1.2 14.36,-1.57 4.08,-0.37 7.39,-0.61 9.67,-0.74 2.28,-0.13 3.55,-0.15 3.56,-0.05 0.01,0.1 -1.23,0.32 -3.5,0.65 -2.27,0.31 -5.55,0.75 -9.6,1.3 -4.05,0.55 -8.9,1.18 -14.24,2.06 -1.33,0.23 -2.69,0.47 -4.06,0.77 -1.33,0.28 -2.65,0.82 -4.02,1.29 -2.66,1.12 -5.38,2.43 -7.88,4.23 -1.31,0.81 -2.47,1.86 -3.7,2.83 -0.31,0.24 -0.6,0.51 -0.88,0.79 l -0.85,0.82 -0.86,0.83 c -0.29,0.27 -0.58,0.55 -0.83,0.86 -0.53,0.6 -1.05,1.21 -1.58,1.81 -0.26,0.31 -0.54,0.6 -0.78,0.92 l -0.72,0.98 c -0.48,0.65 -0.96,1.31 -1.44,1.96 -0.46,0.67 -0.85,1.39 -1.29,2.08 -3.39,5.59 -5.66,11.92 -6.92,18.28 -0.4,1.57 -0.56,3.19 -0.78,4.77 -0.11,0.79 -0.22,1.58 -0.32,2.37 -0.05,0.79 -0.1,1.58 -0.15,2.37 -0.05,0.79 -0.1,1.57 -0.14,2.34 -0.02,0.39 -0.05,0.78 -0.07,1.16 -0.01,0.39 0,0.77 0,1.16 0.01,1.54 0.03,3.06 0.04,4.56 0.25,6.01 0.68,11.649997 1.41,16.589997 0.72,4.94 1.83,10.32 3.54,15.88 0.88,2.81 1.78,5.69 2.7,8.62 0.91,2.97 1.66,6.07 2.25,9.23 0.5,3.17 0.91,6.38 1.03,9.59 l 0.12,2.41 0.08,2.36 c 0.03,0.79 0.05,1.57 0.08,2.35 0.05,0.78 0.09,1.56 0.14,2.34 0.17,3.11 0.5,6.17 0.94,9.16 0.46,2.98 1.13,5.86 1.92,8.65 1.64,5.54 3.76,10.66 5.67,15.29 1.93,4.63 3.66,8.78 5.11,12.25 1.43,3.48 2.56,6.3 3.29,8.26 0.74,1.96 1.1,3.05 1.01,3.09 z"
     id="path44" />
  <path
     class="cls-1"
     d="m 105.97,0.00210307 c 0.17,0.04 0.12,1.39000003 -0.73,3.44000003 -0.45,1.01 -1.1,2.17 -2.02,3.34 -0.91,1.17 -2.08,2.33 -3.43,3.3999999 -2.69,2.15 -6.07,3.89 -9.38,5.3 -3.31,1.41 -6.57,2.54 -9.13,3.59 -0.64,0.26 -1.31,0.55 -1.99,0.86 -0.71,0.35 -1.44,0.71 -2.2,1.09 -1.56,0.75 -3.22,1.51 -4.93,2.27 -3.42,1.52 -7.02,3.06 -10.31,4.4 -6.58,2.7 -11.92,4.67 -12.09,4.29 -0.17,-0.38 4.87,-3.03 11.21,-6.21 3.18,-1.58 6.68,-3.32 10.01,-4.97 1.66,-0.83 3.28,-1.64 4.8,-2.4 0.77,-0.4 1.51,-0.78 2.22,-1.14 0.75,-0.36 1.47,-0.68 2.15,-0.95 2.71,-1.11 5.97,-2.15 9.23,-3.38 3.27,-1.22 6.53,-2.68 9.16,-4.4499999 1.32,-0.88 2.47,-1.83 3.42,-2.79 0.95,-0.96 1.68,-1.93 2.25,-2.79 1.09,-1.73 1.53,-2.96000003 1.76,-2.90000003 z"
     id="path46" />
  <path
     class="cls-1"
     d="m 89.86,172.5321 c -0.2,-0.02 -0.29,-1.48 -0.28,-3.85 0.05,-2.37 0.01,-5.65 -0.02,-9.31 -0.1,-3.66 -0.26,-7.71 -0.68,-11.6 -0.34,-3.9 -1,-7.62 -1.58,-10.69 -0.62,-3.07 -1.56,-6.85 -2.88,-10.73 -0.31,-0.98 -0.7,-1.94 -1.05,-2.93 -0.38,-0.98 -0.77,-1.96 -1.15,-2.93 -0.76,-1.95 -1.62,-3.93 -2.03,-6.03 -0.41,-2.06 -0.47,-4.02 -0.39,-5.78 0.08,-1.76 0.32,-3.32 0.58,-4.6 0.54,-2.57 1.19,-4.06 1.38,-4.01 0.2,0.06 -0.06,1.62 -0.23,4.16 -0.15,2.52 -0.26,6.1 0.71,9.74 0.47,1.79 1.38,3.61 2.25,5.54 0.44,0.96 0.87,1.94 1.31,2.92 0.4,1 0.84,1.97 1.2,2.97 1.51,3.97 2.57,7.9 3.22,11.08 0.6,3.18 1.2,7.05 1.4,11.06 0.28,4.01 0.22,8.14 0.05,11.86 -0.23,3.71 -0.52,7.02 -0.93,9.37 -0.37,2.36 -0.68,3.78 -0.88,3.76 z"
     id="path48" />
  <path
     class="cls-1"
     d="m 189.26,72.862103 c 0.17,0.11 -1.51,3.11 -4.4,7.93 -2.9,4.83 -6.93,11.48 -11.6,18.92 -2.47,3.679997 -5.25,7.359997 -8.12,11.089997 -2.88,3.72 -5.9,7.43 -8.92,11.04 -6.05,7.22 -12.2,13.97 -17.51,19.38 -5.33,5.39 -12.15,11.99 -20.09,18.08 -3.97,3.03 -8.23,5.92 -12.81,8.22 -0.57,0.29 -1.17,0.53 -1.75,0.8 -0.58,0.27 -1.17,0.53 -1.78,0.73 -0.6,0.22 -1.2,0.44 -1.8,0.66 -0.58,0.2 -1.15,0.39 -1.73,0.59 -1.14,0.4 -2.3,0.75 -3.41,1.19 -1.11,0.42 -2.22,0.84 -3.31,1.25 -8.66,3.47 -16.07,7.52 -21.15,10.86 -5.1,3.31 -7.94,5.77 -8.08,5.63 -0.15,-0.15 2.45,-2.94 7.42,-6.58 4.93,-3.68 12.29,-8.07 21,-11.85 1.1,-0.45 2.21,-0.91 3.33,-1.37 1.12,-0.47 2.28,-0.86 3.44,-1.3 0.58,-0.21 1.16,-0.43 1.74,-0.64 0.55,-0.22 1.11,-0.44 1.67,-0.65 0.56,-0.2 1.11,-0.46 1.65,-0.73 0.54,-0.27 1.1,-0.51 1.64,-0.79 4.31,-2.28 8.41,-5.17 12.25,-8.19 7.67,-6.07 14.37,-12.66 19.64,-18 5.26,-5.36 11.42,-12 17.55,-19.08 3.06,-3.54 6.13,-7.17 9.08,-10.8 2.94,-3.63 5.81,-7.23 8.32,-10.739997 4.86,-7.23 9.18,-13.75 12.37,-18.37 3.18,-4.63 5.2,-7.41 5.37,-7.3 z"
     id="path50" />
  <path
     class="cls-1"
     d="m 144.17,221.8121 c -0.08,-0.07 0.29,-0.65 1,-1.64 0.36,-0.49 0.8,-1.09 1.32,-1.78 0.26,-0.35 0.55,-0.7 0.83,-1.11 0.28,-0.41 0.57,-0.84 0.88,-1.29 1.24,-1.81 2.77,-3.92 4.35,-6.39 0.81,-1.22 1.65,-2.5 2.53,-3.84 0.86,-1.35 1.74,-2.76 2.66,-4.2 7.31,-11.54 15.8,-25.84 21.84,-35.98 6.06,-10.13 15.09,-25.32 22.71,-37.93 1.92,-3.15 3.73,-6.13 5.46,-8.83 0.22,-0.34 0.45,-0.67 0.67,-1 0.22,-0.33 0.43,-0.65 0.69,-0.96 0.26,-0.3 0.48,-0.62 0.75,-0.89 0.27,-0.27 0.53,-0.54 0.79,-0.81 1.08,-1 2.2,-1.78 3.27,-2.4 2.14,-1.22 4.04,-1.81 5.35,-2.13 1.32,-0.31 2.08,-0.33 2.09,-0.23 0.02,0.1 -0.69,0.32 -1.91,0.8 -1.22,0.49 -2.99,1.24 -4.92,2.54 -0.96,0.66 -1.95,1.45 -2.88,2.42 -0.22,0.25 -0.44,0.51 -0.67,0.77 -0.23,0.26 -0.41,0.56 -0.63,0.84 -0.22,0.28 -0.4,0.6 -0.6,0.93 -0.19,0.33 -0.39,0.65 -0.59,0.99 -1.57,2.73 -3.26,5.8 -5.06,9.01 -7.15,12.87 -15.9,28.25 -21.97,38.4 -6.05,10.16 -14.84,24.32 -22.64,35.62 -0.98,1.41 -1.93,2.78 -2.85,4.1 -0.95,1.3 -1.87,2.55 -2.74,3.73 -1.71,2.39 -3.4,4.42 -4.79,6.14 -0.35,0.43 -0.68,0.83 -1,1.22 -0.32,0.38 -0.65,0.71 -0.95,1.04 -0.6,0.64 -1.13,1.18 -1.56,1.62 -0.87,0.87 -1.37,1.31 -1.45,1.24 z"
     id="path52" />
  <path
     class="cls-1"
     d="m 234.5,190.7321 c 0.06,0.09 -1.4,1.19 -4.11,3.12 -2.7,1.93 -6.65,4.69 -11.37,8.34 -2.35,1.83 -4.9,3.89 -7.48,6.26 -0.64,0.6 -1.31,1.19 -1.94,1.83 -0.32,0.32 -0.65,0.64 -0.97,0.96 -0.34,0.33 -0.69,0.65 -1.04,0.99 -1.4,1.34 -2.98,2.53 -4.62,3.72 -3.3,2.34 -6.98,4.45 -10.87,6.5 -3.9,2.03 -8.01,3.98 -12.36,5.79 -0.04,0.02 -0.23,0.09 -0.3,0.11 l -0.22,0.07 -0.43,0.13 -0.86,0.24 c -0.57,0.15 -1.15,0.31 -1.73,0.46 -1.16,0.29 -2.33,0.57 -3.51,0.82 -2.37,0.49 -4.79,0.91 -7.28,1.13 -2.49,0.21 -5.04,0.29 -7.67,-0.2 -0.66,-0.13 -1.32,-0.31 -1.97,-0.54 -0.68,-0.26 -1.25,-0.57 -1.83,-0.87 -0.59,-0.3 -1.12,-0.65 -1.68,-0.98 -0.55,-0.34 -1.07,-0.7 -1.61,-1.06 -4.19,-2.92 -8.03,-6.19 -11.98,-9.28 -3.95,-3.09 -7.95,-6.05 -12.24,-8.44 -4.35,-2.44 -8.61,-4.87 -13.13,-5.98 -2.27,-0.58 -4.64,-0.95 -7,-1.35 -2.39,-0.39 -4.75,-0.87 -7.04,-1.36 -2.29,-0.48 -4.53,-0.99 -6.71,-1.33 -2.17,-0.35 -4.3,-0.53 -6.25,-0.27 l -0.72,0.11 -0.79,0.17 c -0.53,0.12 -1.06,0.23 -1.58,0.34 -1.05,0.23 -2.09,0.45 -3.11,0.67 -2.05,0.44 -4.06,0.88 -6.02,1.3 -0.98,0.21 -1.97,0.43 -2.98,0.64 l -0.76,0.16 -0.38,0.08 c -0.11,0.03 -0.19,0.06 -0.28,0.09 -0.19,0.05 -0.37,0.11 -0.52,0.2 l -0.24,0.11 c -0.07,0.05 -0.13,0.1 -0.2,0.15 -1.06,0.66 -1.23,2.57 -0.71,4.47 0.13,0.47 0.28,0.95 0.47,1.41 0.09,0.24 0.2,0.46 0.3,0.69 0.11,0.23 0.2,0.34 0.3,0.52 0.49,0.66 1.29,1.3 2.17,1.83 1.81,1.06 3.97,1.78 6.2,2.21 1.12,0.22 2.27,0.35 3.44,0.44 0.58,0.03 1.17,0.06 1.76,0.06 0.59,0 1.16,-0.01 1.81,-0.04 2.51,-0.08 5.09,-0.11 7.73,0.13 1.32,0.12 2.63,0.32 3.88,0.5 0.64,0.08 1.28,0.17 1.93,0.25 0.69,0.1 1.37,0.24 2.04,0.41 1.35,0.36 2.68,0.79 4.02,1.62 0.34,0.21 0.67,0.46 1.01,0.79 0.16,0.16 0.33,0.35 0.49,0.59 0.17,0.25 0.31,0.55 0.4,0.84 0.18,0.6 0.13,1.26 -0.13,1.84 -0.07,0.14 -0.14,0.29 -0.22,0.41 l -0.2,0.28 c -0.13,0.18 -0.27,0.37 -0.4,0.5 -1.04,1.13 -2.12,1.94 -3.23,2.76 -1.11,0.8 -2.24,1.55 -3.4,2.27 -1.16,0.72 -2.34,1.39 -3.56,2.02 -1.23,0.62 -2.45,1.22 -3.87,1.68 -1.44,0.43 -2.81,0.64 -4.18,0.8 -1.37,0.15 -2.74,0.25 -4.1,0.28 -2.73,0.09 -5.45,0.03 -8.17,-0.24 -1.36,-0.14 -2.72,-0.32 -4.11,-0.66 -0.68,-0.16 -1.46,-0.44 -2.01,-0.65 -0.6,-0.22 -1.22,-0.43 -1.84,-0.63 -2.47,-0.8 -4.99,-1.49 -7.51,-2.14 -0.63,-0.16 -1.26,-0.32 -1.89,-0.48 l -0.95,-0.25 c -0.14,-0.03 -0.37,-0.11 -0.56,-0.17 -0.21,-0.06 -0.35,-0.14 -0.53,-0.22 -1.31,-0.61 -2.38,-1.33 -3.48,-2.01 -1.09,-0.69 -2.15,-1.38 -3.21,-2.01 -1.06,-0.63 -2.14,-1.22 -3.2,-1.62 l -0.49,-0.2 c -0.17,-0.08 -0.36,-0.14 -0.51,-0.25 -0.33,-0.19 -0.64,-0.39 -0.92,-0.63 -0.57,-0.45 -1.03,-0.96 -1.44,-1.42 -0.83,-0.94 -1.56,-1.67 -2.49,-2.1 -0.92,-0.42 -1.99,-0.55 -3.09,-0.53 -0.56,0.04 -1.13,0.06 -1.61,0.16 -0.49,0.1 -0.91,0.28 -1.21,0.52 -0.3,0.24 -0.49,0.53 -0.57,0.94 -0.09,0.4 -0.07,0.88 0.01,1.37 0.17,0.99 0.59,2 1.08,2.96 0.49,0.96 1.06,1.89 1.68,2.75 0.15,0.21 0.31,0.43 0.47,0.61 l 0.53,0.64 c 0.35,0.43 0.69,0.85 1.03,1.27 2.73,3.34 5.3,6.55 7.84,9.37 0.31,0.34 0.64,0.7 0.95,0.98 0.15,0.16 0.32,0.26 0.48,0.38 0.17,0.12 0.37,0.23 0.55,0.35 0.77,0.45 1.57,0.87 2.35,1.27 1.58,0.8 3.12,1.53 4.59,2.22 2.94,1.39 5.62,2.61 7.93,3.8 2.3,1.17 4.28,2.18 5.9,3 1.61,0.83 2.86,1.49 3.7,1.95 0.84,0.46 1.27,0.72 1.25,0.77 -0.02,0.05 -0.5,-0.13 -1.38,-0.5 -0.88,-0.37 -2.17,-0.94 -3.83,-1.68 -1.65,-0.75 -3.68,-1.68 -6.03,-2.75 -2.33,-1.09 -5.04,-2.23 -8.02,-3.54 -1.49,-0.66 -3.06,-1.35 -4.68,-2.12 -0.81,-0.39 -1.63,-0.79 -2.47,-1.26 -0.21,-0.13 -0.42,-0.24 -0.63,-0.38 -0.22,-0.15 -0.45,-0.3 -0.63,-0.48 -0.2,-0.17 -0.38,-0.35 -0.55,-0.52 -0.18,-0.17 -0.35,-0.35 -0.51,-0.52 -2.66,-2.83 -5.29,-5.98 -8.08,-9.28 -0.35,-0.41 -0.7,-0.83 -1.05,-1.24 l -0.53,-0.62 c -0.2,-0.24 -0.37,-0.46 -0.55,-0.7 -0.69,-0.93 -1.31,-1.9 -1.87,-2.95 -0.55,-1.05 -1.05,-2.16 -1.31,-3.45 -0.12,-0.64 -0.18,-1.34 -0.03,-2.09 0.13,-0.74 0.57,-1.52 1.2,-2.02 0.62,-0.51 1.33,-0.77 2,-0.93 0.69,-0.15 1.31,-0.18 1.95,-0.23 1.29,-0.05 2.68,0.07 4,0.65 1.32,0.57 2.36,1.64 3.17,2.53 0.42,0.46 0.81,0.86 1.22,1.18 0.2,0.17 0.42,0.29 0.63,0.42 0.1,0.07 0.22,0.1 0.33,0.15 0.12,0.05 0.2,0.09 0.38,0.16 1.29,0.47 2.44,1.1 3.57,1.74 1.12,0.65 2.21,1.33 3.3,2 1.08,0.66 2.18,1.35 3.22,1.82 0.12,0.05 0.26,0.12 0.37,0.15 0.12,0.03 0.19,0.07 0.37,0.11 l 0.94,0.23 c 0.63,0.15 1.27,0.31 1.9,0.46 2.54,0.63 5.11,1.29 7.67,2.09 1.27,0.37 2.62,0.94 3.7,1.19 1.19,0.29 2.48,0.45 3.76,0.56 2.58,0.23 5.22,0.27 7.83,0.16 1.31,-0.05 2.61,-0.16 3.9,-0.31 1.28,-0.15 2.56,-0.38 3.68,-0.72 1.13,-0.37 2.31,-0.95 3.45,-1.54 1.14,-0.6 2.27,-1.25 3.37,-1.94 1.1,-0.69 2.18,-1.41 3.21,-2.17 1.02,-0.75 2.04,-1.57 2.78,-2.39 0.11,-0.11 0.16,-0.19 0.22,-0.27 l 0.09,-0.12 c 0,0 0,-0.01 0.01,-0.02 0,-0.02 0,-0.05 0,-0.07 0.06,0.05 -0.27,-0.36 -0.7,-0.61 -0.89,-0.55 -2.07,-0.95 -3.22,-1.24 -0.58,-0.14 -1.18,-0.26 -1.77,-0.34 -0.64,-0.08 -1.28,-0.16 -1.91,-0.24 -1.3,-0.18 -2.52,-0.36 -3.74,-0.46 -2.44,-0.21 -4.92,-0.18 -7.37,-0.08 -0.6,0.03 -1.27,0.04 -1.91,0.05 -0.65,0 -1.29,-0.02 -1.94,-0.05 -1.28,-0.09 -2.56,-0.23 -3.81,-0.47 -2.5,-0.48 -4.93,-1.25 -7.16,-2.54 -1.11,-0.67 -2.19,-1.46 -3.07,-2.63 -0.2,-0.3 -0.43,-0.67 -0.57,-0.95 -0.14,-0.29 -0.27,-0.57 -0.39,-0.86 -0.24,-0.58 -0.43,-1.18 -0.6,-1.78 -0.32,-1.21 -0.49,-2.5 -0.31,-3.87 0.07,-0.68 0.31,-1.38 0.63,-2.04 0.38,-0.64 0.86,-1.27 1.46,-1.69 0.15,-0.11 0.3,-0.22 0.45,-0.32 l 0.47,-0.24 c 0.32,-0.17 0.63,-0.27 0.95,-0.37 0.16,-0.05 0.33,-0.1 0.47,-0.14 l 0.38,-0.08 0.77,-0.17 c 1.02,-0.22 2.02,-0.44 3,-0.65 1.97,-0.43 4,-0.86 6.07,-1.31 1.03,-0.22 2.08,-0.45 3.14,-0.67 0.53,-0.11 1.06,-0.23 1.59,-0.34 l 0.81,-0.17 0.9,-0.14 c 2.41,-0.3 4.8,-0.07 7.1,0.3 2.31,0.37 4.58,0.9 6.86,1.39 2.28,0.5 4.57,0.98 6.9,1.37 2.36,0.41 4.78,0.8 7.24,1.44 2.46,0.62 4.88,1.61 7.14,2.74 2.27,1.13 4.46,2.36 6.64,3.62 4.44,2.51 8.55,5.62 12.51,8.77 3.96,3.15 7.77,6.47 11.76,9.31 0.5,0.34 1,0.69 1.51,1.01 0.51,0.3 1.02,0.65 1.54,0.91 0.52,0.27 1.04,0.57 1.52,0.75 0.51,0.19 1.04,0.34 1.6,0.46 2.23,0.45 4.64,0.43 7,0.25 2.37,-0.18 4.72,-0.55 7.03,-1 1.16,-0.23 2.3,-0.48 3.44,-0.75 0.57,-0.14 1.13,-0.28 1.69,-0.42 l 0.84,-0.22 0.41,-0.12 0.2,-0.06 c 0.07,-0.02 0.02,0 0.12,-0.04 4.28,-1.71 8.41,-3.59 12.28,-5.52 3.87,-1.95 7.53,-3.97 10.79,-6.18 1.61,-1.12 3.17,-2.24 4.53,-3.48 0.34,-0.31 0.68,-0.62 1.02,-0.92 0.34,-0.32 0.68,-0.64 1.02,-0.96 0.66,-0.64 1.36,-1.23 2.02,-1.82 2.69,-2.34 5.31,-4.35 7.73,-6.12 4.86,-3.53 8.92,-6.14 11.74,-7.92 1.41,-0.88 2.51,-1.56 3.26,-2 0.75,-0.45 1.16,-0.66 1.19,-0.62 z"
     id="path54" />
  <path
     class="cls-1"
     d="m 75.74,271.4721 c -0.11,0.17 -1.39,-0.3 -3.55,-1.07 -2.14,-0.78 -5.1,-1.91 -8.42,-3.2 -3.31,-1.29 -6.96,-2.72 -10.52,-4.21 -1.77,-0.75 -3.49,-1.51 -5.13,-2.3 -1.64,-0.8 -3.16,-1.54 -4.6,-2.57 -0.19,-0.14 -0.37,-0.28 -0.58,-0.48 l -0.32,-0.32 -0.26,-0.34 -0.13,-0.17 -0.09,-0.14 -0.18,-0.29 c -0.13,-0.2 -0.24,-0.38 -0.35,-0.57 -0.45,-0.76 -0.88,-1.55 -1.33,-2.37 -0.88,-1.64 -1.78,-3.39 -2.68,-5.19 -0.9,-1.81 -1.8,-3.66 -2.66,-5.52 -0.22,-0.47 -0.43,-0.93 -0.64,-1.42 -0.2,-0.46 -0.39,-0.92 -0.58,-1.37 -0.39,-0.91 -0.78,-1.82 -1.15,-2.72 -0.73,-1.79 -1.36,-3.54 -1.79,-5.19 -0.21,-0.83 -0.38,-1.63 -0.46,-2.4 -0.09,-0.83 0.02,-1.68 0.39,-2.35 0.37,-0.67 0.92,-1.09 1.4,-1.34 0.49,-0.25 0.94,-0.36 1.3,-0.41 0.73,-0.11 1.13,0 1.14,0.09 0,0.11 -0.37,0.21 -0.97,0.49 -0.58,0.26 -1.49,0.75 -1.83,1.68 -0.17,0.46 -0.17,1.01 -0.04,1.63 0.15,0.67 0.38,1.39 0.65,2.14 0.55,1.5 1.29,3.12 2.12,4.82 0.43,0.85 0.86,1.72 1.31,2.6 0.22,0.45 0.45,0.9 0.67,1.36 0.21,0.42 0.45,0.87 0.68,1.32 0.94,1.78 1.92,3.58 2.88,5.34 0.96,1.75 1.91,3.47 2.81,5.05 0.45,0.79 0.89,1.56 1.32,2.26 0.11,0.18 0.21,0.35 0.31,0.51 l 0.15,0.24 0.07,0.12 0.06,0.07 0.05,0.07 0.03,0.04 v 0.02 c 0,0 0.02,0 0.02,0 v 0 c 0,0 0.02,0 -0.03,0.04 0.07,-0.06 0.02,-0.02 0.04,-0.03 v 0 c 0,0 0,0 0,0 h 0.01 c 0,0 0.03,0.04 0.03,0.04 l 0.05,0.05 c 0.08,0.08 0.21,0.17 0.32,0.26 1.06,0.76 2.57,1.56 4.11,2.35 1.56,0.79 3.25,1.6 4.96,2.41 3.43,1.59 7.03,3.24 10.23,4.78 3.21,1.54 6.05,2.96 8.06,4.07 2.01,1.1 3.18,1.95 3.07,2.13 z"
     id="path56" />
  <path
     class="cls-1"
     d="m 73.1,280.9821 c -0.02,0.1 -0.24,0.15 -0.67,0.16 -0.41,-0.01 -1,-0.09 -1.7,-0.25 -1.41,-0.31 -3.31,-0.91 -5.39,-1.67 -2.08,-0.76 -4.35,-1.68 -6.53,-2.64 -1.09,-0.48 -2.15,-0.96 -3.16,-1.45 -1.01,-0.49 -1.94,-0.95 -2.85,-1.49 -0.97,-0.58 -1.83,-1.36 -2.68,-2.2 -0.85,-0.85 -1.68,-1.79 -2.49,-2.79 -1.6,-2.01 -3.07,-4.28 -4.08,-6.55 -0.98,-2.24 -1.6,-4.33 -1.89,-5.88 -0.3,-1.55 -0.25,-2.55 -0.05,-2.58 0.2,-0.03 0.54,0.85 1.16,2.23 0.61,1.38 1.51,3.29 2.66,5.26 1.15,1.94 2.69,3.95 4.3,5.73 0.8,0.89 1.62,1.73 2.41,2.46 0.8,0.73 1.55,1.37 2.21,1.76 0.71,0.42 1.65,0.92 2.61,1.43 0.97,0.51 1.99,1.04 3.03,1.58 2.08,1.07 4.23,2.18 6.19,3.19 1.93,0.98 3.65,1.86 4.93,2.51 0.62,0.33 1.13,0.57 1.47,0.77 0.34,0.18 0.53,0.33 0.52,0.43 z"
     id="path58" />
  <path
     class="cls-1"
     d="m 259.29,246.7621 c 0.05,0.09 -0.84,0.67 -2.5,1.66 -0.42,0.24 -0.88,0.52 -1.39,0.81 -0.51,0.31 -1.08,0.6 -1.7,0.9 -1.24,0.61 -2.65,1.3 -4.23,2.05 -1.61,0.67 -3.37,1.41 -5.27,2.21 -1.93,0.71 -3.99,1.49 -6.19,2.26 -4.41,1.47 -9.31,3 -14.56,4.35 -10.48,2.8 -22.27,5.15 -33.72,7.12 -2.86,0.48 -5.7,0.96 -8.5,1.43 -2.79,0.47 -5.54,0.9 -8.15,1.42 -5.26,1.04 -10.21,2.34 -14.7,3.53 -4.49,1.2 -9.52,2.63 -14.9,4.17 -2.7,0.77 -5.48,1.56 -8.32,2.36 -2.86,0.79 -5.76,1.61 -8.81,2.28 -1.57,0.33 -3.09,0.57 -4.62,0.79 -1.53,0.23 -3.07,0.44 -4.61,0.64 -3.08,0.4 -6.17,0.77 -9.25,1.11 -3.08,0.33 -6.14,0.64 -9.17,0.88 -1.52,0.11 -3.02,0.22 -4.54,0.27 -1.55,0.06 -3.04,-0.02 -4.49,-0.09 -5.84,-0.3 -11.33,-0.73 -16.36,-1.34 -2.61,-0.35 -4.93,-1.22 -6.99,-2.15 -2.06,-0.96 -3.87,-2.03 -5.46,-3.09 -0.79,-0.53 -1.55,-1.03 -2.23,-1.62 -0.67,-0.57 -1.25,-1.14 -1.77,-1.68 -1.05,-1.09 -1.89,-2.08 -2.56,-2.89 -1.34,-1.64 -1.99,-2.61 -1.91,-2.67 0.08,-0.07 0.89,0.77 2.36,2.27 0.74,0.75 1.64,1.66 2.73,2.66 0.55,0.5 1.14,1.02 1.8,1.52 0.64,0.49 1.4,0.95 2.2,1.43 1.6,0.96 3.41,1.92 5.41,2.77 2.01,0.82 4.23,1.56 6.61,1.8 4.94,0.44 10.47,0.73 16.24,0.88 1.45,0.03 2.9,0.08 4.32,-0.01 1.45,-0.08 2.94,-0.22 4.43,-0.36 2.99,-0.3 6.03,-0.66 9.09,-1.04 3.05,-0.39 6.13,-0.8 9.18,-1.25 1.53,-0.23 3.05,-0.46 4.56,-0.7 1.51,-0.24 3.02,-0.5 4.44,-0.82 2.91,-0.68 5.81,-1.53 8.63,-2.34 2.83,-0.83 5.6,-1.64 8.29,-2.43 5.38,-1.58 10.42,-3.03 14.94,-4.25 4.52,-1.2 9.52,-2.49 14.92,-3.52 2.71,-0.52 5.46,-0.92 8.26,-1.36 2.79,-0.44 5.63,-0.88 8.5,-1.33 11.44,-1.81 23.19,-3.94 33.65,-6.45 5.25,-1.21 10.14,-2.59 14.56,-3.9 2.2,-0.69 4.27,-1.38 6.21,-2.01 1.91,-0.7 3.69,-1.35 5.31,-1.95 1.59,-0.66 3.03,-1.26 4.3,-1.78 0.64,-0.25 1.22,-0.5 1.74,-0.76 0.53,-0.25 1.01,-0.48 1.45,-0.68 1.74,-0.81 2.73,-1.21 2.78,-1.12 z"
     id="path60" />
  <path
     class="cls-1"
     d="m 31.86,219.8021 c -0.13,-0.14 -0.02,-0.55 0.36,-1.05 0.28,-0.28 0.71,-0.68 1.26,-0.78 0.27,-0.05 0.57,-0.01 0.82,0.14 0.25,0.17 0.42,0.3 0.55,0.68 0.08,0.12 0.15,0.25 0.23,0.37 l 0.15,0.23 c 0.1,0.15 0.18,0.32 0.26,0.48 0.17,0.31 0.29,0.63 0.38,0.91 0.15,0.45 0.27,1.04 0.32,1.67 0.04,0.63 0,1.29 -0.13,1.87 -0.24,1.17 -0.81,1.98 -1.1,1.86 -0.27,-0.11 -0.27,-0.94 -0.44,-1.92 -0.14,-0.98 -0.46,-2.07 -0.72,-2.79 -0.08,-0.23 -0.15,-0.49 -0.25,-0.76 -0.05,-0.14 -0.08,-0.28 -0.15,-0.42 l -0.08,-0.22 c 0,0 -0.02,-0.05 -0.01,-0.06 v -0.02 c 0.03,-0.06 0.04,-0.23 -0.06,-0.28 -0.08,-0.06 -0.21,-0.07 -0.38,-0.05 -0.49,0.17 -0.89,0.3 -1.03,0.15 z"
     id="path62" />
  <path
     class="cls-1"
     d="m 31.03,229.4921 c -0.05,-0.14 0.05,-0.33 0.28,-0.55 0.12,-0.11 0.26,-0.22 0.46,-0.33 0.25,-0.11 0.58,-0.24 0.94,-0.26 0.18,-0.01 0.36,0 0.54,0.06 0.16,0.07 0.38,0.14 0.43,0.32 0.18,0.36 0.36,0.7 0.52,1.04 0.18,0.49 0.31,0.94 0.37,1.35 0.14,0.8 0.08,2.06 -0.29,3.04 -0.35,0.99 -1,1.63 -1.26,1.45 -0.24,-0.16 -0.18,-0.85 -0.26,-1.7 -0.06,-0.84 -0.23,-1.81 -0.34,-2.47 -0.05,-0.33 -0.11,-0.75 -0.15,-1.15 0.02,-0.08 0.11,-0.31 0,-0.38 -0.05,-0.05 -0.12,-0.09 -0.23,-0.13 -0.16,-0.02 -0.32,-0.03 -0.47,-0.05 -0.29,-0.04 -0.5,-0.11 -0.55,-0.25 z"
     id="path64" />
  <path
     class="cls-1"
     d="m 68.01,208.8921 c -0.19,0 -0.45,-0.97 -0.55,-2.51 -0.03,-0.77 -0.04,-1.68 0.14,-2.69 0.09,-0.5 0.22,-1.03 0.47,-1.58 l 0.22,-0.41 c 0.1,-0.14 0.18,-0.28 0.3,-0.41 0.11,-0.14 0.25,-0.27 0.41,-0.4 0.09,-0.06 0.18,-0.12 0.28,-0.18 0.13,-0.06 0.17,-0.1 0.47,-0.16 l -0.14,0.03 c 1.03,-0.32 2.02,-0.54 3.04,-0.65 1.01,-0.1 2.03,-0.11 3.02,0.21 0.37,0.12 0.79,0.31 1.19,0.65 0.4,0.33 0.74,0.85 0.88,1.4 0.15,0.54 0.13,1.08 0.05,1.54 -0.08,0.47 -0.25,0.88 -0.38,1.32 -0.68,1.75 -2.3,3.11 -3.83,3.63 -1.54,0.58 -2.97,0.66 -3.98,0.61 -1.01,-0.05 -1.61,-0.24 -1.6,-0.39 0,-0.15 0.61,-0.25 1.54,-0.45 0.93,-0.2 2.21,-0.52 3.41,-1.16 1.22,-0.62 2.19,-1.69 2.59,-2.92 0.06,-0.32 0.17,-0.65 0.2,-0.93 0.04,-0.28 0.01,-0.51 -0.04,-0.66 -0.05,-0.15 -0.12,-0.24 -0.23,-0.33 -0.11,-0.09 -0.28,-0.18 -0.48,-0.24 -1.06,-0.36 -3.1,-0.19 -4.87,0.19 l -0.14,0.03 c 0,0 0.05,0 0.07,-0.01 0.03,0.1 -0.22,-0.93 -0.12,-0.48 v 0 c 0,0 0,0.04 0,0.04 v 0.06 c 0.03,0.07 0.06,0.14 0.09,0.21 0.02,0.08 0.08,0.19 0.06,0.16 0,0 -0.02,0 -0.04,0.01 -0.04,0.03 -0.09,0.06 -0.15,0.11 -0.05,0.04 -0.11,0.12 -0.16,0.18 l -0.16,0.23 c -0.2,0.34 -0.37,0.74 -0.5,1.15 -0.26,0.82 -0.41,1.66 -0.53,2.38 -0.22,1.45 -0.34,2.45 -0.55,2.45 z"
     id="path66" />
  <metadata
     id="metadata995">
    <rdf:RDF>
      <cc:Work
         rdf:about="">
        <dc:title>Elbow Pain</dc:title>
      </cc:Work>
    </rdf:RDF>
  </metadata>
</svg>
