<?xml version="1.0" encoding="UTF-8" standalone="no"?>
<!-- Created with Inkscape (http://www.inkscape.org/) -->

<svg
   version="1.1"
   id="svg2"
   xml:space="preserve"
   width="362.81198"
   height="71.531998"
   viewBox="0 0 362.81198 71.531998"
   xmlns="http://www.w3.org/2000/svg"
   xmlns:svg="http://www.w3.org/2000/svg"><defs
     id="defs6" /><g
     id="g8"
     transform="matrix(1.3333333,0,0,-1.3333333,-42.859732,130.25466)"><path
       d="m 103.2374,55.3164 v 13.247 h 4.205 c 1.599,0 3.201,-0.198 4.881,-0.359 -0.081,0.56 -0.2,1.161 -0.2,1.721 0,0.56 0.119,1.161 0.2,1.721 -1.68,-0.201 -3.282,-0.364 -4.843,-0.364 h -4.243 v 8.611 c 4.205,0 6.803,-0.285 9.245,-0.565 -0.079,0.565 -0.198,1.16 -0.198,1.721 0,0.565 0.119,1.16 0.198,1.721 h -15.247 v -27.454 c 1.003,0.081 2.003,0.201 3.003,0.201 0.999,0 2.001,-0.12 2.999,-0.201"
       style="fill:#ffffff;fill-opacity:1;fill-rule:nonzero;stroke:none"
       id="path20" /><path
       d="m 136.2969,57.2382 c 0,0.559 0.119,1.161 0.198,1.721 -2.719,-0.28 -5.681,-0.56 -9.166,-0.56 v 24.372 c -0.998,-0.079 -1.998,-0.201 -2.999,-0.201 -0.998,0 -1.998,0.122 -3.001,0.201 v -27.254 h 15.166 c -0.079,0.559 -0.198,1.161 -0.198,1.721"
       style="fill:#ffffff;fill-opacity:1;fill-rule:nonzero;stroke:none"
       id="path24" /><path
       d="m 160.3049,57.2382 c 0,0.559 0.123,1.161 0.205,1.721 -2.444,-0.322 -5.164,-0.52 -9.245,-0.56 v 10.164 h 4.161 c 1.8,0 3.442,-0.159 4.921,-0.359 -0.08,0.56 -0.198,1.161 -0.198,1.721 0,0.56 0.118,1.161 0.198,1.721 -1.479,-0.2 -3.121,-0.363 -4.921,-0.363 h -4.161 v 8.61 c 4.081,0.079 6.801,-0.245 9.245,-0.565 -0.082,0.565 -0.205,1.16 -0.205,1.721 0,0.565 0.123,1.16 0.205,1.722 h -15.248 v -27.254 h 15.248 c -0.082,0.559 -0.205,1.161 -0.205,1.721"
       style="fill:#ffffff;fill-opacity:1;fill-rule:nonzero;stroke:none"
       id="path28" /><path
       d="m 171.2336,55.3164 c 0.119,5.602 0.76,11.166 1.679,18.212 3.044,-6.285 6.204,-12.489 8.765,-18.011 0.522,0.118 1,0.079 1.523,0 2.84,6.203 5.842,12.325 8.885,18.447 0.599,-6.162 1.397,-12.286 1.719,-18.648 1.122,0.081 2.12,0.201 3.242,0.201 1.119,0 2.204,-0.12 3.321,-0.201 -1.36,7.962 -2.281,16.689 -3.519,27.454 -0.56,-0.079 -1.164,-0.2 -1.721,-0.2 -0.56,0 -1.122,0.121 -1.682,0.2 -3.041,-6.842 -6.444,-13.125 -9.327,-18.806 -3.158,6.281 -6.325,12.524 -9.202,18.806 -0.56,-0.079 -1.122,-0.2 -1.682,-0.2 -0.558,0 -1.08,0.121 -1.642,0.2 -1.357,-10.123 -2.64,-19.408 -4.079,-27.454 0.637,0.081 1.199,0.201 1.84,0.201 0.641,0 1.239,-0.12 1.88,-0.201"
       style="fill:#ffffff;fill-opacity:1;fill-rule:nonzero;stroke:none"
       id="path32" /><path
       d="m 215.3753,55.3164 v 27.454 c -1.001,-0.079 -2.001,-0.2 -2.999,-0.2 -1.003,0 -2.004,0.121 -3.004,0.2 v -27.454 c 1,0.081 2.001,0.201 3.004,0.201 0.998,0 1.998,-0.12 2.999,-0.201"
       style="fill:#ffffff;fill-opacity:1;fill-rule:nonzero;stroke:none"
       id="path36" /><path
       d="m 229.6231,55.3978 v 19.369 l 4.361,-4.562 c 4.522,-4.764 8.844,-9.683 13.487,-14.846 l 3.401,-0.042 v 27.454 c -0.518,-0.079 -1.08,-0.121 -1.603,-0.121 -0.515,0 -1.077,0.042 -1.597,0.121 v -18.727 c -5.644,6.441 -11.608,12.524 -17.291,18.727 h -3.96 v -27.373 c 0.52,0.04 1.08,0.119 1.602,0.119 0.518,0 1.08,-0.079 1.6,-0.119"
       style="fill:#ffffff;fill-opacity:1;fill-rule:nonzero;stroke:none"
       id="path40" /><path
       d="m 275.8454,54.7966 c 3.519,0 7.083,0.799 10.686,1.8 v 11.085 c -1.001,-0.079 -2.003,-0.196 -2.999,-0.196 -1.006,0 -2.004,0.117 -3.004,0.196 v -9.364 c -0.961,-0.557 -2.405,-1.121 -4.403,-1.121 -6.083,0 -9.604,4.165 -9.604,11.127 0,6.726 3.281,12.766 9.965,12.766 3.16,0 6.04,-1.399 7.885,-4.084 h 0.557 c 0.162,1.362 0.56,2.766 1.12,4.044 -2.999,1.721 -6.199,2.442 -9.641,2.442 -9.245,0 -16.531,-5.082 -16.531,-15.047 0,-9.406 7.526,-13.648 15.969,-13.648"
       style="fill:#ffffff;fill-opacity:1;fill-rule:nonzero;stroke:none"
       id="path44" /><path
       d="m 290.38,88.1159 c 0.114,0.017 0.261,0.033 0.476,0.033 0.737,0 1,-0.362 1,-0.723 0,-0.506 -0.459,-0.704 -1,-0.704 h -0.476 z m 0,-1.903 h 0.458 c 0.527,0 0.788,-0.198 0.888,-0.723 0.082,-0.541 0.179,-0.919 0.278,-1.049 h 0.687 c -0.063,0.13 -0.163,0.377 -0.261,1.016 -0.081,0.607 -0.326,0.936 -0.688,1.003 v 0.033 c 0.443,0.131 0.802,0.457 0.802,0.998 0,0.397 -0.13,0.674 -0.375,0.854 -0.247,0.182 -0.658,0.312 -1.281,0.312 -0.491,0 -0.821,-0.051 -1.166,-0.098 v -4.118 h 0.658 z"
       style="fill:#ffffff;fill-opacity:1;fill-rule:nonzero;stroke:none"
       id="path48" /><path
       d="m 291.0681,89.7065 h 0.016 c 1.642,0 2.955,-1.395 2.955,-3.135 0,-1.739 -1.313,-3.134 -2.955,-3.115 -1.641,0 -2.969,1.376 -2.969,3.134 0,1.721 1.328,3.116 2.953,3.116 m 0,-6.824 c 2.036,0 3.646,1.623 3.646,3.708 0,2.052 -1.61,3.692 -3.63,3.692 h -0.016 c -2.017,0 -3.659,-1.64 -3.659,-3.692 0,-2.085 1.642,-3.708 3.659,-3.708"
       style="fill:#ffffff;fill-opacity:1;fill-rule:nonzero;stroke:none"
       id="path52" /><path
       d="M 302.5788,45.716 H 87.0548 v 50.3 h 215.524 z m -217.199,0 h -28.062 -23.499 v 50.3 h 30.379 c -4.852,-3.551 -6.106,-10.785 -6.106,-10.785 l -2.488,-10.786 h -10.923 l -1.643,-6.79 h 11.32 l -3.239,-14.233 c -0.739,-7.131 6.199,-7.706 6.199,-7.706 l 4.654,21.944 h 11.981 l 1.738,6.785 h -12.721 l 1.996,8.111 c 0.603,2.451 1.554,4.811 2.895,6.949 3.993,6.366 8.299,6.511 8.299,6.511 h 9.22 z m -53.235,-1.674 h 272.109 V 97.691 H 32.1448 Z"
       style="fill:#ffffff;fill-opacity:1;fill-rule:nonzero;stroke:none"
       id="path56" /></g></svg>
