<?xml version="1.0" encoding="UTF-8" standalone="no"?>
<!-- Created with Inkscape (http://www.inkscape.org/) -->

<svg
   width="100"
   height="87.909966"
   viewBox="0 0 26.458333 23.259513"
   version="1.1"
   id="svg5"
   xmlns="http://www.w3.org/2000/svg"
   xmlns:svg="http://www.w3.org/2000/svg">
  <defs
     id="defs2" />
  <g
     id="layer1"
     transform="translate(-135.67126,-118.98972)">
    <path
       d="m 148.89983,118.98972 -2.8661,2.53979 h 1.57171 l -0.0178,0.042 c -1.75044,4.45561 -6.0375,9.36537 -6.0375,9.36537 l 0.0865,0.0185 c 1.75362,-1.91773 4.27751,-3.12307 7.08255,-3.12307 h 0.36255 c 2.80313,0 5.32766,1.20534 7.08255,3.12307 l 0.0865,-0.0185 c 0,0 -4.28833,-4.90976 -6.03814,-9.36537 l -0.0184,-0.042 h 1.57234 z"
       style="fill:#dc0021;fill-opacity:1;fill-rule:nonzero;stroke:none;stroke-width:0.636062"
       id="path170-5" />
    <path
       d="m 150.81246,131.49737 c -0.27605,0 -0.47005,0.19972 -0.47005,0.52411 v 1.60542 c 0,0.32376 0.194,0.51839 0.47005,0.51839 0.27606,0 0.46433,-0.19463 0.46433,-0.51839 v -1.60542 c 0,-0.32439 -0.18827,-0.52411 -0.46433,-0.52411"
       style="fill:#dc0021;fill-opacity:1;fill-rule:nonzero;stroke:none;stroke-width:0.636062"
       id="path174" />
    <path
       d="m 147.99662,133.02092 c -0.28623,0 -0.49677,0.20545 -0.49677,0.56228 0,0.35683 0.21054,0.56164 0.49677,0.56164 0.28686,0 0.49676,-0.20481 0.49676,-0.56164 0,-0.34093 -0.19972,-0.56228 -0.49676,-0.56228"
       style="fill:#dc0021;fill-opacity:1;fill-rule:nonzero;stroke:none;stroke-width:0.636062"
       id="path178" />
    <path
       d="m 153.76793,132.71778 c -0.15775,0.15837 -0.34984,0.24679 -0.60554,0.24679 -0.25569,0 -0.45096,-0.0884 -0.60871,-0.24679 -0.22643,-0.22644 -0.22071,-0.50758 -0.22071,-0.89494 0,-0.388 -0.006,-0.6685 0.22071,-0.89621 0.15775,-0.15712 0.35302,-0.24552 0.60871,-0.24552 0.2557,0 0.44779,0.0884 0.60554,0.24552 0.22707,0.22771 0.22389,0.50821 0.22389,0.89621 0,0.38736 0.003,0.6685 -0.22389,0.89494 m -1.78797,0.91338 c 0,0.73529 -0.54066,1.14618 -1.16781,1.14618 -0.62589,0 -1.17227,-0.41089 -1.17227,-1.14618 v -1.62068 c 0,-0.73466 0.54638,-1.14555 1.17227,-1.14555 0.62715,0 1.16781,0.41089 1.16781,1.14555 z m -3.98302,1.14618 c -0.68123,0 -1.19962,-0.42743 -1.19962,-1.18879 0,-0.35111 0.15647,-0.67614 0.32439,-1.02724 l 0.81035,-1.66331 h 0.76709 l -0.79953,1.58825 c 0.0916,-0.0388 0.19463,-0.049 0.28686,-0.049 0.51839,0 1.01007,0.4268 1.01007,1.13982 0,0.75692 -0.51903,1.20025 -1.19961,1.20025 m -2.81013,0 c -0.62715,0 -1.21551,-0.32948 -1.22632,-1.13537 h 0.70221 c 0.0108,0.34602 0.2487,0.50313 0.52411,0.50313 0.30213,0 0.5184,-0.18955 0.5184,-0.53493 0,-0.3193 -0.194,-0.52984 -0.54002,-0.52984 h -0.10241 v -0.61062 h 0.10241 c 0.34029,0 0.48595,-0.21054 0.48595,-0.48086 0,-0.32376 -0.21563,-0.49168 -0.46941,-0.49168 -0.26524,0 -0.45924,0.17302 -0.47578,0.46496 h -0.70221 c 0.0159,-0.68631 0.5292,-1.09721 1.17799,-1.09721 0.68058,0 1.17226,0.45415 1.17226,1.1023 0,0.41599 -0.18891,0.65387 -0.44334,0.78872 0.27542,0.14629 0.4974,0.41089 0.4974,0.87522 0,0.76773 -0.56228,1.14618 -1.22124,1.14618 m 16.94279,3.23947 -0.88858,-3.42774 -0.96682,1.09148 -0.0242,-0.0375 -0.0159,0.0248 c -0.65896,-0.51776 -2.53852,-2.02204 -4.22727,-3.6758 -1.75489,-1.93045 -4.28706,-3.14278 -7.10227,-3.14278 -2.79549,0 -5.31175,1.19643 -7.06601,3.10652 -0.0153,0.0108 -0.0318,0.0229 -0.0452,0.0363 -1.68811,1.65376 -3.56831,3.15805 -4.22664,3.6758 l -0.0153,-0.0248 -0.0254,0.0375 -0.96618,-1.09148 -0.88858,3.42774 3.63001,0.44588 -0.59536,-0.93183 c 0.28114,-0.0941 4.16303,-1.34782 10.13756,-1.34782 h 0.11386 c 5.97516,0 9.85578,1.25368 10.13628,1.34782 l -0.59472,0.93183 z"
       style="fill:#dc0021;fill-opacity:1;fill-rule:nonzero;stroke:none;stroke-width:0.636062"
       id="path182-6" />
    <path
       d="m 153.16246,131.07209 c -0.11958,0 -0.22135,0.0471 -0.28305,0.11958 -0.0859,0.0948 -0.10813,0.19909 -0.10813,0.63097 0,0.43125 0.0223,0.5362 0.10813,0.63034 0.0617,0.0725 0.16347,0.11958 0.28305,0.11958 0.11958,0 0.2169,-0.0471 0.2805,-0.11958 0.0859,-0.0941 0.11068,-0.19909 0.11068,-0.63034 0,-0.43188 -0.0248,-0.5362 -0.11068,-0.63097 -0.0636,-0.0725 -0.16092,-0.11958 -0.2805,-0.11958"
       style="fill:#dc0021;fill-opacity:1;fill-rule:nonzero;stroke:none;stroke-width:0.636062"
       id="path186-5" />
    <path
       d="m 141.9768,139.79848 c -0.0693,-0.0623 -0.15392,-0.10621 -0.25315,-0.13293 -0.0992,-0.0261 -0.19082,-0.0318 -0.27605,-0.0166 -0.0439,0.008 -0.0878,0.0197 -0.13168,0.035 -0.0439,0.0159 -0.0814,0.0382 -0.11386,0.0661 -0.0324,0.0286 -0.0579,0.0617 -0.0757,0.10113 -0.0191,0.0394 -0.0229,0.0859 -0.0133,0.14056 0.008,0.0464 0.0248,0.0827 0.0496,0.11067 0.0248,0.0273 0.0579,0.0496 0.0992,0.0661 0.042,0.0166 0.0903,0.0299 0.14502,0.0401 0.0547,0.0101 0.1164,0.0203 0.18446,0.0293 0.0986,0.0146 0.20163,0.0318 0.30912,0.0509 0.10687,0.0197 0.20736,0.0534 0.30086,0.1005 0.0935,0.0471 0.17556,0.11195 0.24552,0.194 0.0706,0.082 0.11766,0.19145 0.14247,0.32821 0.028,0.15711 0.0223,0.29831 -0.0153,0.42361 -0.0375,0.12531 -0.0986,0.23407 -0.18319,0.32567 -0.0852,0.0929 -0.187,0.16791 -0.30785,0.22644 -0.11958,0.0579 -0.24679,0.0992 -0.381,0.12339 -0.19591,0.035 -0.39182,0.0337 -0.58709,-0.002 -0.19463,-0.0356 -0.36446,-0.10622 -0.50821,-0.21117 l 0.35556,-0.51776 c 0.0814,0.07 0.18127,0.1234 0.30149,0.15966 0.11894,0.0363 0.2328,0.0445 0.34157,0.0254 0.049,-0.009 0.096,-0.0223 0.14056,-0.0413 0.0445,-0.0179 0.0821,-0.042 0.11258,-0.0712 0.0305,-0.0293 0.0528,-0.0655 0.0668,-0.1075 0.0141,-0.0426 0.0166,-0.091 0.007,-0.14501 -0.01,-0.0522 -0.0299,-0.0929 -0.0623,-0.12466 -0.0324,-0.0318 -0.0751,-0.0579 -0.1272,-0.0795 -0.0534,-0.021 -0.11766,-0.0375 -0.19273,-0.0496 -0.0757,-0.0121 -0.16092,-0.0242 -0.25569,-0.0369 -0.0929,-0.0128 -0.1851,-0.0312 -0.27542,-0.0541 -0.091,-0.0242 -0.17491,-0.0611 -0.25124,-0.1094 -0.0763,-0.049 -0.14248,-0.11386 -0.19782,-0.19273 -0.0553,-0.0795 -0.0941,-0.18128 -0.11577,-0.30531 -0.0267,-0.15138 -0.0191,-0.2875 0.0235,-0.40708 0.0433,-0.11894 0.10813,-0.22262 0.19654,-0.30976 0.0884,-0.0878 0.19273,-0.15901 0.31358,-0.21308 0.12086,-0.0547 0.24552,-0.0935 0.37464,-0.1164 0.15521,-0.0274 0.31803,-0.0274 0.4885,0.001 0.17173,0.028 0.32821,0.0865 0.46878,0.17619 z"
       style="fill:#dc0021;fill-opacity:1;fill-rule:nonzero;stroke:none;stroke-width:0.636062"
       id="path190-0" />
    <path
       d="m 144.0045,139.37963 0.25506,2.19378 -0.66723,0.0776 -0.25506,-2.19377 -0.78108,0.0903 -0.0668,-0.56928 2.22939,-0.25951 0.0662,0.56991 z"
       style="fill:#dc0021;fill-opacity:1;fill-rule:nonzero;stroke:none;stroke-width:0.636062"
       id="path194-0" />
    <path
       d="m 146.65745,139.45558 c -0.003,-0.0655 -0.0204,-0.11703 -0.0503,-0.15646 -0.0299,-0.0394 -0.0674,-0.0687 -0.11195,-0.0884 -0.0439,-0.0197 -0.0941,-0.0318 -0.1482,-0.0369 -0.0547,-0.005 -0.10622,-0.006 -0.15647,-0.003 l -0.35874,0.0204 0.0363,0.64751 0.3193,-0.0178 c 0.0553,-0.003 0.11132,-0.0108 0.1692,-0.0235 0.0572,-0.0121 0.10877,-0.0318 0.15457,-0.0579 0.0464,-0.0261 0.0827,-0.0623 0.11067,-0.10876 0.028,-0.0458 0.0394,-0.10432 0.0356,-0.17491 m 0.13548,1.92536 -0.66468,-1.06922 -0.22898,0.0128 0.0617,1.10293 -0.65514,0.0369 -0.15583,-2.77832 1.05967,-0.0592 c 0.13357,-0.008 0.26461,-10e-4 0.39246,0.0191 0.12848,0.0204 0.24488,0.0604 0.34919,0.12022 0.10496,0.0598 0.19019,0.14185 0.2557,0.24489 0.0668,0.10432 0.10432,0.23598 0.11258,0.39563 0.0108,0.18827 -0.0312,0.34919 -0.12594,0.4834 -0.0954,0.13422 -0.23089,0.23344 -0.40835,0.29832 l 0.79253,1.14873 z"
       style="fill:#dc0021;fill-opacity:1;fill-rule:nonzero;stroke:none;stroke-width:0.636062"
       id="path206-9" />
    <path
       d="m 147.87093,141.34017 0.003,-2.78277 1.87002,0.003 v 0.56546 l -1.22251,-0.002 -6.4e-4,0.52729 1.15573,0.001 -6.4e-4,0.53875 -1.15572,-0.001 -6.4e-4,0.57754 1.29375,0.001 -0.001,0.57373 z"
       style="fill:#dc0021;fill-opacity:1;fill-rule:nonzero;stroke:none;stroke-width:0.636062"
       id="path210-6" />
    <path
       d="m 151.53261,139.21515 -0.12022,2.20522 -0.67041,-0.0362 0.11957,-2.20523 -0.78489,-0.0433 0.0312,-0.57246 2.24085,0.12149 -0.0312,0.57309 z"
       style="fill:#dc0021;fill-opacity:1;fill-rule:nonzero;stroke:none;stroke-width:0.636062"
       id="path214-6" />
    <path
       d="m 154.34006,141.65267 c -0.18891,0.0611 -0.40072,0.0795 -0.63479,0.0528 -0.21371,-0.0242 -0.40644,-0.0814 -0.57945,-0.17237 -0.17301,-0.0903 -0.31867,-0.20799 -0.43697,-0.35238 -0.11832,-0.1431 -0.20482,-0.30912 -0.26015,-0.4974 -0.0553,-0.18764 -0.0706,-0.38927 -0.0464,-0.60489 0.0254,-0.22135 0.0865,-0.41726 0.18382,-0.58773 0.0967,-0.1711 0.22008,-0.31167 0.37019,-0.42298 0.14884,-0.11067 0.3193,-0.18954 0.50885,-0.23661 0.19018,-0.0471 0.39054,-0.0585 0.60108,-0.035 0.19591,0.0223 0.38354,0.0782 0.56418,0.16856 0.18128,0.0903 0.32312,0.20863 0.42489,0.35429 l -0.50439,0.40136 c -0.0522,-0.0929 -0.12722,-0.16601 -0.2239,-0.21945 -0.0967,-0.0528 -0.19908,-0.0858 -0.30531,-0.0973 -0.11767,-0.0134 -0.22707,-0.004 -0.32948,0.028 -0.10304,0.0318 -0.19336,0.0821 -0.27223,0.14947 -0.0789,0.0674 -0.14311,0.1501 -0.194,0.2487 -0.0509,0.098 -0.0833,0.20799 -0.0967,0.33075 -0.0146,0.12468 -0.008,0.24107 0.0197,0.3492 0.0267,0.10877 0.0706,0.20354 0.13166,0.28623 0.0604,0.0814 0.13675,0.14883 0.22835,0.20099 0.0909,0.0528 0.194,0.0859 0.30912,0.0986 0.13231,0.0153 0.25188,0.003 0.3562,-0.0388 0.10495,-0.0413 0.19209,-0.0992 0.26078,-0.17619 l 0.41599,0.48913 c -0.13866,0.1272 -0.30213,0.22135 -0.49104,0.28305"
       style="fill:#dc0021;fill-opacity:1;fill-rule:nonzero;stroke:none;stroke-width:0.636062"
       id="path226" />
    <path
       d="m 156.74317,142.12202 0.21944,-1.14237 -1.0654,-0.20481 -0.21944,1.14236 -0.6596,-0.12657 0.52475,-2.73252 0.66023,0.12657 -0.19909,1.03488 1.06604,0.20481 0.19846,-1.03424 0.66023,0.12657 -0.52539,2.73253 z"
       style="fill:#dc0021;fill-opacity:1;fill-rule:nonzero;stroke:none;stroke-width:0.636062"
       id="path230-3" />
  </g>
</svg>
