<?xml version="1.0" encoding="UTF-8" standalone="no"?>
<!-- Created with Inkscape (http://www.inkscape.org/) -->

<svg
   width="100"
   height="34.985054"
   viewBox="0 0 26.458333 9.2564628"
   version="1.1"
   id="svg5"
   xmlns="http://www.w3.org/2000/svg"
   xmlns:svg="http://www.w3.org/2000/svg">
  <defs
     id="defs2" />
  <g
     id="layer1"
     transform="translate(-154.99763,-126.30691)">
    <path
       d="m 156.93563,127.82996 h 2.17465 v 0.5365 h -0.78565 v 2.21206 h -0.60535 v -2.21206 h -0.78365 z"
       style="fill:#33b1e9;fill-opacity:1;fill-rule:nonzero;stroke:none;stroke-width:0.397996"
       id="path234-8" />
    <path
       d="m 161.31012,129.418 c 0.19263,-0.0354 0.34148,-0.12138 0.44217,-0.2575 0.10029,-0.13651 0.15084,-0.30208 0.15084,-0.49471 0,-0.16119 -0.0275,-0.29531 -0.084,-0.40197 -0.0565,-0.10707 -0.12975,-0.19303 -0.22407,-0.25591 -0.0943,-0.0649 -0.20537,-0.10866 -0.33114,-0.13612 -0.12576,-0.0271 -0.2575,-0.0418 -0.39799,-0.0418 h -1.06225 v 2.74856 h 0.60535 v -1.09966 h 0.29969 l 0.57431,1.09966 h 0.72475 z m -0.084,-0.58226 c -0.0334,0.0418 -0.0732,0.0712 -0.12337,0.09 -0.0482,0.0211 -0.10269,0.0314 -0.16358,0.0354 -0.0605,0.004 -0.1194,0.006 -0.17392,0.006 h -0.35621 v -0.62406 h 0.39601 c 0.0545,0 0.10905,0.002 0.16756,0.0104 0.0569,0.008 0.10706,0.0231 0.15084,0.0462 0.0442,0.0207 0.08,0.0521 0.10905,0.0943 0.0275,0.0418 0.0418,0.0963 0.0418,0.16756 0,0.0732 -0.0167,0.13174 -0.0482,0.17392"
       style="fill:#33b1e9;fill-opacity:1;fill-rule:nonzero;stroke:none;stroke-width:0.397996"
       id="path246-8" />
    <path
       d="m 163.30439,130.57848 h -0.60535 v -2.74856 h 0.60535 z"
       style="fill:#33b1e9;fill-opacity:1;fill-rule:nonzero;stroke:none;stroke-width:0.397996"
       id="path248" />
    <path
       d="m 168.78737,128.1568 -0.59699,1.44353 h 1.192 z m 0,0 -0.59699,1.44353 h 1.192 z m 0,0 -0.59699,1.44353 h 1.192 z m 0,0 -0.59699,1.44353 h 1.192 z m 0,0 -0.59699,1.44353 h 1.192 z m 0,0 -0.59699,1.44353 h 1.192 z m 9.8886,-1.84989 h -20.89794 c -1.53587,0 -2.7804,1.24454 -2.7804,2.78 0,1.53587 1.24453,2.7804 2.7804,2.7804 h 20.89794 c 1.53586,0 2.78,-1.24453 2.78,-2.7804 0,-1.53546 -1.24414,-2.78 -2.78,-2.78 m -14.23391,5.23563 h -6.69149 c -1.35956,0 -2.46161,-1.10404 -2.46161,-2.46399 0,-1.36154 1.10205,-2.46359 2.46161,-2.46359 h 6.69149 z m 2.61881,-0.96394 h -1.56054 v -2.74856 h 0.28059 v 2.49106 h 1.27995 z m 2.73224,0 -0.30168,-0.72276 h -1.40572 l -0.30208,0.72276 h -0.32675 l 1.19438,-2.74856 h 0.27223 l 1.19637,2.74856 z m 2.59771,-0.39163 c -0.0525,0.10069 -0.12377,0.18427 -0.20934,0.25153 -0.086,0.0669 -0.18467,0.1194 -0.29133,0.15482 -0.10707,0.0358 -0.21572,0.0545 -0.32477,0.0545 -0.16755,0 -0.32675,-0.0314 -0.47759,-0.0943 -0.15283,-0.0649 -0.28099,-0.16755 -0.38765,-0.31203 l 0.2575,-0.18467 c 0.0589,0.10269 0.1405,0.18229 0.24756,0.24318 0.10467,0.0609 0.23044,0.0923 0.37491,0.0923 0.0693,0 0.1381,-0.0127 0.20735,-0.0338 0.0712,-0.0207 0.13413,-0.0541 0.18865,-0.0963 0.0545,-0.0438 0.1003,-0.0963 0.13612,-0.15681 0.0378,-0.0629 0.0545,-0.13412 0.0545,-0.21372 0,-0.0967 -0.0191,-0.17631 -0.0589,-0.2388 -0.0398,-0.0629 -0.0939,-0.11741 -0.1592,-0.15959 -0.0669,-0.0418 -0.14009,-0.0772 -0.22606,-0.10666 -0.084,-0.0295 -0.16994,-0.0565 -0.25989,-0.086 -0.088,-0.0271 -0.17591,-0.0609 -0.25989,-0.0963 -0.0836,-0.0358 -0.1592,-0.0816 -0.22407,-0.1381 -0.0669,-0.0545 -0.1194,-0.12577 -0.1592,-0.20975 -0.0398,-0.0836 -0.0609,-0.18865 -0.0609,-0.3164 0,-0.13174 0.0255,-0.24716 0.0756,-0.34546 0.0502,-0.0987 0.11741,-0.17831 0.20338,-0.24318 0.0836,-0.0649 0.1779,-0.11303 0.28456,-0.14447 0.10507,-0.0314 0.21373,-0.0462 0.32477,-0.0462 0.15522,0 0.2977,0.0251 0.42347,0.0732 0.12576,0.0506 0.24516,0.13612 0.35381,0.25989 l -0.24516,0.19064 c -0.12139,-0.1779 -0.2993,-0.26825 -0.53212,-0.26825 -0.0713,0 -0.14248,0.0107 -0.21373,0.0295 -0.0689,0.0187 -0.13173,0.0502 -0.18626,0.0899 -0.0565,0.0398 -0.10069,0.0923 -0.13412,0.15522 -0.0334,0.0629 -0.0502,0.13611 -0.0502,0.22208 0,0.12577 0.0334,0.22208 0.10467,0.28894 0.0692,0.0692 0.15482,0.12577 0.25989,0.16995 0.10269,0.0438 0.21572,0.0836 0.3391,0.11741 0.12178,0.0354 0.23481,0.0816 0.33949,0.14009 0.10268,0.0589 0.19064,0.13612 0.25989,0.23044 0.0692,0.0963 0.10467,0.22646 0.10467,0.39203 0,0.12536 -0.0271,0.2364 -0.0796,0.33511 m 2.83452,-2.10142 h -0.91977 v 2.49305 h -0.2786 v -2.49305 h -0.91976 v -0.25551 h 2.11813 z m 1.09369,2.49305 h -0.2786 v -2.74856 h 0.2786 z m 3.22217,-0.23681 c -0.0669,0.0609 -0.14646,0.11542 -0.23442,0.1592 -0.088,0.0462 -0.18228,0.082 -0.28496,0.10706 -0.10269,0.0271 -0.20975,0.0398 -0.32278,0.0398 -0.20536,0 -0.39401,-0.0358 -0.56993,-0.10905 -0.17392,-0.0732 -0.32476,-0.17153 -0.45252,-0.29969 -0.12974,-0.12974 -0.23044,-0.28058 -0.30168,-0.4565 -0.0732,-0.17591 -0.10905,-0.36894 -0.10905,-0.57829 0,-0.20934 0.0358,-0.40237 0.10905,-0.57828 0.0712,-0.17592 0.17194,-0.32875 0.30168,-0.4565 0.12776,-0.12776 0.2786,-0.22845 0.45252,-0.29969 0.17592,-0.0732 0.36457,-0.10905 0.56993,-0.10905 0.16955,0 0.34148,0.0334 0.51103,0.10069 0.17193,0.0669 0.3164,0.1779 0.43819,0.33312 l -0.24317,0.18228 c -0.0295,-0.0442 -0.0693,-0.086 -0.11741,-0.13213 -0.0482,-0.0438 -0.10467,-0.0816 -0.16955,-0.11503 -0.0629,-0.0338 -0.13014,-0.0609 -0.20337,-0.082 -0.0712,-0.0207 -0.14448,-0.0314 -0.21572,-0.0314 -0.17591,0 -0.33511,0.0338 -0.47361,0.0987 -0.1401,0.0629 -0.25949,0.15084 -0.35621,0.25949 -0.0963,0.10707 -0.17153,0.23482 -0.22168,0.37731 -0.0525,0.14447 -0.0776,0.29531 -0.0776,0.45252 0,0.1572 0.0251,0.30804 0.0776,0.45252 0.0502,0.14248 0.12537,0.26825 0.22168,0.3773 0.0967,0.10865 0.21611,0.19661 0.35621,0.26188 0.1385,0.0625 0.2977,0.0963 0.47361,0.0963 0.0712,0 0.14248,-0.006 0.21572,-0.0211 0.0692,-0.0127 0.14049,-0.0334 0.20735,-0.0649 0.0693,-0.0314 0.13413,-0.0732 0.19502,-0.12576 0.0609,-0.0545 0.11741,-0.1194 0.16955,-0.20099 l 0.22844,0.16318 c -0.0462,0.0692 -0.10467,0.13611 -0.17392,0.19899 m -11.35083,-0.74148 h 1.192 l -0.59501,-1.44353 z m 0.59699,-1.44353 -0.59699,1.44353 h 1.192 z m 0,0 -0.59699,1.44353 h 1.192 z m 0,0 -0.59699,1.44353 h 1.192 z m 0,0 -0.59699,1.44353 h 1.192 z"
       style="fill:#33b1e9;fill-opacity:1;fill-rule:nonzero;stroke:none;stroke-width:0.397996"
       id="path260" />
    <path
       d="m 156.93563,127.82996 h 2.17465 v 0.5365 h -0.78565 v 2.21206 h -0.60535 v -2.21206 h -0.78365 z"
       style="fill:#33b1e9;fill-opacity:1;fill-rule:nonzero;stroke:none;stroke-width:0.397996"
       id="path264-9" />
    <path
       d="m 161.31012,129.418 c 0.19263,-0.0354 0.34148,-0.12138 0.44217,-0.2575 0.10029,-0.13651 0.15084,-0.30208 0.15084,-0.49471 0,-0.16119 -0.0275,-0.29531 -0.084,-0.40197 -0.0565,-0.10707 -0.12975,-0.19303 -0.22407,-0.25591 -0.0943,-0.0649 -0.20537,-0.10866 -0.33114,-0.13612 -0.12576,-0.0271 -0.2575,-0.0418 -0.39799,-0.0418 h -1.06225 v 2.74856 h 0.60535 v -1.09966 h 0.29969 l 0.57431,1.09966 h 0.72475 z m -0.084,-0.58226 c -0.0334,0.0418 -0.0732,0.0712 -0.12337,0.09 -0.0482,0.0211 -0.10269,0.0314 -0.16358,0.0354 -0.0605,0.004 -0.1194,0.006 -0.17392,0.006 h -0.35621 v -0.62406 h 0.39601 c 0.0545,0 0.10905,0.002 0.16756,0.0104 0.0569,0.008 0.10706,0.0231 0.15084,0.0462 0.0442,0.0207 0.08,0.0521 0.10905,0.0943 0.0275,0.0418 0.0418,0.0963 0.0418,0.16756 0,0.0732 -0.0167,0.13174 -0.0482,0.17392"
       style="fill:#33b1e9;fill-opacity:1;fill-rule:nonzero;stroke:none;stroke-width:0.397996"
       id="path276-0" />
    <path
       d="m 163.30439,130.57848 h -0.60535 v -2.74856 h 0.60535 z"
       style="fill:#33b1e9;fill-opacity:1;fill-rule:nonzero;stroke:none;stroke-width:0.397996"
       id="path278" />
    <path
       d="m 156.21486,134.95189 c 0,0.0776 -0.0123,0.15243 -0.0358,0.22407 -0.0243,0.072 -0.0601,0.13532 -0.10826,0.19104 -0.0478,0.0549 -0.10706,0.0995 -0.17671,0.13253 -0.0701,0.0326 -0.15004,0.0498 -0.23999,0.0498 -0.14009,0 -0.2571,-0.0342 -0.35223,-0.10188 -0.0951,-0.0685 -0.16238,-0.16636 -0.20257,-0.29492 l 0.18586,-0.0521 c 0.0283,0.0816 0.0728,0.14766 0.13372,0.1982 0.0609,0.0505 0.13652,0.0756 0.22646,0.0756 0.0617,0 0.11582,-0.0131 0.16159,-0.039 0.0462,-0.0267 0.084,-0.0605 0.11423,-0.10228 0.0298,-0.0414 0.0525,-0.088 0.0673,-0.1381 0.0151,-0.0505 0.0227,-0.1003 0.0227,-0.14845 0,-0.1401 -0.0386,-0.24636 -0.11541,-0.3192 -0.0772,-0.0728 -0.17671,-0.10944 -0.2985,-0.10944 h -0.0629 v -0.16278 h 0.0661 c 0.10785,0 0.19502,-0.0362 0.26069,-0.10785 0.0661,-0.0716 0.0991,-0.16915 0.0991,-0.29134 0,-0.0426 -0.006,-0.0856 -0.0179,-0.12815 -0.0119,-0.043 -0.031,-0.0812 -0.0573,-0.11661 -0.0259,-0.035 -0.0581,-0.0637 -0.0971,-0.086 -0.0394,-0.0223 -0.0868,-0.0334 -0.14248,-0.0334 -0.0641,0 -0.12139,0.0179 -0.17273,0.0537 -0.0505,0.0362 -0.0904,0.0852 -0.11821,0.14687 l -0.18029,-0.0577 c 0.0442,-0.10706 0.11105,-0.18666 0.20139,-0.2388 0.0896,-0.0525 0.18347,-0.0788 0.28178,-0.0788 0.0776,0 0.14765,0.0131 0.20974,0.039 0.0621,0.0263 0.11383,0.0629 0.15641,0.10944 0.0422,0.0466 0.0756,0.10149 0.0991,0.16438 0.0235,0.0633 0.0354,0.13173 0.0354,0.20536 0,0.0565 -0.007,0.11144 -0.0211,0.16477 -0.0135,0.0533 -0.0338,0.10269 -0.0605,0.14726 -0.0271,0.0446 -0.0605,0.0828 -0.10109,0.11502 -0.041,0.0318 -0.0884,0.0537 -0.14407,0.0657 v 0.006 c 0.11581,0.0215 0.20894,0.0784 0.27859,0.17193 0.0704,0.0931 0.10507,0.20895 0.10507,0.34666"
       style="fill:#33b1e9;fill-opacity:1;fill-rule:nonzero;stroke:none;stroke-width:0.397996"
       id="path290" />
    <path
       d="m 157.83649,134.03762 c -0.0354,-0.12776 -0.088,-0.23681 -0.15283,-0.32477 -0.0673,-0.086 -0.14885,-0.15283 -0.24317,-0.19462 -0.0963,-0.0442 -0.20099,-0.0673 -0.31641,-0.0673 h -0.45889 v 2.06361 h 0.45491 c 0.11502,0 0.22208,-0.0231 0.31641,-0.0649 0.0963,-0.0442 0.17591,-0.10905 0.24516,-0.19701 0.0669,-0.086 0.1194,-0.19263 0.15482,-0.32039 0.0354,-0.12775 0.0545,-0.27859 0.0545,-0.44655 0,-0.16955 -0.0191,-0.31839 -0.0545,-0.44814 m -0.19501,0.82544 c -0.0291,0.10666 -0.0689,0.19502 -0.12139,0.26626 -0.0502,0.0688 -0.11105,0.12338 -0.1803,0.15681 -0.0688,0.0358 -0.14208,0.0525 -0.22208,0.0525 h -0.24715 v -1.71178 h 0.24715 c 0.08,0 0.15323,0.0167 0.22208,0.0525 0.0693,0.0354 0.13015,0.088 0.1803,0.15721 0.0525,0.0712 0.0923,0.1592 0.12139,0.26785 0.0274,0.10706 0.0422,0.23482 0.0422,0.38128 0,0.14487 -0.0147,0.27064 -0.0422,0.3773"
       style="fill:#33b1e9;fill-opacity:1;fill-rule:nonzero;stroke:none;stroke-width:0.397996"
       id="path294" />
    <path
       d="m 159.09042,133.63528 v 0.73988 h 0.59659 v 0.17472 h -0.59659 v 0.96434 h -0.20696 v -2.06241 h 0.84852 v 0.18347 z"
       style="fill:#33b1e9;fill-opacity:1;fill-rule:nonzero;stroke:none;stroke-width:0.397996"
       id="path298" />
    <path
       d="m 160.58732,133.45101 h -0.28497 l -0.54048,2.06361 h 0.21373 l 0.13412,-0.51541 h 0.65351 l 0.13015,0.51541 h 0.2177 z m -0.44616,1.38463 0.29333,-1.20036 h 0.0104 l 0.28894,1.20036 z"
       style="fill:#33b1e9;fill-opacity:1;fill-rule:nonzero;stroke:none;stroke-width:0.397996"
       id="path302" />
    <path
       d="m 162.45399,134.72897 c -0.0231,-0.0629 -0.0545,-0.11541 -0.0899,-0.1572 -0.0378,-0.0418 -0.0776,-0.0752 -0.12179,-0.0983 -0.0438,-0.0231 -0.0856,-0.0378 -0.12338,-0.0462 v -0.006 c 0.0378,-0.0123 0.0752,-0.0314 0.11105,-0.0565 0.0378,-0.0231 0.0688,-0.0545 0.0983,-0.0923 0.0275,-0.0374 0.0501,-0.0836 0.0673,-0.13372 0.0167,-0.0525 0.0271,-0.11343 0.0271,-0.18228 0,-0.10069 -0.0167,-0.18229 -0.0525,-0.24756 -0.0334,-0.0649 -0.0772,-0.11502 -0.12974,-0.15283 -0.0545,-0.0378 -0.11303,-0.0649 -0.17592,-0.0816 -0.0649,-0.0147 -0.12576,-0.0231 -0.18666,-0.0231 h -0.48157 v 2.0636 h 0.54247 c 0.0609,0 0.12377,-0.0104 0.18865,-0.0271 0.0649,-0.0191 0.12338,-0.0505 0.1779,-0.0943 0.0525,-0.0442 0.0987,-0.10069 0.13213,-0.17392 0.0354,-0.0712 0.0545,-0.16159 0.0545,-0.26825 0,-0.084 -0.0127,-0.1592 -0.0378,-0.22208 m -0.85887,-1.10205 h 0.25989 c 0.0458,0 0.09,0.004 0.13611,0.0167 0.0438,0.0127 0.0816,0.0314 0.11702,0.0589 0.0358,0.0291 0.0629,0.0669 0.084,0.11303 0.0211,0.0462 0.0314,0.10269 0.0314,0.17194 0,0.0649 -0.0104,0.12138 -0.0334,0.16755 -0.0211,0.0458 -0.0482,0.0836 -0.084,0.11303 -0.0334,0.0314 -0.0712,0.0525 -0.11502,0.0669 -0.0422,0.0127 -0.086,0.0191 -0.13014,0.0191 h -0.26587 z m 0.65988,1.49169 c -0.0211,0.0501 -0.0482,0.0923 -0.086,0.12576 -0.0354,0.0314 -0.0776,0.0565 -0.12577,0.0713 -0.0482,0.0167 -0.0983,0.0231 -0.15283,0.0231 h -0.29531 v -0.82146 h 0.29531 c 0.0442,0 0.0899,0.008 0.13612,0.0231 0.0482,0.0167 0.09,0.0398 0.12775,0.0732 0.0378,0.0338 0.0692,0.0756 0.0943,0.13014 0.0231,0.0521 0.0358,0.11741 0.0358,0.19462 0,0.0693 -0.0107,0.13015 -0.0295,0.18029"
       style="fill:#33b1e9;fill-opacity:1;fill-rule:nonzero;stroke:none;stroke-width:0.397996"
       id="path314" />
    <path
       d="m 163.54554,134.52369 c 0.0442,-0.006 0.09,-0.0211 0.13412,-0.0442 0.0462,-0.0227 0.086,-0.0565 0.12338,-0.0983 0.0358,-0.0442 0.0673,-0.0963 0.0903,-0.1592 0.0231,-0.0629 0.0334,-0.1381 0.0334,-0.22646 0,-0.10029 -0.0147,-0.18626 -0.0462,-0.25551 -0.0315,-0.0688 -0.0712,-0.12577 -0.12338,-0.16955 -0.0505,-0.0418 -0.10905,-0.0732 -0.17393,-0.0903 -0.0649,-0.0187 -0.13213,-0.0291 -0.20138,-0.0291 h -0.51103 v 2.0636 h 0.20736 v -0.95558 h 0.27223 l 0.38565,0.95558 h 0.22407 z m -0.46725,-0.12577 v -0.77091 h 0.27024 c 0.0482,0 0.0943,0.004 0.14049,0.0167 0.0438,0.0127 0.0836,0.0315 0.1194,0.0609 0.0334,0.029 0.0629,0.0688 0.0836,0.11741 0.0211,0.0502 0.0314,0.11104 0.0314,0.18427 0,0.12338 -0.0334,0.2197 -0.0983,0.28895 -0.0649,0.0692 -0.15283,0.10268 -0.26825,0.10268 z"
       style="fill:#33b1e9;fill-opacity:1;fill-rule:nonzero;stroke:none;stroke-width:0.397996"
       id="path318" />
    <path
       d="m 164.31689,135.51442 h 0.20975 v -2.06241 h -0.20975 z"
       style="fill:#33b1e9;fill-opacity:1;fill-rule:nonzero;stroke:none;stroke-width:0.397996"
       id="path320" />
    <path
       d="m 165.96041,135.49094 c -0.086,0.0482 -0.18307,0.0724 -0.29093,0.0724 -0.11622,0 -0.2189,-0.0275 -0.30884,-0.0828 -0.0899,-0.0553 -0.16597,-0.13094 -0.22806,-0.22725 -0.0621,-0.0959 -0.10944,-0.21015 -0.14248,-0.34228 -0.0326,-0.13174 -0.0494,-0.27462 -0.0494,-0.42824 0,-0.15522 0.0167,-0.2989 0.0494,-0.43103 0.033,-0.13214 0.0812,-0.24636 0.14408,-0.34228 0.0629,-0.0963 0.13929,-0.17153 0.22964,-0.22566 0.0895,-0.0545 0.19183,-0.0816 0.30566,-0.0816 0.0999,0 0.19342,0.0203 0.28059,0.0609 0.0868,0.041 0.15919,0.10506 0.2173,0.19263 l -0.13532,0.13372 c -0.0458,-0.0677 -0.0995,-0.1182 -0.16039,-0.15123 -0.0609,-0.0334 -0.12537,-0.0498 -0.19342,-0.0498 -0.088,0 -0.16438,0.0231 -0.22925,0.0701 -0.0649,0.0466 -0.119,0.11064 -0.16159,0.19223 -0.0434,0.0816 -0.0752,0.17671 -0.0963,0.28576 -0.0207,0.10826 -0.0314,0.22408 -0.0314,0.34626 0,0.12219 0.0107,0.23721 0.033,0.34506 0.0219,0.10826 0.0545,0.20298 0.0975,0.28417 0.043,0.0816 0.0967,0.14646 0.16199,0.19383 0.0649,0.0474 0.14128,0.0712 0.22924,0.0712 0.0756,0 0.14487,-0.0207 0.20696,-0.0625 0.0621,-0.0418 0.11303,-0.0963 0.15283,-0.16477 l 0.13213,0.13094 c -0.0561,0.0915 -0.12696,0.16159 -0.21292,0.21014"
       style="fill:#33b1e9;fill-opacity:1;fill-rule:nonzero;stroke:none;stroke-width:0.397996"
       id="path332" />
    <path
       d="m 167.36657,133.62641 v 1.88769 h -0.20696 v -1.88769 h -0.40794 v -0.17472 h 1.02563 v 0.17472 z"
       style="fill:#33b1e9;fill-opacity:1;fill-rule:nonzero;stroke:none;stroke-width:0.397996"
       id="path336-0" />
    <path
       d="m 168.04117,135.5141 v -2.06241 h 0.8545 v 0.18069 h -0.65033 v 0.72236 h 0.60854 v 0.17472 h -0.60854 v 0.80116 h 0.68058 v 0.18348 z"
       style="fill:#33b1e9;fill-opacity:1;fill-rule:nonzero;stroke:none;stroke-width:0.397996"
       id="path340" />
    <path
       d="m 170.24213,135.49094 c -0.086,0.0482 -0.18308,0.0724 -0.29094,0.0724 -0.11621,0 -0.21889,-0.0275 -0.30884,-0.0828 -0.0899,-0.0553 -0.16597,-0.13094 -0.22805,-0.22725 -0.0621,-0.0959 -0.10945,-0.21015 -0.14249,-0.34228 -0.0326,-0.13174 -0.0493,-0.27462 -0.0493,-0.42824 0,-0.15522 0.0167,-0.2989 0.0493,-0.43103 0.033,-0.13214 0.0812,-0.24636 0.14408,-0.34228 0.0629,-0.0963 0.1393,-0.17153 0.22964,-0.22566 0.0896,-0.0545 0.19184,-0.0816 0.30566,-0.0816 0.0999,0 0.19343,0.0203 0.28059,0.0609 0.0868,0.041 0.1592,0.10506 0.2173,0.19263 l -0.13531,0.13372 c -0.0462,-0.0677 -0.0995,-0.1182 -0.1604,-0.15123 -0.0609,-0.0334 -0.12536,-0.0498 -0.19342,-0.0498 -0.0879,0 -0.16437,0.0231 -0.22925,0.0701 -0.0649,0.0466 -0.119,0.11064 -0.16158,0.19223 -0.0434,0.0816 -0.0752,0.17671 -0.0963,0.28576 -0.0207,0.10826 -0.0314,0.22408 -0.0314,0.34626 0,0.12219 0.0107,0.23721 0.033,0.34506 0.0219,0.10826 0.0545,0.20298 0.0975,0.28417 0.043,0.0816 0.0967,0.14646 0.16199,0.19383 0.0649,0.0474 0.14089,0.0712 0.22924,0.0712 0.0756,0 0.14487,-0.0207 0.20696,-0.0625 0.0621,-0.0418 0.11303,-0.0963 0.15283,-0.16477 l 0.13214,0.13094 c -0.0561,0.0915 -0.12696,0.16159 -0.21293,0.21014"
       style="fill:#33b1e9;fill-opacity:1;fill-rule:nonzero;stroke:none;stroke-width:0.397996"
       id="path352" />
    <path
       d="m 171.7953,135.5141 v -0.97867 h -0.8127 v 0.97867 h -0.20975 v -2.06241 h 0.20975 v 0.90305 h 0.8127 v -0.90305 h 0.20975 v 2.06241 z"
       style="fill:#33b1e9;fill-opacity:1;fill-rule:nonzero;stroke:none;stroke-width:0.397996"
       id="path356" />
    <path
       d="m 173.45721,135.5141 -0.73828,-1.71576 h -0.009 v 1.71576 h -0.1982 v -2.06241 h 0.26109 l 0.7343,1.71576 h 0.009 v -1.71576 h 0.19183 v 2.06241 z"
       style="fill:#33b1e9;fill-opacity:1;fill-rule:nonzero;stroke:none;stroke-width:0.397996"
       id="path360-5" />
    <path
       d="m 175.48106,134.04179 c -0.0334,-0.13412 -0.0796,-0.24715 -0.1381,-0.34147 -0.0609,-0.0943 -0.13413,-0.16756 -0.2201,-0.2201 -0.086,-0.0521 -0.18228,-0.0776 -0.29332,-0.0776 -0.11303,0 -0.21372,0.0255 -0.30168,0.0776 -0.086,0.0525 -0.1592,0.12577 -0.22009,0.2201 -0.0609,0.0943 -0.10467,0.20735 -0.13612,0.34147 -0.0314,0.13214 -0.0462,0.2786 -0.0462,0.4378 0,0.16159 0.0147,0.30805 0.0482,0.44217 0.0314,0.13214 0.0776,0.24716 0.1385,0.34148 0.0605,0.0963 0.13612,0.16955 0.22209,0.22208 0.0879,0.0521 0.18626,0.0776 0.29531,0.0776 0.11103,0 0.20735,-0.0255 0.29332,-0.0776 0.086,-0.0525 0.1592,-0.12576 0.22009,-0.22208 0.0585,-0.0943 0.10467,-0.20934 0.13811,-0.34148 0.0314,-0.13412 0.0482,-0.28058 0.0482,-0.44217 0,-0.1592 -0.0167,-0.30566 -0.0482,-0.4378 m -0.20099,0.78764 c -0.0211,0.10905 -0.0505,0.20337 -0.0904,0.28496 -0.0398,0.0816 -0.0899,0.14686 -0.15084,0.19263 -0.0585,0.0462 -0.12974,0.0693 -0.20934,0.0693 -0.0816,0 -0.15283,-0.0231 -0.21373,-0.0693 -0.0609,-0.0458 -0.11103,-0.11103 -0.15283,-0.19263 -0.0398,-0.0816 -0.0692,-0.17591 -0.0879,-0.28496 -0.0211,-0.10866 -0.0314,-0.22407 -0.0314,-0.34984 0,-0.12338 0.0104,-0.24079 0.0314,-0.34984 0.0187,-0.10905 0.0482,-0.20337 0.0879,-0.28297 0.0418,-0.0796 0.0919,-0.14249 0.15283,-0.18825 0.0609,-0.0462 0.13214,-0.0693 0.21373,-0.0693 0.0776,0 0.14646,0.0231 0.20735,0.0693 0.0585,0.0458 0.11104,0.10865 0.15084,0.18825 0.0418,0.0796 0.0713,0.17392 0.0923,0.28297 0.0187,0.10905 0.0291,0.22646 0.0291,0.34984 0,0.12577 -0.0104,0.24118 -0.0291,0.34984"
       style="fill:#33b1e9;fill-opacity:1;fill-rule:nonzero;stroke:none;stroke-width:0.397996"
       id="path372-1" />
    <path
       d="m 175.94536,135.5141 v -2.06241 h 0.21014 v 1.87296 h 0.60535 v 0.18945 z"
       style="fill:#33b1e9;fill-opacity:1;fill-rule:nonzero;stroke:none;stroke-width:0.397996"
       id="path376" />
    <path
       d="m 178.21513,134.04179 c -0.0314,-0.13412 -0.0776,-0.24715 -0.13811,-0.34147 -0.0589,-0.0943 -0.13213,-0.16756 -0.2181,-0.2201 -0.086,-0.0521 -0.18427,-0.0776 -0.29332,-0.0776 -0.11502,0 -0.21571,0.0255 -0.30168,0.0776 -0.088,0.0525 -0.16119,0.12577 -0.22009,0.2201 -0.0605,0.0943 -0.10666,0.20735 -0.13811,0.34147 -0.0294,0.13214 -0.0462,0.2786 -0.0462,0.4378 0,0.16159 0.0167,0.30805 0.0482,0.44217 0.0314,0.13214 0.0776,0.24716 0.14049,0.34148 0.0609,0.0963 0.13413,0.16955 0.22009,0.22208 0.088,0.0521 0.18627,0.0776 0.29731,0.0776 0.10905,0 0.20735,-0.0255 0.29332,-0.0776 0.086,-0.0525 0.1592,-0.12576 0.2181,-0.22208 0.0605,-0.0943 0.10667,-0.20934 0.13811,-0.34148 0.0314,-0.13412 0.0482,-0.28058 0.0482,-0.44217 0,-0.1592 -0.0167,-0.30566 -0.0482,-0.4378 m -0.20099,0.78764 c -0.0191,0.10905 -0.0505,0.20337 -0.0904,0.28496 -0.0398,0.0816 -0.0899,0.14686 -0.14845,0.19263 -0.0609,0.0462 -0.13014,0.0693 -0.20974,0.0693 -0.0836,0 -0.15482,-0.0231 -0.21572,-0.0693 -0.0609,-0.0458 -0.11103,-0.11103 -0.15084,-0.19263 -0.0398,-0.0816 -0.0712,-0.17591 -0.0899,-0.28496 -0.0211,-0.10866 -0.0295,-0.22407 -0.0295,-0.34984 0,-0.12338 0.008,-0.24079 0.0295,-0.34984 0.0187,-0.10905 0.0501,-0.20337 0.0899,-0.28297 0.0398,-0.0796 0.0899,-0.14249 0.15084,-0.18825 0.0609,-0.0462 0.13214,-0.0693 0.21572,-0.0693 0.0776,0 0.14686,0.0231 0.20536,0.0693 0.0609,0.0458 0.11104,0.10865 0.15283,0.18825 0.0398,0.0796 0.0712,0.17392 0.0904,0.28297 0.0207,0.10905 0.0314,0.22646 0.0314,0.34984 0,0.12577 -0.0107,0.24118 -0.0314,0.34984"
       style="fill:#33b1e9;fill-opacity:1;fill-rule:nonzero;stroke:none;stroke-width:0.397996"
       id="path388" />
    <path
       d="m 179.63203,135.50694 c -0.0832,0.0302 -0.18069,0.045 -0.29253,0.045 -0.1182,0 -0.22367,-0.0251 -0.31759,-0.0756 -0.0943,-0.0505 -0.17313,-0.12218 -0.23681,-0.21571 -0.0641,-0.0931 -0.11343,-0.20576 -0.14726,-0.3379 -0.0338,-0.13213 -0.0509,-0.27939 -0.0509,-0.44297 0,-0.15323 0.0167,-0.29571 0.0493,-0.42784 0.033,-0.13214 0.0804,-0.24636 0.14248,-0.34228 0.0621,-0.0963 0.13811,-0.17154 0.22805,-0.22606 0.09,-0.0541 0.19184,-0.0812 0.30566,-0.0812 0.10428,0 0.1994,0.0199 0.28497,0.0613 0.086,0.0406 0.158,0.10467 0.21611,0.19223 l -0.13492,0.13373 c -0.0462,-0.068 -0.0999,-0.11861 -0.16079,-0.15283 -0.0609,-0.0342 -0.12617,-0.0514 -0.19621,-0.0514 -0.088,0 -0.16398,0.0243 -0.22805,0.0716 -0.0637,0.0474 -0.11741,0.11223 -0.16,0.19343 -0.0434,0.082 -0.0752,0.17671 -0.0963,0.28417 -0.0207,0.10785 -0.0314,0.22327 -0.0314,0.34506 0,0.12815 0.0107,0.24715 0.033,0.35581 0.0219,0.10865 0.0553,0.20218 0.10029,0.28098 0.045,0.0788 0.10109,0.1401 0.16836,0.18507 0.0669,0.0446 0.14407,0.0669 0.23203,0.0669 0.0641,0 0.12139,-0.008 0.17233,-0.0235 0.0513,-0.0151 0.0935,-0.0378 0.12776,-0.0669 v -0.69888 h -0.30288 v -0.17472 h 0.50665 v 0.98186 c -0.0581,0.0505 -0.12855,0.0903 -0.21134,0.12059"
       style="fill:#33b1e9;fill-opacity:1;fill-rule:nonzero;stroke:none;stroke-width:0.397996"
       id="path392" />
    <path
       d="m 180.70686,134.66641 v 0.84773 h -0.20377 v -0.84773 l -0.52775,-1.21468 h 0.22805 l 0.40158,1.00494 0.41073,-1.00494 h 0.22527 z"
       style="fill:#33b1e9;fill-opacity:1;fill-rule:nonzero;stroke:none;stroke-width:0.397996"
       id="path396" />
    <path
       d="m 159.11028,127.82996 v 0.5365 h -0.78565 v 2.21206 h -0.60535 v -2.21206 h -0.78365 v -0.5365 z"
       style="fill:#33b1e9;fill-opacity:1;fill-rule:nonzero;stroke:none;stroke-width:0.397996"
       id="path400" />
    <path
       d="m 161.31012,129.418 c 0.19263,-0.0354 0.34148,-0.12138 0.44217,-0.2575 0.10029,-0.13651 0.15084,-0.30208 0.15084,-0.49471 0,-0.16119 -0.0275,-0.29531 -0.084,-0.40197 -0.0565,-0.10707 -0.12975,-0.19303 -0.22407,-0.25591 -0.0943,-0.0649 -0.20537,-0.10866 -0.33114,-0.13612 -0.12576,-0.0271 -0.2575,-0.0418 -0.39799,-0.0418 h -1.06225 v 2.74856 h 0.60535 v -1.09966 h 0.29969 l 0.57431,1.09966 h 0.72475 z m -0.084,-0.58226 c -0.0334,0.0418 -0.0732,0.0712 -0.12337,0.09 -0.0482,0.0211 -0.10269,0.0314 -0.16358,0.0354 -0.0605,0.004 -0.1194,0.006 -0.17392,0.006 h -0.35621 v -0.62406 h 0.39601 c 0.0545,0 0.10905,0.002 0.16756,0.0104 0.0569,0.008 0.10706,0.0231 0.15084,0.0462 0.0442,0.0207 0.08,0.0521 0.10905,0.0943 0.0275,0.0418 0.0418,0.0963 0.0418,0.16756 0,0.0732 -0.0167,0.13174 -0.0482,0.17392"
       style="fill:#33b1e9;fill-opacity:1;fill-rule:nonzero;stroke:none;stroke-width:0.397996"
       id="path412" />
    <path
       d="m 163.30439,130.57848 h -0.60535 v -2.74856 h 0.60535 z"
       style="fill:#33b1e9;fill-opacity:1;fill-rule:nonzero;stroke:none;stroke-width:0.397996"
       id="path414" />
  </g>
</svg>
