<?xml version="1.0" encoding="UTF-8" standalone="no"?>
<!-- Created with Inkscape (http://www.inkscape.org/) -->

<svg
   width="100"
   height="35.656982"
   viewBox="0 0 26.458333 9.4342433"
   version="1.1"
   id="svg5"
   xmlns="http://www.w3.org/2000/svg"
   xmlns:svg="http://www.w3.org/2000/svg">
  <defs
     id="defs2" />
  <g
     id="layer1"
     transform="translate(-182.5283,-141.52146)">
    <g
       id="g7672"
       transform="matrix(1.0660741,0,0,1.0660741,91.9042,72.631035)">
      <path
         d="m 101.90964,66.057102 c -0.65722,0.03634 -1.28729,0.10795 -1.89054,0.211667 l 0.11148,0.292805 c 1.6764,-0.385939 3.61985,-0.510469 5.68219,-0.323497 -1.32785,-0.189089 -2.63772,-0.250119 -3.90313,-0.180975"
         style="fill:#172645;fill-opacity:1;fill-rule:nonzero;stroke:none;stroke-width:0.352778"
         id="path426" />
      <path
         d="m 87.092584,65.353134 c -0.103364,-0.111478 -0.203553,-0.185561 -0.300567,-0.222956 -0.09666,-0.03704 -0.194027,-0.05574 -0.292452,-0.05574 -0.14605,0 -0.277989,0.02575 -0.39617,0.07761 -0.117828,0.05186 -0.219428,0.123472 -0.304447,0.215194 -0.08467,0.09137 -0.150636,0.198261 -0.19685,0.320322 -0.04621,0.122061 -0.06985,0.252942 -0.06985,0.394053 0,0.150989 0.02364,0.290336 0.06985,0.417689 0.04621,0.127353 0.112183,0.237419 0.19685,0.330553 0.08502,0.09278 0.186619,0.165805 0.304447,0.218722 0.118181,0.05292 0.25012,0.07973 0.39617,0.07973 0.113947,0 0.224719,-0.02716 0.332316,-0.08149 0.107245,-0.05468 0.207434,-0.141464 0.300567,-0.260703 l 0.413808,0.294217 c -0.127353,0.17533 -0.282575,0.30233 -0.465666,0.382058 -0.183092,0.07973 -0.378178,0.119592 -0.585259,0.119592 -0.217311,0 -0.416983,-0.03528 -0.599016,-0.105481 -0.181328,-0.0702 -0.337961,-0.169686 -0.469548,-0.29845 -0.13088,-0.128764 -0.234244,-0.28328 -0.308327,-0.463902 -0.07444,-0.18027 -0.111125,-0.380648 -0.111125,-0.600781 0,-0.225778 0.03669,-0.430389 0.111125,-0.614892 0.07408,-0.184502 0.177447,-0.341841 0.308327,-0.471663 0.131587,-0.129823 0.28822,-0.230364 0.469548,-0.300567 0.182033,-0.0702 0.381705,-0.105481 0.599016,-0.105481 0.191206,0 0.368653,0.03387 0.531636,0.1016 0.162984,0.06773 0.315031,0.182386 0.455789,0.344311 z"
         style="fill:#dc0021;fill-opacity:1;fill-rule:nonzero;stroke:none;stroke-width:0.352778"
         id="path430" />
      <path
         d="m 90.141254,66.475426 c 0,0.170039 -0.02928,0.323144 -0.08784,0.459669 -0.05821,0.136878 -0.137936,0.252942 -0.23883,0.348192 -0.100542,0.0956 -0.220134,0.169333 -0.35807,0.221192 -0.137936,0.0515 -0.287866,0.07726 -0.449438,0.07726 -0.161925,0 -0.312209,-0.02575 -0.449792,-0.07726 -0.138289,-0.05186 -0.258233,-0.125589 -0.360186,-0.221192 -0.101953,-0.09525 -0.181681,-0.211314 -0.238831,-0.348192 -0.05715,-0.136525 -0.08572,-0.28963 -0.08572,-0.459669 v -1.782939 h 0.50165 v 1.767064 c 0,0.06914 0.01058,0.141464 0.03175,0.216958 0.02117,0.0755 0.05609,0.145345 0.105481,0.208845 0.04904,0.06385 0.113947,0.116416 0.195086,0.157339 0.08079,0.04127 0.180975,0.06138 0.300567,0.06138 0.119238,0 0.219427,-0.02011 0.300213,-0.06138 0.08114,-0.04092 0.14605,-0.09349 0.195086,-0.157339 0.04904,-0.0635 0.08431,-0.13335 0.105481,-0.208845 0.02117,-0.07549 0.03175,-0.147814 0.03175,-0.216958 v -1.767064 h 0.50165 z"
         style="fill:#dc0021;fill-opacity:1;fill-rule:nonzero;stroke:none;stroke-width:0.352778"
         id="path434-0" />
      <path
         d="m 92.139176,65.297466 c -0.05327,-0.07691 -0.124178,-0.13335 -0.213078,-0.168981 -0.0889,-0.03598 -0.182386,-0.05397 -0.280811,-0.05397 -0.05821,0 -0.114653,0.0071 -0.16898,0.02011 -0.05433,0.01341 -0.103364,0.03422 -0.147109,0.0635 -0.04374,0.02928 -0.07902,0.06703 -0.10548,0.113241 -0.02646,0.04657 -0.03986,0.101953 -0.03986,0.165453 0,0.0956 0.03316,0.168628 0.09948,0.218722 0.06632,0.05045 0.14852,0.09454 0.246945,0.131587 0.09807,0.03704 0.205316,0.07267 0.322086,0.107244 0.116769,0.03457 0.224366,0.08255 0.322439,0.143228 0.09807,0.06103 0.180269,0.142169 0.246944,0.243064 0.06632,0.100894 0.09913,0.234597 0.09913,0.401813 0,0.150989 -0.02752,0.283281 -0.08326,0.39617 -0.05574,0.112536 -0.130528,0.206022 -0.224719,0.280105 -0.09454,0.07444 -0.203906,0.130528 -0.328437,0.16757 -0.124883,0.03669 -0.256116,0.05574 -0.394052,0.05574 -0.175331,0 -0.343959,-0.02928 -0.505531,-0.08784 -0.161925,-0.05821 -0.301272,-0.15628 -0.418041,-0.294569 l 0.37853,-0.366184 c 0.06068,0.09313 0.141111,0.165453 0.240594,0.217311 0.09948,0.05151 0.204964,0.07761 0.316442,0.07761 0.05821,0 0.116417,-0.0081 0.174978,-0.02399 0.05821,-0.01587 0.111478,-0.03986 0.159455,-0.07197 0.04762,-0.03175 0.08608,-0.07232 0.115006,-0.121003 0.02928,-0.04939 0.0441,-0.10548 0.0441,-0.169333 0,-0.103364 -0.03316,-0.183092 -0.09948,-0.238831 -0.06632,-0.05574 -0.148872,-0.102658 -0.246945,-0.141111 -0.09807,-0.03845 -0.205669,-0.07479 -0.322438,-0.109361 -0.11677,-0.03457 -0.224014,-0.08184 -0.322086,-0.141464 -0.09807,-0.05997 -0.180623,-0.139347 -0.246945,-0.23883 -0.06632,-0.09948 -0.09948,-0.232834 -0.09948,-0.40005 0,-0.145697 0.02999,-0.271639 0.08925,-0.377825 0.05997,-0.106186 0.138288,-0.194381 0.23495,-0.264936 0.09701,-0.0702 0.207786,-0.122767 0.332316,-0.156986 0.124531,-0.03457 0.252236,-0.05186 0.382411,-0.05186 0.148167,0 0.292453,0.02258 0.4318,0.06773 0.139347,0.0448 0.264584,0.119591 0.376061,0.222602 z"
         style="fill:#dc0021;fill-opacity:1;fill-rule:nonzero;stroke:none;stroke-width:0.352778"
         id="path438-1" />
      <path
         d="m 93.619502,65.146195 h -0.8636 V 64.69217 h 2.22885 v 0.454025 h -0.8636 v 2.363964 h -0.50165 z"
         style="fill:#dc0021;fill-opacity:1;fill-rule:nonzero;stroke:none;stroke-width:0.352778"
         id="path442-2" />
      <path
         d="m 95.175781,66.113405 c 0,-0.225425 0.03704,-0.430742 0.111125,-0.615244 0.07444,-0.18415 0.177447,-0.341489 0.308681,-0.471312 0.131233,-0.129822 0.287866,-0.230363 0.469547,-0.300566 0.18168,-0.0702 0.381352,-0.105481 0.599016,-0.105481 0.220134,-0.0025 0.421923,0.02999 0.605014,0.09737 0.183092,0.06773 0.340784,0.166864 0.473428,0.296686 0.132997,0.129822 0.236008,0.286456 0.310444,0.469547 0.07444,0.183092 0.111831,0.387703 0.111831,0.612775 0,0.220134 -0.03739,0.420864 -0.111831,0.601134 -0.07444,0.180622 -0.177447,0.335491 -0.310444,0.465666 -0.132644,0.129822 -0.290336,0.231422 -0.473428,0.304447 -0.183091,0.07303 -0.38488,0.110773 -0.605014,0.113242 -0.217664,0 -0.417336,-0.03493 -0.599016,-0.105128 -0.181681,-0.07055 -0.338314,-0.170039 -0.469547,-0.29845 -0.131234,-0.128764 -0.234245,-0.283633 -0.308681,-0.463902 -0.07408,-0.18027 -0.111125,-0.380648 -0.111125,-0.600781 m 0.525286,-0.0321 c 0,0.151342 0.02328,0.290689 0.0695,0.418042 0.04657,0.127353 0.112536,0.237419 0.197203,0.3302 0.08467,0.09278 0.186267,0.165805 0.304447,0.219075 0.118181,0.05292 0.249767,0.07937 0.395817,0.07937 0.14605,0 0.278694,-0.02646 0.398286,-0.07937 0.119239,-0.05327 0.221544,-0.126295 0.306211,-0.219075 0.08502,-0.09278 0.150636,-0.202847 0.19685,-0.3302 0.04657,-0.127353 0.06985,-0.2667 0.06985,-0.418042 0,-0.140405 -0.02328,-0.271639 -0.06985,-0.394053 -0.04621,-0.121708 -0.11183,-0.2286 -0.19685,-0.320322 -0.08467,-0.09137 -0.186972,-0.162983 -0.306211,-0.214841 -0.119592,-0.05186 -0.252236,-0.07761 -0.398286,-0.07761 -0.14605,0 -0.277636,0.02575 -0.395817,0.07761 -0.11818,0.05186 -0.21978,0.123472 -0.304447,0.214841 -0.08467,0.09172 -0.150636,0.198614 -0.197203,0.320322 -0.04621,0.122414 -0.0695,0.253648 -0.0695,0.394053"
         style="fill:#dc0021;fill-opacity:1;fill-rule:nonzero;stroke:none;stroke-width:0.352778"
         id="path454" />
      <path
         d="m 98.65417,64.692381 h 0.764117 l 0.752473,1.973792 0.75988,-1.973792 h 0.75601 v 2.817636 h -0.47731 v -2.339975 h -0.008 l -0.85549,2.339975 h -0.350309 l -0.855486,-2.339975 h -0.0081 v 2.339975 H 98.65417 Z"
         style="fill:#dc0021;fill-opacity:1;fill-rule:nonzero;stroke:none;stroke-width:0.352778"
         id="path458" />
      <path
         d="m 85.188537,68.377357 h 1.818922 v 0.454025 h -1.317272 v 0.739775 h 1.241425 v 0.454025 h -1.241425 v 1.169811 h -0.50165 z"
         style="fill:#dc0021;fill-opacity:1;fill-rule:nonzero;stroke:none;stroke-width:0.352778"
         id="path462" />
      <path
         d="m 87.461202,68.377498 h 0.501297 v 2.817989 h -0.501297 z"
         style="fill:#dc0021;fill-opacity:1;fill-rule:nonzero;stroke:none;stroke-width:0.352778"
         id="path464" />
      <path
         d="m 89.15651,68.831135 h -0.8636 V 68.37711 h 2.22885 v 0.454025 h -0.863953 v 2.363964 H 89.15651 Z"
         style="fill:#dc0021;fill-opacity:1;fill-rule:nonzero;stroke:none;stroke-width:0.352778"
         id="path468" />
      <path
         d="m 96.90224,71.172556 h 0.502708 V 68.348217 H 96.90224 Z"
         style="fill:#172645;fill-opacity:1;fill-rule:nonzero;stroke:none;stroke-width:0.352778"
         id="path470" />
      <path
         d="m 99.888398,69.672298 c 0.112892,-0.138289 0.169332,-0.309739 0.169332,-0.51435 0,-0.159808 -0.0293,-0.291394 -0.08749,-0.395111 -0.05891,-0.103717 -0.13723,-0.186267 -0.235302,-0.247297 -0.09878,-0.06103 -0.210961,-0.104422 -0.337256,-0.12947 -0.126294,-0.0254 -0.257528,-0.0381 -0.392994,-0.0381 H 98.02326 v 2.824339 h 0.502708 v -1.196622 h 0.366889 l 0.654403,1.196622 h 0.60643 l -0.750011,-1.24848 c 0.209903,-0.02928 0.371828,-0.113242 0.484717,-0.251531 m -0.756003,-0.137583 c -0.07197,0.0071 -0.14358,0.01023 -0.215547,0.01023 H 98.52597 v -0.766233 h 0.434975 c 0.0635,0 0.12947,0.0042 0.197556,0.01199 0.06773,0.0081 0.129469,0.02469 0.185208,0.05009 0.05609,0.02505 0.101247,0.06315 0.13582,0.113594 0.03457,0.0508 0.05151,0.117122 0.05151,0.19932 0,0.09313 -0.01834,0.165452 -0.05539,0.217664 -0.03739,0.05186 -0.08608,0.09031 -0.145697,0.115358 -0.05997,0.0254 -0.125942,0.04163 -0.197556,0.04798"
         style="fill:#172645;fill-opacity:1;fill-rule:nonzero;stroke:none;stroke-width:0.352778"
         id="path482" />
      <path
         d="m 100.5367,71.172485 h 0.50271 v -1.172986 h 1.2446 v -0.454731 h -1.2446 v -0.742244 h 1.32045 v -0.454378 h -1.82316 z"
         style="fill:#172645;fill-opacity:1;fill-rule:nonzero;stroke:none;stroke-width:0.352778"
         id="path486" />
      <path
         d="m 103.32918,68.347935 h -0.50271 v 2.824339 h 1.70357 v -0.454731 h -1.20086 z"
         style="fill:#172645;fill-opacity:1;fill-rule:nonzero;stroke:none;stroke-width:0.352778"
         id="path490" />
      <path
         d="m 105.39967,70.717578 v -0.765881 h 1.29681 v -0.45473 h -1.29681 V 68.8027 h 1.36842 v -0.45473 h -1.87113 v 2.824339 h 1.94275 v -0.454731 z"
         style="fill:#172645;fill-opacity:1;fill-rule:nonzero;stroke:none;stroke-width:0.352778"
         id="path494" />
      <path
         d="m 109.82579,71.172485 -0.94368,-1.156053 c 0.19332,-0.361597 0.3302,-0.744714 0.40111,-1.148291 l 0.22966,0.04057 -0.16969,-0.466372 -0.16969,-0.465667 -0.31891,0.379942 -0.31891,0.379589 0.19509,0.03457 c -0.0466,0.263878 -0.12806,0.519289 -0.23919,0.766939 l -0.97155,-1.189567 h -0.57467 l 1.32115,1.609725 c -0.19649,0.315736 -0.44697,0.617008 -0.75494,0.899583 -0.28681,0.263173 -0.6156,0.506589 -0.98425,0.728839 -2.08139,1.354314 -5.37422,2.008011 -9.041696,1.674989 1.327855,0.189442 2.638076,0.250472 3.903136,0.181328 1.43051,-0.07867 2.74214,-0.319264 3.89819,-0.714728 0.65335,-0.223661 1.23578,-0.489655 1.74308,-0.795161 0.67274,-0.436739 1.21814,-0.946503 1.61043,-1.519414 l 0.623,0.759178 z"
         style="fill:#172645;fill-opacity:1;fill-rule:nonzero;stroke:none;stroke-width:0.352778"
         id="path506" />
      <path
         d="M 92.362555,70.652773 H 91.917349 V 69.912292 H 91.272824 V 69.50942 h 0.644525 v -0.709789 h 0.445206 v 0.709789 h 0.644525 v 0.402872 h -0.644525 z"
         style="fill:#172645;fill-opacity:1;fill-rule:nonzero;stroke:none;stroke-width:0.352778"
         id="path510" />
      <path
         d="m 96.770689,67.913136 c 0.911225,-0.592667 2.05493,-1.051278 3.359851,-1.351844 l -0.11147,-0.292453 c -0.710498,0.122061 -1.382539,0.288925 -2.008014,0.503061 -0.652992,0.223308 -1.235428,0.489303 -1.743075,0.794808 -1.228725,0.797631 -2.036939,1.838678 -2.252839,3.064581 l -0.256822,-0.04516 0.169686,0.46602 0.169686,0.466019 0.318911,-0.379942 0.318558,-0.379941 -0.167569,-0.02963 c 0.01235,-0.06809 0.02893,-0.135466 0.04551,-0.202494 h 1.148292 l 0.263525,0.646289 h 0.574322 l -1.007886,-2.338917 c 0.0635,-0.06456 0.127,-0.128764 0.195792,-0.191558 0.286455,-0.26282 0.615244,-0.506589 0.983544,-0.728839 m -2.020005,2.182283 c 0.12065,-0.304094 0.28963,-0.595841 0.504119,-0.874183 l 0.330906,0.874183 z"
         style="fill:#172645;fill-opacity:1;fill-rule:nonzero;stroke:none;stroke-width:0.352778"
         id="path522" />
    </g>
  </g>
</svg>
