<?xml version="1.0" encoding="UTF-8" standalone="no"?>
<!-- Created with Inkscape (http://www.inkscape.org/) -->

<svg
   width="30.189316"
   height="43.823994"
   viewBox="0 0 7.9875896 11.595099"
   version="1.1"
   id="svg5"
   xmlns="http://www.w3.org/2000/svg"
   xmlns:svg="http://www.w3.org/2000/svg"
   xmlns:rdf="http://www.w3.org/1999/02/22-rdf-syntax-ns#"
   xmlns:cc="http://creativecommons.org/ns#"
   xmlns:dc="http://purl.org/dc/elements/1.1/">
  <title
     id="title1658">Icon Ultimate Range</title>
  <defs
     id="defs2">
    <clipPath
       clipPathUnits="userSpaceOnUse"
       id="clipPath178">
      <path
         d="M 0,0 H 595.276 V 841.89 H 0 Z"
         id="path176" />
    </clipPath>
  </defs>
  <g
     id="layer1"
     transform="translate(-107.94586,-57.998671)">
    <path
       d="m 111.93965,58.180704 c -2.10149,0 -3.81176,1.709914 -3.81176,3.811411 0,0.84455 0.49777,2.129014 1.56492,4.042127 0.72884,1.305631 1.45415,2.408061 1.48484,2.454628 l 0.52388,0.794456 c 0.0529,0.08043 0.14252,0.128411 0.23812,0.128411 0.0963,0 0.18592,-0.04798 0.23883,-0.128411 l 0.52388,-0.794456 c 0.0303,-0.04586 0.75,-1.139119 1.48414,-2.454628 1.06785,-1.912761 1.56492,-3.197577 1.56492,-4.042127 0,-2.101497 -1.70956,-3.811411 -3.81177,-3.811411"
       style="fill:#ffffff;fill-opacity:1;fill-rule:nonzero;stroke:none;stroke-width:0.352778"
       id="path472" />
    <path
       d="m 111.93965,58.180704 v -0.182033 c -2.20239,3.52e-4 -3.99344,1.791052 -3.99379,3.993444 0.005,0.914047 0.51787,2.206272 1.5882,4.130675 0.73237,1.312333 1.45909,2.417233 1.4919,2.466622 l 0.52352,0.794103 c 0.0868,0.131586 0.23319,0.210255 0.39017,0.210255 0.15734,0 0.3041,-0.07867 0.39088,-0.210255 l 0.52388,-0.794456 c 0.031,-0.04763 0.75318,-1.144411 1.49084,-2.465917 1.07138,-1.924755 1.58361,-3.21698 1.5882,-4.131027 -3.5e-4,-2.202392 -1.7907,-3.993092 -3.9938,-3.993444 v 0.182033 0.182033 c 1.00119,0 1.90783,0.406753 2.56576,1.064331 0.65757,0.65793 1.06397,1.564216 1.06397,2.565047 0.005,0.775405 -0.4773,2.052108 -1.54163,3.95358 -0.73061,1.309159 -1.44816,2.399242 -1.47744,2.443339 l -0.52352,0.794103 -0.0871,0.04692 -0.0861,-0.04657 -0.52423,-0.794809 c -0.0289,-0.04374 -0.75283,-1.144411 -1.47743,-2.442986 -1.06398,-1.901825 -1.54658,-3.178175 -1.54199,-3.95358 0,-1.000831 0.40675,-1.907117 1.06433,-2.565047 0.65793,-0.657578 1.56457,-1.064331 2.5654,-1.064331 z"
       style="fill:#ed1738;fill-opacity:1;fill-rule:nonzero;stroke:none;stroke-width:0.352778"
       id="path476" />
    <path
       d="m 113.68798,65.756042 c -0.7239,1.297164 -1.43263,2.373136 -1.46261,2.418292 l -0.28575,0.433211 -0.28575,-0.433211 c -0.0293,-0.04551 -0.74401,-1.131006 -1.46191,-2.418292 -0.99025,-1.774825 -1.4926,-3.040944 -1.4926,-3.763786 0,-1.786819 1.45379,-3.240616 3.24026,-3.240616 1.78717,0 3.24026,1.453797 3.24026,3.240616 0,0.722842 -0.50165,1.988961 -1.49189,3.763786"
       style="fill:#050606;fill-opacity:1;fill-rule:nonzero;stroke:none;stroke-width:0.352778"
       id="path480" />
    <path
       d="m 111.50676,61.57559 h 0.26564 c 0.0762,0 0.14993,-0.0053 0.22225,-0.01588 0.072,-0.01094 0.13829,-0.03175 0.19791,-0.06279 l 0.14393,-0.129822 c 0.036,-0.05574 0.054,-0.129117 0.054,-0.219428 0,-0.115711 -0.0459,-0.211314 -0.13829,-0.287161 -0.0917,-0.0762 -0.20531,-0.113947 -0.33866,-0.113947 -0.1263,0 -0.23142,0.03457 -0.31433,0.102658 -0.0829,0.06914 -0.13723,0.154164 -0.16263,0.255411 l -0.89464,-0.184856 c 0.0434,-0.165805 0.10831,-0.307622 0.19544,-0.425097 0.0868,-0.117475 0.19015,-0.212372 0.30904,-0.284692 0.11923,-0.07232 0.25153,-0.125589 0.39828,-0.159808 0.1464,-0.03422 0.30092,-0.05151 0.46355,-0.05151 0.16933,0 0.33338,0.02046 0.49036,0.06244 0.15734,0.04163 0.29528,0.106539 0.41487,0.195086 0.11924,0.08819 0.21343,0.199672 0.28434,0.333022 0.0702,0.134056 0.10583,0.292806 0.10583,0.477309 0,0.213077 -0.0564,0.395816 -0.16792,0.547158 -0.11254,0.151694 -0.27517,0.249414 -0.4886,0.292806 v 0.01623 c 0.11571,0.01446 0.21837,0.04904 0.30657,0.103011 0.0882,0.05433 0.16333,0.121356 0.22472,0.200378 0.0617,0.07973 0.10865,0.170039 0.14111,0.271286 0.0328,0.101248 0.049,0.207786 0.049,0.319617 0,0.191911 -0.0374,0.359833 -0.11113,0.503767 -0.0744,0.144991 -0.17321,0.264936 -0.29845,0.360891 -0.12453,0.09596 -0.27093,0.167217 -0.43885,0.214136 -0.16793,0.04657 -0.34608,0.07056 -0.53411,0.07056 -0.34325,0 -0.63817,-0.07973 -0.88582,-0.238831 -0.24765,-0.15875 -0.41134,-0.409927 -0.49037,-0.75318 l 0.85655,-0.200731 c 0.0286,0.137584 0.0868,0.245886 0.17604,0.325261 0.0882,0.07938 0.21942,0.118886 0.39264,0.118886 0.17639,0 0.30832,-0.04586 0.39264,-0.137583 0.085,-0.09243 0.1277,-0.210961 0.1277,-0.3556 0,-0.10795 -0.0226,-0.191911 -0.0681,-0.251883 -0.0448,-0.05927 -0.10371,-0.10407 -0.17603,-0.132645 -0.0723,-0.02893 -0.15311,-0.04586 -0.24342,-0.05115 -0.0903,-0.006 -0.18062,-0.0085 -0.27093,-0.0085 h -0.19015 z"
       style="fill:#ffffff;fill-opacity:1;fill-rule:nonzero;stroke:none;stroke-width:0.352778"
       id="path484" />
  </g>
  <metadata
     id="metadata1656">
    <rdf:RDF>
      <cc:Work
         rdf:about="">
        <dc:title>Icon Ultimate Range</dc:title>
      </cc:Work>
    </rdf:RDF>
  </metadata>
</svg>
