<?xml version="1.0" encoding="UTF-8" standalone="no"?>
<!-- Created with Inkscape (http://www.inkscape.org/) -->

<svg
   width="30.190866"
   height="43.823994"
   viewBox="0 0 7.9879999 11.595099"
   version="1.1"
   id="svg5"
   xmlns="http://www.w3.org/2000/svg"
   xmlns:svg="http://www.w3.org/2000/svg"
   xmlns:rdf="http://www.w3.org/1999/02/22-rdf-syntax-ns#"
   xmlns:cc="http://creativecommons.org/ns#"
   xmlns:dc="http://purl.org/dc/elements/1.1/">
  <title
     id="title1658">Icon Advanced Range</title>
  <defs
     id="defs2">
    <clipPath
       clipPathUnits="userSpaceOnUse"
       id="clipPath178">
      <path
         d="M 0,0 H 595.276 V 841.89 H 0 Z"
         id="path176" />
    </clipPath>
  </defs>
  <g
     id="layer1"
     transform="translate(-112.99377,-65.179749)">
    <path
       d="m 116.98792,65.361676 c -2.1015,0 -3.81212,1.709914 -3.81212,3.811411 0,0.84455 0.49777,2.129366 1.56457,4.042127 0.72919,1.305631 1.4545,2.408414 1.4852,2.454628 l 0.52387,0.794456 c 0.0529,0.08043 0.14217,0.128411 0.23848,0.128411 0.0956,0 0.18521,-0.04798 0.23777,-0.128411 l 0.52423,-0.794456 c 0.0307,-0.04586 0.75036,-1.139119 1.48484,-2.454628 1.06715,-1.912761 1.56492,-3.197577 1.56492,-4.042127 0,-2.101497 -1.70991,-3.811411 -3.81176,-3.811411"
       style="fill:#ffffff;fill-opacity:1;fill-rule:nonzero;stroke:none;stroke-width:0.352778"
       id="path116" />
    <path
       d="m 116.98792,65.179749 c -2.20239,3.52e-4 -3.9938,1.791052 -3.99415,3.993444 0.005,0.913694 0.51752,2.206272 1.58785,4.130675 0.73307,1.312686 1.45909,2.41688 1.49261,2.466974 l 0.52316,0.79375 c 0.0864,0.131234 0.23319,0.210256 0.39053,0.210256 0.15699,0 0.30374,-0.07902 0.39017,-0.210961 l 0.52388,-0.79375 -0.001,0.0011 c 0.0342,-0.0508 0.75423,-1.144411 1.4926,-2.467327 1.07068,-1.924403 1.58362,-3.216981 1.5882,-4.130675 -3.5e-4,-2.202392 -1.79105,-3.993092 -3.99379,-3.993445 v 0.363714 c 1.00118,3.53e-4 1.90747,0.406753 2.5654,1.064331 0.65758,0.65793 1.06433,1.564216 1.06433,2.5654 0.005,0.7747 -0.47802,2.052108 -1.54199,3.95358 -0.7299,1.3081 -1.44921,2.400653 -1.47673,2.441575 l -0.52494,0.795867 -0.0861,0.04657 -0.0864,-0.04657 -0.52422,-0.794456 c -0.0286,-0.04304 -0.75283,-1.144764 -1.47779,-2.442986 -1.06362,-1.901472 -1.54622,-3.17888 -1.54164,-3.95358 0,-1.001183 0.40676,-1.90747 1.06469,-2.5654 0.65793,-0.657578 1.56456,-1.063978 2.5654,-1.064331 z"
       style="fill:#192948;fill-opacity:1;fill-rule:nonzero;stroke:none;stroke-width:0.352778"
       id="path120" />
    <path
       d="m 118.7359,72.937014 c -0.7239,1.296811 -1.43299,2.372783 -1.46227,2.417939 l -0.28575,0.433564 -0.2861,-0.433564 c -0.03,-0.04516 -0.74401,-1.130653 -1.46226,-2.417939 -0.9906,-1.774825 -1.4919,-3.041297 -1.4919,-3.763786 0,-1.786819 1.4538,-3.240969 3.24026,-3.240969 1.78682,0 3.23991,1.45415 3.23991,3.240969 0,0.722489 -0.50129,1.988961 -1.49189,3.763786"
       style="fill:#33b1e9;fill-opacity:1;fill-rule:nonzero;stroke:none;stroke-width:0.352778"
       id="path124" />
    <path
       d="m 115.52431,70.219884 1.49049,-1.338439 c 0.0759,-0.06879 0.15169,-0.146403 0.22754,-0.233186 0.0759,-0.08643 0.1136,-0.187678 0.1136,-0.303389 0,-0.129822 -0.0469,-0.232128 -0.14076,-0.306211 -0.0942,-0.07408 -0.20426,-0.111125 -0.3302,-0.111125 -0.1524,0 -0.27023,0.04657 -0.35525,0.140758 -0.085,0.09419 -0.133,0.20955 -0.14358,0.346781 l -0.81315,-0.05927 c 0.0109,-0.198614 0.0519,-0.371828 0.12453,-0.517878 0.0723,-0.14605 0.16827,-0.268111 0.28751,-0.365477 0.11924,-0.09772 0.25894,-0.171098 0.41981,-0.219781 0.16086,-0.04904 0.33514,-0.07303 0.52317,-0.07303 0.17321,0 0.33619,0.02399 0.48789,0.07303 0.15169,0.04868 0.28328,0.121003 0.39581,0.216958 0.11148,0.0956 0.19932,0.2159 0.26247,0.360186 0.0631,0.144287 0.0949,0.312561 0.0949,0.50412 0,0.122766 -0.0127,0.233891 -0.0381,0.333375 -0.0254,0.09948 -0.06,0.189794 -0.10513,0.270933 -0.0459,0.08149 -0.0988,0.156281 -0.16051,0.22472 -0.0614,0.06879 -0.1277,0.135466 -0.20003,0.20073 l -1.16557,1.002595 h 1.7018 v 0.715786 h -2.67723 z"
       style="fill:#ffffff;fill-opacity:1;fill-rule:nonzero;stroke:none;stroke-width:0.352778"
       id="path128" />
  </g>
  <metadata
     id="metadata1656">
    <rdf:RDF>
      <cc:Work
         rdf:about="">
        <dc:title>Icon Advanced Range</dc:title>
      </cc:Work>
    </rdf:RDF>
  </metadata>
</svg>
