<?xml version="1.0" encoding="UTF-8" standalone="no"?>
<!-- Created with Inkscape (http://www.inkscape.org/) -->

<svg
   width="100"
   height="62.851608"
   viewBox="0 0 26.458333 16.629488"
   version="1.1"
   id="svg5"
   xmlns="http://www.w3.org/2000/svg"
   xmlns:svg="http://www.w3.org/2000/svg">
  <defs
     id="defs2" />
  <g
     id="layer1"
     transform="translate(-174.51402,-133.25289)">
    <path
       d="m 180.79171,140.3546 h 0.69397 v -3.90004 h -0.69397 z"
       style="fill:#231f20;fill-opacity:1;fill-rule:nonzero;stroke:none;stroke-width:0.454762"
       id="path524" />
    <path
       d="m 183.87109,138.09321 c -0.0992,0.009 -0.19828,0.0136 -0.29742,0.0136 h -0.5398 v -1.05777 h 0.60029 c 0.0882,0 0.17917,0.005 0.27285,0.0164 0.0937,0.0113 0.17918,0.0341 0.25649,0.0691 0.0769,0.035 0.13915,0.0873 0.18691,0.15735 0.0473,0.0696 0.0714,0.16144 0.0714,0.27513 0,0.12824 -0.0255,0.22874 -0.0769,0.30014 -0.0514,0.0714 -0.11823,0.12461 -0.201,0.15962 -0.0828,0.0355 -0.17372,0.0568 -0.27286,0.0664 m 1.04413,0.19009 c 0.15599,-0.191 0.23421,-0.42793 0.23421,-0.71079 0,-0.22056 -0.0409,-0.40201 -0.12142,-0.54526 -0.081,-0.14325 -0.18918,-0.25694 -0.32516,-0.34152 -0.13597,-0.0846 -0.29105,-0.14416 -0.46567,-0.17918 -0.17418,-0.0346 -0.35517,-0.0523 -0.54254,-0.0523 h -1.35518 v 3.90004 h 0.69442 v -1.65215 h 0.5066 l 0.90361,1.65215 h 0.83722 l -1.03595,-1.72446 c 0.29059,-0.04 0.51343,-0.15553 0.66987,-0.34653"
       style="fill:#231f20;fill-opacity:1;fill-rule:nonzero;stroke:none;stroke-width:0.454762"
       id="path536" />
    <path
       d="m 185.81014,140.35437 h 0.69397 v -1.6194 h 1.71855 v -0.62803 h -1.71855 v -1.02458 h 1.8236 v -0.62802 h -2.51757 z"
       style="fill:#231f20;fill-opacity:1;fill-rule:nonzero;stroke:none;stroke-width:0.454762"
       id="path540" />
    <path
       d="m 189.66607,136.45429 h -0.69397 v 3.90004 h 2.35203 v -0.62803 h -1.65806 z"
       style="fill:#231f20;fill-opacity:1;fill-rule:nonzero;stroke:none;stroke-width:0.454762"
       id="path544" />
    <path
       d="m 192.52502,139.72635 v -1.05778 h 1.7904 v -0.62803 h -1.7904 v -0.95818 h 1.88954 v -0.62802 h -2.58396 v 3.90003 h 2.68309 v -0.62802 z"
       style="fill:#231f20;fill-opacity:1;fill-rule:nonzero;stroke:none;stroke-width:0.454762"
       id="path548" />
    <path
       d="m 177.82075,138.86712 c 0.1669,-0.41975 0.40019,-0.82266 0.6967,-1.20694 l 0.45658,1.20694 z m 2.78951,-3.01325 c 2.87455,-1.86998 7.4208,-2.77268 12.48503,-2.31292 -1.8336,-0.26149 -3.64219,-0.34562 -5.38938,-0.24966 -1.97549,0.10823 -3.7868,0.44021 -5.38256,0.98637 -0.90225,0.30879 -1.70672,0.67623 -2.4066,1.09825 -1.69672,1.10098 -2.81316,2.53848 -3.11148,4.23111 l -0.35426,-0.0623 0.2342,0.64348 0.23375,0.64349 0.44021,-0.52479 0.44066,-0.52434 -0.23147,-0.0409 c 0.0168,-0.0941 0.04,-0.18691 0.0623,-0.27968 h 1.58576 l 0.36335,0.89224 h 0.79356 l -1.39112,-3.22972 c 0.0869,-0.0887 0.17509,-0.17735 0.26922,-0.26421 0.39655,-0.36336 0.85041,-0.69897 1.35883,-1.00639"
       style="fill:#231f20;fill-opacity:1;fill-rule:nonzero;stroke:none;stroke-width:0.454762"
       id="path560" />
    <path
       d="m 198.63665,140.35437 -1.30289,-1.59621 c 0.26695,-0.49933 0.45567,-1.02822 0.55345,-1.5853 l 0.31697,0.0555 -0.23375,-0.64303 -0.2342,-0.64394 -0.44021,0.52479 -0.44067,0.5248 0.26922,0.0468 c -0.0646,0.36472 -0.1769,0.71762 -0.33061,1.0596 l -1.34109,-1.64306 h -0.79311 l 1.82405,2.22288 c -0.27195,0.43611 -0.61711,0.85177 -1.04277,1.24241 -0.39609,0.36335 -0.84995,0.69897 -1.35882,1.00638 -2.8741,1.86953 -7.42081,2.77269 -12.48458,2.31292 1.83314,0.26104 3.64173,0.34562 5.38893,0.24967 1.97594,-0.10824 3.7868,-0.44021 5.38301,-0.98638 0.9018,-0.30924 1.70627,-0.67623 2.40706,-1.09825 0.92817,-0.60256 1.68171,-1.30653 2.22333,-2.09736 l 0.85995,1.04777 z"
       style="fill:#231f20;fill-opacity:1;fill-rule:nonzero;stroke:none;stroke-width:0.454762"
       id="path564" />
    <path
       d="m 176.59335,144.80299 h 0.33425 l 0.32925,0.86359 0.33243,-0.86359 h 0.33107 v 1.23286 h -0.20919 v -1.02413 h -0.003 l -0.37472,1.02413 h -0.1528 l -0.37472,-1.02413 h -0.004 v 1.02413 h -0.20874 z"
       style="fill:#231f20;fill-opacity:1;fill-rule:nonzero;stroke:none;stroke-width:0.454762"
       id="path568" />
    <path
       d="m 178.87794,145.56585 -0.19009,-0.5016 -0.19282,0.5016 z m -0.27877,-0.76263 h 0.19009 l 0.53116,1.2324 h -0.25057 l -0.11551,-0.28195 h -0.53435 l -0.11141,0.28195 h -0.24557 z"
       style="fill:#231f20;fill-opacity:1;fill-rule:nonzero;stroke:none;stroke-width:0.454762"
       id="path572" />
    <path
       d="m 179.75904,145.39154 -0.41111,-0.58846 h 0.27695 l 0.2906,0.45613 0.28786,-0.45613 h 0.26604 l -0.40383,0.58846 0.44748,0.6444 h -0.27876 l -0.32516,-0.5207 -0.32425,0.5207 h -0.26467 z"
       style="fill:#231f20;fill-opacity:1;fill-rule:nonzero;stroke:none;stroke-width:0.454762"
       id="path576" />
    <path
       d="m 180.64528,146.03548 h 0.21965 v -1.23285 h -0.21965 z"
       style="fill:#231f20;fill-opacity:1;fill-rule:nonzero;stroke:none;stroke-width:0.454762"
       id="path578" />
    <path
       d="m 181.13992,144.80299 h 0.33425 l 0.32925,0.86359 0.33243,-0.86359 h 0.33107 v 1.23286 h -0.20919 v -1.02413 h -0.003 l -0.37472,1.02413 h -0.15276 l -0.37472,-1.02413 h -0.004 v 1.02413 h -0.20874 z"
       style="fill:#231f20;fill-opacity:1;fill-rule:nonzero;stroke:none;stroke-width:0.454762"
       id="path582" />
    <path
       d="m 183.73452,145.58313 c 0,0.0746 -0.0128,0.14143 -0.0382,0.20101 -0.0255,0.06 -0.0605,0.1105 -0.10459,0.15234 -0.0441,0.0419 -0.0964,0.0741 -0.15644,0.0969 -0.0605,0.0227 -0.12642,0.0341 -0.19737,0.0341 -0.0705,0 -0.13597,-0.0113 -0.19645,-0.0341 -0.0605,-0.0227 -0.11324,-0.055 -0.15735,-0.0969 -0.045,-0.0418 -0.08,-0.0923 -0.10505,-0.15234 -0.0246,-0.0596 -0.0368,-0.12642 -0.0368,-0.20101 v -0.77991 h 0.2192 v 0.77309 c 0,0.03 0.005,0.0614 0.0136,0.0946 0.01,0.0337 0.025,0.0637 0.0464,0.0919 0.0214,0.0273 0.05,0.0509 0.0855,0.0687 0.0355,0.0177 0.0791,0.0268 0.13097,0.0268 0.0523,0 0.0964,-0.009 0.13188,-0.0268 0.0355,-0.0177 0.0637,-0.0414 0.0855,-0.0687 0.0214,-0.0282 0.0369,-0.0582 0.0459,-0.0919 0.01,-0.0332 0.0141,-0.0646 0.0141,-0.0946 v -0.77309 h 0.21919 z"
       style="fill:#231f20;fill-opacity:1;fill-rule:nonzero;stroke:none;stroke-width:0.454762"
       id="path594" />
    <path
       d="m 184.00961,144.80299 h 0.33425 l 0.32924,0.86359 0.33243,-0.86359 h 0.33107 v 1.23286 h -0.20919 v -1.02413 h -0.003 l -0.37473,1.02413 h -0.1528 l -0.37472,-1.02413 h -0.004 v 1.02413 h -0.20873 z"
       style="fill:#231f20;fill-opacity:1;fill-rule:nonzero;stroke:none;stroke-width:0.454762"
       id="path598" />
    <path
       d="m 186.35154,145.84771 h 0.20191 c 0.0282,0 0.0582,-0.002 0.09,-0.005 0.0318,-0.004 0.0609,-0.0119 0.0878,-0.0246 0.0268,-0.0128 0.0487,-0.0309 0.0664,-0.055 0.0173,-0.0236 0.0259,-0.0555 0.0259,-0.0964 0,-0.065 -0.0209,-0.11005 -0.0637,-0.13598 -0.0423,-0.0255 -0.10779,-0.0382 -0.19737,-0.0382 h -0.21101 z m 0,-0.54344 h 0.20009 c 0.0737,0 0.12824,-0.0136 0.16508,-0.0423 0.0364,-0.0287 0.0546,-0.0659 0.0546,-0.11233 0,-0.0532 -0.0186,-0.0932 -0.0564,-0.1196 -0.0377,-0.0259 -0.0982,-0.0391 -0.1819,-0.0391 h -0.18145 z m -0.2192,-0.50115 h 0.48069 c 0.0464,0 0.0923,0.005 0.13779,0.0164 0.045,0.011 0.0855,0.0291 0.12052,0.0541 0.0355,0.025 0.0641,0.0573 0.0864,0.0964 0.0223,0.0396 0.0327,0.0873 0.0327,0.14325 0,0.0691 -0.0196,0.12687 -0.0587,0.17236 -0.04,0.045 -0.0914,0.0773 -0.15507,0.0973 v 0.003 c 0.0382,0.005 0.0737,0.0155 0.10686,0.0323 0.0332,0.0168 0.0614,0.0382 0.0846,0.0646 0.0232,0.0259 0.0414,0.0564 0.0546,0.0905 0.0136,0.0341 0.0205,0.0709 0.0205,0.11096 0,0.0669 -0.0136,0.12324 -0.04,0.16736 -0.0268,0.045 -0.0618,0.0809 -0.10551,0.10823 -0.0437,0.0273 -0.0932,0.0468 -0.15007,0.0582 -0.0559,0.0119 -0.11323,0.0177 -0.17099,0.0177 h -0.4443 z"
       style="fill:#231f20;fill-opacity:1;fill-rule:nonzero;stroke:none;stroke-width:0.454762"
       id="path610" />
    <path
       d="m 187.65084,145.32551 c 0.0309,0 0.0628,-0.001 0.0941,-0.005 0.0309,-0.003 0.06,-0.01 0.0859,-0.0209 0.0264,-0.011 0.0473,-0.0277 0.0637,-0.0505 0.0164,-0.0223 0.0246,-0.0541 0.0246,-0.0946 0,-0.0364 -0.008,-0.065 -0.0232,-0.0873 -0.015,-0.0223 -0.0346,-0.0387 -0.0587,-0.0496 -0.0246,-0.011 -0.0519,-0.0182 -0.0814,-0.0218 -0.0291,-0.003 -0.0582,-0.005 -0.086,-0.005 h -0.19009 v 0.33425 z m -0.39019,-0.52252 h 0.42839 c 0.0591,0 0.11642,0.006 0.17144,0.0164 0.0555,0.0113 0.10415,0.03 0.14735,0.0568 0.0427,0.0264 0.0773,0.0628 0.10278,0.10778 0.025,0.0455 0.0382,0.10278 0.0382,0.17235 0,0.0896 -0.025,0.16463 -0.0741,0.22466 -0.0496,0.0605 -0.1196,0.0969 -0.21147,0.10959 l 0.32743,0.54526 H 187.926 l -0.28604,-0.52206 h -0.16008 v 0.52206 h -0.2192 z"
       style="fill:#231f20;fill-opacity:1;fill-rule:nonzero;stroke:none;stroke-width:0.454762"
       id="path614" />
    <path
       d="m 188.35767,144.80299 h 0.81676 v 0.19827 h -0.59756 v 0.30333 h 0.56618 v 0.19828 h -0.56618 v 0.33425 h 0.62893 v 0.19873 h -0.84813 z"
       style="fill:#231f20;fill-opacity:1;fill-rule:nonzero;stroke:none;stroke-width:0.454762"
       id="path618" />
    <path
       d="m 190.099,145.56585 -0.19009,-0.5016 -0.19282,0.5016 z m -0.27877,-0.76263 h 0.19009 l 0.53117,1.2324 h -0.25058 l -0.1155,-0.28195 h -0.53435 l -0.11142,0.28195 h -0.24557 z"
       style="fill:#231f20;fill-opacity:1;fill-rule:nonzero;stroke:none;stroke-width:0.454762"
       id="path622" />
    <path
       d="m 190.77114,145.00145 h -0.37791 v -0.19828 h 0.97501 v 0.19828 h -0.3779 v 1.03413 h -0.2192 z"
       style="fill:#231f20;fill-opacity:1;fill-rule:nonzero;stroke:none;stroke-width:0.454762"
       id="path626" />
    <path
       d="m 191.51818,144.80299 h 0.21965 v 0.49114 h 0.57618 v -0.49114 h 0.21965 v 1.23286 h -0.21965 v -0.54344 h -0.57618 v 0.54344 h -0.21965 z"
       style="fill:#231f20;fill-opacity:1;fill-rule:nonzero;stroke:none;stroke-width:0.454762"
       id="path630" />
    <path
       d="m 193.48584,145.56585 -0.19009,-0.5016 -0.19282,0.5016 z m -0.27877,-0.76263 h 0.19009 l 0.53116,1.2324 h -0.25057 l -0.1155,-0.28195 h -0.53435 l -0.11141,0.28195 h -0.24557 z"
       style="fill:#231f20;fill-opacity:1;fill-rule:nonzero;stroke:none;stroke-width:0.454762"
       id="path634" />
    <path
       d="m 194.2849,145.84771 h 0.20192 c 0.0282,0 0.0582,-0.002 0.09,-0.005 0.0318,-0.004 0.0609,-0.0119 0.0878,-0.0246 0.0268,-0.0128 0.0487,-0.0309 0.0664,-0.055 0.0173,-0.0236 0.0259,-0.0555 0.0259,-0.0964 0,-0.065 -0.0209,-0.11005 -0.0637,-0.13598 -0.0423,-0.0255 -0.10778,-0.0382 -0.19737,-0.0382 h -0.21101 z m 0,-0.54344 h 0.2001 c 0.0737,0 0.12824,-0.0136 0.16508,-0.0423 0.0364,-0.0287 0.0546,-0.0659 0.0546,-0.11233 0,-0.0532 -0.0186,-0.0932 -0.0564,-0.1196 -0.0377,-0.0259 -0.0982,-0.0391 -0.18191,-0.0391 h -0.18145 z m -0.21919,-0.50115 h 0.48068 c 0.0464,0 0.0923,0.005 0.13734,0.0164 0.0455,0.011 0.0859,0.0291 0.12097,0.0541 0.0355,0.025 0.0641,0.0573 0.0864,0.0964 0.0223,0.0396 0.0327,0.0873 0.0327,0.14325 0,0.0691 -0.0196,0.12687 -0.0587,0.17236 -0.04,0.045 -0.0914,0.0773 -0.15507,0.0973 v 0.003 c 0.0382,0.005 0.0737,0.0155 0.10686,0.0323 0.0332,0.0168 0.0614,0.0382 0.0846,0.0646 0.0232,0.0259 0.0414,0.0564 0.055,0.0905 0.0132,0.0341 0.02,0.0709 0.02,0.11096 0,0.0669 -0.0136,0.12324 -0.0405,0.16736 -0.0264,0.045 -0.0614,0.0809 -0.10504,0.10823 -0.0437,0.0273 -0.0932,0.0468 -0.15008,0.0582 -0.0559,0.0119 -0.11323,0.0177 -0.17099,0.0177 h -0.4443 z"
       style="fill:#231f20;fill-opacity:1;fill-rule:nonzero;stroke:none;stroke-width:0.454762"
       id="path646" />
    <path
       d="m 195.18856,146.03548 h 0.21965 v -1.23285 h -0.21965 z"
       style="fill:#231f20;fill-opacity:1;fill-rule:nonzero;stroke:none;stroke-width:0.454762"
       id="path648" />
    <path
       d="m 195.67816,144.80299 h 0.21919 v 1.03413 h 0.52434 v 0.19873 h -0.74353 z"
       style="fill:#231f20;fill-opacity:1;fill-rule:nonzero;stroke:none;stroke-width:0.454762"
       id="path652" />
    <path
       d="m 196.57695,146.03548 h 0.21919 v -1.23285 h -0.21919 z"
       style="fill:#231f20;fill-opacity:1;fill-rule:nonzero;stroke:none;stroke-width:0.454762"
       id="path654" />
    <path
       d="m 197.31853,145.00145 h -0.37791 v -0.19828 h 0.97501 v 0.19828 h -0.37791 v 1.03413 h -0.21919 z"
       style="fill:#231f20;fill-opacity:1;fill-rule:nonzero;stroke:none;stroke-width:0.454762"
       id="path658" />
    <path
       d="m 198.36675,145.50823 -0.46294,-0.70533 h 0.27467 l 0.30333,0.49114 0.30605,-0.49114 h 0.26149 l -0.4634,0.70533 v 0.52753 h -0.2192 z"
       style="fill:#231f20;fill-opacity:1;fill-rule:nonzero;stroke:none;stroke-width:0.454762"
       id="path662" />
    <path
       d="m 174.81608,149.58339 q -0.30206,-0.30206 -0.30206,-0.76441 0,-0.46234 0.30206,-0.76132 0.30515,-0.30207 0.77057,-0.30207 0.46851,0 0.77058,0.29899 0.30514,0.29898 0.30514,0.7644 0,0.46543 -0.30514,0.76441 -0.30207,0.29898 -0.77058,0.29898 -0.46542,0 -0.77057,-0.29898 z m 1.22367,-0.28049 q 0.17261,-0.1911 0.17261,-0.48392 0,-0.29281 -0.17261,-0.48392 -0.17261,-0.1911 -0.4531,-0.1911 -0.28048,0 -0.45309,0.1911 -0.16953,0.19111 -0.16953,0.48392 0,0.29282 0.16953,0.48392 0.17261,0.19111 0.45309,0.19111 0.28049,0 0.4531,-0.19111 z"
       id="path7497"
       style="font-weight:bold;font-size:2.39106px;font-family:'Proxima Nova';-inkscape-font-specification:ProximaNova-Bold;fill:#231f20;stroke-width:0.454762" />
    <path
       d="m 178.38845,149.84539 -0.98017,-1.38087 v 1.38087 h -0.43768 v -2.05589 h 0.45001 l 0.95243,1.33155 v -1.33155 h 0.43769 v 2.05589 z"
       id="path7499"
       style="font-weight:bold;font-size:2.39106px;font-family:'Proxima Nova';-inkscape-font-specification:ProximaNova-Bold;fill:#231f20;stroke-width:0.454762" />
    <path
       d="m 179.21758,149.84539 v -2.05589 h 1.45484 v 0.37604 h -1.01715 v 0.44693 h 0.99558 v 0.37604 h -0.99558 v 0.47775 h 1.01715 v 0.37913 z"
       id="path7501"
       style="font-weight:bold;font-size:2.39106px;font-family:'Proxima Nova';-inkscape-font-specification:ProximaNova-Bold;fill:#231f20;stroke-width:0.454762" />
    <path
       d="m 181.66183,149.55565 0.24042,-0.33289 q 0.26508,0.27741 0.65345,0.27741 0.16952,0 0.26199,-0.0678 0.0956,-0.0678 0.0956,-0.16336 0,-0.1048 -0.10172,-0.1572 -0.10171,-0.0555 -0.3144,-0.1048 -0.1048,-0.0247 -0.15103,-0.0339 -0.0462,-0.0124 -0.14487,-0.0431 -0.0986,-0.0308 -0.15103,-0.0586 -0.0493,-0.0277 -0.12329,-0.0771 -0.0709,-0.0493 -0.10788,-0.1048 -0.0339,-0.0555 -0.0616,-0.13563 -0.0277,-0.0801 -0.0277,-0.17569 0,-0.26507 0.21267,-0.44076 0.21268,-0.17878 0.56714,-0.17878 0.49009,0 0.8014,0.28666 l -0.2435,0.32056 q -0.2435,-0.22501 -0.58872,-0.22501 -0.14487,0 -0.22501,0.0586 -0.0771,0.0555 -0.0771,0.15103 0,0.0956 0.0956,0.14179 0.0956,0.0431 0.31439,0.0955 0.0956,0.0216 0.15103,0.037 0.0555,0.0124 0.14795,0.0432 0.0925,0.0308 0.14795,0.0616 0.0555,0.0277 0.12329,0.0771 0.0709,0.0493 0.10789,0.10481 0.0401,0.0555 0.0647,0.13562 0.0277,0.0801 0.0277,0.17569 0,0.2959 -0.21267,0.47775 -0.2096,0.18186 -0.6103,0.18186 -0.54556,0 -0.87229,-0.32673 z"
       id="path7503"
       style="font-weight:bold;font-size:2.39106px;font-family:'Proxima Nova';-inkscape-font-specification:ProximaNova-Bold;fill:#231f20;stroke-width:0.454762" />
    <path
       d="m 183.65299,149.84539 v -2.05589 h 0.43769 v 2.05589 z"
       id="path7505"
       style="font-weight:bold;font-size:2.39106px;font-family:'Proxima Nova';-inkscape-font-specification:ProximaNova-Bold;fill:#231f20;stroke-width:0.454762" />
    <path
       d="m 184.42356,149.84539 v -0.35447 l 0.97093,-1.31613 h -0.97093 v -0.38529 h 1.54423 v 0.35138 l -0.97092,1.31922 h 0.9925 v 0.38529 z"
       id="path7507"
       style="font-weight:bold;font-size:2.39106px;font-family:'Proxima Nova';-inkscape-font-specification:ProximaNova-Bold;fill:#231f20;stroke-width:0.454762" />
    <path
       d="m 186.32225,149.84539 v -2.05589 h 1.45484 v 0.37604 h -1.01715 v 0.44693 h 0.99557 v 0.37604 h -0.99557 v 0.47775 h 1.01715 v 0.37913 z"
       id="path7509"
       style="font-weight:bold;font-size:2.39106px;font-family:'Proxima Nova';-inkscape-font-specification:ProximaNova-Bold;fill:#231f20;stroke-width:0.454762" />
    <path
       d="m 188.90829,149.84539 v -2.05589 h 1.45484 v 0.37604 h -1.01715 v 0.44693 h 0.99558 v 0.37604 h -0.99558 v 0.85688 z"
       id="path7511"
       style="font-weight:bold;font-size:2.39106px;font-family:'Proxima Nova';-inkscape-font-specification:ProximaNova-Bold;fill:#231f20;stroke-width:0.454762" />
    <path
       d="m 190.66827,149.84539 v -2.05589 h 0.43768 v 2.05589 z"
       id="path7513"
       style="font-weight:bold;font-size:2.39106px;font-family:'Proxima Nova';-inkscape-font-specification:ProximaNova-Bold;fill:#231f20;stroke-width:0.454762" />
    <path
       d="m 191.98749,149.84539 v -1.6706 h -0.60105 v -0.38529 h 1.63978 v 0.38529 h -0.59796 v 1.6706 z"
       id="path7515"
       style="font-weight:bold;font-size:2.39106px;font-family:'Proxima Nova';-inkscape-font-specification:ProximaNova-Bold;fill:#231f20;stroke-width:0.454762" />
    <path
       d="m 193.16492,149.55565 0.24042,-0.33289 q 0.26507,0.27741 0.65344,0.27741 0.16953,0 0.262,-0.0678 0.0955,-0.0678 0.0955,-0.16336 0,-0.1048 -0.10172,-0.1572 -0.10171,-0.0555 -0.31439,-0.1048 -0.1048,-0.0247 -0.15103,-0.0339 -0.0462,-0.0124 -0.14487,-0.0431 -0.0986,-0.0308 -0.15103,-0.0586 -0.0493,-0.0277 -0.12329,-0.0771 -0.0709,-0.0493 -0.10788,-0.1048 -0.0339,-0.0555 -0.0617,-0.13563 -0.0277,-0.0801 -0.0277,-0.17569 0,-0.26507 0.21268,-0.44076 0.21268,-0.17878 0.56714,-0.17878 0.49008,0 0.80139,0.28666 l -0.2435,0.32056 q -0.2435,-0.22501 -0.58871,-0.22501 -0.14487,0 -0.22501,0.0586 -0.0771,0.0555 -0.0771,0.15103 0,0.0956 0.0956,0.14179 0.0955,0.0431 0.31439,0.0955 0.0956,0.0216 0.15103,0.037 0.0555,0.0124 0.14795,0.0432 0.0925,0.0308 0.14795,0.0616 0.0555,0.0277 0.12329,0.0771 0.0709,0.0493 0.10788,0.10481 0.0401,0.0555 0.0647,0.13562 0.0277,0.0801 0.0277,0.17569 0,0.2959 -0.21268,0.47775 -0.20959,0.18186 -0.61029,0.18186 -0.54557,0 -0.87229,-0.32673 z"
       id="path7517"
       style="font-weight:bold;font-size:2.39106px;font-family:'Proxima Nova';-inkscape-font-specification:ProximaNova-Bold;fill:#231f20;stroke-width:0.454762" />
    <path
       d="m 197.38457,149.84539 -0.12946,-0.35447 h -0.91852 l -0.12946,0.35447 h -0.48083 l 0.79523,-2.05589 h 0.54864 l 0.79215,2.05589 z m -0.58872,-1.67677 -0.34213,0.94318 h 0.68118 z"
       id="path7519"
       style="font-weight:bold;font-size:2.39106px;font-family:'Proxima Nova';-inkscape-font-specification:ProximaNova-Bold;fill:#231f20;stroke-width:0.454762" />
    <path
       d="m 198.05342,149.84539 v -2.05589 h 0.43769 v 1.6706 h 0.8692 v 0.38529 z"
       id="path7521"
       style="font-weight:bold;font-size:2.39106px;font-family:'Proxima Nova';-inkscape-font-specification:ProximaNova-Bold;fill:#231f20;stroke-width:0.454762" />
    <path
       d="m 199.66546,149.84539 v -2.05589 h 0.43769 v 1.6706 h 0.8692 v 0.38529 z"
       id="path7523"
       style="font-weight:bold;font-size:2.39106px;font-family:'Proxima Nova';-inkscape-font-specification:ProximaNova-Bold;fill:#231f20;stroke-width:0.454762" />
  </g>
</svg>
