<?xml version="1.0" encoding="UTF-8" standalone="no"?>
<!-- Created with Inkscape (http://www.inkscape.org/) -->

<svg
   width="30.189354"
   height="43.824001"
   viewBox="0 0 7.9875997 11.595101"
   version="1.1"
   id="svg5"
   xmlns="http://www.w3.org/2000/svg"
   xmlns:svg="http://www.w3.org/2000/svg"
   xmlns:rdf="http://www.w3.org/1999/02/22-rdf-syntax-ns#"
   xmlns:cc="http://creativecommons.org/ns#"
   xmlns:dc="http://purl.org/dc/elements/1.1/">
  <title
     id="title1658">Icon Custom Range</title>
  <defs
     id="defs2">
    <clipPath
       clipPathUnits="userSpaceOnUse"
       id="clipPath178">
      <path
         d="M 0,0 H 595.276 V 841.89 H 0 Z"
         id="path176" />
    </clipPath>
  </defs>
  <g
     id="layer1"
     transform="translate(-115.37166,-57.010529)">
    <g
       id="g244"
       transform="matrix(0.35277776,0,0,-0.35277776,119.36546,57.192562)">
      <path
         d="m 0,0 c -5.957,0 -10.805,-4.847 -10.805,-10.804 0,-2.394 1.409,-6.035 4.436,-11.458 2.065,-3.701 4.121,-6.826 4.207,-6.958 l 1.487,-2.252 c 0.15,-0.228 0.404,-0.364 0.675,-0.364 0.273,0 0.525,0.136 0.675,0.364 l 1.487,2.252 c 0.086,0.13 2.126,3.229 4.207,6.958 3.027,5.422 4.436,9.064 4.436,11.458 C 10.805,-4.847 5.957,0 0,0"
         style="fill:#ffffff;fill-opacity:1;fill-rule:nonzero;stroke:none"
         id="path246" />
    </g>
    <path
       d="m 119.36546,57.192562 v -0.182033 c -2.20239,3.53e-4 -3.99344,1.791052 -3.9938,3.993444 0.005,0.914047 0.51682,2.206272 1.58821,4.131027 0.73201,1.311275 1.46015,2.418292 1.49013,2.464506 l 0.52529,0.795867 c 0.0868,0.131233 0.23318,0.210255 0.39017,0.210255 0.15734,3.53e-4 0.30409,-0.07937 0.39017,-0.210255 l 0.52458,-0.794456 c 0.0314,-0.04763 0.75318,-1.144411 1.49084,-2.466269 1.07103,-1.92405 1.58397,-3.216628 1.58821,-4.130675 -3.6e-4,-2.202392 -1.79141,-3.993091 -3.9938,-3.993444 v 0.182033 0.18168 c 1.00083,3.53e-4 1.90747,0.407106 2.5654,1.064684 0.65758,0.65793 1.06433,1.564216 1.06433,2.565047 0.005,0.775405 -0.47731,2.052108 -1.54199,3.95358 -0.73025,1.309159 -1.44815,2.399242 -1.47708,2.443339 l -0.52423,0.794103 -0.0864,0.04692 -0.0864,-0.04657 -0.52458,-0.794809 0.001,0.0014 c -0.0303,-0.04692 -0.75283,-1.145116 -1.47814,-2.444397 -1.06433,-1.901825 -1.54623,-3.178175 -1.54164,-3.95358 0,-1.000831 0.40675,-1.907117 1.06433,-2.565047 0.65793,-0.657578 1.56457,-1.064331 2.5654,-1.064684 z"
       style="fill:#ed1738;fill-opacity:1;fill-rule:nonzero;stroke:none;stroke-width:0.352778"
       id="path250" />
    <path
       d="m 121.11372,64.767935 c -0.7239,1.296811 -1.43263,2.373136 -1.46262,2.418292 l -0.28575,0.433211 -0.28575,-0.433211 c -0.03,-0.04551 -0.744,-1.131006 -1.46226,-2.418292 -0.9906,-1.774825 -1.49225,-3.040944 -1.49225,-3.763786 0,-1.787172 1.4538,-3.240616 3.24026,-3.240616 1.78718,0 3.24062,1.453444 3.24062,3.240616 0,0.722842 -0.502,1.988961 -1.49225,3.763786"
       style="fill:#192948;fill-opacity:1;fill-rule:nonzero;stroke:none;stroke-width:0.352778"
       id="path254" />
    <path
       d="m 120.23132,60.117897 c -0.0843,-0.102305 -0.18732,-0.180975 -0.30974,-0.236008 -0.12241,-0.05468 -0.26423,-0.08185 -0.4251,-0.08185 -0.16051,0 -0.30973,0.03069 -0.44697,0.09313 -0.13652,0.06209 -0.25541,0.148872 -0.35595,0.26035 -0.10019,0.111478 -0.17921,0.243769 -0.2353,0.397228 -0.0568,0.153458 -0.085,0.319969 -0.085,0.498827 0,0.182739 0.0282,0.349956 0.085,0.501297 0.0561,0.152048 0.1337,0.283634 0.23283,0.395111 0.0984,0.111125 0.21484,0.197909 0.34784,0.259998 0.133,0.06244 0.27693,0.09349 0.43039,0.09349 0.17533,0 0.3302,-0.03669 0.46567,-0.109714 0.13511,-0.07302 0.24659,-0.175331 0.33443,-0.30727 l 0.71261,0.531989 c -0.16475,0.230364 -0.37289,0.40005 -0.62512,0.509411 -0.25224,0.109714 -0.51153,0.164748 -0.77788,0.164748 -0.30374,0 -0.58278,-0.04763 -0.83925,-0.142523 -0.25542,-0.09525 -0.47625,-0.231069 -0.66287,-0.408516 -0.18592,-0.177095 -0.33126,-0.391584 -0.43568,-0.64382 -0.10443,-0.251883 -0.15593,-0.5334 -0.15593,-0.844197 0,-0.310444 0.0515,-0.591961 0.15593,-0.844197 0.10442,-0.252236 0.24976,-0.466372 0.43568,-0.643819 0.18662,-0.177447 0.40745,-0.31362 0.66287,-0.408517 0.25647,-0.0949 0.53551,-0.142522 0.83925,-0.142522 0.10972,0 0.22331,0.0099 0.34255,0.03034 0.11818,0.01976 0.2353,0.05186 0.35066,0.0956 0.11501,0.0441 0.22543,0.102658 0.33161,0.175683 0.10584,0.07303 0.20073,0.162278 0.28505,0.268464 z"
       style="fill:#ffffff;fill-opacity:1;fill-rule:nonzero;stroke:none;stroke-width:0.352778"
       id="path258" />
  </g>
  <metadata
     id="metadata1656">
    <rdf:RDF>
      <cc:Work
         rdf:about="">
        <dc:title>Icon Custom Range</dc:title>
      </cc:Work>
    </rdf:RDF>
  </metadata>
</svg>
