<?xml version="1.0" encoding="UTF-8" standalone="no"?>
<!-- Created with Inkscape (http://www.inkscape.org/) -->

<svg
   width="219.08826"
   height="219.08893"
   viewBox="0 0 57.967101 57.96728"
   version="1.1"
   id="svg5"
   xmlns="http://www.w3.org/2000/svg"
   xmlns:svg="http://www.w3.org/2000/svg">
  <defs
     id="defs2" />
  <g
     id="layer1"
     transform="translate(-35.970414,-119.89345)">
    <path
       id="path911"
       style="fill:#00a8e7;fill-opacity:1;stroke-width:62.9894"
       d="m 64.954173,119.89345 a 28.983649,28.983649 0 0 0 -28.983759,28.98377 28.983649,28.983649 0 0 0 13.021429,24.1763 c 0.447407,-0.81662 0.956296,-1.74073 1.526521,-2.76676 l 2.691307,-4.84363 -1.342554,-0.16898 -1.342035,-0.16898 1.489831,-0.0444 c 0.181423,-0.005 0.340583,-0.0106 0.48214,-0.0186 0.14156,-0.007 0.265377,-0.0167 0.374655,-0.0305 0.05465,-0.007 0.105479,-0.0138 0.15348,-0.0238 0.04799,-0.009 0.0931,-0.0202 0.135392,-0.0326 0.04228,-0.0123 0.08183,-0.0269 0.119372,-0.0429 0.03754,-0.0161 0.07324,-0.0335 0.106969,-0.0537 0.03373,-0.0202 0.06524,-0.0428 0.09612,-0.0677 0.03087,-0.0247 0.06097,-0.052 0.08992,-0.0822 0.02897,-0.0301 0.05675,-0.0627 0.08475,-0.0987 0.02799,-0.0359 0.05625,-0.0753 0.08423,-0.11783 0.05597,-0.0848 0.11254,-0.18276 0.174149,-0.29662 0.0616,-0.11385 0.128288,-0.24321 0.203088,-0.39067 0.08448,-0.16648 0.222608,-0.42994 0.400492,-0.76275 0.177888,-0.33281 0.395092,-0.7349 0.637172,-1.18029 0.484162,-0.89074 1.067843,-1.95288 1.63349,-2.97139 0.695246,-1.25187 1.318885,-2.38051 1.863453,-3.37189 0.544565,-0.99138 1.010076,-1.84539 1.388546,-2.54765 0.378468,-0.70229 0.670185,-1.25306 0.86713,-1.63762 0.09847,-0.19228 0.173043,-0.34315 0.223242,-0.45062 0.05019,-0.10745 0.07597,-0.17149 0.07597,-0.19069 0,-0.009 -0.01264,-0.0253 -0.03669,-0.0491 -0.02403,-0.0237 -0.05928,-0.0544 -0.104902,-0.0915 -0.09123,-0.0742 -0.223724,-0.17312 -0.386541,-0.2899 -0.162816,-0.11678 -0.35679,-0.25157 -0.571542,-0.39688 -0.214746,-0.14531 -0.450085,-0.30171 -0.697113,-0.46147 -0.196919,-0.12734 -0.388761,-0.25577 -0.575676,-0.3855 -0.186909,-0.12972 -0.369347,-0.26027 -0.546221,-0.39223 -0.176874,-0.13195 -0.348404,-0.26542 -0.515213,-0.39946 -0.166804,-0.13405 -0.328538,-0.26915 -0.485243,-0.40514 -0.156702,-0.13599 -0.308179,-0.27305 -0.454753,-0.41083 -0.146568,-0.13777 -0.288377,-0.27605 -0.42478,-0.41548 -0.136404,-0.13941 -0.267057,-0.27972 -0.393256,-0.42064 -0.126203,-0.14092 -0.247319,-0.28252 -0.363286,-0.42478 -0.115967,-0.14227 -0.227084,-0.28493 -0.332795,-0.4284 -0.105704,-0.14346 -0.206381,-0.28802 -0.301792,-0.43253 -0.0954,-0.14452 -0.185714,-0.2897 -0.270783,-0.43512 -0.08507,-0.14543 -0.164552,-0.29099 -0.239262,-0.43718 -0.07471,-0.14619 -0.144463,-0.29297 -0.208772,-0.43977 -0.06431,-0.14681 -0.123878,-0.29301 -0.177769,-0.44028 -0.05389,-0.14727 -0.102306,-0.29477 -0.145727,-0.44235 -0.04342,-0.14759 -0.08179,-0.29615 -0.114721,-0.4439 -0.03293,-0.14777 -0.06028,-0.29509 -0.08268,-0.44287 -0.0224,-0.14779 -0.03934,-0.29574 -0.05116,-0.44338 -0.01189,-0.14766 -0.01844,-0.29496 -0.01964,-0.44235 -0.0012,-0.1474 0.0031,-0.29487 0.0124,-0.44184 0.0094,-0.14697 0.02385,-0.29387 0.04393,-0.44028 0.02004,-0.14641 0.04522,-0.29201 0.07597,-0.4377 0.03075,-0.14567 0.06653,-0.2908 0.108003,-0.43563 0.04147,-0.14484 0.08886,-0.28976 0.141075,-0.43356 0.05223,-0.14383 0.110107,-0.28676 0.173117,-0.42944 0.06302,-0.14266 0.131316,-0.28496 0.205155,-0.42633 0.07384,-0.14136 0.153012,-0.28177 0.237713,-0.42168 0.08469,-0.13992 0.174678,-0.27922 0.270266,-0.41754 0.09559,-0.13831 0.196837,-0.2758 0.303342,-0.41238 0.106508,-0.13659 0.217917,-0.27201 0.335381,-0.40669 0.117464,-0.13469 0.240517,-0.26836 0.368969,-0.40101 0.12845,-0.13265 0.263089,-0.26487 0.402559,-0.39533 0.150706,-0.14096 0.304752,-0.27703 0.46302,-0.40928 0.158274,-0.13227 0.320707,-0.26014 0.48731,-0.38395 0.166603,-0.12381 0.33745,-0.24352 0.513146,-0.35915 0.175699,-0.11562 0.355497,-0.2272 0.541052,-0.33487 0.185557,-0.10771 0.376401,-0.21154 0.572577,-0.3116 0.196175,-0.10004 0.398089,-0.19627 0.605647,-0.28888 0.20756,-0.0926 0.421079,-0.18166 0.640786,-0.26716 0.219708,-0.0854 0.445895,-0.16748 0.678514,-0.24598 0.232613,-0.0785 0.471492,-0.15341 0.717785,-0.22531 0.24629,-0.0719 0.499952,-0.14079 0.760677,-0.20619 0.260731,-0.0655 0.528672,-0.12767 0.804601,-0.18707 0.275931,-0.0594 0.55922,-0.11548 0.851111,-0.16898 0.291891,-0.0535 0.592619,-0.10445 0.901237,-0.15245 0.308621,-0.0479 0.625256,-0.0928 0.951363,-0.13539 0.326107,-0.0426 0.661262,-0.0829 1.005623,-0.1204 0.344363,-0.0374 0.698058,-0.0717 1.061434,-0.10439 0.269147,-0.0242 0.543719,-0.0461 0.82114,-0.0651 0.277418,-0.0189 0.557418,-0.0353 0.839742,-0.0491 0.282324,-0.0138 0.566735,-0.0251 0.850593,-0.0331 0.283856,-0.008 0.567542,-0.0151 0.849561,-0.0181 0.28202,-0.004 0.562417,-0.004 0.839224,-0.002 0.276807,0.002 0.550328,0.006 0.818555,0.0145 0.268227,0.007 0.530759,0.0177 0.787032,0.0305 0.256276,0.0127 0.505775,0.0282 0.746726,0.0465 l 3.095934,0.23462 -3.134174,0.22479 c -0.488225,0.0351 -0.962158,0.0736 -1.42162,0.11524 -0.459462,0.0418 -0.904674,0.0871 -1.336352,0.1359 -0.431681,0.0487 -0.849829,0.1009 -1.254705,0.1571 -0.40487,0.0561 -0.796588,0.11562 -1.175639,0.17932 -0.379047,0.0637 -0.744958,0.13242 -1.099158,0.20412 -0.354203,0.0718 -0.696479,0.14728 -1.026811,0.22738 -0.33033,0.0801 -0.649086,0.16441 -0.956529,0.25321 -0.307444,0.0888 -0.603825,0.18229 -0.889352,0.28009 -0.142767,0.0489 -0.28266,0.0987 -0.42013,0.14986 -0.137472,0.0511 -0.272325,0.1035 -0.404624,0.1571 -0.1323,0.0536 -0.26188,0.10884 -0.389126,0.16484 -0.127251,0.056 -0.25233,0.11265 -0.374652,0.17105 -0.122322,0.0584 -0.24215,0.11832 -0.35967,0.17932 -0.117514,0.0609 -0.232365,0.12315 -0.345199,0.18655 -0.112831,0.0634 -0.223491,0.12769 -0.331761,0.19379 -0.108273,0.066 -0.214497,0.13345 -0.318328,0.20205 -0.103833,0.0686 -0.20538,0.13851 -0.30489,0.20981 -0.09952,0.0713 -0.196651,0.14366 -0.291973,0.21756 -0.09533,0.074 -0.188836,0.14922 -0.280085,0.22582 -0.09126,0.0767 -0.180385,0.15511 -0.267684,0.23461 -0.08731,0.0795 -0.172834,0.16017 -0.256315,0.24237 -0.08348,0.0823 -0.165167,0.16646 -0.244946,0.25166 -0.07978,0.0852 -0.157388,0.17173 -0.233577,0.25993 -0.0762,0.0881 -0.15103,0.1772 -0.223761,0.2682 -0.07271,0.091 -0.141454,0.18581 -0.206706,0.28371 -0.06525,0.0978 -0.126754,0.19894 -0.184483,0.30282 -0.05772,0.1039 -0.112125,0.2107 -0.162264,0.31988 -0.05012,0.1092 -0.09601,0.22062 -0.138493,0.33435 -0.04247,0.1137 -0.08154,0.22928 -0.116271,0.34674 -0.03473,0.11746 -0.06507,0.23666 -0.09199,0.35709 -0.02693,0.12043 -0.05018,0.24271 -0.06925,0.36535 -0.01906,0.12265 -0.03385,0.24592 -0.04496,0.37 -0.01119,0.12407 -0.01861,0.24839 -0.0217,0.37311 -0.0032,0.12473 -0.0019,0.25004 0.0031,0.37465 0.005,0.12461 0.01373,0.24834 0.02687,0.37207 0.01314,0.1237 0.03032,0.24692 0.05168,0.36897 0.02136,0.12207 0.04735,0.24315 0.077,0.36277 0.02965,0.11963 0.0633,0.23811 0.101285,0.3545 0.03799,0.11642 0.08018,0.2307 0.126608,0.34313 0.04642,0.11241 0.097,0.22252 0.151927,0.33021 0.03401,0.0666 0.07482,0.13758 0.121957,0.21188 0.04714,0.0742 0.100584,0.15192 0.159163,0.23202 0.05857,0.0802 0.122396,0.16252 0.190687,0.24702 0.06829,0.0846 0.14074,0.1715 0.217041,0.2589 0.152601,0.17485 0.319648,0.35329 0.494027,0.5302 0.174379,0.1769 0.356502,0.35235 0.538985,0.51883 0.182478,0.16647 0.365181,0.32411 0.542084,0.46767 0.08846,0.0718 0.175435,0.13991 0.259935,0.2036 0.08449,0.0637 0.166632,0.12316 0.245462,0.17725 0.07883,0.054 0.154376,0.10335 0.225827,0.14625 0.07145,0.043 0.13866,0.0794 0.20102,0.10955 0.06236,0.0302 0.120007,0.054 0.171566,0.0698 0.05156,0.0164 0.09684,0.0243 0.135909,0.0243 0.0088,0 0.02045,-0.005 0.03359,-0.015 0.01314,-0.01 0.02778,-0.0246 0.04496,-0.0439 0.03436,-0.0385 0.07712,-0.0949 0.12609,-0.16794 0.04896,-0.073 0.104492,-0.16258 0.16588,-0.26614 0.06139,-0.10362 0.128339,-0.2211 0.199988,-0.3514 0.143312,-0.26059 0.305057,-0.57148 0.476457,-0.91519 0.171405,-0.34372 0.352652,-0.72083 0.534852,-1.11621 l 1.325499,-2.87579 0.565857,0.77773 c 0.03894,0.0534 0.08825,0.11073 0.146245,0.17053 0.058,0.0599 0.124318,0.12267 0.198438,0.18707 0.07412,0.0644 0.156096,0.13019 0.243395,0.19689 0.0873,0.0668 0.179973,0.13434 0.277503,0.20153 0.09754,0.0672 0.199533,0.13459 0.304374,0.19999 0.104834,0.0655 0.213276,0.1294 0.322461,0.19121 0.109183,0.0619 0.219104,0.12146 0.329695,0.17776 0.110593,0.0562 0.221673,0.1087 0.330729,0.1571 0.157353,0.0699 0.317537,0.13524 0.481626,0.19533 0.164084,0.0602 0.331963,0.11549 0.502812,0.16589 0.170847,0.0503 0.345324,0.0962 0.522965,0.13694 0.177638,0.0407 0.358658,0.0765 0.543118,0.10749 0.184465,0.0309 0.371959,0.0564 0.563274,0.0775 0.191315,0.0211 0.386263,0.0381 0.584459,0.0496 0.1982,0.0114 0.400024,0.0176 0.605131,0.0196 0.205113,0.001 0.413232,-0.002 0.625285,-0.0103 0.212056,-0.008 0.42745,-0.0205 0.646472,-0.0382 0.219028,-0.0178 0.441635,-0.0402 0.66766,-0.0677 0.226029,-0.0274 0.455788,-0.0604 0.688848,-0.0977 0.233061,-0.0373 0.469392,-0.079 0.709518,-0.12609 0.24012,-0.047 0.48401,-0.0988 0.731221,-0.15555 0.247213,-0.0568 0.49807,-0.1185 0.752409,-0.185 0.254336,-0.0665 0.512109,-0.13816 0.773596,-0.21446 0.261488,-0.0762 0.52663,-0.15688 0.795301,-0.24288 0.035,-0.012 0.05331,-0.0143 0.05581,-0.008 0.0026,0.006 -0.01028,0.0207 -0.03772,0.0429 -0.05488,0.0443 -0.16722,0.11917 -0.327629,0.21807 -0.160409,0.099 -0.368887,0.22206 -0.615468,0.3638 -0.246579,0.14177 -0.531522,0.30234 -0.84491,0.47491 -0.327401,0.18031 -0.637217,0.35236 -0.932759,0.51935 -0.29554,0.16696 -0.57698,0.32871 -0.850077,0.48834 -0.273103,0.15966 -0.537279,0.31712 -0.797367,0.47542 -0.260091,0.15828 -0.516578,0.31764 -0.773078,0.48059 -0.256509,0.16294 -0.513324,0.32925 -0.775663,0.50282 -0.262343,0.17358 -0.529585,0.35397 -0.807189,0.54415 -0.277603,0.1902 -0.565351,0.39078 -0.867645,0.60358 -0.302292,0.2128 -0.619607,0.43763 -0.956014,0.67903 l -1.915647,1.37511 1.773537,1.33841 c 0.191997,0.14483 0.377695,0.29176 0.557072,0.44081 0.179377,0.14903 0.352319,0.2999 0.51883,0.45268 0.16651,0.15277 0.326157,0.30749 0.479557,0.46354 0.153403,0.15603 0.300749,0.313 0.440801,0.4718 0.140049,0.15881 0.273002,0.31896 0.399457,0.48008 0.12646,0.16112 0.246528,0.32332 0.359154,0.48627 0.112622,0.16296 0.218225,0.32663 0.316775,0.49093 0.09855,0.16431 0.189666,0.32937 0.273886,0.49454 0.08423,0.16518 0.161332,0.33101 0.230994,0.49661 0.06966,0.1656 0.132207,0.33057 0.187069,0.4961 0.05485,0.16552 0.102309,0.33161 0.14211,0.49661 0.0398,0.16497 0.07159,0.32904 0.09612,0.49299 0.02452,0.16395 0.04154,0.32794 0.05064,0.49041 0.0045,0.0812 0.0072,0.16166 0.0078,0.24236 7.01e-4,0.0808 -8.33e-4,0.16113 -0.0041,0.24133 -0.0034,0.0802 -0.0091,0.16008 -0.01654,0.23978 -0.0074,0.0797 -0.01703,0.15923 -0.02842,0.23823 -0.01141,0.079 -0.02435,0.15786 -0.03979,0.23616 -0.01544,0.0783 -0.03268,0.1566 -0.05219,0.2341 -0.03791,0.15051 -0.08023,0.29907 -0.125573,0.44493 -0.04536,0.14587 -0.0939,0.28922 -0.146762,0.43046 -0.05285,0.14124 -0.109614,0.27988 -0.170016,0.41652 -0.0604,0.13663 -0.124762,0.27102 -0.192752,0.40307 -0.06799,0.13204 -0.139861,0.26216 -0.215492,0.38964 -0.07563,0.12749 -0.154382,0.25274 -0.23771,0.37569 -0.08332,0.12296 -0.17095,0.24331 -0.262001,0.36173 -0.09105,0.11844 -0.185907,0.23487 -0.284737,0.34882 -0.09883,0.11395 -0.201334,0.22539 -0.30799,0.33486 -0.106659,0.10949 -0.217231,0.21648 -0.331764,0.32143 -0.11453,0.10502 -0.233082,0.20844 -0.355534,0.30903 -0.122449,0.10061 -0.249401,0.19897 -0.379823,0.29507 -0.130415,0.0962 -0.264641,0.19035 -0.403074,0.28215 -0.138435,0.0918 -0.280871,0.18132 -0.427365,0.26872 -0.146495,0.0875 -0.297051,0.1726 -0.451652,0.2558 -0.154604,0.0831 -0.313182,0.16408 -0.47594,0.24288 -0.162759,0.0788 -0.329269,0.15536 -0.500227,0.22996 -0.17096,0.0745 -0.346342,0.14726 -0.52555,0.21756 -0.179207,0.0703 -0.362852,0.13802 -0.550354,0.20412 -0.187505,0.066 -0.378796,0.13043 -0.574641,0.19223 -0.195844,0.0618 -0.396245,0.12162 -0.60048,0.17932 -0.204237,0.0576 -0.412615,0.1131 -0.625287,0.1664 -0.212667,0.0534 -0.42945,0.10459 -0.650605,0.15399 -0.221152,0.0492 -0.446243,0.096 -0.675928,0.14108 -0.229685,0.0451 -0.464021,0.0886 -0.702284,0.12971 -0.23826,0.0411 -0.480203,0.0798 -0.727085,0.11679 -0.246886,0.0368 -0.498407,0.072 -0.75396,0.1049 -0.255553,0.033 -0.515527,0.0636 -0.779798,0.0925 -0.264269,0.0289 -0.532601,0.0557 -0.805635,0.0806 -0.273037,0.0249 -0.550662,0.0478 -0.832506,0.0687 -0.281845,0.0208 -0.568677,0.0394 -0.85938,0.0563 -0.290701,0.0168 -0.585611,0.0321 -0.885217,0.045 l -4.055049,0.17519 -2.418458,3.87418 c -0.813393,1.30326 -1.447858,2.32262 -1.941999,3.12435 -0.18333,0.29745 -0.32833,0.53678 -0.474909,0.77774 a 28.983649,28.983649 0 0 0 15.339115,4.41523 28.983649,28.983649 0 0 0 28.983244,-28.98324 28.983649,28.983649 0 0 0 -28.983244,-28.98377 z m 7.713742,14.0901 c 0.110188,-0.003 0.220694,-0.002 0.330213,0.002 0.109514,0.005 0.218242,0.0133 0.326078,0.0258 0.107839,0.0125 0.214728,0.0291 0.319876,0.0496 0.105148,0.0205 0.208619,0.0449 0.31006,0.0734 0.101449,0.0284 0.200906,0.0608 0.297656,0.0971 0.09674,0.0365 0.191122,0.0768 0.282152,0.12144 0.09103,0.0447 0.178723,0.0939 0.263035,0.14676 0.08175,0.0514 0.16096,0.10446 0.23771,0.15916 0.07676,0.0548 0.150977,0.1115 0.222726,0.1695 0.07176,0.0579 0.140989,0.11677 0.207741,0.17777 0.06675,0.0609 0.131003,0.12347 0.192751,0.18707 0.06174,0.0637 0.12052,0.12852 0.17725,0.19482 0.05673,0.0662 0.111577,0.13355 0.163298,0.20205 0.05171,0.0685 0.100589,0.13817 0.147278,0.20877 0.0467,0.0706 0.09062,0.14258 0.132291,0.21498 0.04167,0.0725 0.08116,0.14552 0.117822,0.21962 0.03665,0.0742 0.07071,0.14919 0.10232,0.2248 0.03161,0.0756 0.06074,0.15202 0.08733,0.22892 0.02659,0.0769 0.05082,0.15455 0.07235,0.23255 0.02155,0.0779 0.04086,0.15642 0.05736,0.23512 0.01651,0.0787 0.0304,0.15738 0.04186,0.23668 0.01145,0.0794 0.01985,0.15895 0.02636,0.23875 0.0064,0.0797 0.01049,0.15988 0.01188,0.23977 0.0014,0.0799 8.2e-5,0.15927 -0.0036,0.23927 -0.0037,0.0799 -0.0099,0.15966 -0.0186,0.23926 -0.0088,0.0796 -0.01977,0.15913 -0.03359,0.23823 -0.01381,0.0791 -0.03072,0.15828 -0.04961,0.23668 -0.01889,0.0784 -0.04012,0.15659 -0.06408,0.23409 -0.02396,0.0775 -0.05055,0.15449 -0.07958,0.23099 -0.02902,0.0764 -0.06047,0.15186 -0.09457,0.22686 -0.03409,0.0751 -0.07089,0.14975 -0.110069,0.22324 -0.03918,0.0735 -0.08079,0.14628 -0.125058,0.21808 -0.04426,0.0718 -0.09068,0.14321 -0.140044,0.21291 -0.04935,0.0698 -0.101613,0.13797 -0.156062,0.20567 -0.05445,0.0676 -0.110982,0.13375 -0.170532,0.19895 -0.05954,0.0652 -0.121893,0.12964 -0.186552,0.19224 -0.06464,0.0626 -0.131797,0.12313 -0.201539,0.18294 -0.06975,0.0597 -0.142181,0.11806 -0.21704,0.17466 -0.07485,0.0567 -0.152077,0.11206 -0.232026,0.16536 -0.07581,0.0506 -0.153768,0.0986 -0.23358,0.14315 -0.07981,0.0446 -0.161636,0.0859 -0.244946,0.12454 -0.08331,0.0386 -0.167968,0.0745 -0.254249,0.10697 -0.08628,0.0325 -0.173775,0.0616 -0.262514,0.0879 -0.08874,0.0263 -0.178554,0.0499 -0.269234,0.0703 -0.09068,0.0203 -0.182322,0.0375 -0.274403,0.0517 -0.09209,0.0141 -0.18502,0.0251 -0.278018,0.0331 -0.09299,0.008 -0.186201,0.0135 -0.27957,0.0155 -0.09337,0.002 -0.186856,0.001 -0.280088,-0.003 -0.09323,-0.004 -0.185965,-0.0114 -0.278534,-0.0222 -0.09257,-0.0104 -0.184563,-0.0233 -0.275953,-0.0398 -0.09139,-0.0164 -0.182634,-0.0358 -0.272336,-0.0584 -0.08969,-0.0227 -0.178651,-0.0487 -0.266133,-0.0775 -0.08747,-0.0288 -0.173136,-0.0606 -0.257863,-0.0956 -0.08474,-0.035 -0.168119,-0.073 -0.249598,-0.11421 -0.08149,-0.0412 -0.161552,-0.0854 -0.239262,-0.13281 -0.07476,-0.0456 -0.147394,-0.0926 -0.218075,-0.14108 -0.07068,-0.0486 -0.139092,-0.0986 -0.205671,-0.14986 -0.06658,-0.0513 -0.131318,-0.10412 -0.193789,-0.15813 -0.06246,-0.0539 -0.122526,-0.10896 -0.180867,-0.16536 -0.05834,-0.0564 -0.114792,-0.11452 -0.168981,-0.17312 -0.0542,-0.0587 -0.106561,-0.1179 -0.15658,-0.1788 -0.05003,-0.0609 -0.0978,-0.12313 -0.143661,-0.18603 -0.04586,-0.0629 -0.0896,-0.1265 -0.131257,-0.19121 -0.04166,-0.0647 -0.0809,-0.13006 -0.118341,-0.19637 -0.03745,-0.0664 -0.07322,-0.13353 -0.106452,-0.20153 -0.03321,-0.0679 -0.06403,-0.13689 -0.09302,-0.20619 -0.02899,-0.0693 -0.05588,-0.13941 -0.08062,-0.20981 -0.02472,-0.0705 -0.04724,-0.14079 -0.0677,-0.21239 -0.02045,-0.0715 -0.03914,-0.14371 -0.05529,-0.21601 -0.01614,-0.0724 -0.02949,-0.14497 -0.04134,-0.21807 -0.01183,-0.0731 -0.02144,-0.14654 -0.02894,-0.22014 -0.0075,-0.0737 -0.01333,-0.14821 -0.01654,-0.22221 -0.0031,-0.0741 -0.0043,-0.14833 -0.0031,-0.22273 0.0012,-0.0743 0.0042,-0.14822 0.0098,-0.22272 0.0055,-0.0744 0.01387,-0.14884 0.02377,-0.22324 0.0099,-0.0744 0.02184,-0.14873 0.03617,-0.22273 0.01434,-0.0741 0.03086,-0.14799 0.04961,-0.22169 0.01875,-0.0737 0.03986,-0.14746 0.06305,-0.22066 0.02318,-0.0732 0.04885,-0.14619 0.07648,-0.21859 0.02764,-0.0725 0.05729,-0.14441 0.0894,-0.21601 0.03211,-0.0716 0.06625,-0.14282 0.102835,-0.21342 0.03658,-0.0706 0.07516,-0.14082 0.116271,-0.21033 0.04111,-0.0694 0.08462,-0.13808 0.130226,-0.20618 0.04561,-0.0681 0.09351,-0.13607 0.143661,-0.20258 0.05015,-0.0666 0.102912,-0.13198 0.157612,-0.19688 0.0547,-0.0649 0.111262,-0.12914 0.170532,-0.19224 0.05927,-0.0632 0.121152,-0.12535 0.185002,-0.18655 0.07083,-0.0678 0.146071,-0.13217 0.225311,-0.19327 0.07924,-0.061 0.162438,-0.11892 0.249079,-0.17312 0.08664,-0.0541 0.176712,-0.10483 0.26975,-0.15193 0.09303,-0.0472 0.188923,-0.0908 0.287322,-0.13074 0.09841,-0.0399 0.199527,-0.0762 0.302308,-0.10903 0.102782,-0.0327 0.207012,-0.0619 0.313158,-0.0873 0.106151,-0.0255 0.214476,-0.047 0.322979,-0.0651 0.108503,-0.0182 0.217779,-0.0321 0.327628,-0.0429 0.10985,-0.01 0.219507,-0.0166 0.329695,-0.0196 z m -7.575248,18.19579 -1.108977,1.07487 c -0.09174,0.0889 -0.206521,0.21044 -0.340546,0.35915 -0.13403,0.14869 -0.287427,0.32452 -0.457337,0.52452 -0.169913,0.2 -0.356129,0.42375 -0.555522,0.66662 -0.19939,0.24286 -0.411599,0.50509 -0.634069,0.78238 -0.444936,0.5546 -0.929505,1.16961 -1.428337,1.81126 -0.498832,0.64165 -1.012097,1.30976 -1.513602,1.97094 -0.501507,0.66117 -0.991915,1.3154 -1.444873,1.92857 -0.452964,0.61317 -0.868437,1.18546 -1.221632,1.6831 -0.176596,0.24883 -0.337508,0.479 -0.479557,0.68626 -0.14205,0.20728 -0.265274,0.39203 -0.366385,0.54932 -0.101102,0.1573 -0.180345,0.28722 -0.234095,0.38602 -0.02687,0.0494 -0.04765,0.0908 -0.06149,0.12403 -0.01381,0.0334 -0.02067,0.0589 -0.02067,0.0749 0,0.007 0.0021,0.0131 0.0067,0.0181 0.0046,0.006 0.01157,0.0115 0.02067,0.0155 0.01819,0.01 0.04533,0.0178 0.08062,0.0238 0.03529,0.007 0.07889,0.0104 0.130223,0.0124 0.05132,0.003 0.110453,0.004 0.176734,0.003 0.132553,-0.001 0.293637,-0.009 0.479557,-0.0232 0.185923,-0.0139 0.39615,-0.0344 0.626835,-0.06 0.230685,-0.0257 0.481949,-0.0563 0.748792,-0.0925 0.26684,-0.0362 0.549476,-0.0776 0.843875,-0.12351 0.294397,-0.0459 0.600295,-0.0963 0.913641,-0.15089 0.313346,-0.0545 0.634389,-0.11278 0.95808,-0.17518 0.369403,-0.0711 0.726231,-0.14643 1.071253,-0.22583 0.345022,-0.0794 0.678092,-0.16345 0.998905,-0.25115 0.320818,-0.0878 0.629774,-0.17945 0.926558,-0.27595 0.148391,-0.0481 0.293735,-0.0979 0.436149,-0.14831 0.142415,-0.0504 0.28212,-0.10139 0.418579,-0.154 0.136464,-0.0525 0.269449,-0.10601 0.399976,-0.16071 0.130529,-0.0547 0.25831,-0.11053 0.382923,-0.16743 0.124617,-0.057 0.246113,-0.11537 0.364834,-0.17467 0.118727,-0.0592 0.234413,-0.11936 0.347266,-0.18086 0.112858,-0.0615 0.223203,-0.12389 0.330213,-0.18759 0.107008,-0.0637 0.210939,-0.12872 0.312127,-0.19482 0.101184,-0.066 0.199165,-0.13334 0.294555,-0.20154 0.09538,-0.0683 0.188418,-0.13714 0.278019,-0.20774 0.08959,-0.0706 0.176093,-0.14239 0.259932,-0.21549 0.08384,-0.073 0.16478,-0.14742 0.242879,-0.22272 0.0781,-0.0753 0.152919,-0.15236 0.225309,-0.22996 0.07238,-0.0777 0.142113,-0.15607 0.208775,-0.23617 0.06668,-0.0801 0.130201,-0.16141 0.191201,-0.24391 0.06101,-0.0825 0.119835,-0.16573 0.175183,-0.25063 0.05536,-0.0849 0.107376,-0.1716 0.157096,-0.2589 0.04972,-0.0873 0.09696,-0.17571 0.141079,-0.26561 0.04411,-0.0898 0.08551,-0.18056 0.124021,-0.27286 0.03853,-0.0923 0.07453,-0.1858 0.107489,-0.2806 0.03296,-0.0948 0.06251,-0.19115 0.08992,-0.28835 0.0274,-0.0973 0.05202,-0.19569 0.0739,-0.29559 0.0219,-0.0998 0.04098,-0.20105 0.05736,-0.30334 0.01638,-0.10232 0.03043,-0.20522 0.04134,-0.31006 0.01088,-0.10489 0.01879,-0.21139 0.02429,-0.31885 0.0055,-0.10745 0.0088,-0.21601 0.0088,-0.32607 0,-0.10276 -0.004,-0.20522 -0.01085,-0.30644 -0.0068,-0.10127 -0.01681,-0.20158 -0.03049,-0.30128 -0.01367,-0.0998 -0.03065,-0.19884 -0.05116,-0.29714 -0.02051,-0.0982 -0.04448,-0.19569 -0.07183,-0.29249 -0.02735,-0.0968 -0.05829,-0.19253 -0.0925,-0.28783 -0.03421,-0.0953 -0.07156,-0.18991 -0.112654,-0.28371 -0.04107,-0.0938 -0.0859,-0.18717 -0.133842,-0.27957 -0.04794,-0.0924 -0.09919,-0.18402 -0.153995,-0.27492 -0.05482,-0.0909 -0.112988,-0.18066 -0.174668,-0.27026 -0.06169,-0.0895 -0.126756,-0.17845 -0.195336,-0.26666 -0.06858,-0.088 -0.141055,-0.17549 -0.216525,-0.26199 -0.07547,-0.0866 -0.154318,-0.17267 -0.236677,-0.25787 -0.08237,-0.0852 -0.16808,-0.16941 -0.25735,-0.25321 -0.08926,-0.0838 -0.182356,-0.1671 -0.278535,-0.2496 -0.09618,-0.0824 -0.195604,-0.16375 -0.298691,-0.24495 -0.103092,-0.0811 -0.209346,-0.16163 -0.31936,-0.24133 z" />
  </g>
</svg>
