<?xml version="1.0" encoding="UTF-8" standalone="no"?>
<svg
   viewBox="0 0 241.85693 294.59451"
   version="1.1"
   id="svg95"
   width="241.85693"
   height="294.59451"
   xmlns="http://www.w3.org/2000/svg"
   xmlns:svg="http://www.w3.org/2000/svg"
   xmlns:rdf="http://www.w3.org/1999/02/22-rdf-syntax-ns#"
   xmlns:cc="http://creativecommons.org/ns#"
   xmlns:dc="http://purl.org/dc/elements/1.1/">
  <title
     id="title1224">Knee Pain</title>
  <defs
     id="defs19">
    <style
       id="style2">.cls-1{fill:#13294b;}.cls-2{fill:url(#radial-gradient-6);}.cls-3{fill:url(#radial-gradient-5);}.cls-4{fill:url(#radial-gradient-3);}.cls-5{fill:url(#radial-gradient-4);}.cls-6{fill:url(#radial-gradient-9);}.cls-7{fill:url(#radial-gradient-8);}.cls-8{fill:url(#radial-gradient-7);}.cls-9{fill:url(#radial-gradient-2);}.cls-10{fill:url(#radial-gradient);}</style>
  </defs>
  <path
     class="cls-1"
     d="m 28.402432,107.0827 c 0,0 -0.21,0.51 -0.91,1.25 -0.34,0.37 -0.78,0.8 -1.28,1.32 -0.48,0.52 -1.09,1.13 -1.39,1.92 -0.03,0.1 -0.07,0.2 -0.08,0.3 -0.02,0.09 -0.03,0.2 -0.04,0.34 -0.03,0.25 -0.05,0.51 -0.1,0.77 -0.08,0.52 -0.18,1.05 -0.29,1.61 -0.22,1.11 -0.5,2.31 -0.8,3.59 -0.3,1.28 -0.64,2.63 -1.01,4.06 -0.36,1.38 -0.74,2.82 -1.14,4.34 1.53,3.44 2.13,8.69 2.07,13.03 l 0.26,0.29 c 0.15,0.17 0.3,0.33 0.44,0.51 0.27,0.36 0.55,0.71 0.81,1.09 0.51,0.75 0.98,1.54 1.39,2.36 0.83,1.64 1.49,3.41 1.95,5.26 0.12,0.46 0.21,0.93 0.31,1.4 0.07,0.48 0.17,0.95 0.21,1.44 0.12,0.97 0.15,1.96 0.06,2.99 -0.09,1.03 -0.42,2.13 -1.07,3.05 -0.66,0.92 -1.62,1.62 -2.68,1.98 -0.53,0.18 -1.08,0.3 -1.66,0.33 -0.29,0.01 -0.58,0 -0.88,-0.03 -0.15,-0.03 -0.3,-0.04 -0.46,-0.09 l -0.24,-0.07 c -0.08,-0.03 -0.19,-0.08 -0.28,-0.13 -0.09,-0.05 -0.19,-0.1 -0.27,-0.16 l -0.18,-0.15 c -0.12,-0.1 -0.25,-0.21 -0.33,-0.31 -0.2,-0.2 -0.38,-0.41 -0.54,-0.62 -0.33,-0.41 -0.62,-0.83 -0.91,-1.25 -1.13,-1.68 -2.11,-3.43 -3.15,-5.09 -0.26,-0.42 -0.52,-0.8 -0.8,-1.17 -0.29,-0.38 -0.61,-0.75 -0.93,-1.13 l -1.97,-2.28 c -0.33,-0.39 -0.66,-0.79 -0.98,-1.22 -0.16,-0.22 -0.32,-0.44 -0.47,-0.7 -0.17,-0.28 -0.29,-0.59 -0.38,-0.83 -0.35,-1 -0.63,-1.95 -0.9400001,-2.91 -0.6,-1.91 -1.2,-3.81 -1.84,-5.69 -0.32,-0.94 -0.65,-1.87 -0.98,-2.8 -0.34,-0.94 -0.67,-1.88 -0.98,-2.83 -0.61,-1.9 -1.2,-3.8 -1.47,-5.86 -0.07,-0.51 -0.1,-1.04 -0.1,-1.59 0,-0.54 0.09,-1.14 0.24,-1.67 0.24,-0.89 0.46,-1.82 0.68,-2.73 0.86,-3.67 1.66,-7.26 2.36,-10.71 0.35,-1.72 0.69,-3.42 0.94,-5.05 0.24,-1.59 0.3,-3.22 0.4,-4.829996 0.08,-1.4 0.18,-2.88 0.5,-4.43 0.3,-1.53 0.9300001,-3.2 2.1400001,-4.55 0.67,-0.67 1.28,-1.14 1.93,-1.63 0.64,-0.49 1.29,-0.97 1.95,-1.45 1.32,-0.95 2.67,-1.9 4.05,-2.86 2.76,-1.91 5.61,-3.86 8.48,-5.9 1.4,-1.01 2.95,-2.1 4.5,-3.01 1.54,-0.93 3.1,-1.86 4.66,-2.81 6.2,-3.77 12.3,-8.04 17.56,-13.11 5.24,-5.07 9.73,-10.83 12.7,-17.02 0.71,-1.57 1.44,-3.06 2.11,-4.64 0.69,-1.55 1.32,-3.11 2.06,-4.57 0.72,-1.48 1.41,-2.93 2.17,-4.32 0.37,-0.7 0.74,-1.38 1.1,-2.06 0.37,-0.68 0.77,-1.33 1.14,-1.98 3.02,-5.21 6.11,-9.65 8.87,-13.24 2.76,-3.5899997 5.19,-6.3199997 6.94,-8.1499997 0.87,-0.91 1.57,-1.59 2.06,-2.03999996 0.49,-0.45 0.76,-0.67 0.79,-0.64 0.02,0.02 -0.2,0.29 -0.64,0.79 -0.44,0.49999996 -1.08,1.22999996 -1.91,2.17999996 -1.64,1.9 -3.96,4.71 -6.61,8.3499997 -2.65,3.64 -5.62,8.11 -8.52,13.33 -0.36,0.65 -0.74,1.31 -1.09,1.98 -0.35,0.68 -0.7,1.37 -1.06,2.06 -0.73,1.38 -1.4,2.83 -2.08,4.3 -0.71,1.46 -1.31,3 -1.97,4.55 -0.63,1.54 -1.38,3.14 -2.08,4.75 -2.97,6.4 -7.51,12.37 -12.82,17.61 -5.33,5.25 -11.52,9.64 -17.76,13.5 -1.56,0.95 -3.11,1.9 -4.64,2.84 -1.54,0.93 -2.91,1.9 -4.37,2.96 -2.88,2.07 -5.73,4.03 -8.47,5.95 -1.37,0.96 -2.71,1.9 -4.01,2.85 -0.65,0.47 -1.29,0.94 -1.9,1.42 -0.62,0.47 -1.24,0.97 -1.67,1.4 -0.86,0.97 -1.38,2.23 -1.64,3.58 -0.27,1.35 -0.37,2.75 -0.45,4.13 -0.09,1.589996 -0.16,3.269996 -0.42,5.019996 -0.27,1.71 -0.6100001,3.41 -0.9700001,5.15 -0.72,3.48 -1.53,7.07 -2.42,10.76 -0.23,0.93 -0.45,1.84 -0.71,2.81 -0.11,0.4 -0.16,0.75 -0.17,1.17 0,0.42 0.02,0.86 0.08,1.3 0.22,1.79 0.78,3.66 1.36,5.5 0.3,0.93 0.61,1.85 0.94,2.78 0.33,0.94 0.66,1.89 0.97,2.84 0.6300001,1.9 1.2300001,3.83 1.8100001,5.75 0.29,0.95 0.58,1.94 0.88,2.83 0.08,0.24 0.15,0.39 0.23,0.54 0.1,0.17 0.23,0.36 0.36,0.55 0.27,0.38 0.58,0.76 0.9,1.14 l 1.94,2.29 c 0.33,0.39 0.65,0.78 0.97,1.2 0.33,0.43 0.62,0.89 0.88,1.32 1.06,1.73 2.01,3.47 3.07,5.09 0.27,0.4 0.53,0.8 0.82,1.15 0.14,0.19 0.28,0.35 0.42,0.5 0.07,0.09 0.14,0.14 0.2,0.2 l 0.1,0.09 c 0,0 0.04,0.01 0.05,0.03 0.02,0 0.02,0.03 0.05,0.04 l 0.12,0.03 c 0.07,0.03 0.18,0.03 0.26,0.05 0.19,0.02 0.39,0.03 0.59,0.03 0.41,-0.02 0.82,-0.1 1.21,-0.23 0.78,-0.26 1.46,-0.75 1.94,-1.39 0.47,-0.66 0.73,-1.44 0.82,-2.3 0.09,-0.86 0.08,-1.77 -0.02,-2.67 -0.03,-0.45 -0.12,-0.9 -0.18,-1.34 -0.09,-0.44 -0.16,-0.89 -0.27,-1.32 -0.41,-1.75 -1.01,-3.43 -1.77,-4.99 -0.38,-0.78 -0.81,-1.52 -1.27,-2.23 -0.23,-0.35 -0.49,-0.68 -0.73,-1.02 -0.13,-0.17 -0.27,-0.32 -0.4,-0.48 l -0.58,-0.68 0.03,-0.69 v -0.44 c 0.01,-0.3 0.01,-0.59 0.01,-0.89 0,-0.59 -0.02,-1.17 -0.04,-1.75 -0.05,-1.15 -0.14,-2.29 -0.28,-3.38 -0.13,-1.1 -0.33,-2.16 -0.56,-3.19 -0.13,-0.51 -0.25,-1.01 -0.42,-1.5 -0.07,-0.24 -0.15,-0.49 -0.24,-0.72 -0.11,-0.29 -0.22,-0.58 -0.34,-0.87 0.47,-1.61 0.92,-3.16 1.34,-4.62 0.39,-1.42 0.77,-2.76 1.12,-4.02 0.34,-1.26 0.65,-2.44 0.91,-3.54 0.13,-0.55 0.25,-1.07 0.35,-1.57 0.06,-0.25 0.09,-0.49 0.12,-0.73 0.03,-0.21 0.08,-0.54 0.19,-0.77 0.43,-0.95 1.09,-1.51 1.61,-2.02 0.54,-0.48 1,-0.89 1.37,-1.23 0.74,-0.66 1.05,-1.08 1.1,-1.05 z"
     id="path44" />
  <path
     class="cls-1"
     d="m 58.072432,90.952704 c 0.03,0.06 -0.29,0.3 -0.88,0.66 -0.57,0.39 -1.43,0.91 -2.3,1.75 -0.9,0.82 -1.7,2 -2.34,3.49 -0.63,1.5 -1.16,3.269996 -1.83,5.129996 -1.27,3.74 -3.44,7.8 -6.63,10.86 -1.59,1.52 -3.48,2.81 -5.61,3.38 -1.06,0.28 -2.16,0.38 -3.21,0.26 -1.04,-0.12 -2.02,-0.43 -2.86,-0.84 -0.4,-0.22 -0.82,-0.45 -1.24,-0.69 -0.4,-0.3 -0.83,-0.57 -1.22,-0.94 -0.8,-0.7 -1.49,-1.65 -1.96,-2.74 -0.44,-1.1 -0.58,-2.3 -0.55,-3.47 0.02,-1.17 0.25,-2.31 0.52,-3.42 0.27,-1.12 0.62,-2.2 0.96,-3.27 l 0.52,-1.599996 c 0.2,-0.55 0.37,-1.11 0.61,-1.64 0.89,-2.16 2.1,-4.09 3.34,-5.83 1.25,-1.74 2.55,-3.29 3.75,-4.66 0.6,-0.68 1.18,-1.32 1.72,-1.93 0.55,-0.6 0.99,-1.14 1.37,-1.69 0.75,-1.09 1.11,-2.1 1.26,-2.82 0.15,-0.72 0.1,-1.14 0.17,-1.15 0.07,-0.02 0.26,0.4 0.24,1.2 -0.02,0.79 -0.28,1.95 -0.99,3.19 -0.34,0.62 -0.8,1.27 -1.3,1.9 -0.5,0.64 -1.03,1.32 -1.58,2.03 -1.11,1.43 -2.3,3.01 -3.44,4.75 -1.12,1.74 -2.2,3.62 -2.96,5.64 -0.21,0.5 -0.34,1.01 -0.51,1.529996 l -0.47,1.62 c -0.31,1.07 -0.62,2.13 -0.85,3.17 -0.49,2.07 -0.6,4.12 0.05,5.7 0.68,1.56 2.05,2.62 3.46,3.28 1.34,0.66 2.98,0.93 4.67,0.49 1.69,-0.41 3.36,-1.48 4.83,-2.81 1.48,-1.34 2.77,-2.97 3.87,-4.68 0.55,-0.86 1.05,-1.74 1.49,-2.63 0.44,-0.89 0.83,-1.81 1.21,-2.7 0.75,-1.779996 1.38,-3.539996 2.15,-5.089996 0.4,-0.77 0.83,-1.49 1.32,-2.1 0.24,-0.3 0.5,-0.58 0.75,-0.84 0.27,-0.24 0.51,-0.49 0.78,-0.68 1.03,-0.81 1.99,-1.23 2.63,-1.51 0.66,-0.25 1.04,-0.36 1.07,-0.29 z"
     id="path46" />
  <path
     class="cls-1"
     d="m 68.632432,73.162704 c 0.09,-0.09 0.64,0.31 1.17,1.23 0.54,0.91 1.05,2.29 1.33,3.9 0.29,1.61 0.31,3.47 -0.05,5.24 -0.35,1.77 -1.14,3.45 -2.14,4.6 -1,1.19 -2.54,2.21 -4.18,3.01 -1.65,0.81 -3.44,1.43 -5.08,1.91 -3.29,0.94 -5.99,1.26 -6.05,0.99 -0.06,-0.28 2.5,-1.09 5.58,-2.36 1.54,-0.63 3.2,-1.37 4.68,-2.21 1.48,-0.83 2.76,-1.77 3.49,-2.67 0.78,-0.89 1.47,-2.2 1.86,-3.7 0.4,-1.5 0.54,-3.16 0.45,-4.65 -0.08,-1.5 -0.35,-2.82 -0.62,-3.75 -0.27,-0.93 -0.56,-1.45 -0.44,-1.56 z"
     id="path48" />
  <path
     class="cls-1"
     d="m 132.92243,26.082704 c 0.09,0.03 0.02,0.46 -0.19,1.21 -0.1,0.38 -0.24,0.83 -0.41,1.37 -0.09,0.27 -0.18,0.55 -0.28,0.85 -0.05,0.15 -0.1,0.31 -0.15,0.46 -0.07,0.15 -0.13,0.31 -0.2,0.47 -0.28,0.65 -0.59,1.36 -0.92,2.12 -0.17,0.38 -0.34,0.78 -0.53,1.18 -0.21,0.39 -0.43,0.79 -0.65,1.21 -0.46,0.82 -0.9,1.71 -1.44,2.59 -0.56,0.87 -1.14,1.77 -1.73,2.69 -2.49,3.63 -5.64,7.37 -8.98,10.7 -3.34,3.33 -6.83,6.28 -9.87,8.54 -3.03,2.27 -6.94,4.92 -11.249998,7.38 -1.07,0.63 -2.19,1.2 -3.28,1.81 -1.08,0.59 -2.17,1.16 -3.22,1.78 -2.13,1.21 -4.18,2.51 -6.12,3.78 -7.74,5.09 -13.4,9.95 -13.65,9.67 -0.27,-0.27 4.97,-5.68 12.55,-11.26 1.89,-1.39 3.92,-2.8 6.05,-4.13 1.05,-0.68 2.15,-1.31 3.23,-1.95 1.06,-0.63 2.13,-1.22 3.16,-1.87 4.14,-2.52 7.929998,-5.17 10.879998,-7.39 2.97,-2.2 6.42,-5.02 9.76,-8.16 3.35,-3.14 6.55,-6.64 9.17,-10.02 0.63,-0.86 1.25,-1.7 1.84,-2.51 0.58,-0.81 1.07,-1.64 1.58,-2.41 0.25,-0.38 0.49,-0.76 0.73,-1.12 0.22,-0.37 0.42,-0.74 0.62,-1.1 0.4,-0.71 0.77,-1.36 1.12,-1.96 0.09,-0.15 0.17,-0.3 0.25,-0.44 0.07,-0.15 0.14,-0.29 0.21,-0.43 0.14,-0.28 0.27,-0.54 0.39,-0.79 0.24,-0.49 0.46,-0.91 0.65,-1.25 0.37,-0.68 0.62,-1.04 0.71,-1.01 z"
     id="path50" />
  <path
     class="cls-1"
     d="m 22.882432,159.5127 c 0,0 0.37,0.27 0.71,0.98 0.33,0.7 0.71,1.81 0.71,3.25 0,1.43 -0.38,3.17 -1.55,4.8 -0.6,0.8 -1.49,1.52 -2.59,1.85 -0.54,0.17 -1.12,0.25 -1.71,0.24 -0.3,0 -0.6,-0.04 -0.9,-0.1 -0.31,-0.06 -0.61,-0.15 -0.97,-0.36 -0.39,-0.26 -0.52,-0.45 -0.73,-0.65 -0.19,-0.2 -0.38,-0.41 -0.57,-0.61 -0.37,-0.41 -0.74,-0.83 -1.1,-1.26 -0.73,-0.86 -1.44,-1.75 -2.14,-2.67 -0.69,-0.93 -1.37,-1.88 -1.99,-2.89 -0.6100001,-1 -1.1900001,-1.95 -1.8100001,-2.91 -0.61,-0.96 -1.22,-1.92 -1.82,-2.86 -0.3,-0.48 -0.59,-0.95 -0.88,-1.48 -0.07,-0.13 -0.14,-0.28 -0.22,-0.45 -0.04,-0.07 -0.08,-0.23 -0.12,-0.34 l -0.04,-0.16 c -0.08,-0.25 -0.15,-0.49 -0.23,-0.73 -0.65,-2.03 -1.27,-3.95 -1.82,-5.7 -0.54,-1.75 -1.14,-3.73 -1.75,-5.85 -0.60000003,-2.16 -1.17000003,-4.5 -1.33000003,-7.02 -0.08,-1.25 -0.02,-2.57 0.27,-3.87 0.15,-0.65 0.34,-1.24 0.54,-1.81 0.19000003,-0.58 0.39000003,-1.16 0.58000003,-1.73 0.78,-2.3 1.54,-4.58 2.27,-6.74 1.47,-4.33 2.82,-8.21 3.84,-11.01 1.01,-2.79 1.7,-4.49 1.83,-4.45 0.13,0.04 -0.29,1.82 -1.07,4.69 -0.78,2.87 -1.92,6.81 -3.21,11.19 -0.65,2.19 -1.34,4.48 -2.03,6.8 -0.17,0.58 -0.35,1.16 -0.53,1.74 -0.18,0.59 -0.35,1.16 -0.46,1.7 -0.22,1.09 -0.24,2.22 -0.15,3.36 0.19,2.28 0.76,4.51 1.37,6.58 0.64,2.1 1.25,4.06 1.78,5.81 0.55,1.75 1.15,3.68 1.78,5.71 0.08,0.27 0.16,0.54 0.23,0.81 l 0.03,0.13 0.02,0.06 v 0.03 c 0.39,-0.08 -0.51,0.13 -0.37,0.1 l 0.1,-0.02 c 0.11,-0.02 0.35,-0.08 0.29,-0.06 v 0 c 0,0 0,0 0.01,0.04 0.03,0.08 0.08,0.18 0.14,0.29 0.22,0.43 0.51,0.91 0.79,1.37 0.58,0.95 1.17,1.91 1.76,2.88 0.5900001,0.97 1.1900001,2 1.7500001,2.98 0.56,0.96 1.18,1.9 1.82,2.82 0.64,0.92 1.31,1.81 1.99,2.67 0.34,0.43 0.68,0.85 1.02,1.26 0.17,0.2 0.34,0.4 0.51,0.6 0.16,0.18 0.37,0.41 0.43,0.44 0.1,0.06 0.3,0.16 0.5,0.2 0.2,0.06 0.42,0.09 0.64,0.1 0.44,0.03 0.88,-0.01 1.29,-0.12 0.83,-0.21 1.53,-0.7 2.06,-1.32 0.52,-0.62 0.9,-1.36 1.17,-2.07 0.27,-0.71 0.41,-1.41 0.47,-2.05 0.12,-1.3 -0.11,-2.36 -0.3,-3.06 -0.2,-0.71 -0.39,-1.08 -0.33,-1.12 z"
     id="path52" />
  <path
     class="cls-1"
     d="m 14.562432,166.8527 c 0.07,0 0.15,0.16 0.22,0.5 0.03,0.33 0.05,0.85 -0.13,1.45 -0.16,0.6 -0.47,1.29 -1,1.95 -0.52,0.66 -1.27,1.3 -2.22,1.69 -0.95,0.4 -2.0900001,0.51 -3.1700001,0.31 -1.06,-0.19 -2.18,-0.63 -3.04,-1.52 -0.84,-0.9 -1.22,-2.09 -1.31,-3.09 -0.11,-1.01 -0.03,-1.93 0,-2.64 0,-0.3 0,-0.73 -0.02,-1.16 -0.01,-0.43 -0.03,-0.87 -0.04,-1.33 -0.03,-0.92 -0.06,-1.9 -0.09,-2.9 -0.03,-1 -0.07,-2.03 -0.13,-3.03 -0.03,-0.51 -0.06,-0.98 -0.1,-1.49 -0.04,-0.53 -0.05,-1.03 -0.06,-1.52 0,-3.89 0.35,-6.95 0.62,-6.95 0.29,0 0.46,3.09 0.82,6.87 0.05,0.47 0.1,0.95 0.18,1.42 0.08,0.48 0.16,1.02 0.22,1.52 0.13,1.03 0.23,2.06 0.32,3.08 0.09,1.01 0.16,2 0.21,2.93 0.02,0.46 0.05,0.91 0.07,1.34 0.02,0.43 0.04,0.82 0.03,1.29 -0.03,0.82 -0.11,1.61 -0.04,2.39 0.05,0.78 0.27,1.48 0.71,2.02 0.45,0.53 1.19,0.92 1.99,1.12 0.79,0.21 1.5900001,0.21 2.3200001,0 1.48,-0.43 2.5,-1.64 2.97,-2.57 0.5,-0.95 0.5,-1.65 0.66,-1.67 z"
     id="path54" />
  <path
     class="cls-1"
     d="m 4.7524319,160.9627 c 0.01,-0.09 0.23,-0.13 0.62,-0.12 0.2,0 0.4,0.09 0.66,0.17 0.25,0.09 0.49,0.26 0.74,0.44 0.47,0.4 0.86,0.97 1.11,1.56 0.24,0.58 0.4,1.17 0.46,1.65 0.08,0.49 0.1,1.09 0.07,1.72 0,0.16 -0.02,0.32 -0.04,0.47 -0.02,0.21 -0.05,0.43 -0.07,0.65 l -0.06,0.39 c 0.02,0.09 -0.09,0.07 -0.14,0.1 l -0.19,0.05 -0.38,0.1 -0.09,0.02 h -0.05 c 0,0 -0.11,0.03 -0.11,0.03 -1.13,0.22 -2.05,0.32 -2.11,0.14 -0.06,-0.18 0.77,-0.61 1.82,-1.06 l 0.1,-0.04 0.05,-0.02 h 0.01 c 0,0 0.04,-0.04 0.04,-0.04 0.03,-0.01 0.02,-0.05 0,-0.09 0,-0.02 -0.01,-0.02 -0.02,-0.05 v -0.22 c -0.01,-0.14 -0.02,-0.29 -0.03,-0.43 -0.04,-0.57 -0.09,-1.11 -0.16,-1.53 -0.05,-0.43 -0.15,-0.92 -0.28,-1.41 -0.15,-0.49 -0.36,-0.95 -0.62,-1.32 -0.15,-0.16 -0.28,-0.34 -0.43,-0.46 -0.16,-0.11 -0.29,-0.26 -0.44,-0.32 -0.28,-0.15 -0.46,-0.29 -0.45,-0.38 z"
     id="path56" />
  <path
     class="cls-1"
     d="m 16.482432,168.6327 c -0.09,-0.05 -0.04,-0.29 0,-0.68 0.04,-0.38 0.09,-0.91 0.11,-1.51 0.02,-0.6 0.02,-1.27 0.02,-1.92 0,-0.33 -0.01,-0.65 -0.02,-0.95 0,-0.08 0,-0.15 0,-0.22 0,-0.07 0,-0.17 0,-0.14 v 0 c 0,0 0,0 0,0 0,0 0,0 0,0 l -0.09,-0.05 c -0.12,-0.07 -0.25,-0.14 -0.39,-0.22 -0.27,-0.13 -0.56,-0.28 -0.86,-0.41 -0.6,-0.26 -1.24,-0.47 -1.8,-0.52 -0.29,-0.03 -0.54,0 -0.77,0.06 -0.22,0.07 -0.41,0.17 -0.56,0.28 -0.3,0.23 -0.43,0.47 -0.53,0.44 -0.09,-0.01 -0.14,-0.34 0.12,-0.78 0.13,-0.22 0.35,-0.45 0.64,-0.64 0.3,-0.16 0.67,-0.3 1.05,-0.33 0.77,-0.09 1.58,0.07 2.28,0.3 0.35,0.12 0.69,0.26 1,0.39 0.15,0.07 0.3,0.15 0.43,0.22 0.23,0.12 0.45,0.23 0.65,0.34 0.05,0.04 0.13,0.05 0.16,0.11 v 0.21 c 0,0.14 0,0.28 0.01,0.43 0,0.1 0,0.2 0,0.31 0,0.08 0,0.16 0,0.24 -0.01,0.32 -0.03,0.65 -0.06,0.99 -0.06,0.68 -0.17,1.38 -0.32,2 -0.15,0.62 -0.35,1.18 -0.56,1.55 -0.2,0.38 -0.43,0.55 -0.5,0.51 z"
     id="path58" />
  <path
     class="cls-1"
     d="m 20.702432,157.9627 c -0.12,-0.15 0.34,-0.74 0.68,-1.6 l 0.13,-0.33 0.06,-0.17 c 0.02,-0.06 0,-0.04 0,-0.07 0,-0.02 0,-0.04 -0.03,-0.05 -0.02,-0.01 -0.01,0.02 -0.13,-0.12 -0.35,-0.4 -0.67,-0.77 -0.93,-1.08 -0.54,-0.62 -1.32,-1.55 -2.09,-2.17 -0.38,-0.31 -0.74,-0.54 -1.03,-0.68 -0.28,-0.14 -0.47,-0.18 -0.5,-0.26 -0.04,-0.09 0.2,-0.25 0.6,-0.26 0.4,-0.01 0.92,0.13 1.44,0.38 1.05,0.5 2.03,1.43 2.61,2.09 0.28,0.34 0.61,0.75 0.9,1.21 0.11,0.17 0.23,0.34 0.35,0.51 0.22,0.19 0.02,0.43 -0.06,0.65 -0.05,0.1 -0.12,0.24 -0.15,0.29 l -0.11,0.18 c -0.07,0.12 -0.15,0.23 -0.23,0.34 -0.63,0.87 -1.4,1.28 -1.51,1.12 z"
     id="path60" />
  <path
     class="cls-1"
     d="m 29.862432,108.5227 c 0.06,-0.03 0.22,0.08 0.45,0.31 0.11,0.11 0.25,0.25 0.39,0.42 0.17,0.14 0.36,0.3 0.57,0.48 0.85,0.68 2.22,1.36 3.93,1.47 0.84,0.09 1.74,0.06 2.66,-0.06 0.46,-0.05 0.92,-0.13 1.37,-0.23 0.23,-0.04 0.45,-0.1 0.68,-0.16 l 0.17,-0.04 0.07,-0.02 v 0 c 0,0 0.02,-0.02 0.02,-0.02 0,0 0,-0.02 0,-0.03 0,-0.02 -0.01,0.02 0.04,-0.13 0.08,-0.22 0.15,-0.44 0.23,-0.66 0.14,-0.44 0.28,-0.86 0.38,-1.27 0.21,-0.82 0.35,-1.6 0.36,-2.28 0.01,-0.67 -0.07,-1.4 -0.39,-2.01 -0.31,-0.61 -0.89,-1.12 -1.69,-1.47 -0.42,-0.13 -0.85,-0.32 -1.29,-0.38 -0.44,-0.07 -0.88,-0.12 -1.31,-0.07 -0.87,0.07 -1.71,0.42 -2.43,0.92 -1.45,1.02 -2.43,2.48 -3.08,3.52 -0.65,1.06 -1,1.76 -1.13,1.72 -0.13,-0.04 -0.04,-0.85 0.42,-2.07 0.47,-1.2 1.28,-2.9 2.92,-4.32 0.81,-0.7 1.89,-1.27 3.09,-1.46 0.6,-0.11 1.21,-0.09 1.8,-0.03 0.6,0.06 1.15,0.25 1.71,0.41 1.11,0.4 2.19,1.21 2.76,2.27 0.58,1.05 0.69,2.14 0.68,3.02 -0.02,0.9 -0.21,1.82 -0.48,2.76 -0.13,0.47 -0.29,0.93 -0.47,1.39 -0.09,0.23 -0.18,0.46 -0.27,0.69 l -0.22,0.54 -0.13,0.32 -0.07,0.16 c 0,0 -0.1,0.04 -0.15,0.06 l -0.67,0.18 -0.47,0.1 c -0.26,0.04 -0.51,0.1 -0.77,0.13 -0.51,0.07 -1.03,0.13 -1.54,0.15 -1.03,0.05 -2.05,0 -3.01,-0.2 -0.48,-0.07 -0.94,-0.24 -1.37,-0.37 -0.43,-0.18 -0.84,-0.34 -1.2,-0.56 -0.36,-0.23 -0.71,-0.41 -0.98,-0.68 -0.27,-0.25 -0.55,-0.46 -0.72,-0.73 -0.19,-0.25 -0.36,-0.47 -0.49,-0.67 -0.11,-0.22 -0.19,-0.41 -0.26,-0.57 -0.13,-0.32 -0.16,-0.5 -0.1,-0.53 z"
     id="path62" />
  <path
     class="cls-1"
     d="m 100.60693,100.2827 c 0,0.09 -0.999998,0.25 -2.839998,0.46 -0.92,0.1 -2.05,0.22 -3.35,0.35 -0.65,0.06 -1.36,0.13 -2.1,0.2 -0.4,0.03 -0.69,0.08 -1.06,0.18 -0.36,0.11 -0.74,0.23 -1.14,0.36 -1.58,0.53 -3.37,1.07 -5.33,1.45 -1.97,0.38 -4.09,0.64 -6.36,0.71 -2.28,0.06 -4.73,-0.13 -7.17,-0.93 -1.22,-0.4 -2.43,-0.94 -3.56,-1.75 l -0.42,-0.31 -0.4,-0.35 c -0.27,-0.22 -0.51,-0.5 -0.76,-0.769996 -0.25,-0.27 -0.44,-0.6 -0.65,-0.91 -0.17,-0.35 -0.37,-0.69 -0.47,-1.08 -0.14,-0.38 -0.17,-0.8 -0.22,-1.21 0,-0.38 0,-0.75 0.06,-1.15 0.1,-0.78 0.42,-1.63 0.98,-2.29 0.55,-0.67 1.24,-1.12 1.92,-1.47 0.68,-0.35 1.37,-0.57 2.06,-0.79 0.68,-0.2 1.37,-0.38 2.05,-0.52 0.67,-0.14 1.34,-0.28 2.01,-0.43 1.28,-0.29 2.57,-0.68 3.84,-1.14 2.55,-0.91 5.06,-2.1 7.68,-3.21 0.66,-0.27 1.32,-0.55 2.01,-0.8 0.67,-0.26 1.45,-0.48 2.14,-0.64 1.42,-0.34 2.8,-0.59 4.18,-0.84 2.75,-0.49 5.46,-0.94 8.069998,-1.51 1.3,-0.29 2.57,-0.61 3.77,-1 0.59,-0.21 1.18,-0.41 1.71,-0.66 l 0.91,-0.41 c 0.32,-0.15 0.64,-0.27 0.96,-0.4 2.57,-0.99 5.14,-1.54 7.63,-1.9 0.62,-0.09 1.24,-0.16 1.86,-0.23 0.31,-0.03 0.62,-0.05 0.93,-0.08 0.37,-0.02 0.61,-0.01 0.93,-0.02 1.18,-0.02 2.34,-0.04 3.47,-0.06 2.26,-0.07 4.65,0.01 7.16,0.04 1.26,0.06 2.55,0.12 3.86,0.19 1.31,0.07 2.66,0.24 4.02,0.35 1.37,0.21 2.76,0.36 4.16,0.7 0.35,0.08 0.71,0.14 1.06,0.23 0.35,0.1 0.7,0.2 1.06,0.3 0.71,0.18 1.39,0.45 2.09,0.68 1.36,0.51 2.61,0.98 3.9,1.25 l 0.98,0.16 c 0.33,0.06 0.68,0.05 1.01,0.09 0.34,0.02 0.68,0.05 1.03,0.06 h 1.06 c 0,0 1.06,-0.02 1.06,-0.02 l 1.08,-0.07 c 0.72,-0.06 1.44,-0.09 2.17,-0.16 1.46,-0.16 2.92,-0.32 4.39,-0.49 2.97,-0.36 5.95,-0.64 8.91,-0.91 5.92,-0.52 11.77,-0.9 17.35,-1.23 11.15,-0.64 21.18,-1.01 28.43,-1.2 3.62,-0.09 6.55,-0.13 8.57,-0.13 2.02,0 3.14,0.05 3.14,0.15 0,0.09 -1.11,0.23 -3.12,0.4 -2.01,0.17 -4.93,0.39 -8.55,0.64 -7.23,0.51 -17.24,1.17 -28.35,2.06 -5.55,0.45 -11.38,0.94 -17.26,1.55 -2.94,0.31 -5.89,0.64 -8.82,1.04 -1.49,0.19 -2.97,0.37 -4.45,0.55 -0.74,0.08 -1.5,0.13 -2.25,0.2 l -1.12,0.09 -1.14,0.03 -1.14,0.03 c -0.38,0 -0.77,-0.04 -1.16,-0.06 -0.39,-0.03 -0.77,-0.02 -1.16,-0.09 l -1.16,-0.18 c -1.55,-0.3 -2.99,-0.84 -4.29,-1.31 -2.57,-0.92 -5.18,-1.38 -7.79,-1.71 -1.32,-0.1 -2.6,-0.25 -3.88,-0.32 -1.28,-0.06 -2.54,-0.11 -3.76,-0.17 -2.47,-0.01 -4.82,-0.09 -7.04,-0.02 -1.11,0.02 -2.25,0.03 -3.41,0.05 -1.11,-0.01 -2.26,0.14 -3.44,0.3 -2.34,0.33 -4.76,0.84 -7.05,1.71 -0.29,0.11 -0.57,0.22 -0.85,0.34 l -0.89,0.39 c -0.66,0.3 -1.33,0.53 -2,0.76 -1.34,0.42 -2.68,0.74 -4.04,1.03 -2.709998,0.56 -5.449998,0.99 -8.189998,1.44 -1.36,0.23 -2.73,0.46 -4.04,0.76 -0.67,0.16 -1.25,0.31 -1.89,0.54 -0.63,0.22 -1.27,0.47 -1.91,0.73 -2.56,1.04 -5.15,2.21 -7.85,3.13 -1.35,0.46 -2.73,0.86 -4.13,1.14 -0.67,0.13 -1.35,0.26 -2.02,0.39 -0.66,0.13 -1.29,0.28 -1.91,0.45 -1.22,0.34 -2.39,0.81 -3,1.52 -0.31,0.35 -0.49,0.78 -0.58,1.29 -0.05,0.25 -0.05,0.53 -0.06,0.81 0.03,0.23 0.03,0.47 0.12,0.7 0.24,0.95 1.05,1.82 1.93,2.5 0.91,0.679996 1.96,1.189996 3.04,1.579996 2.17,0.78 4.44,1.03 6.59,1.05 2.18,0 4.25,-0.18 6.16,-0.47 1.91,-0.29 3.65,-0.73 5.25,-1.18 0.4,-0.11 0.8,-0.22 1.2,-0.32 0.4,-0.1 0.87,-0.15 1.22,-0.15 0.75,-0.03 1.46,-0.05 2.12,-0.08 1.32,-0.04 2.45,-0.07 3.38,-0.09 1.85,-0.03 2.869998,0 2.879998,0.09 z"
     id="path64" />
  <path
     class="cls-1"
     d="m 99.306932,126.5327 c 0,0 -0.37,0.83 -1.57,1.89 -1.18,1.07 -3.1,2.34 -5.54,3.78 -2.42,1.46 -5.43,3.02 -8.5,5.11 -3.13,2.11 -6.58,4.43 -10.22,6.89 -0.91,0.61 -1.84,1.23 -2.78,1.86 -0.94,0.62 -1.85,1.25 -2.77,1.93 -1.85,1.34 -3.72,2.74 -5.61,4.15 -1.89,1.41 -3.8,2.83 -5.74,4.22 -1.95,1.39 -3.89,2.77 -5.99,4.01 -1.09,0.61 -2.23,1.15 -3.52,1.43 -0.64,0.15 -1.32,0.2 -2.01,0.16 -0.69,-0.04 -1.4,-0.25 -2.03,-0.57 -1.29,-0.66 -2.13,-1.79 -2.71,-2.88 -0.62,-1.16 -0.88,-2.53 -0.75,-3.78 0.09,-1.27 0.51,-2.42 1.01,-3.47 0.51,-1.05 1.14,-1.98 1.8,-2.84 0.32,-0.43 0.71,-0.84 1.08,-1.25 0.37,-0.37 0.74,-0.73 1.1,-1.08 0.73,-0.69 1.45,-1.36 2.16,-2 2.82,-2.57 6.06,-5.35 9.54,-8.3 3.49,-2.94 7.23,-6.04 11.13,-9.14 1.94,-1.55 3.96,-3.1 5.95,-4.61 1.99,-1.53 3.95,-3.1 5.89,-4.69 3.87,-3.18 7.61,-6.44 11.23,-9.49 1.81,-1.54 3.62,-2.96 5.27,-4.42 1.66,-1.46 3.24,-2.9 4.729998,-4.289996 2.99,-2.77 5.64,-5.29 7.87,-7.4 2.23,-2.1 4.04,-3.8 5.29,-4.98 1.26,-1.16 1.97,-1.79 2.02,-1.74 0.05,0.05 -0.57,0.77 -1.73,2.03 -1.16,1.26 -2.88,3.06 -5.02,5.26 -2.15,2.2 -4.72,4.81 -7.64,7.66 -1.459998,1.429996 -3.009998,2.909996 -4.649998,4.429996 -1.65,1.53 -3.43,2.99 -5.19,4.55 -3.55,3.11 -7.24,6.44 -11.09,9.7 -1.92,1.63 -3.88,3.24 -5.87,4.81 -2.01,1.56 -3.95,3.09 -5.88,4.66 -3.85,3.12 -7.55,6.25 -11.01,9.2 -3.46,2.96 -6.67,5.75 -9.46,8.28 -0.7,0.63 -1.4,1.29 -2.12,1.96 -0.35,0.34 -0.7,0.68 -1.05,1.03 -0.31,0.34 -0.64,0.68 -0.94,1.08 -1.2,1.53 -2.24,3.34 -2.42,5.23 -0.09,0.94 0.08,1.85 0.51,2.7 0.46,0.89 1.07,1.67 1.86,2.07 0.77,0.42 1.73,0.48 2.73,0.26 1,-0.2 2.02,-0.65 2.99,-1.19 1.98,-1.14 3.94,-2.49 5.87,-3.84 1.94,-1.36 3.86,-2.75 5.78,-4.12 1.91,-1.38 3.8,-2.75 5.7,-4.07 0.94,-0.66 1.91,-1.31 2.87,-1.91 0.95,-0.61 1.88,-1.21 2.81,-1.8 3.7,-2.36 7.2,-4.6 10.38,-6.63 1.6,-1.04 3.19,-1.9 4.66,-2.69 1.47,-0.78 2.84,-1.5 4.09,-2.16 2.48,-1.33 4.43,-2.47 5.67,-3.41 1.25,-0.92 1.76,-1.62 1.83,-1.56 z"
     id="path66" />
  <path
     class="cls-1"
     d="m 108.63693,141.1427 c 0.06,0.13 -1.49,1.08 -3.96,2.78 -2.48,1.71 -5.909998,4.07 -9.749998,6.72 -1.93,1.33 -3.96,2.72 -6.03,4.14 -1.04,0.71 -2.09,1.41 -3.16,2.11 -1.07,0.71 -2.2,1.36 -3.3,1.97 -4.41,2.44 -8.72,4.68 -12.29,6.56 -1.78,0.94 -3.78,2 -5.92,3.13 -1.06,0.57 -2.16,1.17 -3.24,1.79 -1.07,0.62 -2.17,1.34 -3.31,2.03 -2.27,1.39 -4.68,2.76 -7.31,3.7 -1.32,0.45 -2.69,0.81 -4.14,0.83 -0.72,0 -1.45,-0.06 -2.16,-0.28 -0.71,-0.22 -1.37,-0.58 -1.93,-1.04 -0.56,-0.46 -0.99,-1.03 -1.34,-1.6 -0.33,-0.59 -0.6,-1.18 -0.78,-1.79 -0.21,-0.61 -0.29,-1.24 -0.35,-1.86 -0.01,-0.62 0,-1.23 0.14,-1.81 0.23,-1.16 0.74,-2.16 1.3,-2.99 0.58,-0.83 1.22,-1.51 1.84,-2.07 1.25,-1.13 2.41,-1.82 3.22,-2.25 0.82,-0.42 1.31,-0.58 1.34,-0.52 0.03,0.06 -0.39,0.34 -1.12,0.87 -0.73,0.53 -1.78,1.31 -2.88,2.47 -1.08,1.14 -2.26,2.72 -2.57,4.7 -0.09,0.49 -0.07,1 -0.04,1.51 0.07,0.51 0.16,1.03 0.36,1.54 0.17,0.51 0.44,1.01 0.72,1.48 0.31,0.45 0.65,0.87 1.08,1.2 0.43,0.32 0.91,0.56 1.44,0.71 0.53,0.14 1.11,0.18 1.69,0.16 1.18,-0.05 2.4,-0.4 3.6,-0.85 2.39,-0.93 4.69,-2.3 6.89,-3.71 1.11,-0.7 2.18,-1.44 3.31,-2.12 1.12,-0.67 2.21,-1.28 3.28,-1.87 2.13,-1.17 4.14,-2.24 5.93,-3.18 3.58,-1.86 7.89,-4.09 12.34,-6.4 1.11,-0.59 2.18,-1.18 3.24,-1.84 1.07,-0.66 2.13,-1.34 3.19,-2.01 2.11,-1.35 4.19,-2.67 6.16,-3.93 3.95,-2.51 7.509998,-4.7 10.129998,-6.19 2.61,-1.5 4.32,-2.23 4.38,-2.11 z"
     id="path68" />
  <path
     class="cls-1"
     d="m 122.28693,151.1427 c 0.05,0.14 -1.53,0.78 -4.06,1.9 -0.63,0.28 -1.32,0.6 -2.05,0.95 -0.73,0.36 -1.5,0.74 -2.24,1.23 -1.52,1 -3.16,2.22 -4.89,3.5 -3.48,2.57 -7.3,5.46 -11.269998,8 -0.51,0.31 -1,0.62 -1.52,0.91 -0.52,0.29 -1.04,0.58 -1.52,0.83 -0.99,0.53 -1.95,1.07 -2.89,1.6 -1.88,1.07 -3.67,2.09 -5.29,3.01 -3.25,1.84 -7.3,4.14 -11.66,6.41 -2.17,1.13 -4.47,2.26 -6.8,3.17 -2.33,0.93 -4.72,1.74 -7.18,1.97 -1.23,0.09 -2.49,0 -3.64,-0.43 -1.15,-0.43 -2.1,-1.25 -2.71,-2.16 -0.14,-0.23 -0.28,-0.47 -0.41,-0.7 -0.12,-0.23 -0.21,-0.47 -0.31,-0.71 l -0.14,-0.35 -0.1,-0.36 c -0.06,-0.24 -0.15,-0.47 -0.18,-0.7 -0.19,-0.94 -0.16,-1.83 -0.03,-2.62 0.29,-1.59 1,-2.68 1.53,-3.36 0.55,-0.67 0.95,-0.95 0.99,-0.9 0.05,0.05 -0.24,0.42 -0.65,1.13 -0.4,0.72 -0.94,1.81 -1.08,3.23 -0.05,0.71 -0.03,1.49 0.19,2.29 0.04,0.2 0.13,0.4 0.2,0.6 l 0.11,0.31 0.15,0.3 c 0.1,0.2 0.19,0.41 0.31,0.6 0.12,0.18 0.25,0.37 0.38,0.56 0.55,0.72 1.29,1.3 2.21,1.6 0.91,0.3 1.97,0.34 3.06,0.21 2.18,-0.29 4.44,-1.13 6.67,-2.1 2.25,-0.96 4.42,-2.1 6.56,-3.27 4.27,-2.34 8.29,-4.69 11.54,-6.53 1.62,-0.92 3.42,-1.93 5.33,-2.98 0.96,-0.52 1.94,-1.06 2.96,-1.58 0.52,-0.26 1.01,-0.52 1.5,-0.78 0.49,-0.26 0.98,-0.56 1.47,-0.84 3.919998,-2.37 7.829998,-5.15 11.419998,-7.57 1.8,-1.21 3.5,-2.36 5.14,-3.3 0.84,-0.48 1.67,-0.83 2.44,-1.14 0.77,-0.31 1.49,-0.57 2.15,-0.8 2.64,-0.91 4.31,-1.29 4.35,-1.16 z"
     id="path70" />
  <path
     class="cls-1"
     d="m 241.85693,124.1527 c 0,0.19 -3.53,0.29 -9.3,0.33 -5.77,0.11 -13.78,0.12 -22.73,0.51 -2.24,0.12 -4.53,0.24 -6.87,0.37 -2.33,0.19 -4.7,0.32 -7.08,0.6 -4.75,0.49 -9.58,1.14 -14.11,2.4 -0.56,0.16 -1.13,0.32 -1.69,0.48 -0.55,0.18 -1.09,0.39 -1.64,0.58 -0.27,0.1 -0.55,0.19 -0.81,0.29 l -0.78,0.34 c -0.52,0.23 -1.05,0.43 -1.54,0.71 -2.02,0.99 -3.85,2.23 -5.63,3.58 -3.54,2.68 -6.78,5.47 -9.83,7.9 -3.04,2.44 -6.54,5.13 -10.55,7.65 -2.01,1.25 -4.13,2.48 -6.39,3.58 -2.21,1.09 -4.46,2.2 -6.74,3.32 -9.12,4.48 -18.67,9.14 -27.37,13.35 -4.35,2.09 -8.48,4.09 -12.229998,5.89 -3.77,1.81 -7.21,3.36 -10.28,4.29 -1.53,0.45 -3.01,0.75 -4.35,0.59 -0.67,-0.06 -1.27,-0.29 -1.78,-0.56 -0.51,-0.29 -0.89,-0.66 -1.19,-1.02 -0.56,-0.75 -0.76,-1.45 -0.86,-1.91 -0.09,-0.47 -0.06,-0.72 -0.01,-0.72 0.05,0 0.11,0.23 0.28,0.65 0.17,0.41 0.45,1.03 1.01,1.63 0.29,0.28 0.64,0.57 1.08,0.78 0.45,0.19 0.96,0.35 1.54,0.36 1.15,0.07 2.5,-0.28 3.95,-0.79 2.9,-1.04 6.24,-2.71 9.92,-4.64 1.84,-0.96 3.76,-2 5.819998,-3.03 2.02,-1.04 4.11,-2.13 6.26,-3.23 8.59,-4.43 18.06,-9.27 27.11,-13.87 2.26,-1.15 4.49,-2.28 6.68,-3.39 2.15,-1.07 4.18,-2.28 6.12,-3.5 3.86,-2.47 7.27,-5.11 10.28,-7.52 3.02,-2.4 6.27,-5.18 9.94,-7.91 1.83,-1.36 3.86,-2.72 6.08,-3.77 0.54,-0.29 1.12,-0.5 1.68,-0.75 l 0.85,-0.36 c 0.29,-0.11 0.58,-0.2 0.87,-0.31 0.58,-0.2 1.17,-0.41 1.76,-0.59 0.59,-0.16 1.19,-0.32 1.79,-0.49 4.79,-1.25 9.73,-1.83 14.56,-2.22 2.42,-0.23 4.82,-0.31 7.17,-0.45 2.36,-0.08 4.67,-0.15 6.92,-0.19 9.01,-0.15 17.03,0.14 22.8,0.36 5.77,0.29 9.29,0.55 9.28,0.74 z"
     id="path72" />
  <path
     class="cls-1"
     d="m 68.136932,92.732704 c 0.15,-0.03 0.31,0.19 0.57,0.47 0.25,0.29 0.62,0.63 1.08,0.96 0.23,0.16 0.49,0.32 0.76,0.47 0.06,0.03 0.15,0.08 0.19,0.1 0.02,0 0.03,0 0.04,0 0.02,0 0.04,-0.02 0.06,-0.04 0.01,0 -0.01,0 0.03,-0.02 l 0.12,-0.04 0.23,-0.08 c 0.15,-0.05 0.3,-0.1 0.45,-0.14 0.28,-0.11 0.55,-0.21 0.8,-0.29 0.48,-0.18 1.08,-0.4 1.67,-0.67 0.57,-0.29 1.15,-0.62 1.57,-1.01 0.43,-0.39 0.7,-0.83 0.85,-1.2 0.16,-0.37 0.22,-0.64 0.36,-0.68 0.13,-0.04 0.36,0.23 0.44,0.76 0.08,0.52 -0.06,1.31 -0.5,2.01 -0.43,0.71 -1.09,1.29 -1.76,1.75 -0.67,0.45 -1.36,0.76 -1.92,0.97 -0.28,0.09 -0.59,0.19 -0.92,0.29 -0.36,0.07 -0.73,0.15 -1.12,0.23 -0.16,0.04 -0.32,0.07 -0.47,0.09 l -0.12,0.02 c 0,0 -0.07,-0.04 -0.11,-0.06 l -0.21,-0.13 c -0.14,-0.09 -0.28,-0.18 -0.4,-0.27 -0.11,-0.08 -0.16,-0.13 -0.24,-0.2 -0.29,-0.25 -0.56,-0.53 -0.79,-0.82 -0.46,-0.57 -0.73,-1.2 -0.8,-1.67 -0.07,-0.48 0.04,-0.77 0.16,-0.79 z"
     id="path74" />
  <path
     class="cls-1"
     d="m 41.736932,154.6827 c 0.14,-0.04 0.38,0.84 1.14,1.93 0.37,0.55 0.86,1.14 1.47,1.71 0.3,0.29 0.63,0.56 0.98,0.82 0.18,0.13 0.36,0.26 0.54,0.38 l 0.14,0.09 0.07,0.04 c 0,0 0.01,0 0.02,0 0.02,0 0.03,0.01 0.05,0.02 l 0.04,-0.04 0.27,-0.18 0.59,-0.41 c 0.39,-0.28 0.76,-0.56 1.11,-0.85 0.7,-0.58 1.3,-1.19 1.71,-1.76 0.3,-0.41 0.57,-0.91 0.64,-1.41 0.07,-0.5 -0.09,-1.01 -0.51,-1.48 -0.41,-0.47 -0.96,-0.79 -1.61,-0.9 -0.64,-0.12 -1.34,-0.05 -2,0.1 -1.32,0.3 -2.47,0.88 -3.29,1.29 -0.82,0.42 -1.32,0.71 -1.37,0.63 -0.06,-0.07 0.34,-0.51 1.09,-1.08 0.76,-0.57 1.87,-1.3 3.32,-1.77 0.72,-0.23 1.54,-0.39 2.41,-0.29 0.87,0.08 1.76,0.52 2.36,1.16 0.3,0.32 0.58,0.69 0.74,1.13 0.17,0.44 0.22,0.91 0.18,1.35 -0.1,0.88 -0.5,1.54 -0.86,2.06 -0.52,0.71 -1.21,1.38 -2,1.99 -0.39,0.3 -0.81,0.59 -1.24,0.87 -0.21,0.14 -0.43,0.27 -0.65,0.4 l -0.37,0.21 -0.6,0.32 c -0.19,-0.11 -0.37,-0.22 -0.55,-0.34 l -0.13,-0.09 -0.08,-0.06 -0.15,-0.11 c -0.2,-0.15 -0.38,-0.3 -0.57,-0.46 -0.36,-0.32 -0.7,-0.65 -0.99,-0.99 -0.6,-0.68 -1.07,-1.39 -1.37,-2.03 -0.64,-1.29 -0.64,-2.26 -0.55,-2.27 z"
     id="path76" />
  <path
     class="cls-1"
     d="m 41.736932,169.2027 c 0.15,-0.02 0.25,1.01 0.87,2.33 0.32,0.65 0.8,1.36 1.46,1.97 0.34,0.3 0.7,0.59 1.1,0.84 0.2,0.12 0.41,0.24 0.63,0.34 0.11,0.05 0.22,0.1 0.32,0.14 l 0.07,0.03 h 0.01 c 0,0 0.02,0 0.03,0 l 0.02,-0.02 c 0,0 0,0 0.02,-0.01 l 0.09,-0.04 0.34,-0.17 c 0.23,-0.12 0.45,-0.24 0.67,-0.36 0.44,-0.25 0.87,-0.52 1.26,-0.79 0.79,-0.55 1.48,-1.15 1.94,-1.73 0.34,-0.43 0.66,-0.96 0.74,-1.53 0.1,-0.56 -0.08,-1.21 -0.47,-1.78 -0.19,-0.27 -0.42,-0.51 -0.71,-0.69 -0.28,-0.18 -0.61,-0.3 -0.96,-0.37 -0.71,-0.15 -1.49,-0.09 -2.22,0.05 -1.47,0.28 -2.77,0.82 -3.69,1.21 -0.93,0.4 -1.49,0.67 -1.54,0.59 -0.05,-0.08 0.42,-0.51 1.3,-1.06 0.87,-0.54 2.14,-1.25 3.73,-1.68 0.79,-0.21 1.68,-0.35 2.62,-0.22 0.47,0.07 0.94,0.21 1.38,0.46 0.44,0.25 0.81,0.6 1.11,0.99 0.3,0.39 0.5,0.81 0.65,1.27 0.14,0.46 0.17,0.96 0.12,1.42 -0.11,0.94 -0.57,1.66 -1,2.21 -0.59,0.74 -1.39,1.4 -2.28,1.97 -0.45,0.29 -0.92,0.56 -1.4,0.8 -0.24,0.12 -0.49,0.24 -0.74,0.35 l -0.38,0.17 -0.25,0.11 -0.34,0.13 -0.34,-0.12 -0.17,-0.07 -0.11,-0.05 c -0.13,-0.06 -0.26,-0.13 -0.38,-0.2 -0.25,-0.14 -0.48,-0.29 -0.7,-0.44 -0.45,-0.32 -0.84,-0.69 -1.19,-1.06 -0.69,-0.77 -1.14,-1.63 -1.4,-2.39 -0.48,-1.54 -0.32,-2.6 -0.23,-2.59 z"
     id="path78" />
  <path
     class="cls-1"
     d="m 55.356932,176.1327 c 0.15,0 0.19,1.05 0.79,2.46 0.29,0.71 0.73,1.49 1.33,2.24 0.3,0.38 0.63,0.74 1,1.1 0.19,0.17 0.38,0.34 0.57,0.51 l 0.28,0.22 c 0,0 0.07,0.05 0.08,0.05 0.03,-0.02 0,-0.01 0.11,-0.05 l 0.39,-0.17 c 0.26,-0.12 0.52,-0.24 0.78,-0.37 0.51,-0.26 1.01,-0.53 1.47,-0.81 0.93,-0.57 1.75,-1.19 2.32,-1.82 0.41,-0.44 0.8,-1 0.95,-1.62 0.17,-0.61 0.06,-1.32 -0.32,-1.98 -0.34,-0.66 -0.95,-1.11 -1.69,-1.34 -0.75,-0.21 -1.58,-0.21 -2.37,-0.11 -1.59,0.22 -3.01,0.74 -4.02,1.13 -1.01,0.39 -1.62,0.67 -1.67,0.58 -0.05,-0.08 0.48,-0.51 1.45,-1.06 0.97,-0.54 2.36,-1.23 4.08,-1.6 0.86,-0.17 1.83,-0.26 2.82,-0.03 0.99,0.22 1.97,0.89 2.48,1.79 0.54,0.84 0.79,1.97 0.54,2.93 -0.22,0.96 -0.75,1.69 -1.24,2.23 -0.7,0.77 -1.63,1.45 -2.66,2.03 -0.51,0.29 -1.05,0.56 -1.61,0.81 -0.28,0.12 -0.56,0.24 -0.84,0.35 l -0.43,0.16 c -0.18,0.07 -0.48,0.17 -0.72,0.25 -0.21,-0.15 -0.4,-0.29 -0.57,-0.43 -0.15,-0.12 -0.23,-0.2 -0.34,-0.3 -0.21,-0.19 -0.41,-0.4 -0.6,-0.6 -0.37,-0.42 -0.71,-0.85 -1.01,-1.28 -0.59,-0.87 -0.98,-1.78 -1.2,-2.57 -0.45,-1.6 -0.24,-2.69 -0.15,-2.68 z"
     id="path80" />
  <path
     class="cls-1"
     d="m 79.416932,175.9327 c 0.13,-0.06 0.46,0.48 1.05,1.17 0.29,0.35 0.64,0.73 1.04,1.1 0.2,0.18 0.41,0.37 0.64,0.54 0.11,0.08 0.24,0.18 0.33,0.24 0.02,0 0.04,0.01 0.05,0 l 0.03,-0.03 c 0,0 0,0 0,0 l 0.07,-0.05 0.14,-0.09 c 0.19,-0.13 0.38,-0.25 0.56,-0.38 0.36,-0.25 0.69,-0.49 0.97,-0.72 0.49,-0.39 1.13,-0.91 1.53,-1.51 0.21,-0.3 0.3,-0.59 0.27,-0.83 0,-0.1 -0.11,-0.3 -0.17,-0.47 -0.09,-0.15 -0.17,-0.31 -0.29,-0.43 -0.42,-0.52 -1.1,-0.65 -1.61,-0.65 -0.51,0 -0.85,0.07 -0.89,-0.01 -0.04,-0.08 0.23,-0.33 0.8,-0.51 0.28,-0.09 0.65,-0.15 1.08,-0.1 0.42,0.05 0.9,0.24 1.29,0.58 0.2,0.16 0.36,0.37 0.52,0.58 0.13,0.23 0.27,0.41 0.37,0.74 0.18,0.65 -0.03,1.29 -0.29,1.73 -0.53,0.92 -1.22,1.49 -1.78,1.94 -0.32,0.25 -0.69,0.51 -1.09,0.75 -0.2,0.12 -0.41,0.25 -0.62,0.37 -0.13,0.07 -0.26,0.14 -0.39,0.21 -0.2,0.1 -0.4,0.21 -0.6,0.31 -0.23,-0.16 -0.46,-0.33 -0.68,-0.51 -0.15,-0.13 -0.25,-0.22 -0.37,-0.34 -0.23,-0.23 -0.44,-0.46 -0.63,-0.7 -0.38,-0.47 -0.69,-0.95 -0.91,-1.39 -0.45,-0.87 -0.55,-1.53 -0.43,-1.57 z"
     id="path82" />
  <path
     class="cls-1"
     d="m 66.172432,89.222704 c -0.1,-0.56 3.89,-1.73 6.13,-2.12 2.24,-0.4 6.79,-0.74 6.88,-0.18 0.1,0.56 -4.29,1.8 -6.53,2.19 -2.24,0.4 -6.39,0.67 -6.49,0.11 z"
     id="path84" />
  <path
     class="cls-1"
     d="m 17.252432,292.2227 c -0.19,-0.02 -0.21,-2.38 -0.32,-6.26 -0.1,-3.89 -0.24,-9.28 -0.39,-15.31 -0.32,-12.09 -0.71,-26.78 -0.98,-37.21 -0.15,-5.21 -0.27,-11.73 -0.58,-18.52 -0.05,-0.84 -0.07,-1.71 -0.14,-2.54 -0.07,-0.84 -0.12,-1.67 -0.22,-2.55 -0.18,-1.74 -0.33,-3.47 -0.47,-5.2 -0.29,-3.45 -0.54,-6.86 -0.76,-10.11 -0.44,-6.49 -0.77,-12.34 -0.95,-16.57 -0.18,-4.23 -0.2,-6.83 -0.01,-6.85 0.19,-0.01 0.57,2.56 1.07,6.76 0.5,4.2 1.13,10.02 1.82,16.49 0.35,3.23 0.72,6.62 1.09,10.06 0.19,1.71 0.39,3.44 0.6,5.15 0.11,0.84 0.19,1.74 0.28,2.62 0.1,0.89 0.13,1.74 0.2,2.6 0.45,6.86 0.65,13.37 0.8,18.6 0.28,10.45 0.37,25.16 0.19,37.27 -0.1,6.05 -0.25,11.45 -0.48,15.34 -0.22,3.89 -0.56,6.26 -0.75,6.24 z"
     id="path86" />
  <path
     class="cls-1"
     d="m 115.91243,176.6427 c -0.02,0.23 -2.71,-0.05 -7.06,0.02 -0.54,0.03 -1.11,0.04 -1.7,0.07 -0.59,0.06 -1.2,0.08 -1.83,0.17 -1.26,0.14 -2.58,0.41 -3.87,0.88 -0.65,0.23 -1.25,0.56 -1.809998,0.94 -0.54,0.4 -1,0.89 -1.32,1.46 -0.09,0.14 -0.15,0.29 -0.22,0.45 -0.02,0.07 -0.09,0.18 -0.08,0.21 0,0.04 0,0.08 -0.01,0.11 0,0.17 0,0.32 0,0.51 l 0.03,0.57 c 0.08,0.79 0.18,1.61 0.31,2.45 0.52,3.34 1.21,6.89 1.869998,10.49 0.67,3.61 1.35,7.28 1.97,10.91 1.25,7.25 2.29,14.32 2.89,20.24 0.3,2.96 0.58,6.29 0.72,9.87 0.05,1.8 0.13,3.64 0.03,5.55 -0.04,0.96 -0.09,1.92 -0.13,2.89 0,0.49 -0.07,0.97 -0.13,1.46 -0.06,0.49 -0.11,0.97 -0.17,1.46 -0.4,3.92 -1.23,7.84 -2.11,11.69 -0.96,3.83 -2,7.58 -3.18,11.09 -2.289998,7.04 -4.799998,13.2 -6.759998,17.57 -1.96,4.38 -3.38,6.97 -3.55,6.89 -0.17,-0.08 0.91,-2.82 2.56,-7.29 1.66,-4.48 3.87,-10.7 5.9,-17.74 1.05,-3.51 1.959998,-7.24 2.819998,-11.02 0.77,-3.8 1.49,-7.65 1.81,-11.44 0.05,-0.47 0.09,-0.94 0.14,-1.42 0.05,-0.47 0.1,-0.94 0.1,-1.4 0.03,-0.93 0.06,-1.86 0.08,-2.77 0.07,-1.83 -0.04,-3.65 -0.1,-5.4 -0.17,-3.51 -0.46,-6.79 -0.76,-9.71 -0.59,-5.84 -1.54,-12.86 -2.649998,-20.11 -0.57,-3.62 -1.15,-7.31 -1.72,-10.93 -0.57,-3.63 -1.15,-7.19 -1.56,-10.62 -0.1,-0.86 -0.18,-1.72 -0.23,-2.58 v -0.67 c -0.01,-0.23 0,-0.48 0.02,-0.72 0.03,-0.16 0.07,-0.33 0.11,-0.49 0.04,-0.16 0.1,-0.23 0.15,-0.35 0.1,-0.22 0.2,-0.43 0.33,-0.62 0.49,-0.8 1.17,-1.46 1.89,-1.93 0.73,-0.45 1.479998,-0.81 2.229998,-1.03 1.49,-0.47 2.93,-0.67 4.25,-0.74 0.66,-0.06 1.3,-0.04 1.91,-0.06 0.61,0 1.19,0.03 1.75,0.05 2.22,0.12 3.99,0.35 5.2,0.57 1.21,0.22 1.87,0.38 1.85,0.47 z"
     id="path88" />
  <path
     class="cls-1"
     d="m 221.74243,191.9827 c 0.03,0.18 -2.37,0.76 -6.35,1.51 -4,0.63 -9.59,1.38 -15.89,1.67 -6.3,0.34 -13.3,0.4 -20.07,0.08 -6.77,-0.3 -13.31,-0.84 -18.71,-1.51 -5.4,-0.67 -12.13,-1.67 -19.12,-3.19 -1.75,-0.36 -3.51,-0.8 -5.27,-1.24 -0.88,-0.21 -1.76,-0.48 -2.64,-0.72 -0.87,-0.25 -1.74,-0.5 -2.6,-0.75 -3.4,-1.04 -6.82,-1.91 -10.09,-2.68 -6.54,-1.54 -12.51,-2.58 -16.83,-3.31 -4.319998,-0.73 -6.989998,-1.12 -6.969998,-1.31 0.02,-0.19 2.73,-0.15 7.109998,0.26 4.38,0.41 10.44,1.17 17.1,2.48 3.33,0.65 6.82,1.43 10.31,2.39 0.86,0.23 1.73,0.45 2.6,0.68 0.86,0.22 1.72,0.46 2.59,0.64 1.74,0.39 3.47,0.79 5.21,1.11 6.91,1.36 13.59,2.28 18.93,2.94 5.35,0.67 11.82,1.28 18.51,1.71 6.69,0.45 13.62,0.59 19.87,0.5 6.25,-0.04 11.81,-0.49 15.82,-0.79 3.99,-0.42 6.45,-0.65 6.49,-0.45 z"
     id="path90" />
  <metadata
     id="metadata1222">
    <rdf:RDF>
      <cc:Work
         rdf:about="">
        <dc:title>Knee Pain</dc:title>
      </cc:Work>
    </rdf:RDF>
  </metadata>
</svg>
