<?xml version="1.0" encoding="UTF-8" standalone="no"?>
<svg
   width="1200"
   height="900"
   viewBox="0 0 317.49999 238.125"
   version="1.1"
   id="svg8"
   xmlns="http://www.w3.org/2000/svg"
   xmlns:svg="http://www.w3.org/2000/svg"
   xmlns:rdf="http://www.w3.org/1999/02/22-rdf-syntax-ns#"
   xmlns:cc="http://creativecommons.org/ns#"
   xmlns:dc="http://purl.org/dc/elements/1.1/">
  <defs
     id="defs2" />
  <metadata
     id="metadata5">
    <rdf:RDF>
      <cc:Work
         rdf:about="">
        <dc:format>image/svg+xml</dc:format>
        <dc:type
           rdf:resource="http://purl.org/dc/dcmitype/StillImage" />
      </cc:Work>
    </rdf:RDF>
  </metadata>
  <rect
     style="opacity:1;fill:#192847;stroke-width:86.8532"
     id="rect856"
     width="317.5"
     height="238.125"
     x="0"
     y="0" />
  <g
     id="layer1"
     transform="matrix(1.1597096,0,0,1.1597096,-28.293967,70.703131)">
    <rect
       style="fill:#ea1a2d;fill-opacity:1;stroke:none;stroke-width:1.32292;stroke-linecap:round"
       id="rect2675"
       width="87.705933"
       height="21.772297"
       x="169.56551"
       y="30.81319" />
    <path
       id="rect855"
       style="fill:#ffffff;stroke-width:1.32292;stroke-linecap:round"
       d="m 198.38278,33.752014 c -4.56001,0 -7.62279,3.408529 -7.62279,7.945252 0,4.536722 3.06278,7.945251 7.62279,7.945251 4.53672,0 7.62279,-3.408529 7.62279,-7.945251 0,-4.536723 -3.08607,-7.945252 -7.62279,-7.945252 z m 19.3244,0 c -4.37586,0 -7.89978,3.178165 -7.89978,7.945252 0,4.767438 3.52392,7.968505 7.89978,7.968505 2.51001,0 4.60553,-1.059154 6.03322,-2.648417 v -5.550565 h -7.18509 v 1.704288 h 5.2741 v 3.131592 c -0.75988,0.760589 -2.27968,1.658814 -4.12223,1.658814 -3.36268,0 -5.9185,-2.625668 -5.9185,-6.264217 0,-3.661833 2.55582,-6.240963 5.9185,-6.240963 1.84255,0 3.47702,0.875192 4.44469,2.118734 l 1.5198,-0.944646 c -1.35855,-1.680986 -3.24705,-2.878377 -5.96449,-2.878377 z m -39.94692,0.253215 v 15.360819 h 9.05061 v -1.704289 h -7.13961 v -13.65653 z m 51.36638,0 v 15.360819 h 1.91099 V 34.005229 Z m 7.18354,0 5.64203,7.484814 -5.98775,7.876005 h 2.32596 l 4.90513,-6.540686 4.90564,6.540686 h 2.3027 l -5.96501,-7.899259 5.6193,-7.46156 h -2.32544 l -4.53719,6.148978 -4.55942,-6.148978 z m -37.92792,1.451074 c 3.43182,0 5.64255,2.648274 5.64255,6.240963 0,3.569759 -2.21073,6.240962 -5.64255,6.240962 -3.45475,0 -5.64203,-2.671203 -5.64203,-6.240962 0,-3.592689 2.18728,-6.240963 5.64203,-6.240963 z" />
    <path
       d="m 78.856904,36.814812 h -3.476978 v 4.237566 h 3.476978 c 1.290461,0 2.257425,-0.82938 2.257425,-2.118783 0,-1.266472 -0.966964,-2.118783 -2.257425,-2.118783 M 72.109677,34.00529 h 7.185024 c 3.339394,0 5.159022,2.257072 5.159022,4.951236 0,2.671233 -1.842558,4.905375 -5.159022,4.905375 h -3.914775 v 5.504038 h -3.270249 z"
       style="fill:#ffffff;fill-opacity:1;fill-rule:nonzero;stroke:none;stroke-width:0.352778"
       id="path68" />
    <path
       d="m 99.310042,42.917869 h -7.254169 v 6.448072 H 88.78527 V 34.005292 h 3.270603 v 6.03391 h 7.254169 v -6.03391 h 3.293538 v 15.360649 h -3.293538 z"
       style="fill:#ffffff;fill-opacity:1;fill-rule:nonzero;stroke:none;stroke-width:0.352778"
       id="path72" />
    <path
       d="m 112.20866,43.079125 -5.91855,-9.073797 h 3.73098 l 3.82269,6.171847 3.77649,-6.171847 h 3.73133 l -5.87269,9.073797 v 6.286852 h -3.27025 z"
       style="fill:#ffffff;fill-opacity:1;fill-rule:nonzero;stroke:none;stroke-width:0.352778"
       id="path76" />
    <path
       d="m 125.36,44.713966 c 1.08303,1.128183 2.76401,2.072922 4.88244,2.072922 1.79635,0 2.67124,-0.852311 2.67124,-1.7272 0,-1.151819 -1.33562,-1.54305 -3.10903,-1.957916 -2.51002,-0.575734 -5.73441,-1.266473 -5.73441,-4.697942 0,-2.556227 2.21157,-4.628797 5.82648,-4.628797 2.44193,0 4.46793,0.736953 5.98805,2.141714 l -1.81892,2.395008 c -1.24425,-1.151114 -2.9016,-1.681339 -4.39879,-1.681339 -1.4739,0 -2.25707,0.644878 -2.25707,1.566334 0,1.036461 1.2894,1.358547 3.06282,1.773413 2.5333,0.575381 5.75733,1.335617 5.75733,4.743803 0,2.809522 -2.00378,4.928658 -6.14892,4.928658 -2.94781,0 -5.06624,-0.990953 -6.51686,-2.441575 z"
       style="fill:#ffffff;fill-opacity:1;fill-rule:nonzero;stroke:none;stroke-width:0.352778"
       id="path80" />
    <path
       d="m 140.74644,34.005115 h 3.27025 v 15.360649 h -3.27025 z"
       style="fill:#ffffff;fill-opacity:1;fill-rule:nonzero;stroke:none;stroke-width:0.352777"
       id="path82" />
    <path
       d="m 156.63735,36.653559 c -2.83245,0 -4.65208,2.164644 -4.65208,5.043311 0,2.856089 1.81963,5.044016 4.65208,5.044016 2.83245,0 4.67501,-2.187927 4.67501,-5.044016 0,-2.878667 -1.84256,-5.043311 -4.67501,-5.043311 m 0,-2.901597 c 4.65208,0 8.03769,3.316464 8.03769,7.944908 0,4.62915 -3.38561,7.945613 -8.03769,7.945613 -4.62915,0 -8.01476,-3.316463 -8.01476,-7.945613 0,-4.628444 3.38561,-7.944908 8.01476,-7.944908"
       style="fill:#ffffff;fill-opacity:1;fill-rule:nonzero;stroke:none;stroke-width:0.352778"
       id="path86" />
    <path
       d="M 257.27104,29.857154 H 65.298914 v -2.11702 H 257.27104 Z"
       style="fill:#ffffff;fill-opacity:1;fill-rule:nonzero;stroke:none;stroke-width:0.352777"
       id="path96" />
    <path
       d="M 257.27104,55.658966 H 65.298914 V 53.541242 H 257.27104 Z"
       style="fill:#ffffff;fill-opacity:1;fill-rule:nonzero;stroke:none;stroke-width:0.352777"
       id="path98" />
    <path
       d="m 252.84981,35.581127 h 0.18075 c 0.21,0 0.37925,-0.06918 0.37925,-0.239258 0,-0.149843 -0.10914,-0.24992 -0.35,-0.24992 -0.0992,0 -0.16926,0.0098 -0.21,0.01942 z m -0.0102,0.930504 h -0.37926 v -1.639525 c 0.14985,-0.03007 0.35984,-0.05031 0.63,-0.05031 0.30925,0 0.44926,0.05031 0.56984,0.11949 0.0894,0.07 0.15942,0.200428 0.15942,0.360662 0,0.179922 -0.14001,0.319921 -0.34017,0.379256 v 0.0205 c 0.1597,0.06015 0.25075,0.179922 0.29969,0.39949 0.0503,0.249921 0.0796,0.349999 0.12036,0.410429 h -0.41016 c -0.049,-0.06043 -0.0799,-0.21 -0.13015,-0.400585 -0.0296,-0.17992 -0.12879,-0.259765 -0.33879,-0.259765 h -0.18074 z m -1.00926,-0.860504 c 0,0.730075 0.54059,1.309761 1.27969,1.309761 0.71941,0 1.25015,-0.579686 1.25015,-1.299098 0,-0.730075 -0.53074,-1.319605 -1.26,-1.319605 -0.72925,0 -1.26984,0.58953 -1.26984,1.308942 m 2.9482,0 c 0,0.930504 -0.72926,1.659759 -1.67836,1.659759 -0.93925,0 -1.68984,-0.729255 -1.68984,-1.659759 0,-0.909177 0.75059,-1.639253 1.68984,-1.639253 0.9491,0 1.67836,0.730076 1.67836,1.639253"
       style="fill:#ffffff;fill-opacity:1;fill-rule:nonzero;stroke:none;stroke-width:0.352778"
       id="path102" />
  </g>
</svg>
