<?xml version="1.0" encoding="UTF-8" standalone="no"?>
<svg
   viewBox="0 0 276.93024 309.84146"
   version="1.1"
   id="svg91"
   width="276.93024"
   height="309.84146"
   xmlns="http://www.w3.org/2000/svg"
   xmlns:svg="http://www.w3.org/2000/svg"
   xmlns:rdf="http://www.w3.org/1999/02/22-rdf-syntax-ns#"
   xmlns:cc="http://creativecommons.org/ns#"
   xmlns:dc="http://purl.org/dc/elements/1.1/">
  <title
     id="title1037">Thigh Pain</title>
  <defs
     id="defs19">
    <style
       id="style2">.cls-1{fill:#13294b;}.cls-2{fill:url(#radial-gradient-6);}.cls-3{fill:url(#radial-gradient-5);}.cls-4{fill:url(#radial-gradient-3);}.cls-5{fill:url(#radial-gradient-4);}.cls-6{fill:url(#radial-gradient-9);}.cls-7{fill:url(#radial-gradient-8);}.cls-8{fill:url(#radial-gradient-7);}.cls-9{fill:url(#radial-gradient-2);}.cls-10{fill:url(#radial-gradient);}</style>
  </defs>
  <path
     class="cls-1"
     d="m 27.26,115.50119 c 4.96,-0.15 10.17,-0.3 15.44,-0.33 2.63,-0.01 5.28,-0.01 7.91,0.05 1.33,0.02 2.67,0.03 3.99,0.05 0.67,0 1.34,-0.03 2.01,-0.05 l 1,-0.03 1.01,-0.09 1.01,-0.09 c 0.34,-0.05 0.68,-0.11 1.02,-0.16 0.34,-0.07 0.68,-0.09 1.01,-0.19 l 1.01,-0.27 c 1.34,-0.42 2.57,-1.04 3.67,-1.58 2.18,-1.07 4.45,-1.74 6.73,-2.28 1.16,-0.22 2.28,-0.48 3.4,-0.66 1.13,-0.18 2.23,-0.35 3.32,-0.52 2.18,-0.26 4.26,-0.55 6.23,-0.71 0.98,-0.09 1.99,-0.19 3.02,-0.29 0.99,-0.12 2.01,-0.09 3.07,-0.08 2.11,0.06 4.3,0.28 6.41,0.82 0.26,0.07 0.53,0.13 0.79,0.22 l 0.83,0.26 c 0.62,0.2 1.23,0.34 1.84,0.47 1.22,0.24 2.45,0.39 3.68,0.51 2.45,0.23 4.93,0.34 7.39,0.46 1.23,0.07 2.46,0.14 3.65,0.27 0.61,0.07 1.13,0.15 1.73,0.29 0.58,0.13 1.17,0.29 1.76,0.45 2.37,0.67 4.78,1.45 7.26,1.99 1.24,0.27 2.5,0.49 3.77,0.6 0.61,0.05 1.22,0.1 1.82,0.14 0.59,0.05 1.17,0.12 1.74,0.21 1.12,0.18 2.2,0.48 2.81,1.05 0.31,0.28 0.51,0.64 0.64,1.09 0.07,0.22 0.1,0.47 0.14,0.71 0,0.21 0.02,0.42 -0.03,0.63 -0.12,0.87 -0.75,1.72 -1.47,2.41 -0.74,0.69 -1.62,1.25 -2.53,1.7 -1.84,0.9 -3.83,1.35 -5.73,1.58 -1.93,0.22 -3.78,0.26 -5.5,0.19 -1.72,-0.07 -3.3,-0.29 -4.77,-0.53 -0.37,-0.06 -0.73,-0.12 -1.09,-0.16 -0.36,-0.05 -0.79,-0.05 -1.1,-0.01 -0.67,0.05 -1.29,0.1 -1.88,0.14 -1.17,0.1 -2.18,0.18 -3,0.25 -1.64,0.15 -2.54,0.28 -2.54,0.36 0,0.08 0.91,0.12 2.56,0.13 0.82,0 1.83,-0.01 3,-0.02 0.59,0 1.21,-0.02 1.88,-0.03 0.36,-0.01 0.62,0 0.95,0.06 0.33,0.06 0.68,0.13 1.04,0.21 1.45,0.32 3.09,0.61 4.87,0.76 1.78,0.14 3.69,0.16 5.7,0 2.03,-0.17 4.18,-0.58 6.26,-1.53 1.04,-0.48 2.06,-1.08 2.98,-1.9 l 0.34,-0.31 0.32,-0.35 c 0.22,-0.23 0.41,-0.49 0.59,-0.76 0.19,-0.26 0.33,-0.58 0.49,-0.87 0.12,-0.33 0.26,-0.64 0.31,-1.01 0.09,-0.35 0.08,-0.72 0.08,-1.09 -0.04,-0.33 -0.07,-0.67 -0.17,-1.01 -0.17,-0.68 -0.53,-1.4 -1.09,-1.93 -0.55,-0.54 -1.21,-0.87 -1.84,-1.11 -0.64,-0.24 -1.27,-0.37 -1.9,-0.5 -0.63,-0.11 -1.25,-0.2 -1.87,-0.26 -0.61,-0.06 -1.21,-0.12 -1.82,-0.18 -1.17,-0.13 -2.34,-0.35 -3.51,-0.63 -2.35,-0.56 -4.69,-1.36 -7.12,-2.08 -0.61,-0.18 -1.22,-0.35 -1.86,-0.51 -0.62,-0.16 -1.33,-0.28 -1.96,-0.36 -1.29,-0.16 -2.54,-0.25 -3.79,-0.33 -2.49,-0.16 -4.93,-0.29 -7.29,-0.54 -1.18,-0.13 -2.34,-0.29 -3.44,-0.51 -0.54,-0.12 -1.09,-0.25 -1.58,-0.42 l -0.85,-0.27 c -0.3,-0.1 -0.59,-0.18 -0.89,-0.26 -2.38,-0.62 -4.71,-0.85 -6.95,-0.93 -0.56,-0.02 -1.12,-0.02 -1.67,-0.02 -0.28,0 -0.56,0.01 -0.83,0.02 -0.33,0.02 -0.55,0.05 -0.82,0.07 -1.05,0.1 -2.08,0.2 -3.08,0.29 -2,0.16 -4.12,0.47 -6.34,0.74 -1.11,0.18 -2.24,0.36 -3.4,0.55 -1.15,0.19 -2.33,0.47 -3.52,0.71 -1.19,0.32 -2.4,0.59 -3.62,1.03 -0.3,0.1 -0.61,0.2 -0.91,0.31 -0.3,0.12 -0.6,0.24 -0.91,0.37 -0.61,0.23 -1.19,0.53 -1.78,0.81 -1.16,0.59 -2.22,1.13 -3.33,1.49 l -0.85,0.24 c -0.28,0.09 -0.59,0.12 -0.89,0.18 -0.3,0.05 -0.6,0.11 -0.9,0.16 l -0.94,0.09 -0.94,0.09 -0.96,0.04 c -0.64,0.02 -1.28,0.06 -1.93,0.07 -1.31,0 -2.62,0 -3.94,0 -2.66,-0.02 -5.33,0.02 -7.98,0.08 -5.29,0.12 -10.51,0.37 -15.48,0.63 0,0 -14.59,1.11 -15.41,1.92 -0.82,0.82 15.48,-0.21 15.48,-0.21 z"
     id="path44" />
  <path
     class="cls-1"
     d="m 112.5,147.49119 c 0,0 0.41,0.7 1.58,1.51 1.15,0.83 2.98,1.76 5.27,2.8 2.29,1.06 5.11,2.14 8.03,3.68 2.98,1.56 6.26,3.27 9.73,5.09 0.87,0.45 1.75,0.91 2.64,1.37 0.89,0.46 1.76,0.93 2.65,1.43 1.77,1 3.56,2.06 5.37,3.12 1.81,1.06 3.64,2.13 5.5,3.17 1.86,1.04 3.71,2.07 5.7,2.96 1.02,0.44 2.09,0.8 3.26,0.92 0.58,0.07 1.19,0.05 1.8,-0.06 0.61,-0.11 1.21,-0.36 1.74,-0.71 1.07,-0.71 1.71,-1.8 2.11,-2.82 0.43,-1.08 0.53,-2.32 0.29,-3.42 -0.21,-1.12 -0.69,-2.1 -1.24,-2.97 -0.55,-0.88 -1.2,-1.64 -1.88,-2.34 -0.33,-0.35 -0.71,-0.67 -1.08,-1 -0.36,-0.29 -0.72,-0.57 -1.08,-0.85 -0.72,-0.54 -1.42,-1.06 -2.11,-1.56 -2.75,-1.99 -5.89,-4.14 -9.27,-6.41 -3.38,-2.26 -7,-4.63 -10.76,-6.99 -1.87,-1.18 -3.82,-2.36 -5.73,-3.5 -1.91,-1.16 -3.81,-2.36 -5.68,-3.58 -3.74,-2.43 -7.38,-4.95 -10.88,-7.29 -1.75,-1.18 -3.5,-2.27 -5.1,-3.4 -1.61,-1.13 -3.16,-2.25 -4.61,-3.33 -2.92,-2.15 -5.52,-4.12 -7.7,-5.77 -2.18,-1.64 -3.95,-2.97 -5.17,-3.89 -1.23,-0.91 -1.92,-1.39 -1.96,-1.34 -0.04,0.05 0.58,0.63 1.73,1.63 1.15,1 2.85,2.42 4.96,4.16 2.12,1.74 4.66,3.79 7.52,6.03 1.43,1.12 2.95,2.28 4.56,3.46 1.61,1.19 3.33,2.31 5.05,3.52 3.45,2.41 7.05,4.99 10.77,7.49 1.86,1.25 3.76,2.49 5.67,3.68 1.93,1.19 3.8,2.34 5.66,3.55 3.71,2.39 7.3,4.78 10.66,7.06 3.35,2.28 6.48,4.43 9.2,6.4 0.68,0.49 1.37,1 2.07,1.53 0.34,0.27 0.68,0.54 1.03,0.81 0.31,0.27 0.63,0.54 0.94,0.86 1.21,1.24 2.31,2.74 2.66,4.39 0.17,0.82 0.11,1.65 -0.19,2.44 -0.32,0.83 -0.79,1.58 -1.44,2.01 -0.64,0.45 -1.49,0.59 -2.4,0.5 -0.91,-0.08 -1.86,-0.38 -2.76,-0.76 -1.86,-0.81 -3.73,-1.82 -5.58,-2.82 -1.85,-1.01 -3.69,-2.05 -5.52,-3.08 -1.83,-1.03 -3.64,-2.06 -5.45,-3.04 -0.9,-0.49 -1.82,-0.97 -2.73,-1.41 -0.9,-0.44 -1.79,-0.88 -2.66,-1.32 -3.51,-1.73 -6.83,-3.36 -9.84,-4.84 -1.52,-0.76 -3.01,-1.36 -4.39,-1.92 -1.38,-0.54 -2.66,-1.05 -3.83,-1.51 -2.33,-0.93 -4.17,-1.75 -5.35,-2.46 -1.2,-0.69 -1.71,-1.26 -1.77,-1.2 z"
     id="path46" />
  <path
     class="cls-1"
     d="m 105.68,161.35119 c -0.04,0.12 1.43,0.81 3.78,2.07 2.37,1.27 5.64,3.02 9.3,4.98 1.84,0.98 3.78,2.02 5.75,3.07 0.99,0.52 1.99,1.05 3.01,1.56 1.02,0.52 2.08,0.99 3.12,1.42 4.15,1.73 8.19,3.28 11.53,4.59 1.67,0.66 3.55,1.39 5.55,2.18 1,0.4 2.03,0.82 3.05,1.27 1.01,0.44 2.05,0.97 3.13,1.47 2.15,1.01 4.42,1.99 6.84,2.56 1.21,0.27 2.46,0.45 3.74,0.33 0.64,-0.07 1.28,-0.2 1.88,-0.46 0.6,-0.26 1.15,-0.65 1.6,-1.11 0.45,-0.47 0.77,-1.01 1.03,-1.55 0.23,-0.56 0.41,-1.1 0.51,-1.67 0.12,-0.56 0.14,-1.13 0.13,-1.68 -0.05,-0.55 -0.13,-1.09 -0.3,-1.59 -0.32,-1 -0.87,-1.84 -1.45,-2.52 -0.59,-0.68 -1.23,-1.22 -1.83,-1.65 -1.22,-0.87 -2.31,-1.37 -3.08,-1.67 -0.77,-0.3 -1.22,-0.38 -1.24,-0.32 -0.02,0.06 0.38,0.26 1.08,0.66 0.7,0.4 1.71,0.99 2.8,1.9 1.07,0.9 2.27,2.18 2.74,3.91 0.13,0.42 0.16,0.88 0.19,1.33 -0.02,0.46 -0.04,0.93 -0.17,1.4 -0.1,0.47 -0.29,0.94 -0.49,1.38 -0.23,0.43 -0.49,0.84 -0.84,1.17 -0.35,0.33 -0.75,0.59 -1.2,0.77 -0.46,0.18 -0.96,0.27 -1.48,0.31 -1.05,0.07 -2.17,-0.12 -3.27,-0.4 -2.21,-0.59 -4.38,-1.57 -6.47,-2.6 -1.05,-0.51 -2.07,-1.06 -3.14,-1.55 -1.06,-0.48 -2.09,-0.92 -3.09,-1.33 -2.01,-0.83 -3.89,-1.57 -5.56,-2.23 -3.35,-1.29 -7.39,-2.84 -11.56,-4.45 -1.04,-0.41 -2.05,-0.83 -3.05,-1.31 -1.01,-0.48 -2.02,-0.97 -3.02,-1.46 -2,-0.98 -3.97,-1.95 -5.84,-2.87 -3.75,-1.83 -7.11,-3.42 -9.58,-4.48 -2.46,-1.07 -4.05,-1.55 -4.09,-1.43 z"
     id="path48" />
  <path
     class="cls-1"
     d="m 94.58,171.55119 c -0.03,0.13 1.43,0.54 3.78,1.29 0.59,0.19 1.23,0.4 1.91,0.64 0.68,0.24 1.4,0.51 2.11,0.87 1.44,0.73 3.01,1.66 4.68,2.62 3.33,1.93 7,4.12 10.77,5.97 0.48,0.22 0.95,0.45 1.44,0.66 0.49,0.21 0.98,0.41 1.43,0.59 0.92,0.37 1.83,0.76 2.72,1.13 1.77,0.76 3.46,1.49 4.98,2.14 3.06,1.31 6.88,2.95 10.96,4.53 2.03,0.79 4.18,1.56 6.33,2.14 2.15,0.59 4.35,1.07 6.55,1.04 1.1,-0.04 2.21,-0.24 3.18,-0.74 0.98,-0.49 1.73,-1.31 2.18,-2.18 0.1,-0.22 0.2,-0.44 0.3,-0.66 0.08,-0.22 0.14,-0.44 0.2,-0.66 l 0.09,-0.32 0.06,-0.33 c 0.03,-0.22 0.08,-0.43 0.09,-0.64 0.08,-0.85 -0.04,-1.64 -0.23,-2.32 -0.41,-1.38 -1.15,-2.28 -1.68,-2.82 -0.55,-0.54 -0.93,-0.74 -0.97,-0.7 -0.04,0.05 0.25,0.34 0.69,0.94 0.42,0.59 1.01,1.51 1.27,2.76 0.12,0.62 0.17,1.32 0.05,2.05 -0.02,0.18 -0.08,0.37 -0.12,0.55 l -0.06,0.28 -0.1,0.28 c -0.07,0.18 -0.13,0.38 -0.21,0.56 -0.09,0.18 -0.19,0.35 -0.28,0.53 -0.41,0.69 -1.01,1.28 -1.8,1.63 -0.78,0.36 -1.71,0.5 -2.68,0.49 -1.96,-0.04 -4.04,-0.56 -6.11,-1.2 -2.09,-0.63 -4.12,-1.42 -6.13,-2.25 -4.01,-1.65 -7.8,-3.33 -10.86,-4.64 -1.53,-0.66 -3.22,-1.37 -5.01,-2.11 -0.9,-0.37 -1.82,-0.74 -2.78,-1.11 -0.49,-0.18 -0.95,-0.36 -1.4,-0.54 -0.46,-0.18 -0.92,-0.4 -1.38,-0.6 -3.7,-1.72 -7.44,-3.79 -10.86,-5.57 -1.71,-0.89 -3.33,-1.74 -4.88,-2.42 -0.79,-0.35 -1.56,-0.57 -2.27,-0.77 -0.71,-0.2 -1.38,-0.36 -1.98,-0.5 -2.43,-0.54 -3.94,-0.72 -3.97,-0.6 z"
     id="path50" />
  <path
     class="cls-1"
     d="m 14.49,157.03119 c 1.99,-0.11 4.04,-0.23 6.12,-0.35 2.08,-0.06 4.2,-0.18 6.32,-0.17 4.25,-0.04 8.6,0.07 12.73,0.73 0.52,0.09 1.03,0.17 1.54,0.26 0.51,0.11 1.01,0.23 1.51,0.35 0.25,0.06 0.5,0.11 0.75,0.18 l 0.73,0.22 c 0.48,0.16 0.97,0.28 1.44,0.48 1.89,0.68 3.63,1.6 5.34,2.61 3.4,2.02 6.55,4.17 9.48,6.02 2.93,1.86 6.3,3.89 10.1,5.73 1.91,0.9 3.9,1.79 6.01,2.54 2.06,0.74 4.17,1.51 6.3,2.28 8.51,3.06 17.44,6.25 25.55,9.12 4.06,1.43 7.91,2.78 11.41,4.01 3.51,1.23 6.71,2.27 9.52,2.78 1.4,0.25 2.74,0.37 3.91,0.09 0.58,-0.12 1.1,-0.38 1.52,-0.67 0.42,-0.3 0.72,-0.68 0.95,-1.02 0.42,-0.72 0.53,-1.36 0.57,-1.78 0.03,-0.42 -0.02,-0.64 -0.06,-0.64 -0.04,0 -0.08,0.21 -0.18,0.6 -0.11,0.38 -0.3,0.95 -0.73,1.54 -0.23,0.28 -0.51,0.57 -0.88,0.79 -0.38,0.21 -0.81,0.4 -1.33,0.47 -1.01,0.17 -2.24,0 -3.57,-0.31 -2.67,-0.63 -5.79,-1.79 -9.24,-3.13 -1.73,-0.67 -3.53,-1.4 -5.45,-2.11 -1.89,-0.72 -3.85,-1.48 -5.86,-2.25 -8.04,-3.07 -16.9,-6.42 -25.37,-9.6 -2.11,-0.79 -4.2,-1.58 -6.25,-2.35 -2.01,-0.74 -3.93,-1.61 -5.76,-2.5 -3.66,-1.81 -6.94,-3.81 -9.84,-5.64 -2.91,-1.83 -6.06,-3.97 -9.58,-6.03 -1.75,-1.02 -3.68,-2.03 -5.75,-2.74 -0.51,-0.21 -1.04,-0.34 -1.57,-0.5 l -0.79,-0.23 c -0.27,-0.07 -0.53,-0.12 -0.8,-0.18 -0.54,-0.12 -1.07,-0.24 -1.62,-0.35 -0.54,-0.08 -1.09,-0.17 -1.63,-0.25 -4.36,-0.63 -8.79,-0.66 -13.11,-0.53 -2.16,0.03 -4.29,0.2 -6.39,0.31 -2.09,0.16 -4.15,0.33 -6.15,0.51 0,0 -14.38,0.72 -14.38,1.61 0,0.89 14.52,0.1 14.52,0.1 z"
     id="path52" />
  <path
     class="cls-1"
     d="m 136.76,114.49119 c -0.13,0 -0.26,0.2 -0.45,0.47 -0.2,0.28 -0.49,0.62 -0.87,0.96 -0.19,0.17 -0.4,0.33 -0.62,0.49 -0.05,0.04 -0.12,0.09 -0.16,0.1 -0.02,0 -0.03,0 -0.04,0 -0.02,0 -0.03,-0.02 -0.05,-0.03 -0.01,0 0.01,0 -0.03,-0.01 l -0.11,-0.02 -0.21,-0.05 c -0.14,-0.03 -0.28,-0.06 -0.41,-0.08 -0.26,-0.07 -0.51,-0.13 -0.73,-0.18 -0.45,-0.11 -1,-0.24 -1.54,-0.43 -0.54,-0.2 -1.08,-0.44 -1.49,-0.74 -0.42,-0.3 -0.7,-0.66 -0.87,-0.97 -0.18,-0.31 -0.26,-0.55 -0.38,-0.57 -0.12,-0.03 -0.3,0.24 -0.31,0.72 -0.02,0.47 0.19,1.15 0.64,1.73 0.45,0.58 1.1,1.04 1.73,1.38 0.64,0.33 1.28,0.54 1.79,0.67 0.26,0.06 0.54,0.11 0.84,0.16 0.32,0.03 0.66,0.06 1.01,0.1 0.14,0.02 0.29,0.03 0.43,0.03 h 0.11 c 0,0 0.06,-0.04 0.09,-0.06 l 0.17,-0.13 c 0.11,-0.09 0.23,-0.19 0.33,-0.28 0.09,-0.08 0.13,-0.13 0.19,-0.2 0.24,-0.25 0.44,-0.53 0.62,-0.8 0.35,-0.55 0.53,-1.13 0.54,-1.56 0.02,-0.43 -0.11,-0.68 -0.22,-0.69 z"
     id="path54" />
  <path
     class="cls-1"
     d="m 166.24,166.73119 c -0.13,-0.02 -0.26,0.78 -0.82,1.82 -0.27,0.52 -0.65,1.1 -1.13,1.66 -0.24,0.28 -0.51,0.56 -0.79,0.83 -0.14,0.13 -0.29,0.26 -0.44,0.39 l -0.11,0.09 -0.06,0.05 c 0,0 -0.01,0 -0.02,0.01 -0.02,0 -0.03,0.02 -0.04,0.02 l -0.04,-0.03 -0.26,-0.13 -0.57,-0.3 c -0.37,-0.21 -0.73,-0.42 -1.07,-0.64 -0.68,-0.44 -1.27,-0.93 -1.69,-1.39 -0.3,-0.34 -0.6,-0.75 -0.7,-1.19 -0.11,-0.43 -0.02,-0.9 0.31,-1.36 0.32,-0.46 0.77,-0.8 1.33,-0.95 0.55,-0.17 1.18,-0.18 1.78,-0.11 1.2,0.14 2.27,0.53 3.04,0.82 0.77,0.29 1.23,0.5 1.28,0.43 0.04,-0.07 -0.35,-0.42 -1.07,-0.85 -0.73,-0.43 -1.78,-0.97 -3.11,-1.24 -0.66,-0.13 -1.4,-0.19 -2.16,-0.02 -0.76,0.16 -1.51,0.63 -1.98,1.26 -0.23,0.32 -0.45,0.67 -0.55,1.08 -0.11,0.4 -0.11,0.83 -0.03,1.21 0.18,0.77 0.59,1.32 0.97,1.74 0.53,0.58 1.21,1.1 1.97,1.56 0.38,0.23 0.77,0.45 1.18,0.64 0.2,0.1 0.41,0.2 0.62,0.29 l 0.35,0.15 0.57,0.23 c 0.16,-0.12 0.31,-0.23 0.45,-0.36 l 0.1,-0.09 0.06,-0.06 0.12,-0.11 c 0.16,-0.15 0.31,-0.31 0.46,-0.46 0.29,-0.32 0.55,-0.64 0.78,-0.98 0.47,-0.66 0.81,-1.33 1.01,-1.93 0.44,-1.21 0.35,-2.06 0.26,-2.06 z"
     id="path56" />
  <path
     class="cls-1"
     d="m 167.68,179.59119 c -0.14,0 -0.12,0.92 -0.54,2.15 -0.22,0.61 -0.57,1.28 -1.09,1.89 -0.27,0.3 -0.56,0.59 -0.89,0.85 -0.17,0.13 -0.34,0.25 -0.52,0.36 -0.09,0.06 -0.18,0.11 -0.27,0.16 l -0.06,0.03 h -0.01 c 0,0 -0.02,0 -0.02,0 h -0.02 c 0,0 0,-0.01 -0.02,-0.02 l -0.08,-0.03 -0.32,-0.12 c -0.21,-0.08 -0.42,-0.17 -0.63,-0.26 -0.42,-0.18 -0.82,-0.37 -1.2,-0.58 -0.76,-0.41 -1.42,-0.87 -1.89,-1.34 -0.35,-0.35 -0.68,-0.78 -0.81,-1.28 -0.14,-0.49 -0.05,-1.08 0.24,-1.62 0.14,-0.26 0.33,-0.49 0.56,-0.68 0.23,-0.18 0.51,-0.33 0.82,-0.43 0.61,-0.2 1.31,-0.22 1.97,-0.18 1.33,0.1 2.53,0.46 3.39,0.71 0.86,0.26 1.39,0.45 1.43,0.37 0.04,-0.07 -0.43,-0.41 -1.25,-0.81 -0.83,-0.4 -2.02,-0.9 -3.46,-1.12 -0.72,-0.11 -1.52,-0.15 -2.34,0.06 -0.41,0.11 -0.82,0.28 -1.18,0.54 -0.36,0.26 -0.66,0.61 -0.89,0.98 -0.22,0.37 -0.37,0.77 -0.45,1.19 -0.08,0.42 -0.06,0.87 0.03,1.27 0.19,0.82 0.67,1.42 1.1,1.86 0.59,0.6 1.37,1.1 2.21,1.52 0.42,0.21 0.87,0.4 1.32,0.57 0.23,0.08 0.46,0.17 0.69,0.24 l 0.35,0.11 0.23,0.07 0.32,0.09 0.29,-0.14 0.14,-0.08 0.09,-0.05 c 0.11,-0.07 0.21,-0.14 0.32,-0.21 0.2,-0.14 0.4,-0.3 0.58,-0.46 0.37,-0.32 0.68,-0.69 0.95,-1.06 0.54,-0.75 0.85,-1.55 1.01,-2.25 0.28,-1.41 0.03,-2.33 -0.05,-2.32 z"
     id="path58" />
  <path
     class="cls-1"
     d="m 156.31,187.07119 c -0.14,0 -0.07,0.95 -0.46,2.25 -0.19,0.65 -0.5,1.39 -0.95,2.11 -0.23,0.36 -0.49,0.72 -0.78,1.07 -0.15,0.17 -0.3,0.34 -0.46,0.5 l -0.23,0.22 c 0,0 -0.06,0.05 -0.07,0.05 -0.03,-0.01 0,0 -0.1,-0.04 l -0.37,-0.11 c -0.24,-0.08 -0.48,-0.16 -0.72,-0.25 -0.48,-0.18 -0.94,-0.37 -1.38,-0.57 -0.88,-0.41 -1.66,-0.89 -2.23,-1.39 -0.41,-0.35 -0.8,-0.8 -1,-1.34 -0.21,-0.53 -0.18,-1.16 0.09,-1.78 0.24,-0.62 0.73,-1.08 1.36,-1.35 0.64,-0.26 1.38,-0.34 2.09,-0.33 1.43,0.03 2.74,0.36 3.67,0.6 0.93,0.25 1.5,0.43 1.54,0.35 0.04,-0.08 -0.48,-0.41 -1.38,-0.8 -0.91,-0.38 -2.21,-0.86 -3.77,-1.01 -0.78,-0.07 -1.64,-0.05 -2.5,0.25 -0.85,0.3 -1.66,0.99 -2.02,1.83 -0.4,0.8 -0.5,1.82 -0.19,2.64 0.29,0.83 0.83,1.42 1.32,1.85 0.7,0.61 1.59,1.12 2.55,1.54 0.48,0.21 0.99,0.4 1.5,0.56 0.26,0.08 0.52,0.16 0.78,0.23 l 0.39,0.1 c 0.16,0.04 0.44,0.11 0.66,0.15 0.17,-0.15 0.33,-0.3 0.47,-0.44 0.12,-0.12 0.18,-0.2 0.27,-0.3 0.17,-0.19 0.32,-0.39 0.47,-0.59 0.29,-0.41 0.55,-0.82 0.76,-1.24 0.44,-0.83 0.7,-1.67 0.81,-2.4 0.24,-1.46 -0.05,-2.4 -0.13,-2.39 z"
     id="path60" />
  <path
     class="cls-1"
     d="m 134.98,189.26119 c -0.12,-0.04 -0.36,0.47 -0.81,1.14 -0.22,0.33 -0.49,0.71 -0.82,1.07 -0.16,0.18 -0.33,0.37 -0.51,0.54 -0.09,0.08 -0.19,0.18 -0.26,0.25 -0.02,0 -0.03,0.01 -0.04,0.01 l -0.03,-0.03 c 0,0 0,0 0,0 l -0.07,-0.03 -0.14,-0.07 c -0.18,-0.09 -0.36,-0.19 -0.53,-0.28 -0.34,-0.18 -0.66,-0.37 -0.93,-0.54 -0.48,-0.3 -1.09,-0.69 -1.51,-1.18 -0.21,-0.25 -0.32,-0.49 -0.32,-0.7 0,-0.09 0.07,-0.28 0.11,-0.43 0.07,-0.14 0.12,-0.29 0.21,-0.41 0.32,-0.5 0.91,-0.69 1.36,-0.73 0.45,-0.05 0.76,-0.02 0.78,-0.1 0.03,-0.08 -0.24,-0.27 -0.76,-0.37 -0.26,-0.05 -0.59,-0.07 -0.96,0.02 -0.37,0.08 -0.77,0.3 -1.08,0.64 -0.16,0.17 -0.28,0.36 -0.4,0.56 -0.09,0.22 -0.2,0.39 -0.26,0.69 -0.09,0.59 0.16,1.14 0.42,1.51 0.56,0.76 1.23,1.2 1.76,1.54 0.31,0.19 0.66,0.38 1.04,0.56 0.19,0.09 0.38,0.18 0.58,0.26 0.12,0.05 0.24,0.1 0.37,0.15 0.19,0.07 0.37,0.14 0.56,0.21 0.19,-0.16 0.38,-0.34 0.55,-0.52 0.12,-0.13 0.2,-0.22 0.29,-0.34 0.18,-0.22 0.34,-0.45 0.49,-0.68 0.29,-0.45 0.52,-0.91 0.67,-1.32 0.31,-0.82 0.34,-1.41 0.23,-1.44 z"
     id="path62" />
  <path
     class="cls-1"
     d="m 170.38,202.21119 c -0.03,0.2 2.36,0.51 6.12,1.46 0.46,0.13 0.96,0.26 1.46,0.41 0.5,0.17 1.03,0.31 1.55,0.52 1.06,0.38 2.16,0.88 3.17,1.56 0.52,0.33 0.97,0.74 1.38,1.18 0.39,0.46 0.69,0.97 0.85,1.54 0.05,0.14 0.07,0.29 0.1,0.43 0,0.06 0.04,0.17 0.02,0.2 0,0.03 -0.01,0.07 -0.01,0.1 -0.04,0.14 -0.06,0.28 -0.1,0.44 l -0.15,0.49 c -0.23,0.67 -0.48,1.36 -0.77,2.06 -1.13,2.79 -2.45,5.73 -3.76,8.72 -1.32,2.99 -2.65,6.04 -3.93,9.06 -2.57,6.04 -4.9,11.96 -6.62,16.96 -0.86,2.5 -1.78,5.34 -2.63,8.42 -0.41,1.55 -0.85,3.13 -1.16,4.81 -0.16,0.84 -0.31,1.68 -0.47,2.54 -0.09,0.43 -0.13,0.86 -0.19,1.29 -0.05,0.43 -0.1,0.87 -0.15,1.3 -0.45,3.48 -0.53,7.05 -0.55,10.56 0.06,3.51 0.19,6.98 0.5,10.26 0.55,6.57 1.47,12.43 2.29,16.62 0.81,4.2 1.51,6.73 1.67,6.7 0.16,-0.03 -0.22,-2.63 -0.74,-6.85 -0.53,-4.22 -1.18,-10.07 -1.51,-16.59 -0.19,-3.26 -0.23,-6.68 -0.2,-10.13 0.11,-3.45 0.26,-6.94 0.76,-10.29 0.06,-0.42 0.11,-0.84 0.17,-1.26 0.06,-0.42 0.1,-0.83 0.2,-1.24 0.17,-0.81 0.33,-1.62 0.49,-2.42 0.32,-1.6 0.77,-3.16 1.18,-4.66 0.86,-3.01 1.78,-5.79 2.64,-8.27 1.7,-4.94 3.95,-10.84 6.4,-16.9 1.23,-3.03 2.49,-6.1 3.72,-9.13 1.23,-3.03 2.46,-6 3.51,-8.9 0.26,-0.72 0.51,-1.45 0.73,-2.19 l 0.15,-0.58 c 0.05,-0.2 0.08,-0.42 0.11,-0.63 0,-0.15 0,-0.3 0,-0.44 0,-0.15 -0.04,-0.22 -0.05,-0.33 -0.04,-0.21 -0.09,-0.41 -0.16,-0.61 -0.26,-0.8 -0.72,-1.5 -1.25,-2.06 -0.54,-0.54 -1.12,-1 -1.72,-1.35 -1.2,-0.71 -2.4,-1.17 -3.54,-1.51 -0.56,-0.19 -1.12,-0.3 -1.65,-0.44 -0.53,-0.12 -1.04,-0.22 -1.53,-0.32 -1.95,-0.35 -3.53,-0.5 -4.62,-0.57 -1.09,-0.06 -1.7,-0.05 -1.7,0.03 z"
     id="path64" />
  <path
     class="cls-1"
     d="m 56.84,189.11119 c -0.06,0.15 1.9,1.14 5.2,2.6 3.34,1.36 8.03,3.15 13.44,4.68 5.39,1.57 30.09,7.92 36.02,9.03 5.93,1.12 11.71,1.98 16.53,2.5 4.82,0.52 10.86,1.02 17.23,1.12 1.59,0.04 3.2,0.02 4.82,0 0.81,0 1.62,-0.06 2.43,-0.09 0.81,-0.04 1.61,-0.08 2.41,-0.12 3.16,-0.21 6.3,-0.27 9.3,-0.27 5.99,0 11.38,0.31 15.27,0.55 3.89,0.25 6.29,0.45 6.32,0.28 0.02,-0.17 -2.34,-0.68 -6.22,-1.22 -3.88,-0.54 -9.29,-1.11 -15.34,-1.33 -3.02,-0.11 -6.2,-0.15 -9.43,-0.03 -0.8,0.02 -1.59,0.04 -2.39,0.06 -0.79,0.01 -1.58,0.05 -2.38,0.03 -1.59,-0.01 -3.17,-0.02 -4.74,-0.1 -6.27,-0.23 -12.25,-0.79 -17.02,-1.3 -4.78,-0.51 -10.51,-1.3 -16.4,-2.29 -5.9,-0.97 -30.57,-7.13 -35.97,-8.48 -5.42,-1.3 -10.14,-2.83 -13.56,-3.91 -3.38,-1.17 -5.46,-1.87 -5.53,-1.71 z"
     id="path66" />
  <path
     class="cls-1"
     d="m 240.74,304.48119 c 6.96,-27.34 15.08,-57.23 22.58,-84.55 4.36,-12.41 8.07,-25.18 10.08,-38.16 0.95,-6.45 1.53,-13.05 0.58,-19.37 -2.14,-16.45 -28.06,-31.05 -41.61,-38.63 -11.63,-6.25 -23.65,-11.8 -35.91,-16.72 12.52,4.32 24.78,9.42 36.59,15.43 14.16,7.48 35.68,19.17 42.04,34.5 5.84,17.06 -3.56,46.89 -9.55,63.68 -7.7,26.68 -16.52,56.99 -24.81,83.81 v 0 z"
     id="path68" />
  <path
     class="cls-1"
     d="m 112.56,6.8311902 c 0.23,0.58 0.43,1.16 0.61,1.76 3.02,10.0099998 6.31,21.8699998 8.26,29.9499998 0.48,2.09 1.05,4.37 1.55,6.82 0.25,1.22 0.54,2.47 0.76,3.76 0.23,1.29 0.49,2.58 0.65,3.94 0.82,5.36 0.53,11.01 -0.11,15.93 -0.3,2.46 -0.61,4.76 -0.74,6.85 -0.13,2.08 -0.09,3.95 0.09,5.5 0.04,0.39 0.07,0.76 0.12,1.11 0.06,0.35 0.11,0.68 0.16,0.98 0.05,0.31 0.09,0.59 0.13,0.86 0.05,0.26 0.1,0.5 0.15,0.71 0.17,0.86 0.23,1.35 0.15,1.38 -0.08,0.02 -0.29,-0.42 -0.61,-1.25 -0.08,-0.21 -0.17,-0.44 -0.26,-0.7 -0.08,-0.26 -0.16,-0.54 -0.24,-0.85 -0.08,-0.31 -0.17,-0.64 -0.27,-0.99 -0.09,-0.35 -0.15,-0.73 -0.23,-1.13 -0.32,-1.58 -0.51,-3.52 -0.49,-5.67 0,-2.15 0.21,-4.51 0.4,-6.97 0.43,-4.91 0.52,-10.31 -0.38,-15.45 -0.18,-1.28 -0.47,-2.56 -0.71,-3.82 -0.24,-1.26 -0.54,-2.5 -0.8,-3.7 -0.52,-2.41 -1.11,-4.69 -1.58,-6.76 -1.93,-7.96 -4.93,-19.7 -7.54,-29.7399998 -0.21,-0.8 -0.39,-1.61 -0.53,-2.42 l -1.24,-6.89 2.7,6.8 z"
     id="path70" />
  <path
     class="cls-1"
     d="m 166.72,83.77119 c 0.06,-0.02 0.27,0.53 0.6,1.54 0.33,1.01 0.79,2.47 1.45,4.25 0.66,1.78 1.54,3.87 2.72,6.08 1.26,2.2 2.49,4.8 3.6,7.57 1.11,2.78 2.15,5.75 3.08,8.82 0.85,3.08 1.64,6.22 2.45,9.31 0.8,3.09 1.58,6.13 2.33,9.02 0.09,0.36 0.18,0.72 0.28,1.08 l 0.14,0.54 0.13,0.58 c 0.15,0.78 0.21,1.56 0.18,2.33 -0.08,1.53 -0.52,3.06 -1.45,4.24 -0.89,1.21 -2.41,2.08 -4.06,2.24 -0.21,0.03 -0.42,0.05 -0.63,0.03 -0.21,-0.01 -0.43,0 -0.65,-0.04 -0.21,-0.04 -0.43,-0.09 -0.64,-0.13 -0.21,-0.05 -0.41,-0.14 -0.62,-0.21 -0.81,-0.32 -1.54,-0.82 -2.16,-1.41 -1.23,-1.18 -2.11,-2.65 -2.83,-4.18 -0.09,-0.17 -0.18,-0.44 -0.26,-0.66 l -0.19,-0.61 c -0.11,-0.4 -0.23,-0.8 -0.34,-1.21 -0.21,-0.8 -0.43,-1.61 -0.64,-2.43 -0.82,-3.26 -1.66,-6.59 -2.48,-9.89 -0.41,-1.65 -0.82,-3.28 -1.25,-4.88 -0.42,-1.59 -0.9,-3.16 -1.37,-4.67 -0.48,-1.52 -0.97,-2.98 -1.5,-4.37 -0.27,-0.69 -0.54,-1.36 -0.85,-1.99 -0.31,-0.6 -0.64,-1.27 -0.94,-1.88 -1.22,-2.47 -2.32,-4.7 -3.24,-6.56 -0.91,-1.87 -1.63,-3.38 -2.12,-4.44 -0.48,-1.05 -0.72,-1.65 -0.67,-1.68 0.05,-0.03 0.4,0.51 0.98,1.51 0.58,1 1.4,2.46 2.4,4.28 0.99,1.82 2.17,3.99 3.49,6.41 0.33,0.61 0.64,1.21 1.02,1.88 0.35,0.66 0.66,1.35 0.95,2.05 0.58,1.41 1.12,2.88 1.64,4.4 0.52,1.52 1.03,3.08 1.5,4.69 0.46,1.61 0.91,3.24 1.35,4.88 0.88,3.28 1.77,6.6 2.64,9.84 0.22,0.8 0.45,1.61 0.67,2.4 0.12,0.39 0.23,0.78 0.35,1.17 l 0.18,0.56 c 0.07,0.16 0.1,0.29 0.2,0.48 0.67,1.41 1.48,2.7 2.49,3.64 1.01,0.93 2.19,1.44 3.36,1.27 0.58,-0.04 1.16,-0.26 1.64,-0.52 0.49,-0.26 0.9,-0.63 1.22,-1.06 0.66,-0.84 1.03,-2.02 1.1,-3.27 0.03,-0.63 -0.02,-1.27 -0.14,-1.92 l -0.11,-0.48 -0.13,-0.53 c -0.09,-0.36 -0.18,-0.72 -0.27,-1.08 -0.71,-2.89 -1.46,-5.94 -2.22,-9.03 -0.77,-3.09 -1.5,-6.25 -2.29,-9.33 -0.86,-3.04 -1.82,-6.01 -2.84,-8.78 -1.03,-2.78 -2.13,-5.3 -3.31,-7.57 -1.13,-2.31 -1.93,-4.48 -2.5,-6.31 -0.57,-1.83 -0.93,-3.34 -1.15,-4.37 -0.22,-1.04 -0.32,-1.61 -0.26,-1.63 z"
     id="path72" />
  <path
     class="cls-1"
     d="m 175.45,79.82119 c 0.11,-0.02 0.45,1.12 1.22,2.91 0.76,1.8 1.98,4.19 3.56,6.81 0.78,1.33 1.57,2.74 2.31,4.24 0.74,1.5 1.36,3.11 1.87,4.69 0.98,3.14 1.94,6.17 2.73,8.69 0.77,2.53 1.71,5.69 2.6,9.05 0.44,1.68 0.87,3.41 1.22,5.15 0.18,0.87 0.33,1.75 0.4,2.66 0.07,0.9 0.01,1.82 -0.19,2.7 -0.2,0.88 -0.6,1.71 -1.15,2.37 -0.55,0.67 -1.24,1.15 -1.92,1.48 -0.68,0.34 -1.37,0.54 -2.01,0.68 -0.72,0.16 -1.41,0.01 -1.94,-0.22 -0.54,-0.23 -0.95,-0.54 -1.28,-0.83 -0.33,-0.29 -0.59,-0.57 -0.78,-0.81 -0.38,-0.48 -0.53,-0.79 -0.48,-0.82 0.05,-0.04 0.28,0.2 0.73,0.58 0.22,0.19 0.5,0.41 0.84,0.64 0.34,0.23 0.74,0.46 1.21,0.61 0.46,0.15 0.98,0.21 1.5,0.05 0.58,-0.17 1.18,-0.4 1.75,-0.73 0.57,-0.33 1.1,-0.76 1.51,-1.31 0.41,-0.55 0.69,-1.22 0.82,-1.95 0.13,-0.73 0.14,-1.52 0.05,-2.32 -0.1,-0.8 -0.27,-1.63 -0.47,-2.47 -0.4,-1.68 -0.88,-3.37 -1.36,-5.03 -0.97,-3.31 -1.94,-6.45 -2.71,-8.97 -0.38,-1.26 -0.8,-2.65 -1.25,-4.12 -0.43,-1.47 -0.88,-3.02 -1.34,-4.6 -0.46,-1.56 -1,-3.09 -1.65,-4.56 -0.65,-1.47 -1.37,-2.9 -2.07,-4.26 -1.45,-2.7 -2.55,-5.27 -3.12,-7.17 -0.59,-1.9 -0.71,-3.13 -0.58,-3.15 z"
     id="path74" />
  <path
     class="cls-1"
     d="m 152.31,13.59119 c 0.33,1.88 0.72,3.79 1.09,5.74 0.39,1.94 0.78,3.92 1.21,5.89 0.84,3.96 1.78,7.94 2.9,11.74 0.31,0.93 0.59,1.88 0.91,2.78 0.18,0.44 0.36,0.87 0.53,1.31 0.18,0.43 0.34,0.87 0.57,1.29 0.21,0.42 0.43,0.84 0.64,1.26 0.21,0.42 0.46,0.81 0.68,1.21 0.44,0.81 0.96,1.56 1.43,2.32 2,2.98 4.22,5.54 6.27,7.79 2.04,2.26 4.39,4.73 6.63,7.58 1.14,1.41 2.21,2.95 3.25,4.53 1.01,1.58 2.01,3.22 2.95,4.91 0.93,1.7 1.81,3.44 2.6,5.23 0.79,1.78 1.49,3.6 2.15,5.39 0.66,1.79 1.3,3.54 2.03,5.21 0.75,1.73 1.39,3.46 1.98,5.15 1.17,3.38 2.14,6.61 2.97,9.54 0.2,0.73 0.4,1.45 0.59,2.14 0.09,0.35 0.19,0.69 0.28,1.03 0.09,0.35 0.18,0.72 0.22,1.08 0.19,1.42 0,2.86 -0.72,3.94 -0.35,0.54 -0.81,0.96 -1.3,1.25 -0.5,0.27 -0.98,0.46 -1.48,0.54 -0.5,0.07 -0.98,0.04 -1.39,-0.1 -0.4,-0.14 -0.74,-0.33 -1,-0.54 -0.53,-0.42 -0.81,-0.85 -0.99,-1.14 -0.17,-0.3 -0.22,-0.48 -0.18,-0.49 0.04,-0.02 0.15,0.11 0.37,0.35 0.23,0.23 0.56,0.59 1.07,0.9 0.5,0.31 1.21,0.55 1.99,0.35 0.38,-0.08 0.81,-0.29 1.19,-0.53 0.38,-0.26 0.71,-0.61 0.96,-1.05 0.5,-0.87 0.62,-2.07 0.4,-3.29 -0.06,-0.31 -0.14,-0.6 -0.24,-0.92 -0.11,-0.33 -0.21,-0.67 -0.32,-1.01 -0.22,-0.68 -0.45,-1.39 -0.68,-2.11 -0.94,-2.88 -2.02,-6.06 -3.27,-9.36 -0.63,-1.65 -1.31,-3.32 -2.08,-4.97 -0.8,-1.71 -1.5,-3.49 -2.19,-5.26 -0.7,-1.77 -1.41,-3.52 -2.21,-5.24 -0.8,-1.71 -1.67,-3.39 -2.6,-5.02 -0.94,-1.63 -1.93,-3.21 -2.94,-4.75 -1.02,-1.51 -2.06,-2.97 -3.17,-4.32 -2.19,-2.73 -4.51,-5.16 -6.58,-7.44 -2.07,-2.27 -4.37,-4.94 -6.45,-8.1 -0.5,-0.8 -1.03,-1.6 -1.49,-2.46 -0.23,-0.43 -0.49,-0.85 -0.71,-1.29 -0.22,-0.44 -0.44,-0.89 -0.66,-1.33 -0.23,-0.44 -0.41,-0.92 -0.6,-1.39 -0.19,-0.48 -0.37,-0.95 -0.56,-1.44 -0.33,-0.96 -0.6,-1.94 -0.91,-2.91 -1.09,-3.92 -1.97,-7.96 -2.73,-11.96 -0.39,-2 -0.73,-3.99 -1.08,-5.95 -0.32,-1.97 -0.66,-3.9 -0.94,-5.79 0,0 -1.8,-12.9299998 -1.65,-13.8399998 0.15,-0.91 3.27,13.5599998 3.27,13.5599998 z"
     id="path76" />
  <path
     class="cls-1"
     d="m 188.06,109.54119 c 0.05,-0.08 0.38,0.08 0.93,0.08 0.54,0 1.29,-0.2 2.05,-0.63 0.38,-0.21 0.77,-0.47 1.14,-0.76 l 0.14,-0.11 0.07,-0.06 c 0,0 0,-0.01 0.01,-0.01 0.01,-0.01 0.02,-0.03 0.02,-0.04 l -0.03,-0.04 -0.13,-0.31 c -0.38,-0.92 -0.75,-1.77 -1.14,-2.39 -0.37,-0.62 -0.97,-1.34 -1.64,-1.2 -0.36,0.04 -0.65,0.26 -0.87,0.64 -0.22,0.37 -0.34,0.85 -0.41,1.31 -0.14,0.93 -0.11,1.82 -0.1,2.46 0.02,0.64 0.03,1.04 -0.05,1.06 -0.08,0.02 -0.24,-0.36 -0.4,-1 -0.15,-0.64 -0.32,-1.55 -0.27,-2.6 0.03,-0.53 0.1,-1.1 0.37,-1.67 0.13,-0.28 0.33,-0.57 0.59,-0.8 0.26,-0.23 0.6,-0.39 0.93,-0.45 0.08,-0.02 0.17,-0.05 0.25,-0.05 h 0.27 c 0.18,0 0.35,0.04 0.51,0.09 0.17,0.04 0.31,0.12 0.45,0.19 0.15,0.07 0.27,0.16 0.38,0.26 0.45,0.37 0.75,0.78 0.97,1.15 0.46,0.74 0.83,1.67 1.15,2.61 l 0.14,0.38 c 0.09,0.22 0.16,0.44 0.24,0.65 -0.14,0.16 -0.35,0.3 -0.52,0.44 l -0.14,0.1 -0.08,0.06 -0.16,0.11 c -0.44,0.28 -0.89,0.52 -1.34,0.72 -0.9,0.39 -1.83,0.51 -2.47,0.34 -0.64,-0.16 -0.91,-0.49 -0.87,-0.53 z"
     id="path78" />
  <path
     class="cls-1"
     d="m 182.86,127.31119 c 0,0 0.26,-0.01 0.63,0.09 0.39,0.05 0.93,0.15 1.58,0.08 0.65,-0.05 1.4,-0.22 2.17,-0.52 0.38,-0.15 0.77,-0.32 1.16,-0.53 0.19,-0.1 0.38,-0.21 0.57,-0.32 0.09,-0.05 0.21,-0.12 0.26,-0.16 l 0.03,-0.03 v -0.04 c 0,0 -0.05,-0.27 -0.05,-0.27 -0.04,-0.2 -0.07,-0.41 -0.11,-0.61 -0.08,-0.4 -0.17,-0.8 -0.27,-1.17 -0.2,-0.75 -0.46,-1.44 -0.74,-2 -0.44,-0.87 -1.23,-1.86 -2.4,-1.65 -0.58,0.08 -1.16,0.35 -1.57,0.79 -0.43,0.44 -0.7,1.03 -0.88,1.63 -0.35,1.21 -0.36,2.42 -0.36,3.28 0,0.86 0.05,1.4 -0.03,1.41 -0.08,0.02 -0.27,-0.5 -0.42,-1.37 -0.14,-0.87 -0.27,-2.12 0.01,-3.52 0.15,-0.69 0.42,-1.44 0.96,-2.07 0.53,-0.64 1.31,-1.06 2.12,-1.21 0.41,-0.07 0.85,-0.07 1.26,0.03 0.41,0.11 0.78,0.31 1.09,0.55 0.61,0.48 0.97,1.07 1.24,1.58 0.34,0.66 0.61,1.43 0.8,2.25 0.1,0.41 0.18,0.84 0.24,1.27 0.03,0.22 0.06,0.43 0.09,0.65 l 0.04,0.37 0.04,0.6 c -0.18,0.12 -0.36,0.24 -0.54,0.34 -0.14,0.08 -0.22,0.12 -0.33,0.18 -0.21,0.11 -0.43,0.22 -0.64,0.31 -0.43,0.19 -0.87,0.35 -1.3,0.48 -0.86,0.25 -1.71,0.36 -2.43,0.32 -0.73,-0.02 -1.31,-0.23 -1.69,-0.38 -0.37,-0.2 -0.56,-0.34 -0.53,-0.39 z"
     id="path80" />
  <path
     class="cls-1"
     d="m 175.02,136.73119 c 0,0 0.27,0.06 0.64,0.26 0.19,0.09 0.43,0.17 0.7,0.27 0.28,0.06 0.59,0.16 0.94,0.18 0.69,0.07 1.5,-0.03 2.32,-0.3 0.41,-0.14 0.82,-0.31 1.22,-0.53 0.2,-0.1 0.4,-0.22 0.59,-0.34 0.09,-0.06 0.2,-0.13 0.28,-0.18 0,0 0.02,-0.02 0.03,-0.03 v -0.03 c 0,0 -0.01,0 -0.02,-0.01 v -0.07 c 0,0 -0.04,-0.14 -0.04,-0.14 -0.04,-0.19 -0.08,-0.37 -0.11,-0.56 -0.08,-0.37 -0.17,-0.73 -0.27,-1.08 -0.19,-0.7 -0.42,-1.34 -0.65,-1.88 -0.2,-0.47 -0.47,-0.98 -0.82,-1.43 -0.36,-0.44 -0.8,-0.82 -1.33,-0.87 -0.52,-0.06 -1.16,0.12 -1.61,0.51 -0.46,0.39 -0.8,0.96 -1.03,1.56 -0.46,1.2 -0.58,2.41 -0.67,3.27 -0.08,0.87 -0.09,1.41 -0.17,1.42 -0.08,0 -0.22,-0.53 -0.28,-1.42 -0.05,-0.89 -0.07,-2.15 0.34,-3.54 0.21,-0.68 0.55,-1.42 1.16,-2 0.62,-0.59 1.47,-0.92 2.37,-0.86 0.45,0.03 0.88,0.2 1.23,0.43 0.35,0.23 0.63,0.51 0.87,0.79 0.46,0.57 0.77,1.16 1,1.69 0.27,0.61 0.5,1.31 0.68,2.06 0.09,0.37 0.17,0.76 0.25,1.15 0.03,0.2 0.06,0.4 0.1,0.6 l 0.05,0.36 0.06,0.55 c -0.19,0.13 -0.36,0.27 -0.56,0.39 -0.13,0.08 -0.23,0.13 -0.34,0.2 -0.22,0.12 -0.45,0.24 -0.68,0.34 -0.46,0.21 -0.93,0.38 -1.4,0.5 -0.94,0.24 -1.89,0.26 -2.66,0.09 -0.39,-0.07 -0.72,-0.23 -1.02,-0.34 -0.27,-0.16 -0.52,-0.3 -0.69,-0.44 -0.34,-0.3 -0.51,-0.49 -0.47,-0.54 z"
     id="path82" />
  <path
     class="cls-1"
     d="m 163.77,136.22119 c 0.05,-0.14 0.96,0.26 2.28,0.26 0.66,0 1.41,-0.15 2.11,-0.5 0.36,-0.16 0.69,-0.39 1.01,-0.64 0.16,-0.13 0.31,-0.26 0.45,-0.4 0.07,-0.07 0.14,-0.14 0.21,-0.22 0.04,-0.05 0.02,-0.03 0.03,-0.05 v -0.02 c 0,0 0,0 -0.01,0 v -0.05 c 0,0 -0.03,-0.1 -0.03,-0.1 -0.03,-0.14 -0.07,-0.28 -0.1,-0.41 -0.07,-0.27 -0.15,-0.53 -0.23,-0.79 -0.17,-0.51 -0.37,-0.96 -0.57,-1.36 -0.21,-0.38 -0.47,-0.78 -0.81,-1.11 -0.35,-0.31 -0.77,-0.52 -1.26,-0.54 -0.49,-0.04 -0.97,0.12 -1.35,0.48 -0.38,0.35 -0.66,0.86 -0.86,1.37 -0.41,1.04 -0.55,2.09 -0.66,2.84 -0.1,0.75 -0.15,1.22 -0.23,1.23 -0.08,0 -0.19,-0.47 -0.22,-1.25 -0.03,-0.78 -0.01,-1.87 0.33,-3.08 0.18,-0.6 0.45,-1.24 0.96,-1.78 0.49,-0.56 1.3,-0.9 2.04,-0.87 0.76,-0.02 1.5,0.31 2,0.76 0.49,0.45 0.82,0.96 1.07,1.41 0.24,0.47 0.46,0.99 0.63,1.56 0.08,0.28 0.16,0.58 0.22,0.88 0.03,0.15 0.06,0.3 0.09,0.46 l 0.05,0.28 0.06,0.43 c -0.13,0.15 -0.28,0.34 -0.4,0.45 -0.09,0.09 -0.18,0.17 -0.27,0.25 -0.18,0.16 -0.37,0.31 -0.57,0.44 -0.4,0.27 -0.81,0.5 -1.25,0.66 -0.86,0.34 -1.76,0.42 -2.49,0.32 -1.48,-0.2 -2.29,-0.84 -2.25,-0.9 z"
     id="path84" />
  <path
     class="cls-1"
     d="m 170.15,130.82119 c 0.07,-0.02 0.36,0.63 0.55,1.91 0.09,0.64 0.16,1.44 0.04,2.37 -0.06,0.47 -0.17,0.97 -0.38,1.49 -0.21,0.51 -0.53,1.04 -1,1.48 -0.46,0.44 -1.06,0.79 -1.72,0.99 -0.64,0.21 -1.39,0.31 -2.15,0.2 -0.76,-0.1 -1.5,-0.41 -2.15,-0.83 -0.66,-0.42 -1.25,-0.96 -1.79,-1.55 -1.08,-1.18 -1.97,-2.58 -2.77,-4.08 -0.8,-1.5 -1.5,-3.11 -2.16,-4.76 -1.26,-3.28 -2.84,-6.65 -4.39,-10.11 -0.78,-1.74 -1.57,-3.46 -2.33,-5.26 l -0.14,-0.35 c -0.05,-0.12 -0.1,-0.24 -0.13,-0.31 -0.06,-0.15 -0.17,-0.34 -0.27,-0.53 -0.22,-0.38 -0.47,-0.76 -0.73,-1.14 -0.52,-0.76 -1.08,-1.52 -1.65,-2.26 -4.6,-5.97 -9.56,-11.37 -13.72,-15.82 -1.05,-1.1 -2.16,-2.27 -3.33,-3.5 -0.28,-0.29 -0.57,-0.59 -0.86,-0.88 v 0 c 0,0 0.04,0 -0.02,0 h -0.36 c -0.49,0.03 -0.94,-0.02 -1.42,-0.04 -0.48,-0.02 -0.94,-0.07 -1.41,-0.13 -1.88,-0.21 -3.77,-0.55 -5.69,-0.95 -1.92,-0.39 -3.85,-0.86 -5.81,-1.34 -7.8,-1.99 -15.81,-4.5 -23.05,-6.9 -7.24,-2.41 -13.69,-4.72 -18.33,-6.46 -4.63,-1.74 -7.45,-2.92 -7.39,-3.07 0.05,-0.15 2.97,0.74 7.69,2.22 4.72,1.48 11.25,3.55 18.53,5.75 7.28,2.19 15.32,4.53 23.06,6.39 1.94,0.45 3.85,0.89 5.73,1.25 1.88,0.37 3.72,0.68 5.49,0.86 0.44,0.05 0.88,0.1 1.31,0.11 0.42,0.01 0.86,0.06 1.26,0.03 0.32,0 0.63,-0.02 0.94,-0.02 h 0.33 c 0,0 0.05,-0.01 0.08,0 l 0.06,0.06 0.11,0.12 0.46,0.46 c 0.32,0.32 0.63,0.65 0.94,0.96 1.19,1.22 2.31,2.4 3.36,3.52 4.19,4.47 9.15,9.97 13.74,16.12 0.57,0.77 1.14,1.56 1.68,2.39 0.27,0.41 0.54,0.84 0.79,1.29 0.12,0.24 0.25,0.46 0.37,0.76 0.07,0.15 0.1,0.26 0.14,0.36 l 0.12,0.32 c 0.7,1.74 1.47,3.51 2.21,5.26 1.47,3.5 2.97,6.93 4.16,10.3 0.6,1.65 1.23,3.22 1.94,4.68 0.71,1.45 1.5,2.79 2.43,3.89 0.92,1.09 2,1.94 3.15,2.14 0.57,0.11 1.14,0.07 1.69,-0.07 0.54,-0.14 1.01,-0.38 1.39,-0.7 0.77,-0.64 1.12,-1.58 1.3,-2.41 0.18,-0.84 0.19,-1.6 0.18,-2.22 -0.04,-1.24 -0.17,-1.93 -0.09,-1.95 z"
     id="path86" />
  <metadata
     id="metadata1035">
    <rdf:RDF>
      <cc:Work
         rdf:about="">
        <dc:title>Thigh Pain</dc:title>
      </cc:Work>
    </rdf:RDF>
  </metadata>
</svg>
