<?xml version="1.0" encoding="UTF-8" standalone="no"?>
<svg
   viewBox="0 0 236.3752 292.10001"
   version="1.1"
   id="svg91"
   width="236.3752"
   height="292.10001"
   xmlns="http://www.w3.org/2000/svg"
   xmlns:svg="http://www.w3.org/2000/svg"
   xmlns:rdf="http://www.w3.org/1999/02/22-rdf-syntax-ns#"
   xmlns:cc="http://creativecommons.org/ns#"
   xmlns:dc="http://purl.org/dc/elements/1.1/">
  <title
     id="title1159">Wrist Pain</title>
  <defs
     id="defs19">
    <style
       id="style2">.cls-1{fill:#13294b;}.cls-2{fill:url(#radial-gradient-6);}.cls-3{fill:url(#radial-gradient-5);}.cls-4{fill:url(#radial-gradient-3);}.cls-5{fill:url(#radial-gradient-4);}.cls-6{fill:url(#radial-gradient-9);}.cls-7{fill:url(#radial-gradient-8);}.cls-8{fill:url(#radial-gradient-7);}.cls-9{fill:url(#radial-gradient-2);}.cls-10{fill:url(#radial-gradient);}</style>
  </defs>
  <path
     class="cls-1"
     d="m 55.555201,131.79 c 0.11,-0.2 1.05,0.08 2.59,0.47 1.54,0.4 3.67,0.91 6.08,1.25 0.62,0.09 1.26,0.18 1.91,0.27 0.67,0.11 1.35,0.23 2.03,0.39 1.37,0.31 2.74,0.74 4.06,1.25 2.63,1.03 4.99,2.39 6.83,3.62 1.85,1.23 4.04,2.92 6.2,4.81 2.13,1.88 4.31,3.78 6.41,5.43 2.09,1.64 4.03,3.04 5.46,4.02 1.42,0.99 2.33,1.57 2.25,1.78 -0.08,0.21 -1.19,0.02 -2.85,-0.66 -1.66,-0.66 -3.86,-1.81 -6.18,-3.26 -2.32,-1.44 -4.77,-3.25 -6.99,-4.99 -2.21,-1.72 -4.35,-3.26 -6.09,-4.42 -1.74,-1.17 -3.87,-2.49 -6.2,-3.57 -1.16,-0.53 -2.37,-1.01 -3.6,-1.4 -0.61,-0.2 -1.23,-0.37 -1.84,-0.54 -0.63,-0.16 -1.26,-0.32 -1.86,-0.47 -2.5,-0.66 -4.63,-1.54 -6.08,-2.32 -1.46,-0.78 -2.24,-1.45 -2.13,-1.65 z"
     id="path44" />
  <path
     class="cls-1"
     d="m 236.3752,232.12 c -0.03,0.09 -1.3,-0.21 -3.5,-1.02 -2.21,-0.79 -5.37,-2.03 -9.27,-3.64 -7.8,-3.22 -18.55,-7.88 -30.47,-13.4 -5.96,-2.77 -12.22,-5.72 -18.5,-9.03 -3.17,-1.71 -6.17,-3.56 -9.22,-5.45 -3.03,-1.9 -6.01,-3.89 -8.87,-6.07 -2.85,-2.18 -5.61,-4.51 -7.86,-7.49 -0.27,-0.39 -0.52,-0.79 -0.78,-1.19 -0.26,-0.39 -0.45,-0.86 -0.68,-1.29 -0.24,-0.42 -0.35,-0.95 -0.52,-1.43 l -0.11,-0.37 -0.07,-0.3 -0.14,-0.6 c -0.4,-1.6 -0.84,-3.19 -1.29,-4.76 -0.91,-3.14 -1.86,-6.19 -2.8,-9.12 -0.95,-2.91 -1.88,-5.77 -2.86,-8.3 l -0.18,-0.45 -0.15,-0.32 c -0.14,-0.24 -0.33,-0.52 -0.52,-0.8 -0.39,-0.57 -0.83,-1.15 -1.27,-1.74 -0.89,-1.18 -1.83,-2.39 -2.79,-3.63 -0.96,-1.22 -1.93,-2.48 -2.93,-3.75 -0.4,-0.47 -1.02,-1.02 -1.61,-1.54 -0.61,-0.52 -1.25,-1.04 -1.91,-1.56 -2.63,-2.07 -5.47,-4.12 -8.37,-6.22 -2.91,-2.07 -5.89,-4.27 -8.89,-6.36 -3.03,-2.1 -6.15,-4.17 -9.29,-6.21 -1.569999,-1.02 -3.149999,-2.03 -4.739999,-3.02 l -2.38,-1.46 c -0.4,-0.24 -0.79,-0.47 -1.18,-0.69 -0.39,-0.22 -0.73,-0.39 -1.12,-0.55 -3.39,-1.33 -6.96,-2.52 -10.42,-3.67 -3.48,-1.14 -6.92,-2.22 -10.28,-3.13 -1.69,-0.46 -3.32,-0.84 -4.95,-1.02 -1.63,-0.19 -3.23,-0.18 -4.78,0.03 -1.55,0.22 -3.05,0.64 -4.5,1.19 -0.36,0.14 -0.72,0.28 -1.08,0.42 -0.34,0.16 -0.64,0.27 -0.95,0.46 -0.62,0.33 -1.2,0.77 -1.77,1.22 -2.23,1.85 -4.05,4.09 -5.44,6.29 -1.32,2.18 -2.22,4.58 -1.98,6.62 0.14,1.01 0.59,1.88 1.26,2.52 0.67,0.66 1.48,1.03 2.31,1.28 1.66,0.49 3.23,0.5 4.48,0.5 2.53,-0.07 3.92,-0.35 3.94,-0.23 0.02,0.09 -1.32,0.59 -3.9,0.88 -0.65,0.06 -1.37,0.11 -2.17,0.09 -0.8,0 -1.67,-0.09 -2.61,-0.31 -0.92,-0.22 -1.96,-0.63 -2.81,-1.39 -0.87,-0.75 -1.53,-1.89 -1.75,-3.15 -0.2,-1.26 -0.06,-2.58 0.3,-3.85 0.36,-1.28 0.89,-2.52 1.59,-3.76 1.42,-2.4 3.21,-4.77 5.61,-6.88 0.61,-0.52 1.25,-1.03 1.99,-1.46 0.35,-0.23 0.78,-0.42 1.15,-0.59 0.37,-0.16 0.74,-0.32 1.12,-0.47 1.52,-0.62 3.16,-1.14 4.89,-1.42 3.46,-0.6 7.17,-0.1 10.61,0.8 3.47,0.87 6.95,1.89 10.47,2.97 3.53,1.1 7.06,2.21 10.67,3.56 0.48,0.19 0.98,0.43 1.41,0.67 0.43,0.23 0.85,0.47 1.26,0.71 0.83,0.48 1.64,0.96 2.45,1.45 1.62,0.98 3.229999,1.98 4.819999,2.98 3.19,2.01 6.35,4.06 9.44,6.15 3.11,2.12 6.05,4.24 9,6.31 2.93,2.08 5.8,4.12 8.53,6.24 0.68,0.53 1.36,1.07 2.02,1.63 0.67,0.58 1.31,1.11 1.98,1.89 l 0.25,0.29 0.19,0.24 0.37,0.48 c 0.25,0.32 0.5,0.64 0.74,0.95 0.5,0.63 0.99,1.26 1.47,1.88 0.97,1.24 1.92,2.46 2.84,3.67 0.46,0.61 0.91,1.21 1.34,1.84 0.22,0.32 0.44,0.64 0.67,1.02 0.11,0.2 0.22,0.43 0.32,0.64 l 0.22,0.54 c 1.07,2.76 1.97,5.56 2.93,8.53 0.94,2.96 1.88,6.04 2.78,9.23 0.45,1.6 0.89,3.22 1.29,4.9 l 0.15,0.63 0.07,0.32 0.08,0.24 c 0.12,0.32 0.15,0.64 0.35,0.97 0.17,0.32 0.28,0.66 0.5,0.98 l 0.62,0.97 c 0.93,1.27 2.07,2.47 3.27,3.63 1.24,1.14 2.53,2.25 3.91,3.3 2.72,2.12 5.63,4.11 8.58,6.03 2.96,1.9 5.97,3.81 8.97,5.49 6.12,3.36 12.32,6.42 18.19,9.32 11.77,5.77 22.36,10.74 29.99,14.31 3.81,1.77 6.89,3.2 9.01,4.19 2.12,1 3.29,1.5 3.25,1.62 z"
     id="path46" />
  <path
     class="cls-1"
     d="m 52.005201,123.24 c -0.29,0.13 -0.77,-0.27 -0.94,-0.97 -0.18,-0.68 -0.08,-1.48 0.11,-1.96 0.19,-0.49 0.64,-1.11 1.14,-1.52 0.49,-0.41 1.01,-0.62 1.27,-0.43 0.26,0.19 0.25,0.71 0.16,1.28 -0.09,0.57 -0.24,1.17 -0.37,1.53 -0.14,0.36 -0.41,0.81 -0.64,1.18 -0.24,0.36 -0.42,0.75 -0.72,0.88 z"
     id="path48" />
  <path
     class="cls-1"
     d="m 81.355201,129.29 c -0.61,-0.22 -0.25,-2.82 0.23,-4.16 0.48,-1.34 1.92,-3.82 2.54,-3.6 0.61,0.22 0.16,3.06 -0.31,4.39 -0.48,1.34 -1.84,3.59 -2.45,3.37 z"
     id="path50" />
  <path
     class="cls-1"
     d="m 77.475201,129.29 c -0.54,-0.36 -0.18,-1.87 0.26,-2.53 0.44,-0.67 1.76,-1.71 2.31,-1.35 0.55,0.36 0.11,1.98 -0.34,2.65 -0.44,0.67 -1.69,1.59 -2.23,1.23 z"
     id="path52" />
  <path
     class="cls-1"
     d="m 88.805201,181.32 c -0.12,0.16 -2.38,-1.09 -6.12,-3.15 -3.72,-2.07 -8.87,-5 -14.63,-8.29 -2.88,-1.63 -5.92,-3.36 -9.01,-5.11 -1.55,-0.88 -3.09,-1.72 -4.68,-2.57 -1.61,-0.86 -3.19,-1.79 -4.73,-2.77 -3.07,-1.96 -5.96,-4.15 -8.42,-6.62 -0.62,-0.62 -1.2,-1.26 -1.76,-1.91 -0.27,-0.33 -0.54,-0.67 -0.8,-1 -0.27,-0.42 -0.55,-0.83 -0.78,-1.26 -0.87,-1.77 -1.02,-3.65 -0.83,-5.29 0.18,-1.66 0.75,-3.32 1.64,-4.89 0.89,-1.56 2.11,-3.04 3.71,-4.21 1.59,-1.17 3.62,-2.01 5.82,-2.03 2.12,-0.02 4.09,0.48 5.94,1.13 3.71,1.32 7.14,3.16 10.48,4.97 3.35,1.82 6.59,3.65 9.75,5.23 6.39,3.17 12.13,6.05 16.25,8.2 4.12,2.15 6.61,3.55 6.51,3.75 -0.1,0.2 -2.77,-0.82 -7.05,-2.61 -4.28,-1.8 -10.17,-4.36 -16.69,-7.27 -3.29,-1.48 -6.64,-3.22 -10.01,-4.92 -3.37,-1.69 -6.79,-3.4 -10.18,-4.51 -1.69,-0.56 -3.39,-0.92 -4.91,-0.87 -1.45,0.03 -2.86,0.61 -4.02,1.49 -2.34,1.77 -3.74,4.54 -4.01,6.91 -0.14,1.19 -0.01,2.43 0.5,3.48 0.14,0.26 0.31,0.49 0.45,0.75 0.23,0.29 0.46,0.59 0.7,0.88 0.49,0.58 1.01,1.16 1.56,1.73 2.22,2.28 4.91,4.4 7.79,6.34 1.45,0.97 2.94,1.9 4.47,2.77 1.55,0.89 3.14,1.82 4.65,2.74 3.05,1.85 6.02,3.7 8.84,5.47 11.24,7.07 19.87,12.95 19.57,13.41 z"
     id="path54" />
  <path
     class="cls-1"
     d="m 62.135201,147.37 c 0.29,0.15 0.2,0.9 -0.1,1.7 -0.3,0.8 -0.79,1.69 -1.21,2.26 -0.85,1.14 -2.99,3.03 -3.51,2.63 -0.51,-0.4 0.79,-2.93 1.62,-4.04 0.42,-0.56 1.1,-1.26 1.73,-1.8 0.64,-0.53 1.18,-0.89 1.47,-0.74 z"
     id="path56" />
  <path
     class="cls-1"
     d="m 84.155201,207.11 c -0.22,0.28 -5.59,-2.94 -12.43,-7.13 -3.41,-2.11 -7.18,-4.44 -10.83,-6.7 -1.82,-1.13 -3.62,-2.23 -5.32,-3.28 -0.85,-0.52 -1.68,-1.02 -2.47,-1.48 -0.85,-0.49 -1.65,-1 -2.39,-1.5 -2.96,-2.01 -6.39,-4.81 -9.53,-8.31 -0.78,-0.88 -1.54,-1.82 -2.23,-2.85 -0.34,-0.5 -0.69,-1.1 -0.95,-1.65 -0.26,-0.53 -0.51,-1.07 -0.75,-1.61 -0.94,-2.17 -1.72,-4.42 -2.04,-6.72 -0.15,-1.15 -0.19,-2.32 0,-3.46 0.21,-1.17 0.62,-2.11 1,-2.99 0.79,-1.74 1.62,-3.21 2.34,-4.43 1.46,-2.42 2.51,-3.81 2.7,-3.7 0.2,0.11 -0.48,1.7 -1.58,4.27 -0.54,1.28 -1.19,2.81 -1.78,4.52 -0.29,0.85 -0.57,1.76 -0.65,2.6 -0.08,0.87 0.02,1.83 0.22,2.8 0.41,1.95 1.23,3.98 2.21,5.96 0.25,0.5 0.51,0.99 0.77,1.48 0.27,0.47 0.51,0.86 0.83,1.3 0.63,0.85 1.34,1.67 2.09,2.46 3.03,3.14 6.38,5.77 9.14,7.64 0.69,0.46 1.43,0.93 2.21,1.4 0.83,0.5 1.68,1.02 2.53,1.57 1.71,1.09 3.48,2.26 5.26,3.47 3.57,2.41 7.22,4.96 10.48,7.3 6.51,4.68 11.48,8.61 11.16,9.04 z"
     id="path58" />
  <path
     class="cls-1"
     d="m 204.1352,292.08 c -0.06,0.09 -1.03,-0.41 -2.74,-1.4 -1.71,-0.98 -4.17,-2.45 -7.21,-4.28 -6.09,-3.66 -14.53,-8.78 -24.06,-14.37 -9.54,-5.56 -20.15,-11.73 -30.76,-16.84 -1.32,-0.67 -2.66,-1.23 -3.98,-1.8 -0.66,-0.28 -1.32,-0.59 -1.98,-0.85 -0.66,-0.23 -1.32,-0.47 -1.98,-0.7 -1.28,-0.5 -2.68,-0.85 -4.03,-1.23 -1.36,-0.37 -2.71,-0.71 -4.04,-1.04 -5.35,-1.29 -10.48,-2.27 -15.17,-3.11 -2.34,-0.43 -4.84,-0.87 -7.47,-1.39 -2.629999,-0.54 -5.389999,-1.1 -8.269999,-2.11 -2.95,-1.09 -5.53,-2.73 -8.07,-4.55 -2.51,-1.85 -4.9,-3.91 -7.2,-6.07 -1.16,-1.08 -2.29,-2.17 -3.43,-3.27 -1.13,-1.1 -2.26,-2.12 -3.45,-3.15 -2.37,-2.04 -4.86,-3.99 -7.36,-5.91 -2.51,-1.92 -5.01,-3.82 -7.47,-5.7 -2.47,-1.88 -4.9,-3.77 -7.19,-5.72 -4.58,-3.9 -8.58,-8.08 -11.62,-12.32 -1.53,-2.13 -2.79,-4.32 -3.62,-6.54 -0.23,-0.55 -0.37,-1.12 -0.54,-1.67 -0.12,-0.57 -0.27,-1.11 -0.32,-1.67 -0.15,-1.1 -0.16,-2.19 0,-3.21 0.31,-2.05 1.22,-3.7 2.03,-5.01 0.83,-1.31 1.6,-2.39 2.24,-3.27 1.29,-1.74 2.07,-2.64 2.16,-2.58 0.09,0.07 -0.51,1.09 -1.62,2.94 -0.55,0.92 -1.23,2.06 -1.95,3.39 -0.71,1.33 -1.43,2.88 -1.61,4.69 -0.1,0.9 -0.05,1.86 0.13,2.84 0.07,0.49 0.23,0.98 0.35,1.49 0.18,0.49 0.32,1.01 0.55,1.5 0.84,2.01 2.1,4.04 3.64,6.02 3.08,4.01 7.06,7.94 11.63,11.64 2.29,1.86 4.71,3.66 7.22,5.48 2.5,1.83 5.04,3.69 7.59,5.56 2.55,1.89 5.11,3.82 7.58,5.88 1.23,1.02 2.46,2.12 3.62,3.2 1.15,1.07 2.3,2.13 3.44,3.19 2.29,2.09 4.61,4.04 6.99,5.76 1.2,0.85 2.41,1.63 3.63,2.33 1.23,0.71 2.47,1.29 3.7,1.74 2.55,0.87 5.24,1.43 7.819999,1.93 2.58,0.5 5.08,0.94 7.43,1.37 4.71,0.85 9.92,1.86 15.36,3.22 1.36,0.35 2.73,0.71 4.12,1.1 1.38,0.4 2.77,0.77 4.19,1.33 0.71,0.26 1.42,0.52 2.13,0.78 0.69,0.29 1.36,0.6 2.05,0.91 1.36,0.61 2.75,1.21 4.07,1.91 10.73,5.36 21.22,11.74 30.65,17.57 9.41,5.86 17.67,11.28 23.56,15.27 2.94,2 5.29,3.64 6.89,4.8 1.6,1.16 2.45,1.85 2.38,1.94 z"
     id="path60" />
  <path
     class="cls-1"
     d="m 133.8652,160.09 c -0.24,-0.23 -0.15,-0.74 0,-1.28 0.15,-0.55 0.36,-1.14 0.56,-1.53 0.21,-0.39 0.6,-0.93 0.99,-1.4 0.39,-0.47 0.77,-0.85 1.09,-0.79 0.32,0.06 0.5,0.64 0.49,1.33 0,0.69 -0.22,1.49 -0.48,1.97 -0.25,0.48 -0.78,1.07 -1.32,1.43 -0.54,0.37 -1.09,0.49 -1.32,0.27 z"
     id="path62" />
  <path
     class="cls-1"
     d="m 91.885201,226.68 c 0.08,0.29 -1.1,0.92 -2.78,1.23 -1.66,0.31 -3.75,0.23 -5.17,-0.07 -1.43,-0.27 -3.47,-1.02 -5.01,-1.91 -1.55,-0.89 -2.62,-1.86 -2.44,-2.15 0.17,-0.27 1.47,0.16 3.09,0.61 1.62,0.46 3.54,0.9 4.83,1.14 1.28,0.27 3.08,0.59 4.61,0.72 1.52,0.13 2.78,0.1 2.86,0.44 z"
     id="path64" />
  <path
     class="cls-1"
     d="m 120.7052,182.85 c 0.23,0.21 -0.18,1.07 -1.06,1.85 -0.86,0.78 -2.09,1.43 -3,1.74 -0.91,0.32 -2.32,0.56 -3.5,0.58 -1.18,0.03 -2.14,-0.15 -2.18,-0.48 -0.04,-0.32 0.81,-0.72 1.84,-1.16 1.04,-0.43 2.26,-0.89 3.07,-1.18 0.81,-0.28 1.96,-0.61 2.9,-0.93 0.94,-0.31 1.68,-0.65 1.93,-0.42 z"
     id="path66" />
  <path
     class="cls-1"
     d="m 109.5152,204.96 c 0.14,0.09 0.18,0.29 0.11,0.6 -0.07,0.28 -0.26,0.63 -0.5,0.95 -0.49,0.65 -1.22,1.24 -1.78,1.55 -1.12,0.66 -3.63,1.2 -3.88,0.58 -0.24,-0.59 1.73,-2.06 2.73,-2.65 0.51,-0.28 1.28,-0.59 1.91,-0.81 0.32,-0.11 0.6,-0.2 0.84,-0.25 0.22,-0.05 0.43,-0.07 0.57,0.02 z"
     id="path68" />
  <path
     class="cls-1"
     d="m 151.0752,193.43 c -0.23,0 -0.46,-0.3 -0.75,-0.81 -0.29,-0.51 -0.62,-1.24 -0.96,-2.06 -0.68,-1.65 -1.39,-3.69 -1.78,-5.17 -0.76,-2.96 -1.71,-9.06 -0.85,-9.3 0.87,-0.25 3.22,5.48 3.99,8.48 0.39,1.5 0.76,3.66 0.88,5.48 0.06,0.91 0.06,1.74 -0.03,2.36 -0.08,0.62 -0.28,1.02 -0.49,1.02 z"
     id="path70" />
  <path
     class="cls-1"
     d="m 106.5352,22.87 c -0.21,0.06 -1,-2.15 -1.81,-5.85 -0.43,-1.84 -0.86,-4.05 -1.6,-6.37 -0.72,-2.31 -1.94,-4.67 -4.089999,-6.19 -0.26,-0.2 -0.56,-0.35 -0.84,-0.53 -0.14,-0.08 -0.28,-0.18 -0.43,-0.25 l -0.47,-0.21 c -0.63,-0.29 -1.25,-0.56 -1.9,-0.69 -1.29,-0.31 -2.61,-0.25 -3.88,0.19 -2.57,0.89 -4.83,3.07 -6.87,5.31 -2.05,2.28 -3.94,4.73 -5.79,7.03 -1.86,2.33 -3.67,4.43 -5.22,6.4 -1.55,1.96 -3.25,4.17 -4.76,6.68 -0.76,1.26 -1.48,2.61 -2.22,4.02 -0.37,0.71 -0.73,1.43 -1.11,2.16 -0.37,0.73 -0.77,1.48 -1.08,2.18 -1.32,2.88 -2.48,6.11 -3.62,9.24 -1.13,3.15 -2.21,6.28 -3.24,9.26 -2.04,5.97 -3.85,11.36 -5.22,15.23 -1.36,3.87 -2.27,6.24 -2.49,6.18 -0.22,-0.06 0.28,-2.55 1.28,-6.54 0.99,-3.99 2.47,-9.49 4.24,-15.56 0.89,-3.04 1.84,-6.22 2.87,-9.43 1.05,-3.22 2.09,-6.44 3.45,-9.62 0.35,-0.82 0.71,-1.54 1.07,-2.28 0.36,-0.74 0.72,-1.47 1.07,-2.2 0.71,-1.45 1.45,-2.89 2.25,-4.25 1.59,-2.73 3.36,-5.07 4.95,-7.08 1.59,-2.02 3.44,-4.14 5.29,-6.39 1.88,-2.26 3.84,-4.69 6.06,-7.05 1.12,-1.17 2.31,-2.33 3.66,-3.37 1.34,-1.03 2.86,-1.97 4.6,-2.48 0.87,-0.26 1.78,-0.4 2.68,-0.41 0.91,0 1.8,0.14 2.64,0.37 0.85,0.22 1.62,0.59 2.34,0.96 l 0.54,0.28 c 0.18,0.1 0.35,0.22 0.52,0.33 0.34,0.24 0.689999,0.44 0.999999,0.7 1.29,1 2.28,2.3 2.99,3.6 0.73,1.31 1.13,2.66 1.46,3.92 0.61,2.53 0.85,4.78 1.1,6.65 0.43,3.74 0.8,6 0.57,6.07 z"
     id="path72" />
  <path
     class="cls-1"
     d="m 95.475201,31.38 c -0.49,-0.34 1.05,-3.86 2.14,-5.69 1.09,-1.81 3.709999,-5.17 4.269999,-4.84 0.56,0.33 -1.15,4.24 -2.239999,6.06 -1.08,1.81 -3.57,4.87 -4.16,4.47 z"
     id="path74" />
  <path
     class="cls-1"
     d="m 123.0252,41.3 c -0.23,-0.07 -0.09,-1.15 0.14,-2.89 0.23,-1.73 0.57,-4.13 0.54,-6.75 0,-0.66 -0.07,-1.32 -0.11,-1.99 -0.11,-0.66 -0.17,-1.33 -0.36,-1.97 -0.13,-0.66 -0.39,-1.26 -0.61,-1.88 l -0.44,-0.86 c -0.13,-0.3 -0.35,-0.52 -0.52,-0.79 l -0.26,-0.38 -0.32,-0.34 c -0.22,-0.21 -0.4,-0.46 -0.64,-0.65 -0.48,-0.37 -0.93,-0.77 -1.47,-1.04 -0.26,-0.14 -0.49,-0.32 -0.77,-0.43 -0.27,-0.11 -0.54,-0.23 -0.8,-0.34 -0.26,-0.12 -0.52,-0.23 -0.76,-0.29 -0.25,-0.08 -0.49,-0.15 -0.72,-0.19 -0.94,-0.2 -2.01,-0.25 -3.14,0.05 -1.13,0.27 -2.32,0.89 -3.47,1.72 -2.32,1.66 -4.42,4.1 -6.5,6.25 -1.07,1.07 -2.08,2.13 -3.479999,2.83 -0.38,0.19 -0.66,0.24 -0.98,0.36 -0.31,0.1 -0.62,0.17 -0.92,0.24 -0.61,0.11 -1.18,0.18 -1.72,0.15 -1.07,-0.02 -1.91,-0.36 -2.39,-0.7 -0.49,-0.34 -0.64,-0.66 -0.56,-0.74 0.13,-0.17 1.15,0.49 2.88,0.17 0.43,-0.06 0.89,-0.21 1.37,-0.38 0.24,-0.1 0.49,-0.2 0.74,-0.32 0.23,-0.13 0.55,-0.25 0.72,-0.39 0.83,-0.56 1.719999,-1.63 2.619999,-2.75 1.81,-2.27 3.78,-4.99 6.41,-7.11 1.31,-1.05 2.82,-1.95 4.44,-2.41 1.62,-0.49 3.29,-0.46 4.66,-0.16 0.35,0.06 0.69,0.16 1.03,0.28 0.36,0.1 0.68,0.25 1.01,0.39 0.33,0.15 0.67,0.3 1.01,0.45 0.34,0.15 0.66,0.39 1,0.59 0.69,0.38 1.29,0.94 1.92,1.48 0.31,0.28 0.56,0.62 0.84,0.94 l 0.41,0.49 0.34,0.54 c 0.21,0.37 0.48,0.71 0.63,1.1 l 0.5,1.16 c 0.24,0.8 0.5,1.59 0.6,2.39 0.16,0.8 0.17,1.58 0.22,2.35 -0.01,0.76 0,1.52 -0.09,2.23 -0.28,2.87 -1,5.29 -1.61,6.97 -0.62,1.69 -1.17,2.65 -1.37,2.58 z"
     id="path76" />
  <path
     class="cls-1"
     d="m 122.6452,138.89 c -0.08,-0.01 0.03,-0.96 0.82,-2.44 0.79,-1.47 2.22,-3.39 4.14,-5.62 1.9,-2.24 4.3,-4.8 6.73,-7.79 1.2,-1.5 2.44,-3.11 3.41,-4.88 0.23,-0.45 0.44,-0.9 0.67,-1.36 0.21,-0.5 0.42,-0.99 0.63,-1.5 0.41,-1.02 0.83,-2.05 1.23,-3.11 1.63,-4.23 3.26,-8.74 4.85,-13.34 0.79,-2.3 1.56,-4.63 2.28,-6.96 0.36,-1.17 0.71,-2.33 1.02,-3.49 0.16,-0.59 0.28,-1.12 0.42,-1.73 0.14,-0.62 0.28,-1.22 0.43,-1.83 1.21,-4.81 2.64,-9.42 4.03,-13.8 0.71,-2.19 1.4,-4.31 2.13,-6.36 0.71,-2.02 1.35,-3.91 1.76,-5.72 0.41,-1.8 0.66,-3.74 0.35,-5.54 -0.17,-0.89 -0.48,-1.73 -0.98,-2.47 -0.51,-0.73 -1.19,-1.37 -2.04,-1.87 -0.87,-0.52 -1.79,-0.87 -2.71,-0.98 -0.92,-0.09 -1.85,0.07 -2.75,0.5 -1.82,0.87 -3.41,2.71 -4.69,4.74 -0.32,0.51 -0.63,1.04 -0.92,1.59 l -0.44,0.84 c -0.13,0.27 -0.36,0.68 -0.53,0.95 -0.18,0.3 -0.37,0.58 -0.56,0.87 l -0.44,0.64 c -0.18,0.25 -0.36,0.49 -0.55,0.73 -0.74,0.96 -1.55,1.73 -2.25,2 -0.35,0.14 -0.67,0.21 -1.02,0.2 -0.34,0 -0.84,-0.2 -1.09,-0.47 -0.52,-0.53 -0.73,-1.28 -0.77,-2.24 -0.05,-0.95 0.27,-2.19 0.6,-3.3 0.23,-0.69 0.46,-1.31 0.72,-1.94 1.01,-2.49 2.25,-4.84 3.44,-7.07 1.11,-2.12 1.81,-4.4 1.72,-6.58 -0.08,-2.18 -1.07,-4.16 -2.64,-5.45 -1.58,-1.33 -3.57,-2.04 -5.43,-1.92 -1.88,0.09 -3.56,1.02 -4.85,2.17 -0.65,0.6 -1.19,1.23 -1.72,1.92 -0.54,0.69 -1.06,1.34 -1.55,1.97 -1,1.25 -1.93,2.37 -2.84,3.29 -0.46,0.46 -0.9,0.88 -1.4,1.2 -0.25,0.16 -0.5,0.31 -0.79,0.4 -0.13,0.06 -0.31,0.06 -0.46,0.08 -0.16,0 -0.4,-0.06 -0.51,-0.11 -0.48,-0.27 -0.74,-0.69 -0.81,-1.12 -0.05,-0.42 0.09,-0.75 0.21,-0.96 0.27,-0.43 0.52,-0.55 0.55,-0.52 0.05,0.04 -0.11,0.24 -0.25,0.66 -0.06,0.2 -0.11,0.46 -0.03,0.72 0.08,0.24 0.31,0.52 0.64,0.64 0.1,0.03 0.1,-0.02 0.16,0 0.08,-0.03 0.15,-0.03 0.24,-0.08 0.18,-0.08 0.36,-0.21 0.56,-0.36 0.38,-0.31 0.77,-0.74 1.17,-1.2 0.79,-0.94 1.63,-2.1 2.54,-3.39 0.45,-0.65 0.93,-1.33 1.43,-2.05 0.49,-0.72 1.09,-1.5 1.79,-2.21 0.71,-0.71 1.55,-1.35 2.52,-1.87 0.96,-0.52 2.08,-0.87 3.25,-0.99 2.36,-0.25 4.88,0.55 6.88,2.12 1.01,0.79 1.9,1.82 2.53,3.01 0.63,1.19 1,2.54 1.1,3.9 0.2,2.74 -0.59,5.44 -1.77,7.86 -1.15,2.3 -2.27,4.57 -3.17,6.93 -0.23,0.58 -0.43,1.19 -0.6,1.74 -0.03,0.12 -0.04,0.2 -0.05,0.29 0,0.09 0,0.17 0.04,0.24 0.05,0.09 0.17,-0.02 0.21,-0.07 0.06,-0.07 0.1,-0.14 0.14,-0.2 l 0.03,-0.05 c 0,0 0,0 0.11,-0.17 0.17,-0.26 0.33,-0.52 0.48,-0.78 0.17,-0.28 0.25,-0.45 0.41,-0.76 l 0.45,-0.89 c 0.31,-0.6 0.64,-1.19 1,-1.78 0.71,-1.17 1.51,-2.29 2.46,-3.32 0.95,-1.02 2.07,-1.97 3.41,-2.64 1.33,-0.67 2.92,-1 4.42,-0.85 1.5,0.15 2.86,0.69 4.03,1.37 1.18,0.69 2.26,1.65 3.06,2.79 0.8,1.15 1.28,2.45 1.51,3.71 0.44,2.53 0.09,4.82 -0.36,6.84 -0.46,2.03 -1.16,4.05 -1.88,6.08 -0.72,2 -1.43,4.11 -2.15,6.26 -1.42,4.32 -2.9,8.9 -4.16,13.56 -0.15,0.58 -0.3,1.16 -0.44,1.75 -0.15,0.58 -0.31,1.25 -0.49,1.84 -0.35,1.22 -0.73,2.4 -1.12,3.58 -0.79,2.36 -1.62,4.69 -2.47,7 -1.71,4.6 -3.47,9.08 -5.26,13.3 -0.45,1.05 -0.9,2.09 -1.35,3.11 -0.23,0.51 -0.47,1.01 -0.7,1.51 -0.27,0.51 -0.54,1.02 -0.82,1.51 -1.16,1.93 -2.52,3.53 -3.82,5.03 -2.63,2.96 -5.16,5.37 -7.18,7.47 -2.04,2.08 -3.59,3.82 -4.52,5.12 -0.92,1.3 -1.24,2.13 -1.37,2.09 z"
     id="path78" />
  <path
     class="cls-1"
     d="m 69.025201,25.16 c -0.11,0.07 -0.43,-0.38 -1.19,-0.87 -0.38,-0.24 -0.88,-0.48 -1.49,-0.57 -0.6,-0.11 -1.33,-0.08 -2.01,0.2 -0.34,0.13 -0.66,0.33 -0.89,0.59 -0.25,0.28 -0.31,0.46 -0.51,1.06 -0.36,1 -0.77,2.03 -1.22,3.12 -0.9,2.18 -1.98,4.55 -3.26,7.01 -0.65,1.23 -1.36,2.47 -2.19,3.72 -0.43,0.62 -0.87,1.24 -1.45,1.85 l -0.45,0.46 -0.38,0.36 c -0.25,0.23 -0.48,0.48 -0.73,0.72 -1.87,1.99 -3.49,4.42 -4.46,6.89 -0.12,0.32 -0.2,0.57 -0.32,0.94 l -0.32,1.04 c -0.22,0.69 -0.43,1.39 -0.65,2.07 -0.43,1.37 -0.87,2.71 -1.32,4.02 -0.88,2.61 -1.78,5.07 -2.64,7.28 -0.43,1.11 -0.91,2.28 -1.42,3.49 -0.49,1.18 -0.99,2.42 -1.44,3.71 -0.89,2.58 -1.56,5.32 -1.45,8.17 0.05,1.42 0.28,2.88 0.6,4.36 0.32,1.46 0.75,2.92 1.2,4.41 0.9,2.96 1.84,5.89 2.74,8.68 3.62,11.15 6.52,20.07 6.1,20.23 -0.41,0.15 -4.08,-8.49 -8.26,-19.47 -1.04,-2.75 -2.11,-5.64 -3.14,-8.61 -0.51,-1.48 -1.02,-3 -1.42,-4.59 -0.39,-1.57 -0.7,-3.2 -0.8,-4.85 -0.1,-1.66 0.01,-3.32 0.29,-4.89 0.27,-1.57 0.68,-3.05 1.14,-4.44 0.46,-1.39 0.97,-2.7 1.47,-3.94 0.49,-1.2 0.95,-2.35 1.37,-3.44 0.85,-2.17 1.75,-4.58 2.66,-7.14 0.45,-1.28 0.91,-2.6 1.37,-3.94 0.23,-0.67 0.46,-1.35 0.69,-2.04 l 0.35,-1.03 c 0.11,-0.32 0.26,-0.77 0.41,-1.12 0.62,-1.49 1.41,-2.84 2.31,-4.12 0.89,-1.28 1.91,-2.47 3.02,-3.56 0.29,-0.26 0.56,-0.54 0.86,-0.79 l 0.42,-0.37 0.32,-0.31 c 0.44,-0.42 0.86,-0.95 1.27,-1.49 0.81,-1.09 1.54,-2.24 2.23,-3.39 1.37,-2.3 2.57,-4.57 3.61,-6.64 0.52,-1.03 1.01,-2.02 1.43,-2.94 0.11,-0.23 0.18,-0.42 0.36,-0.76 0.07,-0.15 0.18,-0.28 0.28,-0.4 0.1,-0.13 0.21,-0.24 0.33,-0.34 0.46,-0.41 0.98,-0.64 1.47,-0.77 0.99,-0.27 1.91,-0.17 2.64,0.07 0.74,0.23 1.29,0.62 1.66,1 0.74,0.76 0.85,1.35 0.78,1.38 z"
     id="path80" />
  <path
     class="cls-1"
     d="m 62.405201,24.8 c 0.01,-0.16 0.26,-0.31 0.69,-0.38 0.22,-0.04 0.48,-0.06 0.77,-0.04 0.23,0 0.79,0.1 1.25,0.29 0.24,0.09 0.47,0.21 0.7,0.35 l 0.34,0.21 c 0,0 0.07,0.04 0.08,0.06 l -0.03,0.09 -0.05,0.17 c -0.16,0.5 -0.32,1 -0.48,1.48 -0.04,0.13 -0.09,0.26 -0.13,0.38 -0.04,0.12 -0.07,0.17 -0.11,0.25 -0.07,0.15 -0.14,0.3 -0.21,0.44 -0.14,0.29 -0.27,0.56 -0.42,0.79 -0.54,0.95 -1.62,2.31 -2.91,3.1 -0.65,0.39 -1.36,0.61 -1.9,0.57 -0.55,-0.04 -0.84,-0.31 -0.77,-0.46 0.06,-0.15 0.29,-0.24 0.59,-0.44 0.3,-0.2 0.66,-0.53 1.02,-0.96 0.73,-0.88 1.45,-2.14 1.93,-3.01 0.13,-0.2 0.26,-0.45 0.42,-0.7 0.08,-0.12 0.16,-0.25 0.24,-0.38 0.04,-0.05 0.1,-0.15 0.11,-0.17 l 0.04,-0.04 c 0.06,-0.06 0.14,-0.14 0.24,-0.24 0.07,-0.06 0.07,-0.09 0.06,-0.12 0,-0.03 -0.02,-0.07 -0.04,-0.11 0.03,-0.13 -0.6,-0.44 -0.9,-0.61 -0.34,-0.19 -0.56,-0.36 -0.55,-0.53 z"
     id="path82" />
  <path
     class="cls-1"
     d="m 0.02520089,252.73 c -0.17,-0.14 0.53,-1.35 1.80000001,-3.23 0.63,-0.94 1.42,-2.03 2.27,-3.27 0.84,-1.25 1.77,-2.62 2.77,-4.06 3.9600001,-5.78 8.5100001,-12.96 11.6400001,-18.12 0.78,-1.29 1.65,-2.74 2.59,-4.29 0.91,-1.56 1.89,-3.23 2.89,-4.94 1.94,-3.44 3.98,-7.05 5.72,-10.39 3.55,-6.65 6.05,-12.14 6.46,-11.99 0.44,0.15 -1.33,6.01 -4.39,12.98 -1.49,3.5 -3.34,7.27 -5.16,10.83 -0.94,1.77 -1.87,3.49 -2.76,5.09 -0.93,1.59 -1.8,3.07 -2.57,4.39 -1.61,2.6 -3.58,5.71 -5.79,8.81 -0.55,0.78 -1.1,1.56 -1.65,2.34 -0.58,0.76 -1.15,1.53 -1.72,2.29 -1.15,1.51 -2.2600001,3.01 -3.4000001,4.36 -1.13,1.37 -2.2,2.65 -3.18,3.8 -1,1.14 -1.94,2.12 -2.72,2.94 -1.58,1.64 -2.61000001,2.57 -2.78000001,2.43 z"
     id="path84" />
  <path
     class="cls-1"
     d="m 82.735201,291.16 c -0.44,-0.06 -0.3,-4.08 0.21,-9.17 0.5,-5.09 1.35,-11.24 2.1,-15.57 1.48,-8.68 5.41,-25.79 6.31,-25.62 0.86,0.17 -1.64,17.51 -3.11,26.17 -0.75,4.33 -1.96,10.4 -3.03,15.38 -1.08,4.98 -2.03,8.87 -2.47,8.81 z"
     id="path86" />
  <metadata
     id="metadata1157">
    <rdf:RDF>
      <cc:Work
         rdf:about="">
        <dc:title>Wrist Pain</dc:title>
      </cc:Work>
    </rdf:RDF>
  </metadata>
</svg>
